<svg width="131" height="131" viewBox="0 0 131 131" fill="none" xmlns="http://www.w3.org/2000/svg">
<circle cx="65.1189" cy="65.1191" r="44.546" transform="rotate(-45 65.1189 65.1191)" fill="white" stroke="black" stroke-width="3"/>
<path d="M76.0076 38L86 63H84.2553L81.3369 55.549H69.6314L66.7447 63H65L74.9924 38H76.0076ZM70.2024 54.1111H80.7659L75.5 40.549L70.2024 54.1111Z" fill="#111111" style="mix-blend-mode:multiply"/>
<path d="M58.0262 49.7111C59.6399 49.8924 60.8668 50.5608 61.7068 51.7163C62.5689 52.8492 63 54.322 63 56.1346C63 58.3551 62.37 60.0545 61.1099 61.2327C59.872 62.4109 58.2141 63 56.1361 63H44L44 37H55.5724C56.523 37 57.3962 37.1586 58.192 37.4758C58.9878 37.793 59.6731 38.2462 60.2478 38.8353C60.8226 39.4017 61.2647 40.0928 61.5742 40.9085C61.9058 41.7015 62.0716 42.5852 62.0716 43.5595C62.0716 44.2845 61.9942 44.9869 61.8394 45.6667C61.6847 46.3237 61.4415 46.9242 61.1099 47.468C60.7784 48.0118 60.3583 48.4876 59.8499 48.8954C59.3415 49.2806 58.7336 49.5525 58.0262 49.7111ZM45.6579 38.5294V49.0314H55.0087C55.8709 49.0314 56.6335 48.8954 57.2967 48.6235C57.982 48.3516 58.5567 47.9778 59.0209 47.502C59.4852 47.0261 59.8278 46.4597 60.0489 45.8026C60.292 45.1455 60.4136 44.4318 60.4136 43.6614C60.4136 42.1207 59.9494 40.8858 59.0209 39.9569C58.0925 39.0052 56.7551 38.5294 55.0087 38.5294H45.6579ZM55.5724 61.4706C57.363 61.4706 58.7667 61.0061 59.7836 60.0771C60.8226 59.1482 61.3421 57.766 61.3421 55.9307C61.3421 54.0954 60.8226 52.7473 59.7836 51.8863C58.7667 51.0026 57.363 50.5608 55.5724 50.5608H45.6579L45.6579 61.4706H55.5724Z" fill="#111111" style="mix-blend-mode:multiply"/>
<path d="M64 83.1635C63.6841 84.4633 63.2102 85.6583 62.5783 86.7484C61.9675 87.8176 61.1882 88.7505 60.2404 89.5472C59.2926 90.3229 58.1763 90.9308 56.8915 91.3711C55.6277 91.7904 54.1955 92 52.5948 92C50.9098 92 49.3512 91.717 47.919 91.1509C46.5078 90.5639 45.2862 89.7359 44.2541 88.6667C43.2431 87.5765 42.4428 86.2662 41.853 84.7359C41.2843 83.1845 41 81.434 41 79.4843C41 77.5346 41.2843 75.7946 41.853 74.2642C42.4428 72.7128 43.2431 71.4025 44.2541 70.3333C45.2862 69.2642 46.5078 68.4465 47.919 67.8805C49.3512 67.2935 50.9098 67 52.5948 67C54.1955 67 55.6277 67.2306 56.8915 67.6918C58.1552 68.1321 59.2505 68.761 60.1772 69.5786C61.1039 70.3962 61.8727 71.3711 62.4835 72.5031C63.1154 73.6143 63.5788 74.8302 63.8736 76.1509H62.294C61.7253 73.74 60.6195 71.8533 58.9767 70.4906C57.3549 69.1069 55.2276 68.4151 52.5948 68.4151C51.1626 68.4151 49.8356 68.6667 48.614 69.1698C47.4135 69.673 46.3603 70.3962 45.4547 71.3396C44.549 72.283 43.8434 73.4465 43.3379 74.8302C42.8324 76.1929 42.5797 77.7442 42.5797 79.4843C42.5797 81.2243 42.8324 82.7862 43.3379 84.1698C43.8434 85.5325 44.549 86.696 45.4547 87.6604C46.3603 88.6038 47.4135 89.327 48.614 89.8302C49.8356 90.3333 51.1626 90.5849 52.5948 90.5849C53.9006 90.5849 55.0907 90.4172 56.1648 90.0818C57.2601 89.7254 58.2289 89.2222 59.0714 88.5723C59.9139 87.9224 60.609 87.1468 61.1566 86.2453C61.7253 85.3229 62.1465 84.3061 62.4203 83.195L64 83.1635Z" fill="#111111" style="mix-blend-mode:multiply"/>
<path d="M69 65H70.6493V77.0314L84.9653 65H87.3073L72.1667 77.8131L88 91H85.526L70.6493 78.6627V91H69V65Z" fill="#111111" style="mix-blend-mode:multiply"/>
</svg>
