<svg width="1530" height="477" viewBox="0 0 1530 477" fill="none" xmlns="http://www.w3.org/2000/svg">
<path d="M170.657 471.674C123.434 471.674 85.1518 445.12 85.1518 412.363L85.1518 62.3111C85.1518 29.5545 123.434 3.00002 170.657 3.00002C217.88 3.00002 256.162 29.5545 256.162 62.3111V412.363C256.162 445.12 217.88 471.674 170.657 471.674Z" fill="#FDEBE5" fill-opacity="0.5" style="mix-blend-mode:multiply"/>
<path d="M341.667 471.674C294.444 471.674 256.162 445.12 256.162 412.363V62.3111C256.162 29.5545 294.444 3.00001 341.667 3.00001C388.89 3.00001 427.172 29.5545 427.172 62.3111V412.363C427.172 445.12 388.89 471.674 341.667 471.674Z" fill="#FDEBE5" fill-opacity="0.5" style="mix-blend-mode:multiply"/>
<path d="M3.00001 474L3 3.00003C49.2971 3.00003 86.8284 29.0338 86.8284 61.1482L86.8284 415.852C86.8284 447.966 49.2972 474 3.00001 474Z" fill="#FDEBE5" fill-opacity="0.5" style="mix-blend-mode:multiply"/>
<path d="M511 474L511 3C464.703 3 427.172 29.0338 427.172 61.1481V415.852C427.172 447.966 464.703 474 511 474Z" fill="#FDEBE5" fill-opacity="0.5" style="mix-blend-mode:multiply"/>
<path d="M678.657 471.674C631.434 471.674 593.152 445.12 593.152 412.363L593.152 62.3111C593.152 29.5545 631.434 3.00002 678.657 3.00002C725.88 3.00002 764.162 29.5545 764.162 62.3111V412.363C764.162 445.12 725.88 471.674 678.657 471.674Z" fill="#FDEBE5" fill-opacity="0.5" style="mix-blend-mode:multiply"/>
<path d="M849.667 471.674C802.444 471.674 764.162 445.12 764.162 412.363V62.3111C764.162 29.5545 802.444 3.00001 849.667 3.00001C896.89 3.00001 935.172 29.5545 935.172 62.3111V412.363C935.172 445.12 896.89 471.674 849.667 471.674Z" fill="#FDEBE5" fill-opacity="0.5" style="mix-blend-mode:multiply"/>
<path d="M511 474L511 3C557.297 3 594.828 29.0338 594.828 61.1482V415.852C594.828 447.966 557.297 474 511 474Z" fill="#FDEBE5" fill-opacity="0.5" style="mix-blend-mode:multiply"/>
<path d="M1019 474V3C972.703 3 935.172 29.0338 935.172 61.1481V415.852C935.172 447.966 972.703 474 1019 474Z" fill="#FDEBE5" fill-opacity="0.5" style="mix-blend-mode:multiply"/>
<path d="M1186.66 471.674C1139.43 471.674 1101.15 445.12 1101.15 412.363V62.3111C1101.15 29.5545 1139.43 3.00002 1186.66 3.00002C1233.88 3.00002 1272.16 29.5545 1272.16 62.3111V412.363C1272.16 445.12 1233.88 471.674 1186.66 471.674Z" fill="#FDEBE5" fill-opacity="0.5" style="mix-blend-mode:multiply"/>
<path d="M1357.67 471.674C1310.44 471.674 1272.16 445.12 1272.16 412.363V62.3111C1272.16 29.5545 1310.44 3.00001 1357.67 3.00001C1404.89 3.00001 1443.17 29.5545 1443.17 62.3111V412.363C1443.17 445.12 1404.89 471.674 1357.67 471.674Z" fill="#FDEBE5" fill-opacity="0.5" style="mix-blend-mode:multiply"/>
<path d="M1019 474V3C1065.3 3 1102.83 29.0338 1102.83 61.1482V415.852C1102.83 447.966 1065.3 474 1019 474Z" fill="#FDEBE5" fill-opacity="0.5" style="mix-blend-mode:multiply"/>
<path d="M1527 474V3C1480.7 3 1443.17 29.0338 1443.17 61.1481V415.852C1443.17 447.966 1480.7 474 1527 474Z" fill="#FDEBE5" fill-opacity="0.5" style="mix-blend-mode:multiply"/>
<path d="M1.50001 474V475.5H3.00001C26.4157 475.5 47.6797 468.919 63.1306 458.201C74.7064 450.172 83.0846 439.763 86.5559 428.027C90.5896 438.661 98.6191 448.098 109.341 455.535C125.095 466.463 146.778 473.174 170.657 473.174C194.535 473.174 216.219 466.463 231.973 455.535C244.132 447.1 252.829 436.093 256.162 423.686C259.494 436.093 268.191 447.1 280.351 455.535C296.105 466.463 317.788 473.174 341.667 473.174C365.545 473.174 387.228 466.463 402.983 455.535C414.629 447.457 423.098 437.019 426.721 425.251C429.625 438.121 438.389 449.544 450.869 458.201C465.99 468.69 486.677 475.216 509.5 475.491V475.5H511H512.5V475.491C535.323 475.216 556.01 468.69 571.131 458.201C582.706 450.172 591.085 439.763 594.556 428.027C598.59 438.66 606.619 448.098 617.341 455.535C633.095 466.463 654.778 473.174 678.657 473.174C702.535 473.174 724.219 466.463 739.973 455.535C752.132 447.1 760.829 436.093 764.162 423.686C767.494 436.093 776.191 447.1 788.351 455.535C804.105 466.463 825.788 473.174 849.667 473.174C873.545 473.174 895.228 466.463 910.983 455.535C922.629 447.457 931.098 437.019 934.721 425.251C937.625 438.121 946.389 449.544 958.869 458.201C973.99 468.69 994.677 475.216 1017.5 475.491V475.5H1019H1020.5V475.491C1043.32 475.216 1064.01 468.69 1079.13 458.201C1090.71 450.172 1099.08 439.763 1102.56 428.027C1106.59 438.66 1114.62 448.098 1125.34 455.535C1141.09 466.463 1162.78 473.174 1186.66 473.174C1210.54 473.174 1232.22 466.463 1247.97 455.535C1260.13 447.1 1268.83 436.093 1272.16 423.686C1275.49 436.093 1284.19 447.1 1296.35 455.535C1312.1 466.463 1333.79 473.174 1357.67 473.174C1381.55 473.174 1403.23 466.463 1418.98 455.535C1430.63 447.457 1439.1 437.019 1442.72 425.251C1445.62 438.121 1454.39 449.544 1466.87 458.201C1482.32 468.919 1503.58 475.5 1527 475.5H1528.5V474V3V1.5L1527 1.5C1503.58 1.5 1482.32 8.08108 1466.87 18.7987C1454.8 27.1684 1446.21 38.1227 1443.03 50.4714C1439.6 38.2752 1430.97 27.4565 1418.98 19.1393C1403.23 8.21125 1381.55 1.50001 1357.67 1.50001C1333.79 1.50001 1312.1 8.21126 1296.35 19.1393C1284.19 27.5738 1275.49 38.5807 1272.16 50.9881C1268.83 38.5807 1260.13 27.5738 1247.97 19.1393C1232.22 8.21126 1210.54 1.50002 1186.66 1.50002C1162.78 1.50002 1141.09 8.21127 1125.34 19.1393C1114.26 26.8253 1106.06 36.6473 1102.16 47.7186C1098.48 36.4951 1090.29 26.5411 1079.13 18.7987C1064.01 8.31039 1043.32 1.78351 1020.5 1.50901V1.5L1019 1.5L1017.5 1.5V1.50901C994.677 1.78351 973.99 8.31039 958.869 18.7987C946.803 27.1684 938.211 38.1227 935.03 50.4714C931.597 38.2751 922.973 27.4565 910.983 19.1393C895.228 8.21125 873.545 1.50001 849.667 1.50001C825.788 1.50001 804.105 8.21126 788.351 19.1393C776.191 27.5738 767.494 38.5807 764.162 50.9881C760.829 38.5807 752.132 27.5738 739.973 19.1393C724.219 8.21126 702.535 1.50002 678.657 1.50002C654.778 1.50002 633.095 8.21127 617.341 19.1393C606.26 26.8252 598.055 36.6472 594.165 47.7185C590.481 36.495 582.292 26.541 571.131 18.7987C556.01 8.31039 535.323 1.78351 512.5 1.50901V1.5L511 1.5L509.5 1.5V1.50901C486.677 1.78351 465.99 8.31039 450.869 18.7987C438.803 27.1684 430.211 38.1227 427.03 50.4714C423.597 38.2751 414.973 27.4565 402.983 19.1393C387.228 8.21125 365.545 1.50001 341.667 1.50001C317.788 1.50001 296.105 8.21126 280.351 19.1393C268.191 27.5738 259.494 38.5807 256.162 50.9881C252.829 38.5807 244.132 27.5738 231.973 19.1393C216.219 8.21126 194.535 1.50002 170.657 1.50002C146.778 1.50002 125.095 8.21127 109.341 19.1393C98.2604 26.8252 90.0554 36.6472 86.1645 47.7185C82.4809 36.495 74.2922 26.5411 63.1306 18.7987C47.6797 8.0811 26.4157 1.50003 3 1.50003L1.5 1.50003V3.00003L1.50001 474Z" stroke="black" stroke-opacity="0.5" stroke-width="3"/>
</svg>
