<svg width="131" height="131" viewBox="0 0 131 131" fill="none" xmlns="http://www.w3.org/2000/svg">
<path d="M32.5595 32.5592C14.5774 50.5413 14.5774 79.696 32.5595 97.6781C50.5415 115.66 79.6963 115.66 97.6783 97.6781C115.66 79.696 115.66 50.5413 97.6783 32.5592C79.6963 14.5771 50.5415 14.5771 32.5595 32.5592Z" fill="white"/>
<path fill-rule="evenodd" clip-rule="evenodd" d="M34.6808 95.5568C17.8703 78.7463 17.8703 51.491 34.6808 34.6805C51.4913 17.87 78.7465 17.87 95.557 34.6805C112.368 51.491 112.368 78.7463 95.557 95.5568C78.7465 112.367 51.4913 112.367 34.6808 95.5568ZM32.5595 97.6781C14.5774 79.696 14.5774 50.5413 32.5595 32.5592C50.5415 14.5771 79.6963 14.5771 97.6783 32.5592C115.66 50.5413 115.66 79.696 97.6783 97.6781C79.6963 115.66 50.5415 115.66 32.5595 97.6781Z" fill="black"/>
<path fill-rule="evenodd" clip-rule="evenodd" d="M77.9371 82.7961L93.847 66.8862C94.8233 65.9099 94.8233 64.327 93.847 63.3507L77.9371 47.4408C76.9607 46.4644 75.3778 46.4644 74.4015 47.4408C73.4252 48.4171 73.4252 50 74.4015 50.9763L86.0437 62.6184H36.5V67.6184H86.0437L74.4015 79.2606C73.4252 80.2369 73.4252 81.8198 74.4015 82.7961C75.3778 83.7724 76.9607 83.7724 77.9371 82.7961Z" fill="black"/>
</svg>
