<svg width="131" height="131" viewBox="0 0 131 131" fill="none" xmlns="http://www.w3.org/2000/svg">
<path d="M97.6783 32.5592C115.66 50.5413 115.66 79.696 97.6783 97.6781C79.6963 115.66 50.5415 115.66 32.5594 97.6781C14.5774 79.696 14.5774 50.5413 32.5594 32.5592C50.5415 14.5771 79.6963 14.5771 97.6783 32.5592Z" fill="white"/>
<path fill-rule="evenodd" clip-rule="evenodd" d="M95.557 95.5568C112.368 78.7463 112.368 51.491 95.557 34.6805C78.7465 17.87 51.4913 17.87 34.6808 34.6805C17.8703 51.491 17.8703 78.7463 34.6808 95.5568C51.4913 112.367 78.7465 112.367 95.557 95.5568ZM97.6783 97.6781C115.66 79.696 115.66 50.5413 97.6783 32.5592C79.6963 14.5771 50.5415 14.5771 32.5594 32.5592C14.5774 50.5413 14.5774 79.696 32.5594 97.6781C50.5415 115.66 79.6963 115.66 97.6783 97.6781Z" fill="black"/>
<path fill-rule="evenodd" clip-rule="evenodd" d="M52.3007 82.7961L36.3908 66.8862C35.4145 65.9099 35.4145 64.327 36.3908 63.3507L52.3007 47.4408C53.277 46.4644 54.86 46.4644 55.8363 47.4408C56.8126 48.4171 56.8126 50 55.8363 50.9763L44.1941 62.6184H93.7378V67.6184H44.1941L55.8363 79.2606C56.8126 80.2369 56.8126 81.8198 55.8363 82.7961C54.86 83.7724 53.277 83.7724 52.3007 82.7961Z" fill="black"/>
</svg>
