<svg width="303" height="151" viewBox="0 0 303 151" fill="none" xmlns="http://www.w3.org/2000/svg">
<path d="M234.942 0.499997C259.265 0.499998 280.059 18.0033 284.209 41.9698L303 150.5L-1.56166e-05 150.5L32.8576 36.6371C39.0335 15.2353 58.6222 0.499989 80.8973 0.49999L234.942 0.499997Z" fill="#FFA9A9"/>
<path d="M88.486 24.5L235.145 30.2027L235.145 95.4272L73.0835 80.4576L88.486 24.5Z" fill="#222222"/>
<path d="M69.1298 97.8556L237.149 72.8095L248.697 109.026L57.0745 126.634L69.1298 97.8556Z" fill="#222222"/>
<path d="M98.5934 71.8692L100.357 65.0298L110.973 65.0298L112.774 71.8692L118.438 71.8692L108.835 38.4744L102.532 38.4744L92.9287 71.8692L98.5934 71.8692ZM109.623 59.7947L101.707 59.7947L105.684 44.5961L109.623 59.7947Z" fill="white"/>
<path d="M133.191 71.8692C139.53 71.8692 142.607 68.534 142.607 62.2856C142.607 58.3593 140.656 55.3618 137.43 54.4752C140.093 53.462 141.744 51.0555 141.744 47.5091C141.744 41.5141 138.593 38.4744 132.403 38.4744L121.186 38.4744L121.186 71.8692L133.191 71.8692ZM137.092 61.9901C137.092 65.3676 135.479 66.5919 132.103 66.5919L126.701 66.5919L126.701 57.3461L132.103 57.3461C135.479 57.3461 137.092 58.6126 137.092 61.9901ZM136.267 47.9313C136.267 51.1399 134.541 52.111 131.39 52.111L126.701 52.111L126.701 43.7517L131.39 43.7517C134.541 43.7517 136.267 44.7227 136.267 47.9313Z" fill="white"/>
<path d="M165.675 55.1507C165.675 47.7624 164.625 43.625 162.486 40.923C160.873 38.9388 158.547 37.8833 155.621 37.8833C152.657 37.8833 150.332 38.9388 148.718 40.923C146.58 43.625 145.53 47.7624 145.53 55.1507C145.53 62.6234 146.58 66.7608 148.718 69.4206C150.332 71.4471 152.657 72.4603 155.621 72.4603C158.547 72.4603 160.873 71.4471 162.486 69.4206C164.625 66.7608 165.675 62.6234 165.675 55.1507ZM160.348 55.1507C160.348 61.1457 159.973 64.0588 158.885 65.7053C158.06 66.8875 157.009 67.4363 155.621 67.4363C154.196 67.4363 153.145 66.8875 152.357 65.7053C151.232 64.0588 150.857 61.1457 150.857 55.1507C150.857 49.2401 151.232 46.327 152.357 44.6383C153.145 43.4984 154.196 42.9495 155.621 42.9495C157.009 42.9495 158.06 43.4984 158.885 44.6383C159.973 46.327 160.348 49.2401 160.348 55.1507Z" fill="white"/>
<path d="M180.719 72.4603C188.222 72.4603 191.898 67.3096 191.898 59.5414L191.898 38.4744L186.421 38.4744L186.421 58.9081C186.421 64.3966 184.658 67.183 180.719 67.183C176.818 67.183 175.054 64.3966 175.054 58.9081L175.054 38.4744L169.54 38.4744L169.54 59.5414C169.54 67.3096 173.254 72.4603 180.719 72.4603Z" fill="white"/>
<path d="M194.668 43.7517L202.696 43.7517L202.696 71.8692L208.211 71.8692L208.211 43.7517L216.239 43.7517L216.239 38.4744L194.668 38.4744L194.668 43.7517Z" fill="white"/>
<path d="M77.3854 113.543C80.9244 113.122 82.7273 110.907 82.3114 107.411C81.8981 103.936 79.6233 102.184 76.0843 102.605L69.2423 103.418L71.2603 120.384L74.7778 119.966L74.0609 113.939L77.3854 113.543ZM73.7114 111L73.1093 105.938L75.9619 105.599C77.6349 105.4 78.5735 106.159 78.7725 107.832C78.9714 109.505 78.237 110.462 76.564 110.661L73.7114 111Z" fill="white"/>
<path d="M95.7969 108.852C95.3632 105.206 94.5315 103.151 93.1645 101.9C92.1147 100.937 90.6782 100.564 88.898 100.776C87.1178 100.988 85.8089 101.687 85.0142 102.869C83.9574 104.409 83.6523 106.599 84.086 110.245C84.5223 113.912 85.3325 115.97 86.7209 117.218C87.7708 118.181 89.2072 118.554 90.9874 118.342C92.7677 118.13 94.0766 117.431 94.8713 116.249C95.9066 114.712 96.2331 112.52 95.7969 108.852ZM87.5178 109.837C87.1785 106.984 87.174 105.484 87.6347 104.602C87.9734 103.975 88.479 103.654 89.2297 103.564C89.9589 103.477 90.5257 103.671 91.0236 104.199C91.6782 104.948 92.0258 106.407 92.3651 109.26C92.707 112.134 92.7114 113.634 92.2507 114.516C91.8906 115.146 91.385 115.467 90.6558 115.554C89.9051 115.643 89.3383 115.45 88.8619 114.919C88.2073 114.17 87.8596 112.711 87.5178 109.837Z" fill="white"/>
<path d="M110.254 110.808C109.92 107.999 108.112 106.517 105.081 106.268L103.214 106.121C101.543 105.971 100.743 105.458 100.602 104.278C100.464 103.12 101.164 102.232 102.665 102.053C104.145 101.877 105.054 102.574 105.192 103.732L105.223 103.989L108.74 103.571L108.71 103.314C108.401 100.718 106.098 98.7301 102.323 99.1791C98.5483 99.6281 96.7735 102.08 97.0949 104.782C97.4342 107.635 99.3552 108.972 102.274 109.191L104.141 109.339C105.766 109.471 106.59 110.178 106.728 111.337C106.883 112.645 106.025 113.661 104.416 113.852C102.786 114.046 101.714 113.26 101.558 111.951L101.515 111.587L97.9976 112.005L98.0358 112.327C98.3904 115.308 100.895 117.164 104.756 116.704C108.659 116.24 110.611 113.811 110.254 110.808Z" fill="white"/>
<path d="M123.868 109.189C123.534 106.379 121.727 104.898 118.695 104.649L116.829 104.501C115.158 104.352 114.357 103.838 114.217 102.659C114.079 101.5 114.778 100.612 116.28 100.434C117.76 100.258 118.669 100.954 118.807 102.113L118.838 102.37L122.355 101.952L122.324 101.694C122.016 99.0989 119.713 97.1107 115.938 97.5597C112.163 98.0087 110.388 100.46 110.71 103.163C111.049 106.015 112.97 107.353 115.889 107.571L117.755 107.719C119.381 107.852 120.204 108.559 120.342 109.717C120.498 111.025 119.64 112.041 118.031 112.232C116.401 112.426 115.329 111.64 115.173 110.332L115.13 109.967L111.612 110.386L111.651 110.707C112.005 113.689 114.51 115.544 118.371 115.085C122.274 114.621 124.226 112.192 123.868 109.189Z" fill="white"/>
<path d="M127.889 96.4427L124.371 96.8611L126.389 113.827L129.907 113.408L127.889 96.4427Z" fill="white"/>
<path d="M139.285 112.293C142.974 111.854 144.639 109.938 144.259 106.742C144.024 104.769 142.733 103.421 140.872 103.142C142.334 102.446 143.092 101.138 142.88 99.3579C142.518 96.3123 140.506 94.9419 136.903 95.3705L130.382 96.1461L132.4 113.112L139.285 112.293ZM140.697 106.97C140.888 108.578 140.147 109.297 138.41 109.504L135.6 109.838L135.072 105.398L137.882 105.064C139.619 104.858 140.505 105.361 140.697 106.97ZM139.433 100.007C139.615 101.53 138.813 102.104 137.161 102.3L134.738 102.589L134.263 98.5992L136.687 98.3109C138.338 98.1145 139.255 98.5058 139.433 100.007Z" fill="white"/>
<path d="M162.029 100.909C162.08 101.881 162.061 102.819 161.906 103.533L157.054 99.1294C156.127 98.2826 155.793 97.6698 155.709 96.962C155.604 96.0826 156.057 95.5066 156.937 95.402C157.838 95.2948 158.392 95.7509 158.497 96.6303L158.563 97.188L161.888 96.7925L161.814 96.1705C161.518 93.6825 159.406 92.3893 156.618 92.7209C153.83 93.0526 152.08 94.805 152.376 97.2931C152.529 98.58 153.173 99.7867 154.551 100.95C152.706 102.257 151.935 104.002 152.172 105.996C152.531 109.021 154.997 110.729 158.514 110.31C160.316 110.096 161.78 109.421 162.735 108.307L163.905 109.364L167.873 108.892L164.582 105.912C165.226 104.378 165.486 102.542 165.332 100.516L162.029 100.909ZM155.534 105.553C155.414 104.545 155.717 103.617 156.577 102.797L160.617 106.406C160.109 107.075 159.306 107.454 158.34 107.568C156.946 107.734 155.723 107.14 155.534 105.553Z" fill="white"/>
<path d="M186.664 101.72C186.329 98.91 184.522 97.4283 181.491 97.1798L179.624 97.0321C177.953 96.8828 177.152 96.369 177.012 95.1893C176.874 94.0311 177.574 93.1431 179.075 92.9645C180.555 92.7885 181.464 93.4851 181.602 94.6433L181.633 94.9007L185.15 94.4823L185.12 94.225C184.811 91.6297 182.508 89.6414 178.733 90.0904C174.958 90.5394 173.183 92.991 173.505 95.6935C173.844 98.5461 175.765 99.8838 178.684 100.102L180.551 100.25C182.176 100.383 183 101.09 183.137 102.248C183.293 103.556 182.435 104.572 180.826 104.763C179.196 104.957 178.124 104.171 177.968 102.863L177.925 102.498L174.407 102.917L174.446 103.238C174.8 106.22 177.305 108.075 181.166 107.616C185.069 107.152 187.021 104.722 186.664 101.72Z" fill="white"/>
<path d="M199.778 87.8917L195.939 88.3484L192.994 95.594L191.493 95.7726L190.684 88.9734L187.167 89.3918L189.185 106.358L192.702 105.939L191.842 98.711L193.344 98.5324L198.557 105.243L202.44 104.781L196.02 96.7132L199.778 87.8917Z" fill="white"/>
<path d="M205.158 87.2519L201.64 87.6703L203.658 104.636L207.176 104.218L205.158 87.2519Z" fill="white"/>
<path d="M209.69 103.918L220.329 102.653L219.979 99.7146L212.858 100.562L211.19 86.5344L207.672 86.9528L209.69 103.918Z" fill="white"/>
<path d="M221.902 102.466L232.54 101.201L232.191 98.2621L225.07 99.1091L223.401 85.0819L219.884 85.5003L221.902 102.466Z" fill="white"/>
</svg>
