<svg width="303" height="150" viewBox="0 0 303 150" fill="none" xmlns="http://www.w3.org/2000/svg">
<path d="M234.942 -2.97492e-06C259.265 -1.91173e-06 280.059 17.5033 284.209 41.4698L303 150L-1.56166e-05 150L32.8576 36.1371C39.0335 14.7353 58.6222 -1.06821e-05 80.8973 -9.70842e-06L234.942 -2.97492e-06Z" fill="#FFA9A9"/>
<path d="M88.486 24L235.145 29.7027L235.145 94.9272L73.0835 79.9576L88.486 24Z" fill="#A9B1FF"/>
<path d="M69.1298 97.3556L237.149 72.3095L248.697 108.526L57.0745 126.134L69.1298 97.3556Z" fill="#4760E2"/>
<path d="M98.5934 71.3692L100.357 64.5298L110.973 64.5298L112.774 71.3692L118.438 71.3692L108.835 37.9744L102.532 37.9744L92.9287 71.3692L98.5934 71.3692ZM109.623 59.2947L101.707 59.2947L105.684 44.0961L109.623 59.2947Z" fill="black"/>
<path d="M133.191 71.3692C139.53 71.3692 142.607 68.034 142.607 61.7856C142.607 57.8593 140.656 54.8618 137.43 53.9752C140.093 52.962 141.744 50.5555 141.744 47.0091C141.744 41.0141 138.593 37.9744 132.403 37.9744L121.186 37.9744L121.186 71.3692L133.191 71.3692ZM137.092 61.4901C137.092 64.8676 135.479 66.0919 132.103 66.0919L126.701 66.0919L126.701 56.8461L132.103 56.8461C135.479 56.8461 137.092 58.1126 137.092 61.4901ZM136.267 47.4313C136.267 50.6399 134.541 51.611 131.39 51.611L126.701 51.611L126.701 43.2517L131.39 43.2517C134.541 43.2517 136.267 44.2227 136.267 47.4313Z" fill="black"/>
<path d="M165.675 54.6507C165.675 47.2624 164.625 43.125 162.486 40.423C160.873 38.4388 158.547 37.3833 155.621 37.3833C152.657 37.3833 150.332 38.4388 148.718 40.423C146.58 43.125 145.53 47.2624 145.53 54.6507C145.53 62.1234 146.58 66.2608 148.718 68.9206C150.332 70.9471 152.657 71.9603 155.621 71.9603C158.547 71.9603 160.873 70.9471 162.486 68.9206C164.625 66.2608 165.675 62.1234 165.675 54.6507ZM160.348 54.6507C160.348 60.6457 159.973 63.5588 158.885 65.2053C158.06 66.3875 157.009 66.9363 155.621 66.9363C154.196 66.9363 153.145 66.3875 152.357 65.2053C151.232 63.5588 150.857 60.6457 150.857 54.6507C150.857 48.7401 151.232 45.827 152.357 44.1383C153.145 42.9984 154.196 42.4495 155.621 42.4495C157.009 42.4495 158.06 42.9984 158.885 44.1383C159.973 45.827 160.348 48.7401 160.348 54.6507Z" fill="black"/>
<path d="M180.719 71.9603C188.222 71.9603 191.898 66.8096 191.898 59.0414L191.898 37.9744L186.421 37.9744L186.421 58.4081C186.421 63.8966 184.658 66.683 180.719 66.683C176.818 66.683 175.054 63.8966 175.054 58.4081L175.054 37.9744L169.54 37.9744L169.54 59.0414C169.54 66.8096 173.254 71.9603 180.719 71.9603Z" fill="black"/>
<path d="M194.668 43.2517L202.696 43.2517L202.696 71.3692L208.211 71.3692L208.211 43.2517L216.239 43.2517L216.239 37.9744L194.668 37.9744L194.668 43.2517Z" fill="black"/>
<path d="M77.3854 113.043C80.9244 112.622 82.7273 110.407 82.3114 106.911C81.8981 103.436 79.6233 101.684 76.0843 102.105L69.2423 102.918L71.2603 119.884L74.7778 119.466L74.0609 113.439L77.3854 113.043ZM73.7114 110.5L73.1093 105.438L75.9619 105.099C77.6349 104.9 78.5735 105.659 78.7725 107.332C78.9714 109.005 78.237 109.962 76.564 110.161L73.7114 110.5Z" fill="white"/>
<path d="M95.7969 108.352C95.3632 104.706 94.5315 102.651 93.1645 101.4C92.1147 100.437 90.6782 100.064 88.898 100.276C87.1178 100.488 85.8089 101.187 85.0142 102.369C83.9574 103.909 83.6523 106.099 84.086 109.745C84.5223 113.412 85.3325 115.47 86.7209 116.718C87.7708 117.681 89.2072 118.054 90.9874 117.842C92.7677 117.63 94.0766 116.931 94.8713 115.749C95.9066 114.212 96.2331 112.02 95.7969 108.352ZM87.5178 109.337C87.1785 106.484 87.174 104.984 87.6347 104.102C87.9734 103.475 88.479 103.154 89.2297 103.064C89.9589 102.977 90.5257 103.171 91.0236 103.699C91.6782 104.448 92.0258 105.907 92.3651 108.76C92.707 111.634 92.7114 113.134 92.2507 114.016C91.8906 114.646 91.385 114.967 90.6558 115.054C89.9051 115.143 89.3383 114.95 88.8619 114.419C88.2073 113.67 87.8596 112.211 87.5178 109.337Z" fill="white"/>
<path d="M110.254 110.308C109.92 107.499 108.112 106.017 105.081 105.768L103.214 105.621C101.543 105.471 100.743 104.958 100.602 103.778C100.464 102.62 101.164 101.732 102.665 101.553C104.145 101.377 105.054 102.074 105.192 103.232L105.223 103.489L108.74 103.071L108.71 102.814C108.401 100.218 106.098 98.2301 102.323 98.6791C98.5483 99.1281 96.7735 101.58 97.0949 104.282C97.4342 107.135 99.3552 108.472 102.274 108.691L104.141 108.839C105.766 108.971 106.59 109.678 106.728 110.837C106.883 112.145 106.025 113.161 104.416 113.352C102.786 113.546 101.714 112.76 101.558 111.451L101.515 111.087L97.9976 111.505L98.0358 111.827C98.3904 114.808 100.895 116.664 104.756 116.204C108.659 115.74 110.611 113.311 110.254 110.308Z" fill="white"/>
<path d="M123.868 108.689C123.534 105.879 121.727 104.398 118.695 104.149L116.829 104.001C115.158 103.852 114.357 103.338 114.217 102.159C114.079 101 114.778 100.112 116.28 99.9337C117.76 99.7577 118.669 100.454 118.807 101.613L118.838 101.87L122.355 101.452L122.324 101.194C122.016 98.5989 119.713 96.6107 115.938 97.0597C112.163 97.5087 110.388 99.9602 110.71 102.663C111.049 105.515 112.97 106.853 115.889 107.071L117.755 107.219C119.381 107.352 120.204 108.059 120.342 109.217C120.498 110.525 119.64 111.541 118.031 111.732C116.401 111.926 115.329 111.14 115.173 109.832L115.13 109.467L111.612 109.886L111.651 110.207C112.005 113.189 114.51 115.044 118.371 114.585C122.274 114.121 124.226 111.692 123.868 108.689Z" fill="white"/>
<path d="M127.889 95.9427L124.371 96.3611L126.389 113.327L129.907 112.908L127.889 95.9427Z" fill="white"/>
<path d="M139.285 111.793C142.974 111.354 144.639 109.438 144.259 106.242C144.024 104.269 142.733 102.921 140.872 102.642C142.334 101.946 143.092 100.638 142.88 98.8579C142.518 95.8123 140.506 94.4419 136.903 94.8705L130.382 95.6461L132.4 112.612L139.285 111.793ZM140.697 106.47C140.888 108.078 140.147 108.797 138.41 109.004L135.6 109.338L135.072 104.898L137.882 104.564C139.619 104.358 140.505 104.861 140.697 106.47ZM139.433 99.5072C139.615 101.03 138.813 101.604 137.161 101.8L134.738 102.089L134.263 98.0992L136.687 97.8109C138.338 97.6145 139.255 98.0058 139.433 99.5072Z" fill="white"/>
<path d="M162.029 100.409C162.08 101.381 162.061 102.319 161.906 103.033L157.054 98.6294C156.127 97.7826 155.793 97.1698 155.709 96.462C155.604 95.5826 156.057 95.0066 156.937 94.902C157.838 94.7948 158.392 95.2509 158.497 96.1303L158.563 96.688L161.888 96.2925L161.814 95.6705C161.518 93.1825 159.406 91.8893 156.618 92.2209C153.83 92.5526 152.08 94.305 152.376 96.7931C152.529 98.08 153.173 99.2867 154.551 100.45C152.706 101.757 151.935 103.502 152.172 105.496C152.531 108.521 154.997 110.229 158.514 109.81C160.316 109.596 161.78 108.921 162.735 107.807L163.905 108.864L167.873 108.392L164.582 105.412C165.226 103.878 165.486 102.042 165.332 100.016L162.029 100.409ZM155.534 105.053C155.414 104.045 155.717 103.117 156.577 102.297L160.617 105.906C160.109 106.575 159.306 106.954 158.34 107.068C156.946 107.234 155.723 106.64 155.534 105.053Z" fill="white"/>
<path d="M186.664 101.22C186.329 98.41 184.522 96.9283 181.491 96.6798L179.624 96.5321C177.953 96.3828 177.152 95.869 177.012 94.6893C176.874 93.5311 177.574 92.6431 179.075 92.4645C180.555 92.2885 181.464 92.9851 181.602 94.1433L181.633 94.4007L185.15 93.9823L185.12 93.725C184.811 91.1297 182.508 89.1414 178.733 89.5904C174.958 90.0394 173.183 92.491 173.505 95.1935C173.844 98.0461 175.765 99.3838 178.684 99.6021L180.551 99.7499C182.176 99.8828 183 100.59 183.137 101.748C183.293 103.056 182.435 104.072 180.826 104.263C179.196 104.457 178.124 103.671 177.968 102.363L177.925 101.998L174.407 102.417L174.446 102.738C174.8 105.72 177.305 107.575 181.166 107.116C185.069 106.652 187.021 104.222 186.664 101.22Z" fill="white"/>
<path d="M199.778 87.3917L195.939 87.8484L192.994 95.094L191.493 95.2726L190.684 88.4734L187.167 88.8918L189.185 105.858L192.702 105.439L191.842 98.211L193.344 98.0324L198.557 104.743L202.44 104.281L196.02 96.2132L199.778 87.3917Z" fill="white"/>
<path d="M205.158 86.7519L201.64 87.1703L203.658 104.136L207.176 103.718L205.158 86.7519Z" fill="white"/>
<path d="M209.69 103.418L220.329 102.153L219.979 99.2146L212.858 100.062L211.19 86.0344L207.672 86.4528L209.69 103.418Z" fill="white"/>
<path d="M221.902 101.966L232.54 100.701L232.191 97.7621L225.07 98.6091L223.401 84.5819L219.884 85.0003L221.902 101.966Z" fill="white"/>
</svg>
