<?xml version="1.0" encoding="utf-8"?>
<!-- Generator: Adobe Illustrator 23.1.0, SVG Export Plug-In . SVG Version: 6.00 Build 0)  -->
<svg version="1.1" id="Layer_1" xmlns="http://www.w3.org/2000/svg" xmlns:xlink="http://www.w3.org/1999/xlink" x="0px" y="0px"
	 viewBox="0 0 154 154" style="enable-background:new 0 0 154 154;" xml:space="preserve">
<style type="text/css">
	.st0{fill:#FFFFFF;stroke:#000000;}
	.st1{fill:#FF5353;}
</style>
<circle class="st0" cx="77" cy="77" r="76.5"/>
<path class="st1" d="M54,56c1.1,0,2-0.9,2-2V36c0-1.1-0.9-2-2-2s-2,0.9-2,2v16H36c-1.1,0-2,0.9-2,2s0.9,2,2,2H54z M23.6,26.4l29,29
	l2.8-2.8l-29-29L23.6,26.4z"/>
<path class="st1" d="M55,97c1.1,0,2,0.9,2,2v18c0,1.1-0.9,2-2,2s-2-0.9-2-2v-16H37c-1.1,0-2-0.9-2-2s0.9-2,2-2H55z M24.6,126.6
	l29-29l2.8,2.8l-29,29L24.6,126.6z"/>
<path class="st1" d="M99,56c-1.1,0-2-0.9-2-2V36c0-1.1,0.9-2,2-2s2,0.9,2,2v16h16c1.1,0,2,0.9,2,2s-0.9,2-2,2H99z M129.4,26.4
	l-29,29l-2.8-2.8l29-29L129.4,26.4z"/>
<path class="st1" d="M100,97c-1.1,0-2,0.9-2,2v18c0,1.1,0.9,2,2,2s2-0.9,2-2v-16h16c1.1,0,2-0.9,2-2s-0.9-2-2-2H100z M130.4,126.6
	l-29-29l-2.8,2.8l29,29L130.4,126.6z"/>
</svg>
