<svg width="154" height="154" viewBox="0 0 154 154" fill="none" xmlns="http://www.w3.org/2000/svg">
<circle cx="77" cy="77" r="76.5" fill="white" stroke="black"/>
<path d="M64 66C65.1046 66 66 65.1046 66 64V46C66 44.8954 65.1046 44 64 44C62.8954 44 62 44.8954 62 46V62H46C44.8954 62 44 62.8954 44 64C44 65.1046 44.8954 66 46 66H64ZM33.5858 36.4142L62.5858 65.4142L65.4142 62.5858L36.4142 33.5858L33.5858 36.4142Z" fill="#FF5353"/>
<path d="M65 87C66.1046 87 67 87.8954 67 89V107C67 108.105 66.1046 109 65 109C63.8954 109 63 108.105 63 107V91H47C45.8954 91 45 90.1046 45 89C45 87.8954 45.8954 87 47 87H65ZM34.5858 116.586L63.5858 87.5858L66.4142 90.4142L37.4142 119.414L34.5858 116.586Z" fill="#FF5353"/>
<path d="M89 66C87.8954 66 87 65.1046 87 64V46C87 44.8954 87.8954 44 89 44C90.1046 44 91 44.8954 91 46V62H107C108.105 62 109 62.8954 109 64C109 65.1046 108.105 66 107 66H89ZM119.414 36.4142L90.4142 65.4142L87.5858 62.5858L116.586 33.5858L119.414 36.4142Z" fill="#FF5353"/>
<path d="M90 87C88.8954 87 88 87.8954 88 89V107C88 108.105 88.8954 109 90 109C91.1046 109 92 108.105 92 107V91H108C109.105 91 110 90.1046 110 89C110 87.8954 109.105 87 108 87H90ZM120.414 116.586L91.4142 87.5858L88.5858 90.4142L117.586 119.414L120.414 116.586Z" fill="#FF5353"/>
</svg>
