<svg width="303" height="151" viewBox="0 0 303 151" fill="none" xmlns="http://www.w3.org/2000/svg">
<path d="M3.3 75.8C3.3 81.35 3.95 86.75 6.85 90.8C9.35 94.25 13.2 96.3 19 96.3C28.3 96.3 33.85 90.65 34.25 82.3L26.95 82.3C26.7 87.1 23.9 90.05 19 90.05C16.1 90.05 14.05 88.95 12.75 87.05C11.3 84.85 10.6 81.85 10.6 75.8C10.6 69.85 11.3 66.8 12.75 64.65C14.05 62.75 16.1 61.65 19 61.65C23.9 61.65 26.7 64.6 26.95 69.4L34.25 69.4C33.85 61.05 28.3 55.35 19 55.35C13.2 55.35 9.35 57.45 6.85 60.9C3.95 64.95 3.3 70.3 3.3 75.8ZM65.3027 75.8C65.3027 67.05 63.9027 62.15 61.0527 58.95C58.9027 56.6 55.8027 55.35 51.9027 55.35C47.9527 55.35 44.8527 56.6 42.7027 58.95C39.8527 62.15 38.4527 67.05 38.4527 75.8C38.4527 84.65 39.8527 89.55 42.7027 92.7C44.8527 95.1 47.9527 96.3 51.9027 96.3C55.8027 96.3 58.9027 95.1 61.0527 92.7C63.9027 89.55 65.3027 84.65 65.3027 75.8ZM58.2027 75.8C58.2027 82.9 57.7027 86.35 56.2527 88.3C55.1527 89.7 53.7527 90.35 51.9027 90.35C50.0027 90.35 48.6027 89.7 47.5527 88.3C46.0527 86.35 45.5527 82.9 45.5527 75.8C45.5527 68.8 46.0527 65.35 47.5527 63.35C48.6027 62 50.0027 61.35 51.9027 61.35C53.7527 61.35 55.1527 62 56.2527 63.35C57.7027 65.35 58.2027 68.8 58.2027 75.8ZM91.8539 95.6L99.3539 95.6L99.3539 56.05L92.1039 56.05L92.1039 82.95L78.2039 56.05L70.7039 56.05L70.7039 95.6L77.9539 95.6L77.9539 68.75L91.8539 95.6ZM103.263 62.3L113.963 62.3L113.963 95.6H121.313L121.313 62.3L132.013 62.3L132.013 56.05L103.263 56.05L103.263 62.3ZM137.955 95.6L140.305 87.5L154.455 87.5L156.855 95.6L164.405 95.6L151.605 56.05L143.205 56.05L130.405 95.6H137.955ZM152.655 81.3L142.105 81.3L147.405 63.3L152.655 81.3ZM166.435 75.8C166.435 81.35 167.085 86.75 169.985 90.8C172.485 94.25 176.335 96.3 182.135 96.3C191.435 96.3 196.985 90.65 197.385 82.3L190.085 82.3C189.835 87.1 187.035 90.05 182.135 90.05C179.235 90.05 177.185 88.95 175.885 87.05C174.435 84.85 173.735 81.85 173.735 75.8C173.735 69.85 174.435 66.8 175.885 64.65C177.185 62.75 179.235 61.65 182.135 61.65C187.035 61.65 189.835 64.6 190.085 69.4L197.385 69.4C196.985 61.05 191.435 55.35 182.135 55.35C176.335 55.35 172.485 57.45 169.985 60.9C167.085 64.95 166.435 70.3 166.435 75.8ZM199.405 62.3L210.105 62.3L210.105 95.6L217.455 95.6L217.455 62.3L228.155 62.3L228.155 56.05L199.405 56.05L199.405 62.3Z" fill="white"/>
<path d="M231.79 0.499997C255.588 0.499998 276.088 17.2732 280.8 40.6L303 150.5L-3.69569e-06 150.5L6.75454e-07 50.5C1.88251e-06 22.8857 22.3858 0.499988 50 0.499989L231.79 0.499997Z" fill="#FF5353"/>
<path d="M26.9302 25.5L209.61 39.3604L242.245 93.0497L46.0492 77.7948L26.9302 25.5Z" fill="#222222"/>
<path d="M45.9852 87.139L249 91.3911L234.294 126.824L31.9966 119.738L45.9852 87.139Z" fill="#222222"/>
<path d="M44.9155 56.9951C44.9155 61.6813 45.4644 66.2409 47.913 69.6606C50.024 72.5737 53.2748 74.3047 58.1722 74.3047C66.0248 74.3047 70.7111 69.534 71.0488 62.4835H64.8849C64.6738 66.5365 62.3096 69.0273 58.1722 69.0273C55.7235 69.0273 53.9925 68.0985 52.8948 66.4942C51.6705 64.6366 51.0794 62.1035 51.0794 56.9951C51.0794 51.971 51.6705 49.3957 52.8948 47.5803C53.9925 45.976 55.7235 45.0472 58.1722 45.0472C62.3096 45.0472 64.6738 47.5381 64.8849 51.5911H71.0488C70.7111 44.5406 66.0248 39.7277 58.1722 39.7277C53.2748 39.7277 50.024 41.5008 47.913 44.4139C45.4644 47.8336 44.9155 52.351 44.9155 56.9951Z" fill="white"/>
<path d="M97.2689 56.9951C97.2689 49.6068 96.0867 45.4694 93.6803 42.7674C91.8649 40.7831 89.2473 39.7277 85.9543 39.7277C82.619 39.7277 80.0015 40.7831 78.1861 42.7674C75.7796 45.4694 74.5975 49.6068 74.5975 56.9951C74.5975 64.4677 75.7796 68.6052 78.1861 71.2649C80.0015 73.2914 82.619 74.3047 85.9543 74.3047C89.2473 74.3047 91.8649 73.2914 93.6803 71.2649C96.0867 68.6052 97.2689 64.4677 97.2689 56.9951ZM91.2738 56.9951C91.2738 62.9901 90.8516 65.9032 89.6273 67.5497C88.6985 68.7318 87.5164 69.2807 85.9543 69.2807C84.35 69.2807 83.1679 68.7318 82.2813 67.5497C81.0147 65.9032 80.5925 62.9901 80.5925 56.9951C80.5925 51.0845 81.0147 48.1714 82.2813 46.4826C83.1679 45.3427 84.35 44.7939 85.9543 44.7939C87.5164 44.7939 88.6985 45.3427 89.6273 46.4826C90.8516 48.1714 91.2738 51.0845 91.2738 56.9951Z" fill="white"/>
<path d="M119.688 73.7136H126.021V40.3187H119.899V63.0323L108.162 40.3187H101.829V73.7136H107.951V51.0422L119.688 73.7136Z" fill="white"/>
<path d="M129.321 45.596H138.356V73.7136H144.562V45.596H153.597V40.3187H129.321V45.596Z" fill="white"/>
<path d="M158.614 73.7136L160.599 66.8742H172.547L174.573 73.7136H180.948L170.14 40.3187H163.047L152.239 73.7136H158.614ZM171.027 61.6391H162.119L166.594 46.4404L171.027 61.6391Z" fill="white"/>
<path d="M182.662 56.9951C182.662 61.6813 183.211 66.2409 185.659 69.6606C187.77 72.5737 191.021 74.3047 195.918 74.3047C203.771 74.3047 208.457 69.534 208.795 62.4835H202.631C202.42 66.5365 200.056 69.0273 195.918 69.0273C193.47 69.0273 191.739 68.0985 190.641 66.4942C189.417 64.6366 188.826 62.1035 188.826 56.9951C188.826 51.971 189.417 49.3957 190.641 47.5803C191.739 45.976 193.47 45.0472 195.918 45.0472C200.056 45.0472 202.42 47.5381 202.631 51.5911H208.795C208.457 44.5406 203.771 39.7277 195.918 39.7277C191.021 39.7277 187.77 41.5008 185.659 44.4139C183.211 47.8336 182.662 52.351 182.662 56.9951Z" fill="white"/>
<path d="M210.501 45.596H219.536V73.7136H225.742V45.596H234.777V40.3187H210.501V45.596Z" fill="white"/>
<path d="M61.8282 99.239H58.1045V119.276H61.8282V99.239Z" fill="white"/>
<path d="M77.2647 110.258C77.2647 106.61 75.5422 104.609 72.4265 104.609C70.3747 104.609 68.9055 105.724 68.3735 107.396V104.964H64.8525V119.276H68.3735V111.271C68.3735 108.789 69.6654 107.472 71.4892 107.472C72.9584 107.472 73.7437 108.384 73.7437 110.309V119.276H77.2647V110.258Z" fill="white"/>
<path d="M88.053 101.873V99.1884C87.4451 99.0617 86.7358 99.0364 86.0519 99.0364C82.5562 99.0364 81.087 100.252 81.087 103.419V104.964H79.0351V107.801H81.087V119.276H84.608V107.801H88.053V104.964H84.608V103.596C84.608 102.355 85.064 101.873 86.5838 101.873H88.053Z" fill="white"/>
<path d="M102.278 112.107C102.278 107.396 100.151 104.609 95.7683 104.609C91.4114 104.609 89.2582 107.396 89.2582 112.107C89.2582 116.87 91.4114 119.631 95.7683 119.631C100.151 119.631 102.278 116.87 102.278 112.107ZM92.7793 112.107C92.7793 109.169 93.5139 107.472 95.7683 107.472C98.0481 107.472 98.7574 109.169 98.7574 112.107C98.7574 115.071 98.0481 116.794 95.7683 116.794C93.5139 116.794 92.7793 115.071 92.7793 112.107Z" fill="white"/>
<path d="M124.083 109.27C124.007 110.562 123.83 111.677 123.526 112.563L118.206 106.484C117.218 105.369 116.864 104.533 116.864 103.647C116.864 102.557 117.573 101.873 118.738 101.873C119.929 101.873 120.613 102.557 120.613 103.647V104.255H124.159V103.545C124.159 100.658 121.905 98.8844 118.738 98.8844C115.572 98.8844 113.317 100.658 113.317 103.545C113.317 105.141 113.925 106.458 115.344 108.105C112.988 109.422 111.848 111.322 111.848 113.728C111.848 117.3 114.457 119.631 118.586 119.631C120.815 119.631 122.639 119.048 123.931 117.857L125.172 119.276H129.453L126.11 115.451C127.022 113.804 127.528 111.702 127.63 109.27H124.083ZM115.42 113.678C115.42 112.361 115.927 111.221 117.218 110.258L121.829 115.476C121.069 116.262 119.954 116.642 118.688 116.642C116.914 116.642 115.42 115.704 115.42 113.678Z" fill="white"/>
<path d="M137.744 112.107C137.744 116.87 139.897 119.631 144.254 119.631C147.977 119.631 150.257 117.756 150.561 114.463H147.04C146.888 115.932 145.926 116.794 144.254 116.794C141.999 116.794 141.265 115.071 141.265 112.107C141.265 109.169 141.999 107.472 144.254 107.472C145.926 107.472 146.888 108.333 147.04 109.777H150.561C150.257 106.484 147.977 104.609 144.254 104.609C139.897 104.609 137.744 107.396 137.744 112.107Z" fill="white"/>
<path d="M165.285 112.107C165.285 107.396 163.157 104.609 158.775 104.609C154.418 104.609 152.264 107.396 152.264 112.107C152.264 116.87 154.418 119.631 158.775 119.631C163.157 119.631 165.285 116.87 165.285 112.107ZM155.786 112.107C155.786 109.169 156.52 107.472 158.775 107.472C161.054 107.472 161.764 109.169 161.764 112.107C161.764 115.071 161.054 116.794 158.775 116.794C156.52 116.794 155.786 115.071 155.786 112.107Z" fill="white"/>
<path d="M180.049 110.258C180.049 106.61 178.326 104.609 175.211 104.609C173.159 104.609 171.69 105.724 171.158 107.396V104.964H167.637V119.276H171.158V111.271C171.158 108.789 172.449 107.472 174.273 107.472C175.742 107.472 176.528 108.384 176.528 110.309V119.276H180.049V110.258Z" fill="white"/>
<path d="M187.365 107.801H191.063V104.964H187.365V100.911H183.819V104.964H181.792V107.801H183.819V115.274C183.819 118.415 185.288 119.479 188.91 119.479C189.569 119.479 190.607 119.453 191.063 119.403V116.667H189.619C187.872 116.667 187.365 116.287 187.365 114.666V107.801Z" fill="white"/>
<path d="M201.877 117.68C201.902 118.263 201.978 118.921 202.13 119.276H205.727C205.525 118.795 205.398 118.035 205.398 117.275V110.03C205.398 106.788 203.422 104.609 199.319 104.609C195.544 104.609 193.543 106.484 193.315 109.27H196.862C197.014 108.08 197.849 107.446 199.319 107.446C201.067 107.446 201.877 108.333 201.877 110.03V112.487C201.37 111.221 199.8 110.537 197.976 110.537C194.784 110.537 192.783 112.209 192.783 115.096C192.783 117.984 194.81 119.631 197.976 119.631C200.053 119.631 201.446 118.795 201.877 117.68ZM199.091 117.072C197.242 117.072 196.304 116.414 196.304 115.096C196.304 113.754 197.242 113.095 199.091 113.095C200.94 113.095 201.877 113.754 201.877 115.096C201.877 116.414 200.915 117.072 199.091 117.072Z" fill="white"/>
<path d="M207.751 112.107C207.751 116.87 209.904 119.631 214.261 119.631C217.984 119.631 220.264 117.756 220.568 114.463H217.047C216.895 115.932 215.933 116.794 214.261 116.794C212.006 116.794 211.272 115.071 211.272 112.107C211.272 109.169 212.006 107.472 214.261 107.472C215.933 107.472 216.895 108.333 217.047 109.777H220.568C220.264 106.484 217.984 104.609 214.261 104.609C209.904 104.609 207.751 107.396 207.751 112.107Z" fill="white"/>
<path d="M227.365 107.801H231.064V104.964H227.365V100.911H223.819V104.964H221.793V107.801H223.819V115.274C223.819 118.415 225.288 119.479 228.911 119.479C229.569 119.479 230.608 119.453 231.064 119.403V116.667H229.62C227.872 116.667 227.365 116.287 227.365 114.666V107.801Z" fill="white"/>
</svg>
