<svg width="303" height="150" viewBox="0 0 303 150" fill="none" xmlns="http://www.w3.org/2000/svg">
<path d="M3.3 75.3C3.3 80.85 3.95 86.25 6.85 90.3C9.35 93.75 13.2 95.8 19 95.8C28.3 95.8 33.85 90.15 34.25 81.8L26.95 81.8C26.7 86.6 23.9 89.55 19 89.55C16.1 89.55 14.05 88.45 12.75 86.55C11.3 84.35 10.6 81.35 10.6 75.3C10.6 69.35 11.3 66.3 12.75 64.15C14.05 62.25 16.1 61.15 19 61.15C23.9 61.15 26.7 64.1 26.95 68.9L34.25 68.9C33.85 60.55 28.3 54.85 19 54.85C13.2 54.85 9.35 56.95 6.85 60.4C3.95 64.45 3.3 69.8 3.3 75.3ZM65.3027 75.3C65.3027 66.55 63.9027 61.65 61.0527 58.45C58.9027 56.1 55.8027 54.85 51.9027 54.85C47.9527 54.85 44.8527 56.1 42.7027 58.45C39.8527 61.65 38.4527 66.55 38.4527 75.3C38.4527 84.15 39.8527 89.05 42.7027 92.2C44.8527 94.6 47.9527 95.8 51.9027 95.8C55.8027 95.8 58.9027 94.6 61.0527 92.2C63.9027 89.05 65.3027 84.15 65.3027 75.3ZM58.2027 75.3C58.2027 82.4 57.7027 85.85 56.2527 87.8C55.1527 89.2 53.7527 89.85 51.9027 89.85C50.0027 89.85 48.6027 89.2 47.5527 87.8C46.0527 85.85 45.5527 82.4 45.5527 75.3C45.5527 68.3 46.0527 64.85 47.5527 62.85C48.6027 61.5 50.0027 60.85 51.9027 60.85C53.7527 60.85 55.1527 61.5 56.2527 62.85C57.7027 64.85 58.2027 68.3 58.2027 75.3ZM91.8539 95.1L99.3539 95.1L99.3539 55.55L92.1039 55.55L92.1039 82.45L78.2039 55.55L70.7039 55.55L70.7039 95.1L77.9539 95.1L77.9539 68.25L91.8539 95.1ZM103.263 61.8L113.963 61.8L113.963 95.1H121.313L121.313 61.8L132.013 61.8L132.013 55.55L103.263 55.55L103.263 61.8ZM137.955 95.1L140.305 87L154.455 87L156.855 95.1L164.405 95.1L151.605 55.55L143.205 55.55L130.405 95.1H137.955ZM152.655 80.8L142.105 80.8L147.405 62.8L152.655 80.8ZM166.435 75.3C166.435 80.85 167.085 86.25 169.985 90.3C172.485 93.75 176.335 95.8 182.135 95.8C191.435 95.8 196.985 90.15 197.385 81.8L190.085 81.8C189.835 86.6 187.035 89.55 182.135 89.55C179.235 89.55 177.185 88.45 175.885 86.55C174.435 84.35 173.735 81.35 173.735 75.3C173.735 69.35 174.435 66.3 175.885 64.15C177.185 62.25 179.235 61.15 182.135 61.15C187.035 61.15 189.835 64.1 190.085 68.9L197.385 68.9C196.985 60.55 191.435 54.85 182.135 54.85C176.335 54.85 172.485 56.95 169.985 60.4C167.085 64.45 166.435 69.8 166.435 75.3ZM199.405 61.8L210.105 61.8L210.105 95.1L217.455 95.1L217.455 61.8L228.155 61.8L228.155 55.55L199.405 55.55L199.405 61.8Z" fill="white"/>
<path d="M231.79 -3.11268e-06C255.588 -2.07244e-06 276.088 16.7732 280.8 40.1L303 150L-3.69569e-06 150L6.75454e-07 50C1.88251e-06 22.3857 22.3858 -1.2266e-05 50 -1.1059e-05L231.79 -3.11268e-06Z" fill="#FF5353"/>
<path d="M26.9302 25L209.61 38.8604L242.245 92.5497L46.0492 77.2948L26.9302 25Z" fill="#71FF6E"/>
<path d="M45.9852 86.639L249 90.8911L234.294 126.324L31.9966 119.238L45.9852 86.639Z" fill="#1236F3"/>
<path d="M44.9155 56.4951C44.9155 61.1813 45.4644 65.7409 47.913 69.1606C50.024 72.0737 53.2748 73.8047 58.1722 73.8047C66.0248 73.8047 70.7111 69.034 71.0488 61.9835H64.8849C64.6738 66.0365 62.3096 68.5273 58.1722 68.5273C55.7235 68.5273 53.9925 67.5985 52.8948 65.9942C51.6705 64.1366 51.0794 61.6035 51.0794 56.4951C51.0794 51.471 51.6705 48.8957 52.8948 47.0803C53.9925 45.476 55.7235 44.5472 58.1722 44.5472C62.3096 44.5472 64.6738 47.0381 64.8849 51.0911H71.0488C70.7111 44.0406 66.0248 39.2277 58.1722 39.2277C53.2748 39.2277 50.024 41.0008 47.913 43.9139C45.4644 47.3336 44.9155 51.851 44.9155 56.4951Z" fill="black"/>
<path d="M97.2689 56.4951C97.2689 49.1068 96.0867 44.9694 93.6803 42.2674C91.8649 40.2831 89.2473 39.2277 85.9543 39.2277C82.619 39.2277 80.0015 40.2831 78.1861 42.2674C75.7796 44.9694 74.5975 49.1068 74.5975 56.4951C74.5975 63.9677 75.7796 68.1052 78.1861 70.7649C80.0015 72.7914 82.619 73.8047 85.9543 73.8047C89.2473 73.8047 91.8649 72.7914 93.6803 70.7649C96.0867 68.1052 97.2689 63.9677 97.2689 56.4951ZM91.2738 56.4951C91.2738 62.4901 90.8516 65.4032 89.6273 67.0497C88.6985 68.2318 87.5164 68.7807 85.9543 68.7807C84.35 68.7807 83.1679 68.2318 82.2813 67.0497C81.0147 65.4032 80.5925 62.4901 80.5925 56.4951C80.5925 50.5845 81.0147 47.6714 82.2813 45.9826C83.1679 44.8427 84.35 44.2939 85.9543 44.2939C87.5164 44.2939 88.6985 44.8427 89.6273 45.9826C90.8516 47.6714 91.2738 50.5845 91.2738 56.4951Z" fill="black"/>
<path d="M119.688 73.2136H126.021V39.8187H119.899V62.5323L108.162 39.8187H101.829V73.2136H107.951V50.5422L119.688 73.2136Z" fill="black"/>
<path d="M129.321 45.096H138.356V73.2136H144.562V45.096H153.597V39.8187H129.321V45.096Z" fill="black"/>
<path d="M158.614 73.2136L160.599 66.3742H172.547L174.573 73.2136H180.948L170.14 39.8187H163.047L152.239 73.2136H158.614ZM171.027 61.1391H162.119L166.594 45.9404L171.027 61.1391Z" fill="black"/>
<path d="M182.662 56.4951C182.662 61.1813 183.211 65.7409 185.659 69.1606C187.77 72.0737 191.021 73.8047 195.918 73.8047C203.771 73.8047 208.457 69.034 208.795 61.9835H202.631C202.42 66.0365 200.056 68.5273 195.918 68.5273C193.47 68.5273 191.739 67.5985 190.641 65.9942C189.417 64.1366 188.826 61.6035 188.826 56.4951C188.826 51.471 189.417 48.8957 190.641 47.0803C191.739 45.476 193.47 44.5472 195.918 44.5472C200.056 44.5472 202.42 47.0381 202.631 51.0911H208.795C208.457 44.0406 203.771 39.2277 195.918 39.2277C191.021 39.2277 187.77 41.0008 185.659 43.9139C183.211 47.3336 182.662 51.851 182.662 56.4951Z" fill="black"/>
<path d="M210.501 45.096H219.536V73.2136H225.742V45.096H234.777V39.8187H210.501V45.096Z" fill="black"/>
<path d="M61.8282 98.739H58.1045V118.776H61.8282V98.739Z" fill="white"/>
<path d="M77.2647 109.758C77.2647 106.11 75.5422 104.109 72.4265 104.109C70.3747 104.109 68.9055 105.224 68.3735 106.896V104.464H64.8525V118.776H68.3735V110.771C68.3735 108.289 69.6654 106.972 71.4892 106.972C72.9584 106.972 73.7437 107.884 73.7437 109.809V118.776H77.2647V109.758Z" fill="white"/>
<path d="M88.053 101.373V98.6884C87.4451 98.5617 86.7358 98.5364 86.0519 98.5364C82.5562 98.5364 81.087 99.7523 81.087 102.919V104.464H79.0351V107.301H81.087V118.776H84.608V107.301H88.053V104.464H84.608V103.096C84.608 101.855 85.064 101.373 86.5838 101.373H88.053Z" fill="white"/>
<path d="M102.278 111.607C102.278 106.896 100.151 104.109 95.7683 104.109C91.4114 104.109 89.2582 106.896 89.2582 111.607C89.2582 116.37 91.4114 119.131 95.7683 119.131C100.151 119.131 102.278 116.37 102.278 111.607ZM92.7793 111.607C92.7793 108.669 93.5139 106.972 95.7683 106.972C98.0481 106.972 98.7574 108.669 98.7574 111.607C98.7574 114.571 98.0481 116.294 95.7683 116.294C93.5139 116.294 92.7793 114.571 92.7793 111.607Z" fill="white"/>
<path d="M124.083 108.77C124.007 110.062 123.83 111.177 123.526 112.063L118.206 105.984C117.218 104.869 116.864 104.033 116.864 103.147C116.864 102.057 117.573 101.373 118.738 101.373C119.929 101.373 120.613 102.057 120.613 103.147V103.755H124.159V103.045C124.159 100.158 121.905 98.3844 118.738 98.3844C115.572 98.3844 113.317 100.158 113.317 103.045C113.317 104.641 113.925 105.958 115.344 107.605C112.988 108.922 111.848 110.822 111.848 113.228C111.848 116.8 114.457 119.131 118.586 119.131C120.815 119.131 122.639 118.548 123.931 117.357L125.172 118.776H129.453L126.11 114.951C127.022 113.304 127.528 111.202 127.63 108.77H124.083ZM115.42 113.178C115.42 111.861 115.927 110.721 117.218 109.758L121.829 114.976C121.069 115.762 119.954 116.142 118.688 116.142C116.914 116.142 115.42 115.204 115.42 113.178Z" fill="white"/>
<path d="M137.744 111.607C137.744 116.37 139.897 119.131 144.254 119.131C147.977 119.131 150.257 117.256 150.561 113.963H147.04C146.888 115.432 145.926 116.294 144.254 116.294C141.999 116.294 141.265 114.571 141.265 111.607C141.265 108.669 141.999 106.972 144.254 106.972C145.926 106.972 146.888 107.833 147.04 109.277H150.561C150.257 105.984 147.977 104.109 144.254 104.109C139.897 104.109 137.744 106.896 137.744 111.607Z" fill="white"/>
<path d="M165.285 111.607C165.285 106.896 163.157 104.109 158.775 104.109C154.418 104.109 152.264 106.896 152.264 111.607C152.264 116.37 154.418 119.131 158.775 119.131C163.157 119.131 165.285 116.37 165.285 111.607ZM155.786 111.607C155.786 108.669 156.52 106.972 158.775 106.972C161.054 106.972 161.764 108.669 161.764 111.607C161.764 114.571 161.054 116.294 158.775 116.294C156.52 116.294 155.786 114.571 155.786 111.607Z" fill="white"/>
<path d="M180.049 109.758C180.049 106.11 178.326 104.109 175.211 104.109C173.159 104.109 171.69 105.224 171.158 106.896V104.464H167.637V118.776H171.158V110.771C171.158 108.289 172.449 106.972 174.273 106.972C175.742 106.972 176.528 107.884 176.528 109.809V118.776H180.049V109.758Z" fill="white"/>
<path d="M187.365 107.301H191.063V104.464H187.365V100.411H183.819V104.464H181.792V107.301H183.819V114.774C183.819 117.915 185.288 118.979 188.91 118.979C189.569 118.979 190.607 118.953 191.063 118.903V116.167H189.619C187.872 116.167 187.365 115.787 187.365 114.166V107.301Z" fill="white"/>
<path d="M201.877 117.18C201.902 117.763 201.978 118.421 202.13 118.776H205.727C205.525 118.295 205.398 117.535 205.398 116.775V109.53C205.398 106.288 203.422 104.109 199.319 104.109C195.544 104.109 193.543 105.984 193.315 108.77H196.862C197.014 107.58 197.849 106.946 199.319 106.946C201.067 106.946 201.877 107.833 201.877 109.53V111.987C201.37 110.721 199.8 110.037 197.976 110.037C194.784 110.037 192.783 111.709 192.783 114.596C192.783 117.484 194.81 119.131 197.976 119.131C200.053 119.131 201.446 118.295 201.877 117.18ZM199.091 116.572C197.242 116.572 196.304 115.914 196.304 114.596C196.304 113.254 197.242 112.595 199.091 112.595C200.94 112.595 201.877 113.254 201.877 114.596C201.877 115.914 200.915 116.572 199.091 116.572Z" fill="white"/>
<path d="M207.751 111.607C207.751 116.37 209.904 119.131 214.261 119.131C217.984 119.131 220.264 117.256 220.568 113.963H217.047C216.895 115.432 215.933 116.294 214.261 116.294C212.006 116.294 211.272 114.571 211.272 111.607C211.272 108.669 212.006 106.972 214.261 106.972C215.933 106.972 216.895 107.833 217.047 109.277H220.568C220.264 105.984 217.984 104.109 214.261 104.109C209.904 104.109 207.751 106.896 207.751 111.607Z" fill="white"/>
<path d="M227.365 107.301H231.064V104.464H227.365V100.411H223.819V104.464H221.793V107.301H223.819V114.774C223.819 117.915 225.288 118.979 228.911 118.979C229.569 118.979 230.608 118.953 231.064 118.903V116.167H229.62C227.872 116.167 227.365 115.787 227.365 114.166V107.301Z" fill="white"/>
</svg>
