<svg width="154" height="154" viewBox="0 0 154 154" fill="none" xmlns="http://www.w3.org/2000/svg">
<circle cx="77" cy="77" r="76.5" fill="white" stroke="black"/>
<path d="M77.2371 35.2438L77.2371 118.756M117.471 66.2916L36.8042 87.9062M113.759 57.1904L40.4695 97.2274M106.801 47.7486L47.7484 106.801M113.044 98.0843L40.72 56.328M116.958 89.13L36.8242 65.6169M118.756 77.2373L35.2437 77.2372M87.6543 117.265L66.0397 36.5977M96.8108 113.759L56.7737 40.4697M106.465 106.801L47.4129 47.7486M55.9169 113.044L97.6731 40.7201M64.9736 117.146L88.4867 37.012" stroke="black"/>
<path d="M128.033 83.9939C128.142 82.8994 128.904 82.4229 130.149 82.5377L130.212 81.9008C128.63 81.7423 127.617 82.4247 127.466 83.9371C127.317 85.4196 128.162 86.3184 129.734 86.4759L135.097 87.0134L135.162 86.3667L129.848 85.8341C128.565 85.7055 127.926 85.0586 128.033 83.9939Z" fill="black"/>
<path d="M129.434 85.8785C128.034 85.6411 127.1 86.1827 126.886 87.4447C126.719 88.4306 127.1 89.1139 127.754 89.5087L126.699 89.3298L126.595 89.9411L132.067 90.8688L132.171 90.2575L129.4 89.7878C127.943 89.5306 127.218 88.6572 127.389 87.6516C127.551 86.6952 128.197 86.2975 129.518 86.5215L132.712 87.0631L132.816 86.4519L129.434 85.8785Z" fill="black"/>
<path d="M128.135 93.9316L128.31 93.9737C130.079 94.3992 131.315 93.9249 131.686 92.379C132.058 90.8331 131.176 89.8393 129.407 89.4137C127.637 88.9881 126.409 89.4746 126.037 91.0205C125.743 92.2455 126.19 93.1244 127.21 93.5858L127.357 92.9733C126.646 92.6376 126.34 92.0292 126.55 91.1541C126.826 90.0068 127.711 89.6642 129.089 89.9647L128.135 93.9316ZM131.171 92.2551C130.909 93.344 130.054 93.6937 128.776 93.448L129.58 90.1034C130.832 90.456 131.435 91.1564 131.171 92.2551Z" fill="black"/>
<path d="M127.785 92.9583C126.43 92.5332 125.432 92.943 125.049 94.1643C124.749 95.1184 125.034 95.8472 125.628 96.3269L124.607 96.0065L124.421 96.5981L129.717 98.2598L129.902 97.6682L127.221 96.8269C125.812 96.3742 125.213 95.4107 125.518 94.4375C125.809 93.512 126.502 93.2056 127.781 93.6068L130.872 94.5768L131.058 93.9853L127.785 92.9583Z" fill="black"/>
<path d="M126.188 101.066C127.501 101.579 128.535 101.241 128.996 100.058C129.36 99.1268 129.12 98.3674 128.56 97.8485L129.566 98.2411L129.788 97.6729L124.618 95.6549L124.396 96.2232L127.004 97.2413C128.385 97.8016 128.917 98.8037 128.546 99.7539C128.197 100.648 127.471 100.912 126.223 100.425L123.214 99.2508L122.992 99.819L126.188 101.066Z" fill="black"/>
<path d="M128.853 101.692L129.216 101.859C129.135 102.251 129.28 102.461 129.784 102.682L129.91 102.409L130.918 102.873L130.613 103.536L129.732 103.131C128.932 102.763 128.648 102.401 128.853 101.692Z" fill="black"/>
<path d="M123.327 104.233C122.773 104.912 122.353 105.062 121.85 104.794C121.276 104.488 121.206 103.748 121.61 102.99C122.015 102.231 122.668 101.876 123.242 102.182L123.418 102.276L123.705 101.738L123.529 101.644C122.682 101.192 121.731 101.637 121.143 102.74C120.541 103.87 120.733 104.89 121.563 105.332C122.348 105.751 122.962 105.534 123.738 104.611L124.181 104.076C124.726 103.415 125.133 103.247 125.592 103.491C126.095 103.759 126.249 104.385 125.84 105.153C125.435 105.912 124.825 106.142 124.322 105.874L124.172 105.794L123.881 106.341L124.031 106.421C124.807 106.835 125.729 106.488 126.308 105.402C126.9 104.29 126.634 103.344 125.884 102.944C125.16 102.559 124.542 102.762 123.771 103.699L123.327 104.233Z" fill="black"/>
<path d="M121.56 108.982L124.502 111.04L123.27 112.801C122.571 113.801 121.666 113.925 120.749 113.283C119.831 112.641 119.629 111.744 120.328 110.744L121.56 108.982ZM119.827 110.466C118.915 111.769 119.185 112.971 120.382 113.808C121.57 114.639 122.8 114.486 123.711 113.183L125.344 110.847L118.977 106.394L118.61 106.919L121.093 108.655L119.827 110.466Z" fill="black"/>
<path d="M116.096 114.597C117.51 115.743 118.829 115.847 119.831 114.612C120.832 113.377 120.464 112.101 119.051 110.954C117.645 109.814 116.32 109.718 115.318 110.952C114.317 112.187 114.691 113.456 116.096 114.597ZM118.667 111.428C119.847 112.385 120.187 113.331 119.419 114.278C118.657 115.218 117.661 115.08 116.481 114.123C115.308 113.172 114.968 112.226 115.73 111.286C116.498 110.339 117.494 110.477 118.667 111.428Z" fill="black"/>
<path d="M116.717 117.201C116.609 117.318 116.493 117.429 116.425 117.489L116.801 117.848C116.89 117.795 116.999 117.691 117.108 117.573C117.71 116.918 117.752 116.237 117.348 115.539L118.135 116.263L118.548 115.814L114.462 112.058L114.049 112.507L116.111 114.402C117.267 115.465 117.394 116.464 116.717 117.201Z" fill="black"/>
<path d="M115.247 118.409L114.029 119.595L114.398 119.975L115.617 118.789L116.719 119.922L117.156 119.496L116.054 118.364L116.656 117.778L116.286 117.398L115.684 117.984L113.188 115.418C112.379 114.587 111.755 114.692 110.924 115.501C110.787 115.633 110.623 115.794 110.479 115.947L110.842 116.32L111.236 115.936C111.788 115.399 112.206 115.285 112.82 115.915L115.247 118.409Z" fill="black"/>
<path d="M113.144 123.316L113.479 123.701C113.635 123.591 113.778 123.481 113.921 123.356C114.834 122.562 114.91 121.979 114.148 121.104L113.656 120.538L114.282 119.993L113.934 119.593L113.308 120.138L110.013 116.351L109.545 116.758L112.84 120.545L111.641 121.589L111.989 121.988L113.188 120.945L113.648 121.473C114.186 122.091 114.17 122.423 113.529 122.981L113.144 123.316Z" fill="black"/>
<path d="M106.329 122.754C107.436 124.198 108.695 124.607 109.956 123.639C111.218 122.672 111.158 121.344 110.05 119.9C108.949 118.464 107.683 118.061 106.421 119.029C105.159 119.996 105.227 121.318 106.329 122.754ZM109.566 120.271C110.491 121.477 110.602 122.476 109.634 123.219C108.674 123.955 107.738 123.589 106.813 122.383C105.894 121.185 105.783 120.186 106.743 119.449C107.712 118.707 108.647 119.073 109.566 120.271Z" fill="black"/>
<path d="M104.761 120.291L109.119 126.724L109.632 126.376L105.274 119.943L104.761 120.291Z" fill="black"/>
<path d="M102.601 121.628L105.482 126.371L106.012 126.049L103.13 121.306L102.601 121.628ZM106.105 127.397L106.635 128.269L107.165 127.947L106.635 127.075L106.105 127.397Z" fill="black"/>
<path d="M98.3619 127.052C99.2139 128.66 100.387 129.272 101.792 128.528C103.197 127.784 103.358 126.465 102.506 124.857C101.659 123.257 100.477 122.65 99.0721 123.394C97.6671 124.138 97.5146 125.453 98.3619 127.052ZM101.967 125.142C102.679 126.485 102.622 127.489 101.544 128.06C100.475 128.626 99.6125 128.11 98.9009 126.766C98.1941 125.432 98.251 124.429 99.3202 123.862C100.398 123.291 101.26 123.808 101.967 125.142Z" fill="black"/>
<path d="M81.4771 128.887C82.5689 128.753 83.2013 129.391 83.3635 130.63L83.9987 130.552C83.805 128.974 82.9163 128.136 81.4076 128.322C79.9287 128.503 79.238 129.525 79.4305 131.093L80.0871 136.443L80.7322 136.364L80.0818 131.063C79.9246 129.783 80.415 129.018 81.4771 128.887Z" fill="black"/>
<path d="M79.9475 130.669C79.8708 129.251 79.137 128.46 77.8588 128.529C76.8603 128.583 76.2777 129.105 76.0364 129.829L75.9786 128.761L75.3595 128.794L75.6594 134.336L76.2785 134.303L76.1267 131.497C76.0567 130.018 76.7491 129.12 77.7677 129.065C78.7362 129.012 79.2663 129.554 79.3387 130.892L79.5138 134.128L80.1328 134.094L79.9475 130.669Z" fill="black"/>
<path d="M71.8057 131.175L71.8032 131.355C71.7777 133.175 72.5124 134.275 74.1022 134.298C75.692 134.32 76.4672 133.241 76.4927 131.421C76.5182 129.601 75.7734 128.51 74.1836 128.488C72.9237 128.47 72.1648 129.1 71.9394 130.197L72.5693 130.206C72.7401 129.438 73.2662 129.005 74.1661 129.018C75.346 129.034 75.875 129.822 75.8853 131.232L71.8057 131.175ZM74.1096 133.768C72.9897 133.752 72.4603 132.994 72.4185 131.694L75.8582 131.742C75.79 133.041 75.2395 133.783 74.1096 133.768Z" fill="black"/>
<path d="M72.6784 130.62C72.7948 129.204 72.1751 128.321 70.8994 128.216C69.9028 128.134 69.2547 128.572 68.9174 129.257L69.0051 128.19L68.3872 128.14L67.9323 133.671L68.5502 133.722L68.7805 130.921C68.9118 129.447 69.7198 128.651 70.7364 128.734C71.7031 128.814 72.1547 129.423 72.0449 130.758L71.7793 133.987L72.3972 134.038L72.6784 130.62Z" fill="black"/>
<path d="M64.4177 130.847C64.2068 132.241 64.7634 133.174 66.0192 133.364C67.0079 133.514 67.6957 133.112 68.0788 132.452L67.9172 133.52L68.5204 133.611L69.3504 128.124L68.7473 128.032L68.3285 130.801C68.0859 132.271 67.2256 133.011 66.2171 132.858C65.2679 132.715 64.8504 132.065 65.0508 130.74L65.5338 127.546L64.9307 127.455L64.4177 130.847Z" fill="black"/>
<path d="M64.3944 133.584L64.3114 133.975C63.9112 133.982 63.7384 134.171 63.6342 134.711L63.9276 134.773L63.6974 135.859L62.9833 135.707L63.1845 134.759C63.367 133.898 63.6574 133.54 64.3944 133.584Z" fill="black"/>
<path d="M60.6986 128.753C59.9142 128.362 59.6753 127.985 59.8261 127.436C59.998 126.809 60.7043 126.577 61.5337 126.805C62.3631 127.032 62.8526 127.592 62.6807 128.219L62.6278 128.412L63.216 128.573L63.2689 128.38C63.5228 127.454 62.8794 126.624 61.6739 126.294C60.4395 125.955 59.4864 126.368 59.2378 127.274C59.0024 128.133 59.3489 128.684 60.4208 129.237L61.0395 129.552C61.8047 129.938 62.0585 130.298 61.921 130.8C61.7702 131.349 61.1936 131.637 60.3545 131.407C59.5252 131.179 59.1664 130.635 59.3171 130.085L59.3621 129.922L58.7642 129.758L58.7192 129.922C58.4864 130.77 59.0282 131.593 60.2144 131.918C61.4295 132.251 62.2941 131.783 62.5189 130.964C62.7358 130.173 62.4015 129.615 61.3174 129.068L60.6986 128.753Z" fill="black"/>
<path d="M55.6777 128.076L54.3184 131.398L52.3285 130.584C51.1993 130.122 50.8792 129.267 51.3032 128.231C51.7273 127.194 52.5586 126.8 53.6878 127.262L55.6777 128.076ZM53.8481 126.711C52.3765 126.109 51.2637 126.637 50.7109 127.989C50.1619 129.331 50.5817 130.496 52.0533 131.098L54.6911 132.177L57.6332 124.986L57.0408 124.744L55.8935 127.548L53.8481 126.711Z" fill="black"/>
<path d="M48.9974 123.982C48.1903 125.613 48.3791 126.923 49.8042 127.628C51.2293 128.333 52.3938 127.693 53.201 126.062C54.0037 124.44 53.8059 123.126 52.3808 122.421C50.9557 121.715 49.8001 122.36 48.9974 123.982ZM52.6542 125.791C51.9801 127.154 51.1327 127.694 50.0392 127.153C48.9547 126.616 48.87 125.615 49.5441 124.253C50.2138 122.899 51.0612 122.359 52.1457 122.896C53.2392 123.437 53.3239 124.438 52.6542 125.791Z" fill="black"/>
<path d="M46.5937 125.161C46.455 125.081 46.3212 124.993 46.2481 124.939L45.9805 125.385C46.0523 125.461 46.1774 125.544 46.3161 125.624C47.0879 126.067 47.7616 125.958 48.3532 125.41L47.8203 126.338L48.3493 126.642L51.1134 121.829L50.5845 121.525L49.1899 123.953C48.408 125.315 47.4609 125.659 46.5937 125.161Z" fill="black"/>
<path d="M45.0912 123.994L43.6665 123.066L43.3773 123.51L44.8021 124.438L43.9401 125.762L44.4514 126.095L45.3133 124.77L46.0173 125.229L46.3064 124.785L45.6024 124.326L47.5555 121.326C48.1883 120.354 47.9489 119.768 46.9767 119.136C46.8175 119.032 46.6247 118.906 46.4433 118.8L46.1596 119.236L46.6205 119.536C47.2658 119.956 47.4698 120.339 46.9897 121.077L45.0912 123.994Z" fill="black"/>
<path d="M39.842 123.022L39.5404 123.434C39.6818 123.562 39.8211 123.677 39.9743 123.789C40.9501 124.505 41.5355 124.45 42.2215 123.515L42.665 122.91L43.3343 123.401L43.6477 122.973L42.9784 122.483L45.9469 118.434L45.4469 118.068L42.4784 122.116L41.1962 121.176L40.8828 121.603L42.165 122.543L41.7511 123.108C41.2662 123.769 40.9388 123.827 40.2533 123.324L39.842 123.022Z" fill="black"/>
<path d="M38.8898 116.25C37.7249 117.649 37.6035 118.966 38.8251 119.984C40.0467 121.002 41.3283 120.651 42.4933 119.252C43.6518 117.862 43.7655 116.538 42.5439 115.52C41.3223 114.502 40.0484 114.86 38.8898 116.25ZM42.0246 118.862C41.0517 120.03 40.1017 120.358 39.1643 119.577C38.2347 118.802 38.3856 117.809 39.3585 116.641C40.325 115.481 41.275 115.153 42.2047 115.927C43.142 116.708 42.9911 117.702 42.0246 118.862Z" fill="black"/>
<path d="M40.9467 114.179L35.6312 119.846L36.0835 120.27L41.3989 114.603L40.9467 114.179Z" fill="black"/>
<path d="M39.1669 112.366L35.1745 116.221L35.6052 116.667L39.5976 112.812L39.1669 112.366ZM34.3113 117.055L33.5776 117.763L34.0083 118.209L34.742 117.501L34.3113 117.055Z" fill="black"/>
<path d="M32.9431 109.425C31.5619 110.611 31.2231 111.89 32.2585 113.096C33.2939 114.303 34.616 114.17 35.9972 112.985C37.3709 111.806 37.7032 110.52 36.6678 109.313C35.6324 108.106 34.3167 108.247 32.9431 109.425ZM35.6 112.522C34.4464 113.512 33.4552 113.677 32.6607 112.751C31.8728 111.833 32.1868 110.878 33.3403 109.888C34.4863 108.905 35.4776 108.74 36.2655 109.658C37.06 110.584 36.7459 111.539 35.6 112.522Z" fill="black"/>
<path d="M26.7021 90.9033C27.0215 91.9559 26.5018 92.6884 25.3085 93.0609L25.4944 93.6733C27.0159 93.2116 27.6889 92.1923 27.2475 90.7378C26.8148 89.312 25.6897 88.8069 24.1778 89.2657L19.02 90.8308L19.2088 91.4528L24.3187 89.9022C25.5531 89.5276 26.3914 89.8794 26.7021 90.9033Z" fill="black"/>
<path d="M24.6838 89.7021C26.0675 89.3831 26.7213 88.5243 26.4338 87.277C26.2092 86.3026 25.5947 85.8182 24.8399 85.7049L25.8826 85.4645L25.7433 84.8604L20.3352 86.1071L20.4744 86.7112L23.2126 86.08C24.657 85.7573 25.6613 86.2852 25.8904 87.2791C26.1083 88.2244 25.6652 88.8396 24.3594 89.1406L21.2022 89.8684L21.3415 90.4726L24.6838 89.7021Z" fill="black"/>
<path d="M22.788 81.7682L22.6102 81.7966C20.813 82.0839 19.8551 82.9965 20.106 84.5666C20.357 86.1367 21.5533 86.7151 23.3505 86.4278C25.1477 86.1406 26.0942 85.2196 25.8432 83.6496C25.6443 82.4054 24.894 81.7658 23.7746 81.732L23.8741 82.3541C24.6597 82.3906 25.1762 82.8346 25.3183 83.7233C25.5045 84.8885 24.8195 85.5449 23.432 85.7971L22.788 81.7682ZM20.6294 84.483C20.4526 83.377 21.108 82.7254 22.3822 82.4609L22.9252 85.8578C21.6336 86.0136 20.8078 85.5988 20.6294 84.483Z" fill="black"/>
<path d="M23.485 82.5323C24.8992 82.404 25.6635 81.6419 25.5479 80.3671C25.4575 79.3712 24.9144 78.808 24.1821 78.5932L25.2477 78.4966L25.1917 77.8791L19.6644 78.3804L19.7204 78.9979L22.5189 78.7441C23.9937 78.6204 24.9171 79.2797 25.0092 80.2955C25.0968 81.2615 24.5743 81.811 23.2398 81.932L20.013 82.2246L20.069 82.8421L23.485 82.5323Z" fill="black"/>
<path d="M21.8433 74.4333C20.4337 74.4649 19.6093 75.1735 19.6378 76.4432C19.6601 77.443 20.1739 78.0516 20.89 78.3157L19.8103 78.3398L19.8239 78.9497L25.3725 78.8254L25.3589 78.2156L22.5596 78.2783C21.0695 78.2916 20.1931 77.5711 20.1703 76.5513C20.1488 75.5916 20.7173 75.0687 22.0569 75.0387L25.2861 74.9664L25.2725 74.3566L21.8433 74.4333Z" fill="black"/>
<path d="M19.1423 74.8799L18.7426 74.8653C18.6669 74.4723 18.4517 74.3344 17.9017 74.3244L17.8908 74.6242L16.7815 74.5838L16.8081 73.8543L17.7775 73.8896C18.6569 73.9216 19.059 74.1464 19.1423 74.8799Z" fill="black"/>
<path d="M23.267 70.41C23.5179 69.5701 23.8479 69.2701 24.4153 69.3243C25.0624 69.386 25.4116 70.0422 25.3299 70.8983C25.2482 71.7544 24.7811 72.3326 24.1341 72.2709L23.935 72.2519L23.877 72.8591L24.0761 72.8781C25.0318 72.9693 25.7387 72.193 25.8575 70.9486C25.9791 69.6744 25.409 68.8063 24.4733 68.717C23.5873 68.6324 23.1037 69.0685 22.7427 70.2194L22.5387 70.883C22.2897 71.703 21.9786 72.0149 21.461 71.9655C20.8936 71.9113 20.5111 71.3926 20.5938 70.5266C20.6755 69.6704 21.1501 69.2235 21.7176 69.2777L21.8868 69.2938L21.9457 68.6766L21.7765 68.6605C20.9005 68.5769 20.1831 69.2518 20.0662 70.4762C19.9465 71.7305 20.5559 72.5019 21.4021 72.5827C22.2184 72.6606 22.711 72.2355 23.063 71.0737L23.267 70.41Z" fill="black"/>
<path d="M23.0727 65.347L19.566 64.5782L20.0264 62.4781C20.2877 61.2864 21.0749 60.8242 22.1689 61.0641C23.2629 61.3039 23.7944 62.0552 23.5331 63.2469L23.0727 65.347ZM24.1028 63.3103C24.4433 61.7572 23.7321 60.7516 22.306 60.4389C20.8896 60.1284 19.8132 60.7422 19.4727 62.2953L18.8624 65.0792L26.4522 66.7431L26.5892 66.1179L23.6295 65.4691L24.1028 63.3103Z" fill="black"/>
<path d="M25.9592 58.0635C24.2136 57.5483 22.9559 57.9592 22.5059 59.4841C22.0558 61.0091 22.8861 62.0466 24.6317 62.5617C26.3677 63.074 27.6282 62.6536 28.0783 61.1286C28.5283 59.6037 27.6952 58.5758 25.9592 58.0635ZM24.8044 61.9766C23.3465 61.5464 22.6689 60.8043 23.0142 59.6341C23.3567 58.4736 24.3287 58.2183 25.7865 58.6485C27.2348 59.0759 27.9124 59.8181 27.57 60.9786C27.2246 62.1487 26.2526 62.404 24.8044 61.9766Z" fill="black"/>
<path d="M24.3854 55.898C24.4401 55.7476 24.5041 55.6006 24.5443 55.5195L24.059 55.3323C23.9967 55.4161 23.936 55.5536 23.8813 55.704C23.5771 56.5404 23.8 57.1854 24.4416 57.6742L23.4361 57.3084L23.2276 57.8817L28.4433 59.7787L28.6518 59.2055L26.0204 58.2484C24.545 57.7118 24.0436 56.8377 24.3854 55.898Z" fill="black"/>
<path d="M25.277 54.2172L25.9461 52.6544L25.4589 52.4458L24.7898 54.0086L23.3373 53.3868L23.0972 53.9475L24.5497 54.5694L24.2191 55.3416L24.7063 55.5502L25.0369 54.778L28.328 56.187C29.3943 56.6436 29.9299 56.3072 30.3865 55.2408C30.4613 55.0662 30.5518 54.8547 30.6253 54.6577L30.1472 54.4531L29.9308 54.9587C29.6277 55.6665 29.2851 55.9332 28.4761 55.5869L25.277 54.2172Z" fill="black"/>
<path d="M25.3326 48.879L24.8756 48.6525C24.7733 48.8139 24.6844 48.9707 24.6 49.141C24.0626 50.2251 24.2167 50.7925 25.256 51.3077L25.9279 51.6408L25.5593 52.3844L26.0342 52.6198L26.4028 51.8762L30.9005 54.1057L31.1759 53.5502L26.6782 51.3207L27.3843 49.8961L26.9095 49.6607L26.2033 51.0853L25.5761 50.7744C24.8414 50.4102 24.7286 50.0976 25.1061 49.336L25.3326 48.879Z" fill="black"/>
<path d="M31.8407 46.7786C30.2631 45.871 28.9443 45.9775 28.1514 47.3557C27.3585 48.7339 27.9243 49.9362 29.5018 50.8438C31.0707 51.7464 32.3945 51.6313 33.1874 50.2531C33.9803 48.8749 33.4095 47.6812 31.8407 46.7786ZM29.806 50.3151C28.4885 49.5571 28.0024 48.6775 28.6108 47.62C29.2142 46.5712 30.219 46.5493 31.5365 47.3073C32.8453 48.0604 33.3314 48.94 32.728 49.9888C32.1196 51.0462 31.1149 51.0681 29.806 50.3151Z" fill="black"/>
<path d="M34.2351 48.4496L27.7394 44.1859L27.3992 44.7042L33.8948 48.9679L34.2351 48.4496Z" fill="black"/>
<path d="M35.7155 46.3851L31.2321 43.1138L30.8667 43.6146L35.3501 46.886L35.7155 46.3851ZM30.2628 42.4065L29.4388 41.8053L29.0733 42.3061L29.8973 42.9073L30.2628 42.4065Z" fill="black"/>
<path d="M37.5434 39.7486C36.1387 38.5914 34.8206 38.4771 33.8095 39.7043C32.7985 40.9314 33.1565 42.2111 34.5612 43.3684C35.9581 44.5193 37.2827 44.6258 38.2937 43.3987C39.3047 42.1715 38.9403 40.8996 37.5434 39.7486ZM34.9491 42.8976C33.7759 41.9311 33.4428 40.9829 34.2186 40.0413C34.988 39.1074 35.9824 39.2529 37.1555 40.2194C38.3209 41.1796 38.654 42.1278 37.8846 43.0617C37.1089 44.0033 36.1145 43.8577 34.9491 42.8976Z" fill="black"/>
<path d="M54.7195 30.4208C53.7373 30.9161 52.9265 30.5299 52.3547 29.4183L51.7832 29.7065C52.4992 31.1262 53.619 31.6142 54.9761 30.9297C56.3065 30.2587 56.6109 29.0636 55.8994 27.6529L53.4722 22.8403L52.8918 23.133L55.2965 27.9009C55.8775 29.0527 55.6748 29.9389 54.7195 30.4208Z" fill="black"/>
<path d="M55.5568 28.2264C56.1085 29.5348 57.0668 30.0315 58.2463 29.5342C59.1677 29.1456 59.5393 28.4571 59.5215 27.6941L59.9372 28.68L60.5085 28.4391L58.352 23.3252L57.7807 23.5661L58.8726 26.1553C59.4384 27.5229 59.0907 28.6028 58.1509 28.9992C57.2571 29.3761 56.5749 29.0452 56.0542 27.8104L54.7953 24.825L54.224 25.0659L55.5568 28.2264Z" fill="black"/>
<path d="M63.0472 24.9968L62.9887 24.8265C62.3972 23.1053 61.3336 22.3183 59.83 22.835C58.3263 23.3518 57.9618 24.6296 58.5533 26.3508C59.1448 28.072 60.2145 28.8464 61.7182 28.3296C62.9098 27.9201 63.4111 27.0711 63.2522 25.9626L62.6564 26.1673C62.7553 26.9475 62.4065 27.5326 61.5554 27.8251C60.4395 28.2086 59.6753 27.6465 59.1887 26.3228L63.0472 24.9968ZM60.0022 23.3362C61.0614 22.9722 61.8158 23.506 62.2951 24.716L59.0418 25.834C58.6666 24.5883 58.9335 23.7035 60.0022 23.3362Z" fill="black"/>
<path d="M62.4141 25.8145C62.7832 27.1857 63.6652 27.8079 64.9012 27.4751C65.8668 27.2152 66.3285 26.5835 66.4143 25.8251L66.6924 26.8583L67.2911 26.6972L65.8485 21.3379L65.2498 21.4991L65.9802 24.2125C66.3553 25.6442 65.8642 26.667 64.8793 26.9322C63.9426 27.1843 63.3117 26.7639 62.9634 25.4699L62.1212 22.3413L61.5225 22.5024L62.4141 25.8145Z" fill="black"/>
<path d="M70.1109 22.8072C69.8378 21.4239 68.9982 20.7334 67.7523 20.9794C66.7712 21.173 66.2598 21.7836 66.1226 22.5344L65.9134 21.4749L65.315 21.593L66.3898 27.0379L66.9882 26.9198L66.446 24.1728C66.177 22.7072 66.7365 21.7201 67.7372 21.5226C68.679 21.3367 69.2917 21.8069 69.5512 23.1216L70.1767 26.2904L70.7752 26.1723L70.1109 22.8072Z" fill="black"/>
<path d="M69.2075 20.2232L69.1532 19.8269C69.5274 19.6848 69.6263 19.4492 69.5418 18.9056L69.2446 18.9463L69.0939 17.8466L69.8172 17.7475L69.9488 18.7085C70.0682 19.5804 69.9158 20.0151 69.2075 20.2232Z" fill="black"/>
<path d="M74.319 23.5191C75.1896 23.6222 75.5418 23.8958 75.5858 24.4641C75.636 25.1121 75.0496 25.5688 74.1921 25.6352C73.3347 25.7017 72.6849 25.3408 72.6347 24.6928L72.6192 24.4934L72.011 24.5405L72.0265 24.7399C72.1007 25.697 72.9868 26.2602 74.2331 26.1637C75.5093 26.0648 76.2666 25.3541 76.194 24.4169C76.1252 23.5296 75.6127 23.128 74.4169 22.9699L73.7281 22.8829C72.8775 22.7783 72.5169 22.5254 72.4767 22.0069C72.4326 21.4386 72.878 20.9728 73.7454 20.9056C74.6028 20.8392 75.1246 21.23 75.1686 21.7983L75.1818 21.9678L75.7999 21.9199L75.7868 21.7504C75.7188 20.8731 74.9308 20.2822 73.7044 20.3772C72.4482 20.4746 71.7929 21.2074 71.8585 22.0548C71.9219 22.8724 72.4253 23.2847 73.6302 23.4321L74.319 23.5191Z" fill="black"/>
<path d="M79.2734 22.4588L79.4289 18.8721L81.5769 18.9652C82.7957 19.018 83.3861 19.7143 83.3376 20.8332C83.2891 21.9522 82.6403 22.6047 81.4214 22.5519L79.2734 22.4588ZM81.4567 23.1239C83.0452 23.1928 83.9138 22.3196 83.977 20.8609C84.0398 19.4123 83.2504 18.4572 81.6619 18.3884L78.8146 18.265L78.4782 26.0277L79.1176 26.0554L79.2488 23.0282L81.4567 23.1239Z" fill="black"/>
<path d="M86.9445 24.0518C87.1524 22.2438 86.5318 21.0752 84.9522 20.8936C83.3726 20.712 82.4931 21.7081 82.2852 23.5162C82.0785 25.3143 82.709 26.484 84.2886 26.6656C85.8682 26.8472 86.7378 25.85 86.9445 24.0518ZM82.8912 23.5859C83.0648 22.0758 83.6796 21.2808 84.8916 21.4202C86.0937 21.5584 86.5121 22.4721 86.3385 23.9822C86.166 25.4823 85.5512 26.2773 84.3491 26.1391C83.1371 25.9997 82.7187 25.086 82.8912 23.5859Z" fill="black"/>
<path d="M88.8076 22.1299C88.9651 22.158 89.1208 22.1959 89.2077 22.2215L89.3087 21.7113C89.2156 21.6643 89.0696 21.6281 88.9121 21.6C88.0359 21.4439 87.4387 21.7743 87.0674 22.4902L87.2551 21.4368L86.6545 21.3298L85.6809 26.7938L86.2815 26.9008L86.7727 24.1442C87.0481 22.5985 87.8231 21.9545 88.8076 22.1299Z" fill="black"/>
<path d="M90.6166 22.72L92.271 23.1109L92.3929 22.5951L90.7384 22.2042L91.1018 20.6665L90.5081 20.5263L90.1448 22.0639L89.3273 21.8708L89.2054 22.3866L90.0229 22.5797L89.1997 26.0638C88.933 27.1927 89.3563 27.6626 90.4852 27.9294C90.6701 27.973 90.894 28.0259 91.1006 28.0645L91.2202 27.5584L90.6849 27.432C89.9356 27.2549 89.614 26.9631 89.8164 26.1067L90.6166 22.72Z" fill="black"/>
<path d="M95.885 21.8584L96.0297 21.3694C95.8532 21.2963 95.6835 21.2356 95.5013 21.1817C94.341 20.8384 93.8084 21.0875 93.4793 22.1998L93.2665 22.919L92.4706 22.6835L92.3202 23.1917L93.1161 23.4272L91.6917 28.2409L92.2862 28.4168L93.7106 23.6031L95.2352 24.0543L95.3856 23.5461L93.861 23.0949L94.0596 22.4237C94.2923 21.6374 94.5809 21.4725 95.396 21.7137L95.885 21.8584Z" fill="black"/>
<path d="M99.0714 27.9093C99.6947 26.1994 99.3634 24.9185 97.8696 24.3739C96.3757 23.8293 95.2884 24.5931 94.665 26.303C94.0451 28.0036 94.3858 29.2879 95.8797 29.8325C97.3735 30.3771 98.4514 29.6099 99.0714 27.9093ZM95.2381 26.5119C95.7587 25.0839 96.5418 24.454 97.688 24.8718C98.8249 25.2863 99.0189 26.2723 98.4983 27.7004C97.9811 29.1191 97.198 29.749 96.0612 29.3346C94.915 28.9167 94.721 27.9306 95.2381 26.5119Z" fill="black"/>
<path d="M97.836 30.5547L100.921 23.4235L100.352 23.1773L97.267 30.3085L97.836 30.5547Z" fill="black"/>
<path d="M100.124 31.6588L102.577 26.6804L102.021 26.4064L99.5679 31.3848L100.124 31.6588ZM103.108 25.604L103.559 24.6891L103.002 24.415L102.552 25.33L103.108 25.604Z" fill="black"/>
<path d="M106.976 32.3209C107.875 30.7384 107.761 29.4202 106.379 28.6348C104.996 27.8494 103.797 28.4218 102.898 30.0043C102.004 31.578 102.126 32.9012 103.509 33.6866C104.891 34.4719 106.082 33.8946 106.976 32.3209ZM103.428 30.3056C104.179 28.9839 105.056 28.493 106.117 29.0956C107.169 29.6933 107.196 30.6979 106.445 32.0196C105.699 33.3325 104.823 33.8234 103.77 33.2257C102.71 32.6231 102.682 31.6185 103.428 30.3056Z" fill="black"/>
<path d="M117.593 45.5775C116.894 44.7285 117.092 43.8525 118.05 43.05L117.643 42.556C116.416 43.5671 116.187 44.7668 117.153 45.9399C118.101 47.0899 119.333 47.1237 120.553 46.119L124.713 42.6917L124.3 42.19L120.178 45.5856C119.183 46.4058 118.274 46.4033 117.593 45.5775Z" fill="black"/>
<path d="M119.918 45.9107C118.763 46.737 118.49 47.7811 119.235 48.8221C119.816 49.6354 120.57 49.8463 121.31 49.6609L120.44 50.2835L120.801 50.7877L125.314 47.5581L124.954 47.0539L122.668 48.6891C121.459 49.5422 120.329 49.4408 119.735 48.6113C119.171 47.8224 119.344 47.0841 120.433 46.3044L123.068 44.419L122.707 43.9148L119.918 45.9107Z" fill="black"/>
<path d="M124.718 52.5065L124.871 52.4119C126.42 51.4559 126.953 50.2452 126.118 48.8922C125.283 47.5392 123.956 47.465 122.408 48.421C120.859 49.3769 120.339 50.5909 121.174 51.9439C121.836 53.0161 122.774 53.3182 123.821 52.9191L123.49 52.383C122.751 52.6513 122.103 52.4399 121.63 51.6741C121.011 50.6699 121.391 49.8007 122.575 49.0346L124.718 52.5065ZM125.667 49.1706C126.255 50.1236 125.901 50.9771 124.826 51.711L123.019 48.7837C124.152 48.1435 125.074 48.209 125.667 49.1706Z" fill="black"/>
<path d="M123.78 52.0689C122.524 52.7309 122.111 53.7283 122.708 54.8607C123.174 55.7454 123.892 56.0566 124.651 55.9733L123.704 56.4721L123.993 57.0207L128.903 54.4334L128.614 53.8849L126.128 55.1948C124.814 55.8759 123.708 55.6222 123.233 54.7198C122.781 53.8616 123.052 53.1535 124.237 52.5289L127.104 51.0185L126.815 50.47L123.78 52.0689Z" fill="black"/>
<path d="M128.409 58.9148C129.698 58.3439 130.187 57.3729 129.672 56.2116C129.268 55.2973 128.559 54.9329 127.797 54.9643L128.784 54.527L128.537 53.9693L123.463 56.2166L123.71 56.7744L126.27 55.6406C127.64 55.0555 128.726 55.3839 129.139 56.3165C129.528 57.1943 129.204 57.8955 127.979 58.4381L125.026 59.746L125.273 60.3037L128.409 58.9148Z" fill="black"/>
<path d="M130.731 57.4645L131.106 57.3243C131.327 57.658 131.578 57.7027 132.09 57.5005L131.985 57.2196L133.024 56.8305L133.28 57.5142L132.372 57.8542C131.547 58.1626 131.09 58.1097 130.731 57.4645Z" fill="black"/>
<path d="M128.641 63.1762C128.732 64.0481 128.543 64.4519 127.998 64.62C127.377 64.8117 126.802 64.3402 126.549 63.5184C126.295 62.6967 126.504 61.9833 127.125 61.7916L127.316 61.7327L127.136 61.1498L126.945 61.2088C126.028 61.4919 125.674 62.4803 126.042 63.6747C126.42 64.8978 127.28 65.4801 128.178 65.2029C129.028 64.9404 129.307 64.352 129.198 63.1508L129.131 62.4597C129.046 61.607 129.213 61.1995 129.71 61.0462C130.255 60.8781 130.807 61.2099 131.064 62.0412C131.318 62.863 131.051 63.458 130.507 63.6261L130.344 63.6762L130.527 64.2687L130.689 64.2185C131.53 63.959 131.933 63.0602 131.57 61.8849C131.199 60.681 130.34 60.2031 129.527 60.4537C128.744 60.6955 128.453 61.2773 128.574 62.4852L128.641 63.1762Z" fill="black"/>
<path d="M130.766 67.7758L134.299 67.1377L134.681 69.2535C134.898 70.4541 134.349 71.1833 133.247 71.3823C132.144 71.5814 131.365 71.0922 131.148 69.8916L130.766 67.7758ZM130.598 70.0519C130.881 71.6166 131.924 72.2717 133.36 72.0122C134.787 71.7544 135.545 70.7741 135.263 69.2094L134.756 66.4048L127.11 67.7859L127.223 68.4157L130.205 67.8771L130.598 70.0519Z" fill="black"/>
<path d="M130.901 75.6091C132.711 75.4137 133.714 74.5511 133.543 72.9703C133.373 71.3895 132.207 70.7508 130.398 70.9462C128.598 71.1405 127.596 72.0131 127.767 73.5939C127.938 75.1747 129.102 75.8034 130.901 75.6091ZM130.463 71.5527C131.975 71.3895 132.885 71.8142 133.016 73.0272C133.146 74.2302 132.347 74.8395 130.836 75.0026C129.335 75.1647 128.424 74.74 128.294 73.537C128.163 72.324 128.962 71.7147 130.463 71.5527Z" fill="black"/>
<path d="M133.186 77.0035C133.194 77.1633 133.191 77.3236 133.185 77.414L133.705 77.4002C133.73 77.299 133.733 77.1487 133.726 76.9888C133.686 76.0998 133.232 75.5899 132.452 75.3853L133.521 75.3365L133.493 74.7271L127.948 74.9805L127.976 75.5899L130.773 75.462C132.342 75.3904 133.141 76.0045 133.186 77.0035Z" fill="black"/>
<path d="M133.009 78.8979L132.992 80.5978L133.522 80.6031L133.539 78.9032L135.119 78.919L135.125 78.309L133.545 78.2932L133.553 77.4532L133.023 77.4479L133.015 78.2879L129.435 78.2521C128.275 78.2404 127.91 78.7568 127.898 79.9168C127.896 80.1067 127.894 80.3367 127.902 80.5468L128.422 80.552L128.428 80.0021C128.435 79.2321 128.649 78.8542 129.529 78.863L133.009 78.8979Z" fill="black"/>
<path d="M135.009 83.8474L135.518 83.8808C135.551 83.6926 135.573 83.5136 135.585 83.324C135.664 82.1166 135.304 81.652 134.147 81.5758L133.398 81.5266L133.453 80.6984L132.924 80.6636L132.869 81.4918L127.86 81.1622L127.82 81.7809L132.829 82.1105L132.724 83.697L133.253 83.7318L133.358 82.1452L134.056 82.1912C134.874 82.245 135.099 82.4903 135.043 83.3385L135.009 83.8474Z" fill="black"/>
<path d="M126.956 87.6653L134.592 89.1049L134.706 88.4956L127.071 87.0561L126.956 87.6653Z" fill="black"/>
<path d="M89.4306 132.375C89.2763 132.417 89.1193 132.45 89.0299 132.464L89.1578 132.968C89.2622 132.971 89.4095 132.941 89.5638 132.899C90.4221 132.663 90.8195 132.108 90.8473 131.302L91.1303 132.334L91.7185 132.173L90.2506 126.82L89.6624 126.982L90.4029 129.682C90.8182 131.196 90.395 132.111 89.4306 132.375Z" fill="black"/>
<path d="M87.5437 132.619L85.8818 132.977L85.9933 133.495L87.6552 133.137L87.9877 134.682L88.584 134.554L88.2516 133.009L89.0728 132.832L88.9612 132.314L88.14 132.491L87.3868 128.991C87.1427 127.857 86.5586 127.615 85.4246 127.859C85.2388 127.899 85.014 127.947 84.8108 128.001L84.9202 128.509L85.4579 128.394C86.2107 128.232 86.6263 128.357 86.8115 129.217L87.5437 132.619Z" fill="black"/>
<path d="M83.1567 135.661L83.2361 136.164C83.4269 136.154 83.6062 136.136 83.7939 136.107C84.9892 135.918 85.3631 135.465 85.1825 134.319L85.0658 133.578L85.8856 133.449L85.8031 132.925L84.9832 133.054L84.2018 128.096L83.5893 128.192L84.3708 133.151L82.8002 133.398L82.8827 133.922L84.4533 133.674L84.5623 134.366C84.6899 135.176 84.5001 135.449 83.6605 135.581L83.1567 135.661Z" fill="black"/>
<path d="M77.6589 128.646L77.9359 136.411L78.5555 136.389L78.2785 128.624L77.6589 128.646Z" fill="black"/>
<path d="M51.122 124.264C51.8099 123.022 51.6083 121.961 50.4885 121.341C49.6137 120.857 48.8427 120.99 48.2538 121.476L48.7721 120.539L48.2297 120.239L45.5411 125.094L46.0835 125.395L47.4448 122.937C48.1705 121.647 49.2345 121.253 50.1268 121.747C50.9754 122.217 51.1367 122.958 50.4875 124.13L48.918 126.964L49.4604 127.265L51.122 124.264Z" fill="black"/>
<path d="M36.3948 118.475L36.1167 118.763C35.7738 118.556 35.5274 118.624 35.1523 119.026L35.3679 119.235L34.5963 120.033L34.0715 119.525L34.7458 118.828C35.3576 118.196 35.7936 118.047 36.3948 118.475Z" fill="black"/>
<path d="M35.8277 112.42C35.3709 111.671 35.3684 111.225 35.7881 110.84C36.2666 110.4 36.988 110.579 37.57 111.212C38.1521 111.845 38.2698 112.579 37.7913 113.019L37.644 113.154L38.0568 113.603L38.2041 113.468C38.9108 112.818 38.8062 111.774 37.9602 110.853C37.094 109.911 36.0673 109.754 35.3752 110.391C34.72 110.993 34.7209 111.644 35.3355 112.682L35.6926 113.277C36.1359 114.011 36.1599 114.451 35.777 114.803C35.3574 115.188 34.716 115.126 34.1272 114.485C33.5452 113.852 33.5301 113.201 33.9498 112.815L34.0749 112.7L33.6554 112.243L33.5302 112.358C32.8823 112.954 32.9046 113.939 33.737 114.844C34.5897 115.772 35.5709 115.834 36.1966 115.259C36.8003 114.704 36.8135 114.054 36.1849 113.015L35.8277 112.42Z" fill="black"/>
<path d="M31.9331 109.179L29.0169 111.273L27.763 109.526C27.0514 108.535 27.2341 107.641 28.1439 106.988C29.0536 106.335 29.9676 106.442 30.6792 107.433L31.9331 109.179ZM31.1072 107.051C30.1798 105.76 28.9566 105.616 27.7706 106.468C26.5927 107.314 26.3295 108.524 27.2568 109.816L28.9191 112.131L35.2307 107.599L34.8574 107.079L32.3961 108.847L31.1072 107.051Z" fill="black"/>
<path d="M28.4464 102.163C26.8963 103.117 26.3609 104.327 27.1941 105.681C28.0273 107.035 29.3539 107.111 30.904 106.158C32.4456 105.209 32.9757 103.991 32.1426 102.637C31.3094 101.282 29.988 101.215 28.4464 102.163ZM30.5844 105.638C29.2898 106.435 28.2848 106.442 27.6455 105.403C27.0115 104.373 27.4715 103.479 28.7661 102.683C30.0521 101.892 31.0571 101.884 31.6912 102.914C32.3304 103.953 31.8705 104.847 30.5844 105.638Z" fill="black"/>
<path d="M25.7837 101.886C25.7085 101.744 25.6421 101.599 25.6086 101.514L25.145 101.75C25.1655 101.853 25.2272 101.99 25.3025 102.131C25.7211 102.916 26.3499 103.182 27.1422 103.031L26.198 103.535L26.4849 104.073L31.3827 101.463L31.0958 100.924L28.6248 102.241C27.2393 102.98 26.2541 102.768 25.7837 101.886Z" fill="black"/>
<path d="M25.1303 100.099L24.4154 98.5563L23.9346 98.7792L24.6494 100.322L23.2159 100.986L23.4724 101.539L24.9059 100.875L25.2591 101.637L25.74 101.414L25.3868 100.652L28.6349 99.1468C29.6874 98.659 29.7953 98.0358 29.3075 96.9834C29.2277 96.811 29.1309 96.6023 29.0336 96.416L28.5618 96.6347L28.793 97.1337C29.1168 97.8323 29.0861 98.2654 28.2877 98.6354L25.1303 100.099Z" fill="black"/>
<path d="M21.1977 96.4886L20.7238 96.6769C20.7754 96.8609 20.8326 97.0319 20.9028 97.2084C21.3497 98.3329 21.8746 98.5977 22.9526 98.1693L23.6495 97.8922L23.9561 98.6636L24.4486 98.4678L24.1421 97.6965L28.8071 95.8423L28.5781 95.2662L23.9131 97.1203L23.3258 95.6428L22.8333 95.8385L23.4206 97.3161L22.77 97.5746C22.008 97.8775 21.7 97.7524 21.3861 96.9625L21.1977 96.4886Z" fill="black"/>
<path d="M23.9865 90.2445C22.2569 90.8109 21.4544 91.8628 21.9492 93.3739C22.444 94.8849 23.7164 95.268 25.446 94.7017C27.1661 94.1384 27.9655 93.077 27.4707 91.5659C26.9759 90.0548 25.7067 89.6813 23.9865 90.2445ZM25.2562 94.1219C23.8116 94.595 22.8325 94.3684 22.4529 93.209C22.0764 92.059 22.7318 91.2972 24.1764 90.8242C25.6114 90.3543 26.5905 90.5809 26.967 91.7308C27.3467 92.8903 26.6912 93.6521 25.2562 94.1219Z" fill="black"/>
<path d="M26.8301 89.5814L19.3166 91.5614L19.4746 92.1609L26.9881 90.1809L26.8301 89.5814Z" fill="black"/>
<path d="M26.2846 87.1001L20.8544 88.2471L20.9825 88.8537L26.4127 87.7068L26.2846 87.1001ZM19.6803 88.4951L18.6823 88.7059L18.8105 89.3125L19.8084 89.1017L19.6803 88.4951Z" fill="black"/>
</svg>
