<?xml version="1.0" encoding="utf-8"?>
<!-- Generator: Adobe Illustrator 26.0.0, SVG Export Plug-In . SVG Version: 6.00 Build 0)  -->
<svg version="1.1" id="레이어_1" xmlns="http://www.w3.org/2000/svg" xmlns:xlink="http://www.w3.org/1999/xlink" x="0px"
	 y="0px" viewBox="0 0 619 150" style="enable-background:new 0 0 619 150;" xml:space="preserve">
<style type="text/css">
	.st0{fill:#FFFFFF;stroke:#000000;}
	.st1{fill:#FF5353;}
	.st2{fill:none;stroke:#000000;stroke-width:2;}
</style>
<path class="st0" d="M617.8,9v132c0,4.7-3.8,8.5-8.5,8.5H9c-4.7,0-8.5-3.8-8.5-8.5V9c0-4.7,3.8-8.5,8.5-8.5h600.3
	C614,0.5,617.8,4.3,617.8,9z"/>
<ellipse class="st1" cx="308.6" cy="75.1" rx="280.4" ry="66.1"/>
<path class="st2" d="M564,138.4L47,11"/>
<path d="M508.6,96.1v-0.5h-0.5v0.5H508.6z M508.6,111.9h-0.5v0.5h0.5V111.9z M511.5,111.9v0.5h0.5v-0.5H511.5z M511.5,106.2v-0.5
	H511v0.5H511.5z M511.5,103.7H511v0.5h0.5V103.7z M511.5,98.6v-0.5H511v0.5H511.5z M514.9,106.7c1.7,0,3.1-0.5,4.1-1.5
	c1-1,1.5-2.4,1.5-4.1h-1c0,1.5-0.4,2.6-1.2,3.4c-0.8,0.7-1.9,1.2-3.4,1.2V106.7z M520.5,101.2c0-1.7-0.5-3.1-1.5-4.1
	c-1-1-2.4-1.5-4.1-1.5v1c1.5,0,2.6,0.4,3.4,1.2c0.8,0.7,1.2,1.9,1.2,3.4H520.5z M514.9,95.6h-6.3v1h6.3V95.6z M508.1,96.1v15.8h1
	V96.1H508.1z M508.6,112.4h2.9v-1h-2.9V112.4z M512,111.9v-5.7h-1v5.7H512z M511.5,106.7h3.4v-1h-3.4V106.7z M512,103.7v-5.1h-1v5.1
	H512z M511.5,99.1h3v-1h-3V99.1z M514.5,99.1c0.8,0,1.3,0.2,1.6,0.5c0.3,0.3,0.5,0.8,0.5,1.5h1c0-0.9-0.2-1.7-0.8-2.2
	c-0.6-0.6-1.3-0.8-2.3-0.8V99.1z M516.6,101.2c0,0.7-0.2,1.2-0.5,1.5c-0.3,0.3-0.8,0.5-1.6,0.5v1c0.9,0,1.7-0.2,2.3-0.8
	c0.5-0.6,0.8-1.3,0.8-2.2H516.6z M514.5,103.2h-3v1h3V103.2z M528.3,102.7l-0.1,0.5l0.5,0.1l0-0.5L528.3,102.7z M528.4,100.5l0.5,0
	l0-0.4l-0.4-0.1L528.4,100.5z M524.4,102.7h-0.5l1,0.1L524.4,102.7z M524.4,100.6h0.5v-0.5h-0.5V100.6z M521.7,100.6v-0.5h-0.5v0.5
	H521.7z M521.7,111.9h-0.5v0.5h0.5V111.9z M524.4,111.9v0.5h0.5v-0.5H524.4z M527.4,103.2c0.4,0,0.8,0,0.9,0l0.1-1c-0.2,0-0.6,0-1,0
	V103.2z M528.8,102.7l0-2.3l-1,0l0,2.3L528.8,102.7z M528.5,100c-0.3-0.1-0.6-0.1-1-0.1v1c0.3,0,0.6,0,0.8,0.1L528.5,100z
	 M527.5,99.9c-0.9,0-1.7,0.2-2.3,0.7c-0.6,0.5-1,1.2-1.2,2l1,0.2c0.2-0.7,0.5-1.2,0.8-1.5c0.4-0.3,0.9-0.5,1.7-0.5V99.9z
	 M524.9,102.7v-2h-1v2H524.9z M524.4,100.1h-2.8v1h2.8V100.1z M521.2,100.6v11.3h1v-11.3H521.2z M521.7,112.4h2.8v-1h-2.8V112.4z
	 M524.9,111.9v-5.8h-1v5.8H524.9z M524.9,106.1c0-1.1,0.2-1.8,0.6-2.3c0.4-0.4,1-0.7,1.8-0.7v-1c-1,0-1.9,0.3-2.5,1
	c-0.6,0.7-0.9,1.7-0.9,2.9H524.9z M540,106.3c0-1.9-0.4-3.5-1.4-4.7c-1-1.2-2.4-1.7-4.2-1.7v1c1.6,0,2.7,0.5,3.5,1.4
	c0.7,0.9,1.2,2.2,1.2,4H540z M534.3,99.9c-1.8,0-3.3,0.6-4.2,1.7c-1,1.1-1.4,2.8-1.4,4.7h1c0-1.8,0.4-3.1,1.2-4
	c0.7-0.9,1.9-1.4,3.5-1.4V99.9z M528.7,106.3c0,1.9,0.4,3.6,1.4,4.7c1,1.2,2.4,1.7,4.2,1.7v-1c-1.6,0-2.7-0.5-3.5-1.4
	c-0.8-0.9-1.2-2.2-1.2-4.1H528.7z M534.3,112.7c1.8,0,3.3-0.6,4.2-1.7c1-1.1,1.4-2.8,1.4-4.7h-1c0,1.8-0.4,3.2-1.2,4.1
	c-0.7,0.9-1.9,1.4-3.5,1.4V112.7z M532.5,106.3c0-1.1,0.1-1.9,0.4-2.4c0.1-0.2,0.3-0.4,0.5-0.5c0.2-0.1,0.5-0.2,0.9-0.2v-1
	c-0.5,0-1,0.1-1.4,0.3c-0.4,0.2-0.7,0.5-0.9,0.9c-0.4,0.7-0.6,1.8-0.6,3H532.5z M534.3,103.1c0.4,0,0.7,0.1,0.9,0.2
	c0.2,0.1,0.4,0.3,0.5,0.5c0.3,0.5,0.4,1.3,0.4,2.4h1c0-1.2-0.1-2.2-0.6-3c-0.2-0.4-0.5-0.7-0.9-0.9c-0.4-0.2-0.9-0.3-1.4-0.3V103.1z
	 M536.2,106.3c0,1.2-0.1,2-0.4,2.5c-0.1,0.2-0.3,0.4-0.5,0.5c-0.2,0.1-0.5,0.2-0.9,0.2v1c0.5,0,1-0.1,1.4-0.3
	c0.4-0.2,0.7-0.5,0.9-0.9c0.4-0.8,0.6-1.8,0.6-3H536.2z M534.3,109.5c-0.4,0-0.7-0.1-0.9-0.2c-0.2-0.1-0.4-0.3-0.5-0.5
	c-0.3-0.5-0.4-1.3-0.4-2.5h-1c0,1.2,0.1,2.2,0.6,3c0.2,0.4,0.5,0.7,0.9,0.9c0.4,0.2,0.8,0.3,1.4,0.3V109.5z M544.9,102.9v-0.5h-0.5
	v0.5H544.9z M547.8,102.9v0.5h0.5v-0.5H547.8z M547.8,100.6h0.5v-0.5h-0.5V100.6z M544.9,100.6h-0.5v0.5h0.5V100.6z M544.9,97.4h0.5
	v-0.5h-0.5V97.4z M542.1,97.4v-0.5h-0.5v0.5H542.1z M542.1,100.6v0.5h0.5v-0.5H542.1z M540.5,100.6v-0.5H540v0.5H540.5z
	 M540.5,102.9H540v0.5h0.5V102.9z M542.1,102.9h0.5v-0.5h-0.5V102.9z M547.8,112l0.1,0.5l0.4-0.1V112H547.8z M547.8,109.9h0.5v-0.5
	h-0.5V109.9z M544.9,103.4h2.9v-1h-2.9V103.4z M548.3,102.9v-2.2h-1v2.2H548.3z M547.8,100.1h-2.9v1h2.9V100.1z M545.4,100.6v-3.2
	h-1v3.2H545.4z M544.9,96.9h-2.8v1h2.8V96.9z M541.6,97.4v3.2h1v-3.2H541.6z M542.1,100.1h-1.6v1h1.6V100.1z M540,100.6v2.2h1v-2.2
	H540z M540.5,103.4h1.6v-1h-1.6V103.4z M541.6,102.9v5.9h1v-5.9H541.6z M541.6,108.8c0,1.3,0.3,2.3,1.1,3c0.8,0.6,1.9,0.8,3.4,0.8
	v-1c-1.4,0-2.3-0.2-2.8-0.6c-0.5-0.4-0.8-1-0.8-2.2H541.6z M546.1,112.6c0.5,0,1.4,0,1.8-0.1l-0.1-1c-0.3,0-1.1,0.1-1.6,0.1V112.6z
	 M548.3,112v-2.2h-1v2.2H548.3z M547.8,109.4h-1.1v1h1.1V109.4z M546.7,109.4c-0.7,0-1-0.1-1.1-0.2c-0.1-0.1-0.2-0.3-0.2-0.9h-1
	c0,0.7,0.1,1.3,0.5,1.6c0.4,0.4,1.1,0.4,1.7,0.4V109.4z M545.4,108.3v-5.4h-1v5.4H545.4z M556.1,98.2v0.5h0.5v-0.5H556.1z
	 M556.1,96.1h0.5v-0.4l-0.4-0.1L556.1,96.1z M550.6,100.6v0.5h0.5v-0.5H550.6z M549,100.6v-0.5h-0.5v0.5H549z M549,102.9h-0.5v0.5
	h0.5V102.9z M550.6,102.9h0.5v-0.5h-0.5V102.9z M550.6,111.9h-0.5v0.5h0.5V111.9z M553.4,111.9v0.5h0.5v-0.5H553.4z M553.4,102.9
	v-0.5h-0.5v0.5H553.4z M556.1,102.9v0.5h0.5v-0.5H556.1z M556.1,100.6h0.5v-0.5h-0.5V100.6z M553.4,100.6h-0.5v0.5h0.5V100.6z
	 M556.6,98.2v-2.1h-1v2.1H556.6z M556.2,95.6c-0.5-0.1-1.1-0.1-1.7-0.1v1c0.5,0,1.1,0,1.5,0.1L556.2,95.6z M554.5,95.5
	c-1.4,0-2.5,0.2-3.3,0.9c-0.8,0.7-1.1,1.7-1.1,3h1c0-1.2,0.3-1.9,0.8-2.3c0.5-0.4,1.3-0.7,2.7-0.7V95.5z M550.1,99.4v1.2h1v-1.2
	H550.1z M550.6,100.1H549v1h1.6V100.1z M548.5,100.6v2.2h1v-2.2H548.5z M549,103.4h1.6v-1H549V103.4z M550.1,102.9v9.1h1v-9.1H550.1
	z M550.6,112.4h2.8v-1h-2.8V112.4z M553.9,111.9v-9.1h-1v9.1H553.9z M553.4,103.4h2.7v-1h-2.7V103.4z M556.6,102.9v-2.2h-1v2.2
	H556.6z M556.1,100.1h-2.7v1h2.7V100.1z M553.9,100.6v-1.1h-1v1.1H553.9z M553.9,99.6c0-0.5,0.1-0.6,0.2-0.7
	c0.1-0.1,0.3-0.2,0.9-0.2v-1c-0.6,0-1.2,0.1-1.6,0.4c-0.4,0.4-0.5,0.9-0.5,1.4H553.9z M555,98.7h1.2v-1H555V98.7z M567.9,106.3
	c0-1.9-0.4-3.5-1.4-4.7c-1-1.2-2.4-1.7-4.2-1.7v1c1.6,0,2.7,0.5,3.5,1.4c0.8,0.9,1.2,2.2,1.2,4H567.9z M562.2,99.9
	c-1.8,0-3.3,0.6-4.2,1.7c-1,1.1-1.4,2.8-1.4,4.7h1c0-1.8,0.4-3.1,1.2-4c0.7-0.9,1.9-1.4,3.5-1.4V99.9z M556.6,106.3
	c0,1.9,0.4,3.6,1.4,4.7c1,1.2,2.4,1.7,4.2,1.7v-1c-1.6,0-2.7-0.5-3.5-1.4c-0.8-0.9-1.2-2.2-1.2-4.1H556.6z M562.2,112.7
	c1.8,0,3.3-0.6,4.2-1.7c1-1.1,1.4-2.8,1.4-4.7h-1c0,1.8-0.4,3.2-1.2,4.1c-0.7,0.9-1.9,1.4-3.5,1.4V112.7z M560.4,106.3
	c0-1.1,0.1-1.9,0.4-2.4c0.1-0.2,0.3-0.4,0.5-0.5c0.2-0.1,0.5-0.2,0.9-0.2v-1c-0.5,0-1,0.1-1.4,0.3c-0.4,0.2-0.7,0.5-0.9,0.9
	c-0.4,0.7-0.6,1.8-0.6,3H560.4z M562.2,103.1c0.4,0,0.7,0.1,0.9,0.2c0.2,0.1,0.4,0.3,0.5,0.5c0.3,0.5,0.4,1.3,0.4,2.4h1
	c0-1.2-0.1-2.2-0.6-3c-0.2-0.4-0.5-0.7-0.9-0.9c-0.4-0.2-0.9-0.3-1.4-0.3V103.1z M564.1,106.3c0,1.2-0.1,2-0.4,2.5
	c-0.1,0.2-0.3,0.4-0.5,0.5c-0.2,0.1-0.5,0.2-0.9,0.2v1c0.5,0,1-0.1,1.4-0.3c0.4-0.2,0.7-0.5,0.9-0.9c0.4-0.8,0.6-1.8,0.6-3H564.1z
	 M562.2,109.5c-0.4,0-0.7-0.1-0.9-0.2c-0.2-0.1-0.4-0.3-0.5-0.5c-0.3-0.5-0.4-1.3-0.4-2.5h-1c0,1.2,0.1,2.2,0.6,3
	c0.2,0.4,0.5,0.7,0.9,0.9c0.4,0.2,0.8,0.3,1.4,0.3V109.5z M572.1,111.9v0.5h0.5v-0.5H572.1z M572.1,96.1h0.5v-0.5h-0.5V96.1z
	 M569.3,96.1v-0.5h-0.5v0.5H569.3z M569.3,111.9h-0.5v0.5h0.5V111.9z M572.6,111.9V96.1h-1v15.8H572.6z M572.1,95.6h-2.8v1h2.8V95.6
	z M568.8,96.1v15.8h1V96.1H568.8z M569.3,112.4h2.8v-1h-2.8V112.4z M574.5,98.7H574v0.5h0.5V98.7z M577.2,98.7v0.5h0.5v-0.5H577.2z
	 M577.2,96.1h0.5v-0.5h-0.5V96.1z M574.5,96.1v-0.5H574v0.5H574.5z M574.5,111.9H574v0.5h0.5V111.9z M577.2,111.9v0.5h0.5v-0.5
	H577.2z M577.2,100.6h0.5v-0.5h-0.5V100.6z M574.5,100.6v-0.5H574v0.5H574.5z M574.5,99.2h2.8v-1h-2.8V99.2z M577.7,98.7v-2.6h-1
	v2.6H577.7z M577.2,95.6h-2.8v1h2.8V95.6z M574,96.1v2.6h1v-2.6H574z M574.5,112.4h2.8v-1h-2.8V112.4z M577.7,111.9v-11.3h-1v11.3
	H577.7z M577.2,100.1h-2.8v1h2.8V100.1z M574,100.6v11.3h1v-11.3H574z M590,106.3c0-1.9-0.4-3.5-1.4-4.7c-1-1.2-2.4-1.7-4.3-1.7v1
	c1.6,0,2.7,0.5,3.5,1.4c0.7,0.9,1.2,2.2,1.2,4H590z M584.3,99.9c-1.8,0-3.3,0.6-4.2,1.7c-1,1.1-1.4,2.8-1.4,4.7h1
	c0-1.8,0.4-3.1,1.2-4c0.7-0.9,1.9-1.4,3.5-1.4V99.9z M578.7,106.3c0,1.9,0.4,3.6,1.4,4.7c1,1.2,2.4,1.7,4.2,1.7v-1
	c-1.6,0-2.7-0.5-3.5-1.4c-0.8-0.9-1.2-2.2-1.2-4.1H578.7z M584.3,112.7c1.8,0,3.3-0.6,4.3-1.7c1-1.1,1.4-2.8,1.4-4.7h-1
	c0,1.8-0.4,3.2-1.2,4.1c-0.7,0.9-1.9,1.4-3.5,1.4V112.7z M582.5,106.3c0-1.1,0.1-1.9,0.4-2.4c0.1-0.2,0.3-0.4,0.5-0.5
	c0.2-0.1,0.5-0.2,0.9-0.2v-1c-0.5,0-1,0.1-1.4,0.3c-0.4,0.2-0.7,0.5-0.9,0.9c-0.4,0.7-0.6,1.8-0.6,3H582.5z M584.3,103.1
	c0.4,0,0.7,0.1,0.9,0.2c0.2,0.1,0.4,0.3,0.5,0.5c0.3,0.5,0.4,1.3,0.4,2.4h1c0-1.2-0.1-2.2-0.6-3c-0.2-0.4-0.5-0.7-0.9-0.9
	c-0.4-0.2-0.9-0.3-1.4-0.3V103.1z M586.2,106.3c0,1.2-0.1,2-0.4,2.5c-0.1,0.2-0.3,0.4-0.5,0.5c-0.2,0.1-0.5,0.2-0.9,0.2v1
	c0.5,0,1-0.1,1.4-0.3c0.4-0.2,0.7-0.5,0.9-0.9c0.4-0.8,0.6-1.8,0.6-3H586.2z M584.3,109.5c-0.4,0-0.7-0.1-0.9-0.2
	c-0.2-0.1-0.4-0.3-0.5-0.5c-0.3-0.5-0.4-1.3-0.4-2.5h-1c0,1.2,0.1,2.2,0.6,3c0.2,0.4,0.5,0.7,0.9,0.9c0.4,0.2,0.8,0.3,1.4,0.3V109.5
	z"/>
<path d="M15,40.5c0-2.1,0.4-4.2,1.2-6.2c0.8-2,2-3.7,3.5-5.2c1.5-1.5,3.3-2.7,5.2-3.5c2-0.8,4-1.2,6.2-1.2s4.2,0.4,6.2,1.2
	c2,0.8,3.7,2,5.2,3.5c1.5,1.5,2.7,3.3,3.5,5.2c0.8,2,1.2,4,1.2,6.2H31.1H15z"/>
<ellipse cx="21.3" cy="50.5" rx="6.6" ry="6.8"/>
<circle cx="40.4" cy="50.5" r="6.8"/>
<ellipse cx="76.2" cy="40.2" rx="16.5" ry="15.9"/>
</svg>
