<svg width="303" height="150" viewBox="0 0 303 150" fill="none" xmlns="http://www.w3.org/2000/svg">
<path d="M253 -2.18557e-06C280.614 -9.78514e-07 303 22.3858 303 50L303 150L-1.99694e-05 150L41.2428 33.335C48.3053 13.3568 67.194 -1.03074e-05 88.3838 -9.38117e-06L253 -2.18557e-06Z" fill="#FFC7C7"/>
<path d="M94.2875 41.482L269 29L255.096 96.5497H89.1489L94.2875 41.482Z" fill="black"/>
<path d="M94.2153 83.884L252.337 94.4928L263.934 126.103L94.2153 119.174L94.2153 83.884Z" fill="black"/>
<path d="M130.481 83.9686H136.687V50.5737H130.481V64.2525H119.166V50.5737H112.96V83.9686H119.166V69.4876H130.481V83.9686Z" fill="white"/>
<path d="M163.894 67.2501C163.894 59.8618 162.712 55.7244 160.305 53.0224C158.49 51.0381 155.872 49.9827 152.579 49.9827C149.244 49.9827 146.626 51.0381 144.811 53.0224C142.404 55.7244 141.222 59.8618 141.222 67.2501C141.222 74.7227 142.404 78.8602 144.811 81.5199C146.626 83.5464 149.244 84.5597 152.579 84.5597C155.872 84.5597 158.49 83.5464 160.305 81.5199C162.712 78.8602 163.894 74.7227 163.894 67.2501ZM157.899 67.2501C157.899 73.2451 157.476 76.1582 156.252 77.8047C155.323 78.9868 154.141 79.5357 152.579 79.5357C150.975 79.5357 149.793 78.9868 148.906 77.8047C147.64 76.1582 147.217 73.2451 147.217 67.2501C147.217 61.3395 147.64 58.4264 148.906 56.7376C149.793 55.5977 150.975 55.0489 152.579 55.0489C154.141 55.0489 155.323 55.5977 156.252 56.7376C157.476 58.4264 157.899 61.3395 157.899 67.2501Z" fill="white"/>
<path d="M188.044 83.9686L196.15 62.7749V83.9686H202.187V50.5737H195.601L185.342 77.3825L175.04 50.5737H168.454V83.9686H174.492V62.7749L182.598 83.9686H188.044Z" fill="white"/>
<path d="M207.581 83.9686H228.141V78.6913H213.787V69.4876H226.199V64.2525H213.787V55.851H227.93V50.5737H207.581V83.9686Z" fill="white"/>
<path d="M118.567 114.332L123.43 101.616V114.332H127.053V94.2952H123.101L116.945 110.38L110.765 94.2952H106.813V114.332H110.435V101.616L115.299 114.332H118.567Z" fill="white"/>
<path d="M132.721 114.332L133.911 110.228H141.08L142.296 114.332H146.121L139.636 94.2952H135.38L128.896 114.332H132.721ZM140.168 107.087H134.823L137.508 97.9682L140.168 107.087Z" fill="white"/>
<path d="M151.7 94.2952H147.976V114.332H151.7V94.2952Z" fill="white"/>
<path d="M165.667 114.332H169.467V94.2952H165.794V107.923L158.752 94.2952H154.952V114.332H158.625V100.729L165.667 114.332Z" fill="white"/>
<path d="M238.396 106.144L238.396 109.545L179.456 109.545L179.456 106.144L238.396 106.144Z" fill="white"/>
</svg>
