<svg xmlns="http://www.w3.org/2000/svg" viewBox="0 0 480.18 437.61"><defs><style>.cls-1{fill:#ff5353;fill-rule:evenodd;}</style></defs><title>Asset 10</title><g id="Layer_2" data-name="Layer 2"><g id="Layer_1-2" data-name="Layer 1"><path class="cls-1" d="M10.67,154.3a34,34,0,0,1,1.22-3.54A12.29,12.29,0,0,1,10.67,154.3Z"/><path class="cls-1" d="M52.94,116.4c.52-.88,2.31-3.55,2.35-3.08C54.24,114.8,53.71,115.35,52.94,116.4Z"/><path class="cls-1" d="M56.51,112.26a34,34,0,0,1,2.35-3.11A19.55,19.55,0,0,1,56.51,112.26Z"/><path class="cls-1" d="M64.47,98.36a21.43,21.43,0,0,1,2.62-3C67,95.67,65.22,97.44,64.47,98.36Z"/><path class="cls-1" d="M71.31,94.9a49.72,49.72,0,0,1,4.54-5C75.22,90.78,72.92,93.09,71.31,94.9Z"/><path class="cls-1" d="M76.7,71.71c1.32-1.22,3.42-3,5.4-4.65a54.23,54.23,0,0,1,5-3.93c-1.77,1.28-3.53,2.83-5.3,4.31S78.26,70.39,76.7,71.71Z"/><path class="cls-1" d="M87.51,69.55A70,70,0,0,1,94,64.07l3.8-3c1.26-1,2.51-1.91,3.6-2.79.4-.14-1.25,1.1-3.14,2.51s-3.93,3.14-4.49,3.73c-1.06.83-1.88,1.42-2.74,2C89.8,67.52,88.83,68.62,87.51,69.55Z"/><path class="cls-1" d="M131.73,39c-.16,0,.15-.3,1.45-1.06.39-.18.54-.21.52-.11Z"/><path class="cls-1" d="M150.78,27.13c.78-.43,1.82-1,3-1.59s2.55-1.21,3.93-1.84c2.78-1.24,5.64-2.57,7.73-3.37.55-.24.56-.3,1.61-.72,2.48-1,8.05-3.26,2.66-1.06l-4.77,2c-1.53.65-3,1.35-4.52,2C157.42,24,154.29,25.29,150.78,27.13Z"/><path class="cls-1" d="M154,27.54c.73-.45,2-1.07,3.61-1.82C157.24,26,154.57,27.24,154,27.54Z"/><path class="cls-1" d="M157,21.15c.57-.33,3.36-1.44,4.82-2.08C160.78,19.56,158.23,20.7,157,21.15Z"/><path class="cls-1" d="M157.58,25.16c1.25-.68,4.16-2,5.74-2.8C164.79,21.81,159.56,24.22,157.58,25.16Z"/><path class="cls-1" d="M160.18,24.47c1-.55,4-2,6.27-3C165.11,22.1,162.21,23.5,160.18,24.47Z"/><path class="cls-1" d="M161.85,18.25a7.59,7.59,0,0,1,1.39-.67l2.43-.94C165.39,16.87,163.16,17.63,161.85,18.25Z"/><path class="cls-1" d="M164.52,18c1.75-.73,7.83-3.1,10.88-4.13C171.57,15.29,168.71,16.47,164.52,18Z"/><path class="cls-1" d="M167.5,21.05c2.67-1.28,6.66-2.93,9-3.81C174,18.29,170.33,19.77,167.5,21.05Z"/><path class="cls-1" d="M174,16.81c1-.48,2.82-1.12,4.32-1.71C178.67,15.11,175.8,16.08,174,16.81Z"/><path class="cls-1" d="M178.8,15.3c1.26-.54,2.41-.94,4.32-1.63C182.71,13.88,180.1,14.8,178.8,15.3Z"/><path class="cls-1" d="M183.59,13.85c.56-.33,4.64-1.72,3.78-1.29-1.16.4-1,.31-1.07.28C185,13.27,185.1,13.3,183.59,13.85Z"/><path class="cls-1" d="M194.55,8.36c-2.71.93-7.44,2.25,0,0Z"/><path class="cls-1" d="M200.47,6l3.5-.92,1.84-.46,2-.42C206.06,4.54,201.63,5.75,200.47,6Z"/><path class="cls-1" d="M202.21,5.45a25,25,0,0,1,2.81-.7Z"/><path class="cls-1" d="M207.3,3.35c.8-.19,2.6-.54,4-.8C210.91,2.67,208,3.24,207.3,3.35Z"/><path class="cls-1" d="M223.26.64c4.76-.75,6.45-.95,0,0Z"/><path class="cls-1" d="M101.36,48c.76-.63,1.91-1.38,2.42-1.81,1.66-.82,4.39-2.75,6.52-4C107.89,44,105,45.46,101.36,48Z"/><path class="cls-1" d="M160.74,20.21c1.29-.57,1.16-.43,2.66-1.11.15,0-.5.28-.53.34,2.68-1.09,4.18-1.68,6.48-2.59a2,2,0,0,0-.56.32c1.5-.67,3.16-1.29,5.23-2.07s4.63-1.54,7.83-2.7c-6.15,2.16-19.67,7.32-24.83,9.78.72-.46,5.37-2.34,5.84-2.71C163,19.33,159.9,20.73,160.74,20.21Z"/><path class="cls-1" d="M167.53,20.59c.6-.26.29-.15,0,0a28.52,28.52,0,0,1,2.66-1.11C169.56,19.8,162.55,22.71,167.53,20.59Z"/><path class="cls-1" d="M207.7,6.15l0,.08,6.26-1.64,3.05-.8,2.36-.5c-2.13.45-5.41,1.36-8.55,2.16l-4.43,1.16c-1.31.4-2.42.75-3.16,1l-2.73.78c-4.87,1.45-9.83,3.27-14.89,5l-7.5,2.84c-1.24.48-2.5.93-3.72,1.45l-3.65,1.57c1.06-.53,2.48-1.16,4.1-1.85s3.46-1.31,5.3-2l5.42-2c1.74-.6,3.31-1.17,4.57-1.66.83-.27,0,0-.56.21C193.92,10.3,201.94,7.87,207.7,6.15Z"/><path class="cls-1" d="M203.42,5c.87-.24,2.45-.66,3.42-.87a8,8,0,0,1-1.09.28C205,4.62,204,4.88,203.42,5Z"/><path class="cls-1" d="M430.3,79.35c-1.53-2.13-3.43-4.31-5.1-6.5-2-2.53-4-4.86-5.92-7.23s-4-4.62-6.26-7c-4-4.16-7.85-7.94-12.3-11.93-1.65-1.48-2.75-2.45-3.72-3.31s-1.85-1.51-3-2.45c-3.3-2.81-6.52-5.1-9.16-7.12s-5-3.41-6.59-4.4a160.21,160.21,0,0,0-16.61-9.21L359,18.93c-1.51-.74-3-1.26-4.47-1.86s-2.81-1.17-4.2-1.63l-4.09-1.35c-1.35-.46-2.69-.91-4.09-1.24-2.78-.71-5.59-1.56-8.76-2.1-1.58-.28-3.2-.68-4.95-.93l-5.56-.7c-1.36-.18-2.3-.07-5-.19-1.19,0-3.9-.25-4.77-.13-3.2.16-.4.26-6.36.41a9.09,9.09,0,0,0,1.06,0c-.16.2,2.2.36.74.53,4.07.1,3.19.14,6.32.34l3.92.41a37.73,37.73,0,0,1,4.29.56,81.92,81.92,0,0,1,8.06,1.7,16.81,16.81,0,0,0,1.81.52c1,.25,2,.52,2.35.64A113,113,0,0,1,346.83,18c.39.19,1.38.59,1.46.67a130.29,130.29,0,0,1,13,6.59c1.14.6,2.24,1.31,3.38,2l3.52,2.2c1.21.74,2.37,1.63,3.62,2.48s2.53,1.71,3.81,2.68l4,3.06,1.47,1.11c.48.41,1,.82,1.5,1.24l3.15,2.61c2.15,1.78,4.24,3.78,6.29,5.6s3.81,3.75,5.38,5.32,2.77,3,3.6,3.93c1.16,1.26,1.21,1.18,2.33,2.47.62.91,3.91,4.73,6.65,8.17,1,1.17,2.75,3.1,4.76,5.73l2.22,2.9c.71,1,1.37,2,2,2.91,1.32,1.93,2.64,3.78,3.86,5.64,1.13,1.69,2.48,3.38,3.64,5.16,1.5,2.33,3.78,5.85,5.78,9.42s3.86,7.06,5,9.1c1.64,3.27,2.11,4.57,3.38,7,1.12,2.25,2,3.92,2.11,3.6.85,1.58,2,3.81,3.17,6.5.58,1.34,1.21,2.77,1.87,4.27l1.87,4.7c.31.81.63,1.62.95,2.43l.89,2.48,1.76,4.9c1,3.24,2.13,6.28,2.94,8.93,2.23,7.83,4.34,15.31,5.91,22.93.29,1.53.63,3.37.92,4.94.44,2.63,1.19,6.1,1.71,9.48.91,5.79,1.47,10.89,2,15.68.05,1.86.15,3.59.26,5.24s.19,3.22.27,4.76c.25,3.06.36,6,.41,9.09.07,2.33-.15,4.63-.16,7.25,0,2.2,0,4.33-.13,6.75-.06,1.2-.13,2.43-.24,3.65s-.25,2.41-.33,3.57c-.15,1.72-.13,3.1-.3,4.5-.21,1.85-.43,3-.62,5s-.36,4.13-.61,6.2c-1,7.55-2.66,15.6-4.08,22.61-1.66,6.27-3.25,12.14-5.21,18.14a112,112,0,0,1-7.78,18.6,60.79,60.79,0,0,1-5,8.78,20.62,20.62,0,0,1-1.1,1.86,116.53,116.53,0,0,1-15.59,17.91,7.47,7.47,0,0,1-.74.9c-2.08,1.87-4.34,3.84-6.7,5.82l-7.16,5.85-6.95,5.38c-2.23,1.63-4.28,3.16-6.05,4.51-5.87,3.62-12.41,8.26-19.86,12.34L376.42,387l-2.63,1.32c-1.75.88-3.46,1.74-5.1,2.62-6.53,3.32-15.33,7.15-21.9,9.66-1.93.82-3.8,1.64-5.72,2.35-1.75.63-3.57,1.29-5.43,1.87s-3.78,1.16-5.66,1.8c-14.49,4.92-31.83,8.23-45.09,9.87-4.11.43-7.58,1.13-12.21,1.5-7.63.8-15.61.65-23.29.71-1.94,0-3.82.07-5.6.06-2.31,0-4.55-.19-6.83-.32l-3.45-.22-3.56-.32c-11.83-1-23.7-2.48-34.5-5.32a182.74,182.74,0,0,1-24-6.55c-2.12-.76-4.28-1.48-6.4-2.28l-6.3-2.5c-2.09-.81-4.09-1.78-6.09-2.64l-2.95-1.31c-1-.42-1.93-.84-2.85-1.32a45.15,45.15,0,0,1-5-2.29c-1.62-.84-3.24-1.71-4.9-2.64-2.59-1.42-5.41-2.84-8.24-4.46s-5.75-3.34-8.63-5.14-5.71-3.71-8.44-5.63-5.28-3.94-7.7-5.84a214.71,214.71,0,0,1-52.8-57.49,193.62,193.62,0,0,1-17.19-35,196.92,196.92,0,0,1-9.75-37.23c-.09-2-.4-4.51-.76-7s-.52-4.88-.77-6.62a10.75,10.75,0,0,0,0-2.06l-.07-1.42v-1.4c-.16-1.59-.27-3.29-.35-5.07a53.41,53.41,0,0,1,0-5.53c.09-1.91.17-3.87.26-5.85.05-1,.05-2,.14-3s.17-2,.26-3c-.29-2.09.4-6.9.6-9.95.47-1.24,0,1.77.45-.41a51.82,51.82,0,0,1,.44-5.91c.38-2.49,1-5.38,1.6-8.35l.47-2.24c.21-.74.41-1.48.62-2.21.4-1.46.8-2.9,1.18-4.27s.7-2.71,1.11-3.89.74-2.28,1.05-3.22c-.18.52-.34.58-.13-.08.84-1.74.73-2.75,1.46-4.78a24.64,24.64,0,0,1,1-2.49c.32-.81.64-1.6,1-2.38l1.81-4.59.43-1.11.5-1.07c.32-.71.65-1.41,1-2.1.63-1.4,1.25-2.77,1.87-4.12.31-.68.61-1.36.92-2l1-2c.65-1.33,1.37-2.61,2.07-3.92,1.42-2.59,2.95-5.17,4.65-7.8a56,56,0,0,0,4.28-5.82c-1.37,1.8-3,4.16-3.15,3.82,2.23-3,5.08-7.1,6.47-9.24,2.89-3.69,4.53-5.44,7.12-8.76.67-.78-.9.54.55-1.12C67.69,94.58,69.79,92,74,87.87a73.9,73.9,0,0,1,7.65-7.7c1.32-1.42-1.7,1.31-.55.13L84,77.52c1-.88,1.92-1.75,2.87-2.6,1.9-1.69,3.76-3.37,5.7-4.91a38.46,38.46,0,0,1,2.94-2.84c1.05-.88-.14.44,1.39-.92s-1.31.75-1.06.31A21.27,21.27,0,0,0,98.32,64c1.49-1.16,2.74-2.14,3.93-3.13s2.33-2,3.67-3c2.73-2.26,6-4.38,8.78-6.44l2.88-2.18c.89-.65,1.82-1.31,3.21-2.22,2.28-1.46,4.22-2.61,6.77-4.2,1.33-.85-1,.41.94-.77l6.68-4.1c2.22-1.32,4.45-2.55,6.57-3.78l3.14-1.8c1-.59,2.05-1.11,3-1.64l5.54-3c-2.62,1.43-5.08,2.73-7.43,4s-4.53,2.52-6.71,3.72l-3.23,1.8c-1.07.61-2.11,1.27-3.16,1.91-2.11,1.29-4.23,2.61-6.42,4-1.43.68-3.86,2.67-5.32,3.29-.53.49,1.54-.76-.43.5-.66.41-.94.53-1.93,1.2,1.1-1-.75.19-1.57.52-3.64,2.54-6.88,4.83-10,7.09s-5.94,4.53-9,6.91c-1.07,1,.86-.5-.37.56-2.23,1.89-4,3.27-6.62,5.51-1,.48-2.75,2-2,.91,1.95-1.71,4.18-3.45,6.45-5.37,1.15-1,2.31-1.94,3.52-2.91l3.73-2.9,3.8-3c1.26-1,2.61-1.9,3.91-2.86l3.91-2.79,1.94-1.37,2-1.28c3.16-2,6.48-4,8.2-5.39-2.35,1.48-4.46,2.84-6.54,4.07s-4.09,2.42-6.06,3.81c-2.57,1.79-5.22,3.63-7.77,5.59s-5.06,3.95-7.52,5.75c-1.37,1-2,1.43-3.18,2.4-.95.76-2.46,2.18-3.53,3s-1.3.89-2.28,1.7c-2,1.73-3.36,3.18-5.55,5.08l-2.76,2.35L78.87,78c-1.82,1.64-3.7,3.31-5.6,5.17-.77.6-.65.11.2-.77l5-4.67c1.37-1.26,2.7-2.58,5.16-4.67-.56.45-.93.7-1,.59a33.59,33.59,0,0,0,3-2.68c-3.61,3.14-3.58,2.53-2.47,1.31,2.29-1.91,4.63-4,7.12-6l7.52-6,7.41-5.52c1.17-.88,2.35-1.69,3.48-2.45L112,50.11c.83-.69,1.33-1.2,2.77-2.24a334.71,334.71,0,0,1,30.3-17.94,270.27,270.27,0,0,0-37,22.4,5,5,0,0,0-1.48.83c-2.65,2-5.55,4.21-8.31,6.26s-5.23,4.16-7.25,5.79c-2,1.24-3.84,2.52-5.66,3.74C73,79.84,63.49,87.41,53,99.4c-.09-.18-1,.71-1.38,1,.71-1.08,1.13-1.85,2-3.06,1.74-2,3.48-4,5.16-5.59,2.2-2.54,4.74-5.26,7.53-8,1.38-1.39,2.85-2.79,4.34-4.21l4.66-4.24C81.56,69.53,88.52,63.94,95,58.77c1.44-1.45.06-.64-1.19,0-6.5,4.75-12,9.67-18.57,15.07-1.37.77-1.54.53-.75-.45a39.12,39.12,0,0,1,5.07-4.85c2.12-1.74,4.57-3.85,7.26-6l8.36-6.37,8-5.63c2.41-1.66,4.55-3,6-3.94a293.61,293.61,0,0,1,41.87-23.26A299.38,299.38,0,0,1,196.54,7a309.77,309.77,0,0,0-48.06,17.45c.09,0-.43.33-1.58.85-3.67,1.63-7.32,3.53-11,5.41l-2.77,1.41c-.92.48-1.82,1-2.73,1.5l-5.42,3c-1.81,1-3.54,2.07-5.27,3.11s-3.41,2.1-5.08,3.11c-3.31,2.08-6.4,4.23-9.34,6.18-2.58,1.48-6.07,4.06-9.62,6.57s-6.91,5.29-9.44,7a17.7,17.7,0,0,1,3.19-3.3c.82-.73,1.77-1.54,2.82-2.41s2.2-1.79,3.46-2.7c-1.31.91-2.56,1.84-3.78,2.76l-3.63,2.67-3.49,2.55-3.23,2.55c-1.69,1.38-4,3.27-6.06,5.06s-3.86,3.44-4.74,4.12c-.43.33.25-.45-.53.23,1.36-1.18-2.38,2.14-2.64,2.39-1.71,1.69-1.36,1.41-3.42,3.31-2.66,2.49-2.61,2.44-4.38,3.94A231,231,0,0,0,35,112.15l-2.47,3.45c-.72,1-.25.05-1.17,1.36-.53.75-.16.5-.93,1.61-1.41,2.08-2.89,4.33-4.3,6.64s-2.67,4.72-3.89,6.94c-.75,1.4-1.56,2.81-2.3,4.28l-2.11,4.51-2.13,4.57c-.72,1.52-1.26,3.11-1.88,4.64s-1.21,3.07-1.79,4.57c-.29.74-.58,1.49-.87,2.22s-.47,1.48-.71,2.21l-2.54,8.13c-.66,2.21-.15-.79-.9,2.23A192.47,192.47,0,0,0,.24,224.72c0,1.44-.37.31-.2,2.41.08,2.63.44,2,.55,4.34a25.7,25.7,0,0,1-.21,3.63c.2,2.73.52,5.47.8,8.22.15,1.37.28,2.75.47,4.12s.47,2.74.7,4.11.47,2.74.71,4.11.44,2.76.79,4.12c.64,2.72,1.29,5.45,1.93,8.18.3,1.37.7,2.72,1.12,4.07l1.22,4,1.24,4.05c.41,1.35,1,2.66,1.42,4,1,2.65,1.91,5.33,3,8l3.4,7.8c1,2.45,2.27,4.76,3.43,7.12l1.77,3.53.89,1.76,1,1.71q2,3.4,3.91,6.81c.63,1.14,1.33,2.24,2,3.33l2.11,3.28c2.72,4.42,5.85,8.51,8.82,12.64,1.5,2.06,3.14,4,4.7,6s3.12,3.92,4.81,5.74a262.72,262.72,0,0,0,32.14,30.5,274.5,274.5,0,0,0,43.92,27.62A249.13,249.13,0,0,0,160.48,424c1.73.53,3.82,1,5.83,1.69,3,1,6.05,2,9.09,2.87,8.29,2.16,16.87,3.9,25.27,5.24a261.11,261.11,0,0,0,27.84,3.34c1.31.09,2.61.19,3.91.24l3.88.07c2.58,0,5.15.11,7.76.08,3.46,0,7.09.21,10.68,0,5-.09,10.1-.54,15.08-.94l7.4-.8c2.44-.25,4.83-.63,7.19-.91a235.63,235.63,0,0,0,37.79-7.7c1.73-.42,3.47-.94,5.26-1.47l5.43-1.62c1.82-.59,3.65-1.22,5.5-1.84s3.7-1.23,5.51-1.94c3.65-1.39,7.29-2.73,10.73-4.24,1.73-.73,3.44-1.44,5.09-2.16l4.76-2.23c10.19-4.25,20.16-10.07,30.75-16.67,1.11-.7,1.89-1.1,3-1.8a215.14,215.14,0,0,0,23.29-17.17c1.85-1.51,3.57-3.12,5.32-4.63l2.57-2.27,2.46-2.27c3.24-3,6.26-6,9-8.78,3.82-4.43,7.28-8.11,10.61-12.54a98.09,98.09,0,0,0,8.95-14.83c.85-1.67,1.66-3.17,2.44-4.89a136.31,136.31,0,0,0,6-16.48c1.36-4.44,2.74-9,3.91-13.76.3-1.19.61-2.39.92-3.6s.54-2.46.8-3.7c.53-2.49,1.06-5,1.42-7.63.83-4,1.65-9,2.34-14.11.29-2.58.63-5.19.84-7.75s.36-5,.47-7.36a224.78,224.78,0,0,0,.44-23.67c-.32-7.94-1-15.9-1.85-23.89-.33-2.69-.65-5.27-1-7.85s-.83-5.13-1.36-7.82-1-5.85-1.71-9-1.46-6.52-2.37-9.85q-.65-2.47-1.29-5t-1.44-5.05c-.92-3.39-2.09-6.75-3.16-10.15-.85-2.39-1.76-4.92-2.69-7.49l-3-7.61c-1.05-2.47-2.06-4.87-3-7.09s-1.88-4.22-2.61-6c-.9-3.4-4.77-9-8.6-16.11a30,30,0,0,1-2.39-5c-.92-1.68-1.92-3.25-2.91-4.8s-2-3.1-3-4.63c-1.2-1.81-2.19-3.4-3.29-5.14S432,81.7,430.3,79.35ZM81,78.85c0,.12.14,0,.48-.29C80.77,79.6,78.54,81.15,81,78.85Zm.79-.9c1.69-1.66,3.85-3.53,5.83-5.36a61.9,61.9,0,0,1,5.3-4.49c.72-.59-.84.28.28-.72,1.66-1.18,3.58-2.62,6.3-4.84.44.2-5.09,4.39-5.08,4.89a23.32,23.32,0,0,0-3.87,3.44c-4.19,3.52-5,4.49-8.11,7.17C83,77.09,81.75,78.4,81.78,78Z"/></g></g></svg>