<svg width="256" height="139" viewBox="0 0 256 139" fill="none" xmlns="http://www.w3.org/2000/svg">
<path d="M1.50001 136V137.5H3.00001H25C36.07 137.5 45.3522 129.846 47.843 119.541C52.3351 130.098 62.8031 137.5 75 137.5H100C113.038 137.5 124.101 129.041 128 117.312C131.899 129.041 142.962 137.5 156 137.5H181C193.197 137.5 203.665 130.098 208.157 119.541C210.648 129.846 219.93 137.5 231 137.5H253H254.5V136L254.5 3V1.5L253 1.5L231 1.5C219.93 1.5 210.648 9.15424 208.157 19.459C203.665 8.90202 193.197 1.5 181 1.5L156 1.5C142.962 1.5 131.899 9.95854 128 21.6875C124.101 9.95854 113.038 1.5 100 1.5L75 1.5C62.8031 1.5 52.3351 8.90201 47.843 19.459C45.3522 9.15424 36.07 1.5 25 1.5L3 1.5L1.5 1.5L1.5 3L1.50001 136Z" fill="white" stroke="black" stroke-width="3"/>
</svg>
