<svg xmlns="http://www.w3.org/2000/svg" viewBox="0 0 61.19 84.16"><defs><style>.cls-1{fill:#ff5353;}</style></defs><title>Asset 8</title><g id="Layer_2" data-name="Layer 2"><g id="Layer_1-2" data-name="Layer 1"><path class="cls-1" d="M11.29,33.11c7-5.79,13.36-14.44,22.7-16.35C42.65,15,50.87,20.65,48.32,30,42.93,49.76,17.61,57.85,2.48,68.16c-3.15,2.15-3.9,16.21,1.34,16l53.8-2.24c5-.21,4.6-16.52-.4-16.31L3.42,67.85l1.34,16C16.22,76,29.36,70.65,39.81,61.39c9.93-8.8,16-20.45,16.2-33.88C56.13,16.82,52.29,2.19,39.93.24,26.9-1.83,17.86,10.08,9,17.43c-2.67,2.21-2.72,7-2.24,10.09.21,1.35,1.89,7.77,4.52,5.59Z"/></g></g></svg>