<svg width="411" height="123" viewBox="0 0 411 123" fill="none" xmlns="http://www.w3.org/2000/svg">
<path d="M409.5 3V1.5H408H3H1.5V3V15.4468C1.5 23.6029 7.42598 30.3664 15.7546 33.5882C7.60472 35.8845 1.5 42.0344 1.5 49.6755V73.3245C1.5 80.9656 7.60472 87.1155 15.7546 89.4118C7.42598 92.6336 1.5 99.3971 1.5 107.553V120V121.5H3H408H409.5V120V107.553C409.5 99.3971 403.574 92.6336 395.245 89.4118C403.395 87.1155 409.5 80.9656 409.5 73.3245V49.6755C409.5 42.0344 403.395 35.8845 395.245 33.5882C403.574 30.3664 409.5 23.6029 409.5 15.4468V3Z" fill="white" stroke="black" stroke-width="3"/>
</svg>
