<?xml version="1.0" encoding="utf-8"?>
<!-- Generator: Adobe Illustrator 23.1.0, SVG Export Plug-In . SVG Version: 6.00 Build 0)  -->
<svg version="1.1" id="Layer_1" xmlns="http://www.w3.org/2000/svg" xmlns:xlink="http://www.w3.org/1999/xlink" x="0px" y="0px"
	 viewBox="0 0 74.9 84.7" style="enable-background:new 0 0 74.9 84.7;" xml:space="preserve">
<style type="text/css">
	.st0{fill:none;stroke:#D9A9FF;stroke-width:4.09;stroke-linecap:round;stroke-miterlimit:10;}
</style>
<title>Asset 9</title>
<g>
	<g id="Layer_1-2">
		<path class="st0" d="M19.4,41l-8.3-11.4c-0.8-1-0.5-2.5,0.5-3.3c0.5-0.3,1-0.5,1.6-0.4l14,1.5c1,0.1,2-0.4,2.4-1.4l5.7-12.9
			c0.5-1.2,1.9-1.7,3.1-1.2c0.5,0.2,1,0.7,1.2,1.2l5.7,12.9c0.4,0.9,1.4,1.5,2.4,1.4l14.1-1.5c1.3-0.1,2.4,0.8,2.6,2.1
			c0.1,0.6-0.1,1.2-0.4,1.6L55.5,41c-0.6,0.8-0.6,1.9,0,2.8l8.3,11.4c0.8,1,0.5,2.5-0.5,3.2c-0.5,0.3-1.1,0.5-1.6,0.4l-14-1.5
			c-1-0.1-2,0.5-2.4,1.4l-5.7,12.9c-0.5,1.2-1.9,1.7-3.1,1.2c-0.5-0.2-1-0.7-1.2-1.2l-5.7-12.9c-0.4-0.9-1.4-1.5-2.4-1.4l-14,1.5
			c-1.3,0.2-2.4-0.7-2.6-2c-0.1-0.6,0.1-1.2,0.5-1.7l8.3-11.4C20,42.9,20,41.8,19.4,41z"/>
	</g>
</g>
</svg>
