<svg width="411" height="309" viewBox="0 0 411 309" fill="none" xmlns="http://www.w3.org/2000/svg">
<path d="M3.5 205C3.5 229.194 19.8662 249.566 42.1318 255.649C18.9084 260.638 1.5 281.286 1.5 306V307.5H3H408H409.5V306C409.5 281.669 392.627 261.279 369.944 255.892C392.68 250.127 409.5 229.528 409.5 205C409.5 180.317 392.466 159.612 369.511 154C392.466 148.388 409.5 127.683 409.5 103C409.5 79.154 393.602 59.0212 371.827 52.6228C393.554 46.5816 409.5 26.653 409.5 3V1.5H408H3H1.5V3C1.5 27.0381 17.969 47.2296 40.2393 52.9068C18.945 59.6 3.5 79.4963 3.5 103C3.5 127.683 20.5343 148.388 43.4887 154C20.5343 159.612 3.5 180.317 3.5 205Z" fill="#A9EAFF" stroke="black" stroke-width="3"/>
</svg>
