<?xml version="1.0" encoding="utf-8"?>
<!-- Generator: Adobe Illustrator 26.0.0, SVG Export Plug-In . SVG Version: 6.00 Build 0)  -->
<svg version="1.1" id="레이어_1" xmlns="http://www.w3.org/2000/svg" xmlns:xlink="http://www.w3.org/1999/xlink" x="0px"
	 y="0px" viewBox="0 0 143 2322" style="enable-background:new 0 0 143 2322;" xml:space="preserve">
<style type="text/css">
	.st0{fill:#FF5353;}
</style>
<path class="st0" d="M129,215c7.7,0,14,6.3,14,14v125c0,7.7-6.3,14-14,14H14c-7.7,0-14-6.3-14-14l0-125c0-7.7,6.3-14,14-14H129z"/>
<path class="st0" d="M129,1008c7.7,0,14,6.3,14,14v125c0,7.7-6.3,14-14,14H14c-7.7,0-14-6.3-14-14l0-125c0-7.7,6.3-14,14-14H129z"/>
<path class="st0" d="M129,523c7.7,0,14,6.3,14,14v126c0,7.7-6.3,14-14,14H14c-7.7,0-14-6.3-14-14l0-126c0-7.7,6.3-14,14-14H129z"/>
<path class="st0" d="M125,367c9.9,0,18,8.1,18,18v64c0,9.9-8.1,18-18,18H18c-9.9,0-18-8.1-18-18l0-64c0-9.9,8.1-18,18-18H125z"/>
<path class="st0" d="M125,852c9.9,0,18,8.1,18,18v64c0,9.9-8.1,18-18,18H18c-9.9,0-18-8.1-18-18l0-64c0-9.9,8.1-18,18-18H125z"/>
<path class="st0" d="M125,0c9.9,0,18,8.1,18,18v63c0,9.9-8.1,18-18,18H18C8.1,99,0,90.9,0,81l0-63C0,8.1,8.1,0,18,0L125,0z"/>
<path class="st0" d="M113,156c16.6,0,30,13.4,30,30s-13.4,30-30,30H30c-16.6,0-30-13.4-30-30s13.4-30,30-30H113z"/>
<path class="st0" d="M113,734c16.6,0,30,13.4,30,30s-13.4,30-30,30H30c-16.6,0-30-13.4-30-30s13.4-30,30-30H113z"/>
<path class="st0" d="M113,793c16.6,0,30,13.4,30,30s-13.4,30-30,30H30c-16.6,0-30-13.4-30-30s13.4-30,30-30H113z"/>
<path class="st0" d="M113.5,98c16.3,0,29.5,13.2,29.5,29.5S129.8,157,113.5,157h-84C13.2,157,0,143.8,0,127.5
	C0,111.2,13.2,98,29.5,98H113.5z"/>
<path class="st0" d="M113.5,676c16.3,0,29.5,13.2,29.5,29.5S129.8,735,113.5,735h-84C13.2,735,0,721.8,0,705.5
	C0,689.2,13.2,676,29.5,676H113.5z"/>
<path class="st0" d="M114,466c16,0,29,13,29,29s-13,29-29,29H29c-16,0-29-13-29-29c0-16,13-29,29-29H114z"/>
<path class="st0" d="M114,951c16,0,29,13,29,29s-13,29-29,29H29c-16,0-29-13-29-29s13-29,29-29H114z"/>
<path class="st0" d="M129,1376c7.7,0,14,6.3,14,14v125c0,7.7-6.3,14-14,14H14c-7.7,0-14-6.3-14-14l0-125c0-7.7,6.3-14,14-14H129z"/>
<path class="st0" d="M129,2169c7.7,0,14,6.3,14,14v125c0,7.7-6.3,14-14,14H14c-7.7,0-14-6.3-14-14l0-125c0-7.7,6.3-14,14-14H129z"/>
<path class="st0" d="M129,1684c7.7,0,14,6.3,14,14v126c0,7.7-6.3,14-14,14H14c-7.7,0-14-6.3-14-14l0-126c0-7.7,6.3-14,14-14H129z"/>
<path class="st0" d="M125,1528c9.9,0,18,8.1,18,18v64c0,9.9-8.1,18-18,18H18c-9.9,0-18-8.1-18-18l0-64c0-9.9,8.1-18,18-18H125z"/>
<path class="st0" d="M125,2013c9.9,0,18,8.1,18,18v64c0,9.9-8.1,18-18,18H18c-9.9,0-18-8.1-18-18l0-64c0-9.9,8.1-18,18-18H125z"/>
<path class="st0" d="M125,1161c9.9,0,18,8.1,18,18v63c0,9.9-8.1,18-18,18H18c-9.9,0-18-8.1-18-18l0-63c0-9.9,8.1-18,18-18H125z"/>
<path class="st0" d="M113,1317c16.6,0,30,13.4,30,30s-13.4,30-30,30H30c-16.6,0-30-13.4-30-30s13.4-30,30-30H113z"/>
<path class="st0" d="M113,1895c16.6,0,30,13.4,30,30s-13.4,30-30,30H30c-16.6,0-30-13.4-30-30s13.4-30,30-30H113z"/>
<path class="st0" d="M113,1954c16.6,0,30,13.4,30,30s-13.4,30-30,30H30c-16.6,0-30-13.4-30-30s13.4-30,30-30H113z"/>
<path class="st0" d="M113.5,1259c16.3,0,29.5,13.2,29.5,29.5s-13.2,29.5-29.5,29.5h-84c-16.3,0-29.5-13.2-29.5-29.5
	c0-16.3,13.2-29.5,29.5-29.5H113.5z"/>
<path class="st0" d="M113.5,1837c16.3,0,29.5,13.2,29.5,29.5s-13.2,29.5-29.5,29.5h-84c-16.3,0-29.5-13.2-29.5-29.5
	c0-16.3,13.2-29.5,29.5-29.5H113.5z"/>
<path class="st0" d="M114,1627c16,0,29,13,29,29s-13,29-29,29H29c-16,0-29-13-29-29c0-16,13-29,29-29H114z"/>
<path class="st0" d="M114,2112c16,0,29,13,29,29s-13,29-29,29H29c-16,0-29-13-29-29s13-29,29-29H114z"/>
</svg>
