<svg width="256" height="139" viewBox="0 0 256 139" fill="none" xmlns="http://www.w3.org/2000/svg">
<path d="M1.50001 136V137.5H3.00001H25C36.07 137.5 45.3522 129.846 47.843 119.541C52.3351 130.098 62.8031 137.5 75 137.5H100C113.038 137.5 124.101 129.041 128 117.312C131.899 129.041 142.962 137.5 156 137.5H181C193.197 137.5 203.665 130.098 208.157 119.541C210.648 129.846 219.93 137.5 231 137.5H253H254.5V136L254.5 3V1.5L253 1.5L231 1.5C219.93 1.5 210.648 9.15424 208.157 19.459C203.665 8.90202 193.197 1.5 181 1.5L156 1.5C142.962 1.5 131.899 9.95854 128 21.6875C124.101 9.95854 113.038 1.5 100 1.5L75 1.5C62.8031 1.5 52.3351 8.90201 47.843 19.459C45.3522 9.15424 36.07 1.5 25 1.5L3 1.5L1.5 1.5L1.5 3L1.50001 136Z" fill="white" stroke="black" stroke-width="3"/>
<path d="M49.22 59.95L53.72 59.95L53.72 75.19C53.72 77.49 53.08 79.28 51.8 80.56C50.52 81.82 48.56 82.45 45.92 82.45C44.22 82.45 42.73 82.12 41.45 81.46C40.19 80.78 39.14 79.85 38.3 78.67L41 76.27C41.24 76.59 41.51 76.91 41.81 77.23C42.13 77.53 42.47 77.8 42.83 78.04C43.21 78.28 43.62 78.48 44.06 78.64C44.52 78.78 45.01 78.85 45.53 78.85C46.77 78.85 47.69 78.51 48.29 77.83C48.91 77.13 49.22 76.14 49.22 74.86L49.22 59.95ZM66.796 78.85C69.916 78.85 71.476 77.01 71.476 73.33L71.476 59.95L75.976 59.95L75.976 73.96C75.976 76.9 75.176 79.05 73.576 80.41C71.996 81.77 69.736 82.45 66.796 82.45C63.856 82.45 61.586 81.77 59.986 80.41C58.406 79.05 57.616 76.9 57.616 73.96L57.616 59.95L62.116 59.95L62.116 73.33C62.116 77.01 63.676 78.85 66.796 78.85ZM84.3816 63.55V68.98L95.6916 68.98L95.6916 72.58L84.3816 72.58L84.3816 78.4L96.4416 78.4V82L79.8816 82L79.8816 59.95L96.1416 59.95V63.55L84.3816 63.55ZM108.925 78.85C112.045 78.85 113.605 77.01 113.605 73.33L113.605 59.95L118.105 59.95L118.105 73.96C118.105 76.9 117.305 79.05 115.705 80.41C114.125 81.77 111.865 82.45 108.925 82.45C105.985 82.45 103.715 81.77 102.115 80.41C100.535 79.05 99.7449 76.9 99.7449 73.96L99.7449 59.95L104.245 59.95L104.245 73.33C104.245 77.01 105.805 78.85 108.925 78.85ZM126.511 67.27L126.511 82H122.011L122.011 59.95L126.871 59.95L135.481 74.65L135.481 59.95H139.951L139.951 82H135.181L126.511 67.27ZM143.537 68.53L155.687 68.53V72.13L143.537 72.13V68.53ZM163.746 67.87L170.376 60.25L176.196 60.25L166.746 70.66L176.856 82L171.066 82L163.746 73.27V82L159.276 82L159.276 60.25L163.746 60.25L163.746 67.87ZM178.505 59.95L183.065 59.95L183.065 82L178.505 82L178.505 59.95ZM197.421 78.97L191.901 68.59L191.901 82H187.401L187.401 59.95L191.571 59.95L198.891 73.45L206.151 59.95L210.321 59.95L210.321 82L205.821 82L205.821 68.59L200.361 78.97L197.421 78.97Z" fill="black"/>
</svg>
