<svg width="303" height="151" viewBox="0 0 303 151" fill="none" xmlns="http://www.w3.org/2000/svg">
<path d="M234.942 0.499997C259.265 0.499998 280.059 18.0033 284.209 41.9698L303 150.5L-1.56166e-05 150.5L32.8576 36.6371C39.0335 15.2353 58.6222 0.499989 80.8973 0.49999L234.942 0.499997Z" fill="#FF7C7C"/>
<path d="M57.5498 43.6532L239.201 27.5L245 95.0497L68.2919 84.7704L57.5498 43.6532Z" fill="#222222"/>
<path d="M71.0596 96.7384L236.188 74.3225L244.029 116.164L64.315 117.754L71.0596 96.7384Z" fill="#222222"/>
<path d="M91.6624 108.095C95.69 108.095 98.0965 105.79 98.0965 101.712C98.0965 97.659 95.69 95.3285 91.6624 95.3285L83.6577 95.3285L83.6577 115.365L87.3814 115.365L87.3814 108.095L91.6624 108.095ZM87.3814 104.929L87.3814 98.4949L91.1557 98.4949C93.3089 98.4949 94.3981 99.6348 94.3981 101.712C94.3981 103.789 93.3089 104.929 91.1557 104.929L87.3814 104.929Z" fill="white"/>
<path d="M113.501 105.334C113.501 100.901 112.791 98.4189 111.347 96.7977C110.258 95.6072 108.688 94.9739 106.712 94.9739C104.711 94.9739 103.14 95.6072 102.051 96.7977C100.607 98.4189 99.8977 100.901 99.8977 105.334C99.8977 109.818 100.607 112.3 102.051 113.896C103.14 115.112 104.711 115.72 106.712 115.72C108.688 115.72 110.258 115.112 111.347 113.896C112.791 112.3 113.501 109.818 113.501 105.334ZM109.904 105.334C109.904 108.931 109.65 110.679 108.916 111.667C108.358 112.376 107.649 112.706 106.712 112.706C105.749 112.706 105.04 112.376 104.508 111.667C103.748 110.679 103.495 108.931 103.495 105.334C103.495 101.788 103.748 100.04 104.508 99.0269C105.04 98.3429 105.749 98.0136 106.712 98.0136C107.649 98.0136 108.358 98.3429 108.916 99.0269C109.65 100.04 109.904 101.788 109.904 105.334Z" fill="white"/>
<path d="M126.825 113.592C126.851 114.302 126.952 114.935 127.129 115.365L130.878 115.365C130.701 114.909 130.574 114.302 130.524 113.542L130.346 110.755C130.194 108.121 129.308 106.829 127.205 106.5C129.536 105.816 130.701 104.093 130.701 101.459C130.701 97.583 128.472 95.3285 124.267 95.3285L116.237 95.3285L116.237 115.365L119.961 115.365L119.961 108.095L123.406 108.095C125.635 108.095 126.572 108.931 126.673 111.008L126.825 113.592ZM119.961 104.929L119.961 98.4949L123.659 98.4949C125.711 98.4949 126.977 99.3562 126.977 101.712C126.977 104.068 125.711 104.929 123.659 104.929L119.961 104.929Z" fill="white"/>
<path d="M131.767 98.4949L137.188 98.4949L137.188 115.365L140.912 115.365L140.912 98.4949L146.332 98.4949L146.332 95.3285L131.767 95.3285L131.767 98.4949Z" fill="white"/>
<path d="M148.297 115.365L152.02 115.365L152.02 106.956L159.468 106.956L159.468 103.814L152.02 103.814L152.02 98.4949L160.354 98.4949L160.354 95.3285L148.297 95.3285L148.297 115.365Z" fill="white"/>
<path d="M175.055 108.197C175.055 103.485 172.928 100.699 168.545 100.699C164.188 100.699 162.035 103.485 162.035 108.197C162.035 112.959 164.188 115.72 168.545 115.72C172.928 115.72 175.055 112.959 175.055 108.197ZM165.556 108.197C165.556 105.258 166.291 103.561 168.545 103.561C170.825 103.561 171.534 105.258 171.534 108.197C171.534 111.16 170.825 112.883 168.545 112.883C166.291 112.883 165.556 111.16 165.556 108.197Z" fill="white"/>
<path d="M181.03 115.365L181.03 95.3285L177.509 95.3285L177.509 115.365L181.03 115.365Z" fill="white"/>
<path d="M184.039 98.5962L187.56 98.5962L187.56 95.3285L184.039 95.3285L184.039 98.5962ZM184.039 115.365L187.56 115.365L187.56 101.053L184.039 101.053L184.039 115.365Z" fill="white"/>
<path d="M203.767 105.334C203.767 100.901 203.058 98.4189 201.614 96.7977C200.525 95.6072 198.955 94.9739 196.979 94.9739C194.978 94.9739 193.407 95.6072 192.318 96.7977C190.874 98.4189 190.165 100.901 190.165 105.334C190.165 109.818 190.874 112.3 192.318 113.896C193.407 115.112 194.978 115.72 196.979 115.72C198.955 115.72 200.525 115.112 201.614 113.896C203.058 112.3 203.767 109.818 203.767 105.334ZM200.17 105.334C200.17 108.931 199.917 110.679 199.183 111.667C198.625 112.376 197.916 112.706 196.979 112.706C196.016 112.706 195.307 112.376 194.775 111.667C194.015 110.679 193.762 108.931 193.762 105.334C193.762 101.788 194.015 100.04 194.775 99.0269C195.307 98.3429 196.016 98.0136 196.979 98.0136C197.916 98.0136 198.625 98.3429 199.183 99.0269C199.917 100.04 200.17 101.788 200.17 105.334Z" fill="white"/>
<path d="M101.795 48.2292L95.7152 48.2292L89.2135 73.7293L83.0496 48.2292L76.7168 48.2292L85.4138 81.6241L92.5488 81.6241L98.7549 57.3907L104.961 81.6241L112.096 81.6241L120.751 48.2292L114.418 48.2292L108.254 73.7293L101.795 48.2292Z" fill="white"/>
<path d="M145.841 64.9056C145.841 57.5173 144.659 53.3799 142.252 50.6779C140.437 48.6936 137.819 47.6382 134.526 47.6382C131.191 47.6382 128.573 48.6936 126.758 50.6779C124.352 53.3799 123.169 57.5173 123.169 64.9056C123.169 72.3783 124.352 76.5157 126.758 79.1755C128.573 81.2019 131.191 82.2152 134.526 82.2152C137.819 82.2152 140.437 81.2019 142.252 79.1755C144.659 76.5157 145.841 72.3783 145.841 64.9056ZM139.846 64.9056C139.846 70.9006 139.424 73.8137 138.199 75.4602C137.27 76.6423 136.088 77.1912 134.526 77.1912C132.922 77.1912 131.74 76.6423 130.853 75.4602C129.587 73.8137 129.164 70.9006 129.164 64.9056C129.164 58.995 129.587 56.0819 130.853 54.3932C131.74 53.2533 132.922 52.7044 134.526 52.7044C136.088 52.7044 137.27 53.2533 138.199 54.3932C139.424 56.0819 139.846 58.995 139.846 64.9056Z" fill="white"/>
<path d="M168.049 78.6688C168.091 79.8509 168.26 80.9064 168.555 81.6241L174.804 81.6241C174.508 80.8642 174.297 79.8509 174.213 78.5844L173.917 73.9404C173.664 69.5496 172.186 67.3965 168.682 66.8476C172.566 65.7077 174.508 62.8369 174.508 58.4461C174.508 51.9867 170.793 48.2292 163.785 48.2292L150.401 48.2292L150.401 81.6241L156.608 81.6241L156.608 69.5074L162.349 69.5074C166.064 69.5074 167.627 70.9006 167.795 74.3625L168.049 78.6688ZM156.608 64.2301L156.608 53.5066L162.771 53.5066C166.191 53.5066 168.302 54.942 168.302 58.8683C168.302 62.7946 166.191 64.2301 162.771 64.2301L156.608 64.2301Z" fill="white"/>
<path d="M203.412 48.2292L196.699 48.2292L188.593 61.9081L185.427 61.9081L185.427 48.2292L179.22 48.2292L179.22 81.6241L185.427 81.6241L185.427 67.1432L188.593 67.1432L198.008 81.6241L204.805 81.6241L193.575 64.4834L203.412 48.2292Z" fill="white"/>
<path d="M229.768 72.125C229.768 66.7632 226.559 63.5124 220.986 62.3725L216.975 61.5281C213.767 60.8526 212.289 59.6283 212.289 57.1374C212.289 54.6465 214.02 52.8733 217.313 52.8733C220.564 52.8733 222.337 54.6465 222.337 57.1374L222.337 57.6018L228.543 57.6018L228.543 57.1374C228.543 52.0289 224.701 47.6382 217.313 47.6382C209.925 47.6382 206.125 51.9867 206.125 57.1796C206.125 62.6258 209.461 65.6233 214.865 66.721L218.917 67.5653C222.042 68.1986 223.604 69.8874 223.604 72.336C223.604 75.1225 221.451 77.0223 217.946 77.0223C214.442 77.0223 212.289 75.1225 212.289 72.336L212.289 71.6183L206.125 71.6183L206.125 72.1672C206.125 78.0778 210.516 82.2152 217.946 82.2152C225.419 82.2152 229.768 78.0355 229.768 72.125Z" fill="white"/>
</svg>
