<svg width="303" height="150" viewBox="0 0 303 150" fill="none" xmlns="http://www.w3.org/2000/svg">
<path d="M234.942 -2.97492e-06C259.265 -1.91173e-06 280.059 17.5033 284.209 41.4698L303 150L-1.56166e-05 150L32.8576 36.1371C39.0335 14.7353 58.6222 -1.06821e-05 80.8973 -9.70842e-06L234.942 -2.97492e-06Z" fill="#FF7C7C"/>
<path d="M57.5498 43.1532L239.201 27L245 94.5497L68.2919 84.2704L57.5498 43.1532Z" fill="#B329CA"/>
<path d="M71.0596 96.2384L236.188 73.8225L244.029 115.664L64.315 117.254L71.0596 96.2384Z" fill="#FFD43E"/>
<path d="M91.6624 107.595C95.69 107.595 98.0965 105.29 98.0965 101.212C98.0965 97.159 95.69 94.8285 91.6624 94.8285L83.6577 94.8285L83.6577 114.865L87.3814 114.865L87.3814 107.595L91.6624 107.595ZM87.3814 104.429L87.3814 97.9949L91.1557 97.9949C93.3089 97.9949 94.3981 99.1348 94.3981 101.212C94.3981 103.289 93.3089 104.429 91.1557 104.429L87.3814 104.429Z" fill="black"/>
<path d="M113.501 104.834C113.501 100.401 112.791 97.9189 111.347 96.2977C110.258 95.1072 108.688 94.4739 106.712 94.4739C104.711 94.4739 103.14 95.1072 102.051 96.2977C100.607 97.9189 99.8977 100.401 99.8977 104.834C99.8977 109.318 100.607 111.8 102.051 113.396C103.14 114.612 104.711 115.22 106.712 115.22C108.688 115.22 110.258 114.612 111.347 113.396C112.791 111.8 113.501 109.318 113.501 104.834ZM109.904 104.834C109.904 108.431 109.65 110.179 108.916 111.167C108.358 111.876 107.649 112.206 106.712 112.206C105.749 112.206 105.04 111.876 104.508 111.167C103.748 110.179 103.495 108.431 103.495 104.834C103.495 101.288 103.748 99.5401 104.508 98.5269C105.04 97.8429 105.749 97.5136 106.712 97.5136C107.649 97.5136 108.358 97.8429 108.916 98.5269C109.65 99.5401 109.904 101.288 109.904 104.834Z" fill="black"/>
<path d="M126.825 113.092C126.851 113.802 126.952 114.435 127.129 114.865L130.878 114.865C130.701 114.409 130.574 113.802 130.524 113.042L130.346 110.255C130.194 107.621 129.308 106.329 127.205 106C129.536 105.316 130.701 103.593 130.701 100.959C130.701 97.083 128.472 94.8285 124.267 94.8285L116.237 94.8285L116.237 114.865L119.961 114.865L119.961 107.595L123.406 107.595C125.635 107.595 126.572 108.431 126.673 110.508L126.825 113.092ZM119.961 104.429L119.961 97.9949L123.659 97.9949C125.711 97.9949 126.977 98.8562 126.977 101.212C126.977 103.568 125.711 104.429 123.659 104.429L119.961 104.429Z" fill="black"/>
<path d="M131.767 97.9949L137.188 97.9949L137.188 114.865L140.912 114.865L140.912 97.9949L146.332 97.9949L146.332 94.8285L131.767 94.8285L131.767 97.9949Z" fill="black"/>
<path d="M148.297 114.865L152.02 114.865L152.02 106.456L159.468 106.456L159.468 103.314L152.02 103.314L152.02 97.9949L160.354 97.9949L160.354 94.8285L148.297 94.8285L148.297 114.865Z" fill="black"/>
<path d="M175.055 107.697C175.055 102.985 172.928 100.199 168.545 100.199C164.188 100.199 162.035 102.985 162.035 107.697C162.035 112.459 164.188 115.22 168.545 115.22C172.928 115.22 175.055 112.459 175.055 107.697ZM165.556 107.697C165.556 104.758 166.291 103.061 168.545 103.061C170.825 103.061 171.534 104.758 171.534 107.697C171.534 110.66 170.825 112.383 168.545 112.383C166.291 112.383 165.556 110.66 165.556 107.697Z" fill="black"/>
<path d="M181.03 114.865L181.03 94.8285L177.509 94.8285L177.509 114.865L181.03 114.865Z" fill="black"/>
<path d="M184.039 98.0962L187.56 98.0962L187.56 94.8285L184.039 94.8285L184.039 98.0962ZM184.039 114.865L187.56 114.865L187.56 100.553L184.039 100.553L184.039 114.865Z" fill="black"/>
<path d="M203.767 104.834C203.767 100.401 203.058 97.9189 201.614 96.2977C200.525 95.1072 198.955 94.4739 196.979 94.4739C194.978 94.4739 193.407 95.1072 192.318 96.2977C190.874 97.9189 190.165 100.401 190.165 104.834C190.165 109.318 190.874 111.8 192.318 113.396C193.407 114.612 194.978 115.22 196.979 115.22C198.955 115.22 200.525 114.612 201.614 113.396C203.058 111.8 203.767 109.318 203.767 104.834ZM200.17 104.834C200.17 108.431 199.917 110.179 199.183 111.167C198.625 111.876 197.916 112.206 196.979 112.206C196.016 112.206 195.307 111.876 194.775 111.167C194.015 110.179 193.762 108.431 193.762 104.834C193.762 101.288 194.015 99.5401 194.775 98.5269C195.307 97.8429 196.016 97.5136 196.979 97.5136C197.916 97.5136 198.625 97.8429 199.183 98.5269C199.917 99.5401 200.17 101.288 200.17 104.834Z" fill="black"/>
<path d="M101.795 47.7292L95.7152 47.7292L89.2135 73.2293L83.0496 47.7292L76.7168 47.7292L85.4138 81.1241L92.5488 81.1241L98.7549 56.8907L104.961 81.1241L112.096 81.1241L120.751 47.7292L114.418 47.7292L108.254 73.2293L101.795 47.7292Z" fill="white"/>
<path d="M145.841 64.4056C145.841 57.0173 144.659 52.8799 142.252 50.1779C140.437 48.1936 137.819 47.1382 134.526 47.1382C131.191 47.1382 128.573 48.1936 126.758 50.1779C124.352 52.8799 123.169 57.0173 123.169 64.4056C123.169 71.8783 124.352 76.0157 126.758 78.6755C128.573 80.7019 131.191 81.7152 134.526 81.7152C137.819 81.7152 140.437 80.7019 142.252 78.6755C144.659 76.0157 145.841 71.8783 145.841 64.4056ZM139.846 64.4056C139.846 70.4006 139.424 73.3137 138.199 74.9602C137.27 76.1423 136.088 76.6912 134.526 76.6912C132.922 76.6912 131.74 76.1423 130.853 74.9602C129.587 73.3137 129.164 70.4006 129.164 64.4056C129.164 58.495 129.587 55.5819 130.853 53.8932C131.74 52.7533 132.922 52.2044 134.526 52.2044C136.088 52.2044 137.27 52.7533 138.199 53.8932C139.424 55.5819 139.846 58.495 139.846 64.4056Z" fill="white"/>
<path d="M168.049 78.1688C168.091 79.3509 168.26 80.4064 168.555 81.1241L174.804 81.1241C174.508 80.3642 174.297 79.3509 174.213 78.0844L173.917 73.4404C173.664 69.0496 172.186 66.8965 168.682 66.3476C172.566 65.2077 174.508 62.3369 174.508 57.9461C174.508 51.4867 170.793 47.7292 163.785 47.7292L150.401 47.7292L150.401 81.1241L156.608 81.1241L156.608 69.0074L162.349 69.0074C166.064 69.0074 167.627 70.4006 167.795 73.8625L168.049 78.1688ZM156.608 63.7301L156.608 53.0066L162.771 53.0066C166.191 53.0066 168.302 54.442 168.302 58.3683C168.302 62.2946 166.191 63.7301 162.771 63.7301L156.608 63.7301Z" fill="white"/>
<path d="M203.412 47.7292L196.699 47.7292L188.593 61.4081L185.427 61.4081L185.427 47.7292L179.22 47.7292L179.22 81.1241L185.427 81.1241L185.427 66.6432L188.593 66.6432L198.008 81.1241L204.805 81.1241L193.575 63.9834L203.412 47.7292Z" fill="white"/>
<path d="M229.768 71.625C229.768 66.2632 226.559 63.0124 220.986 61.8725L216.975 61.0281C213.767 60.3526 212.289 59.1283 212.289 56.6374C212.289 54.1465 214.02 52.3733 217.313 52.3733C220.564 52.3733 222.337 54.1465 222.337 56.6374L222.337 57.1018L228.543 57.1018L228.543 56.6374C228.543 51.5289 224.701 47.1382 217.313 47.1382C209.925 47.1382 206.125 51.4867 206.125 56.6796C206.125 62.1258 209.461 65.1233 214.865 66.221L218.917 67.0653C222.042 67.6986 223.604 69.3874 223.604 71.836C223.604 74.6225 221.451 76.5223 217.946 76.5223C214.442 76.5223 212.289 74.6225 212.289 71.836L212.289 71.1183L206.125 71.1183L206.125 71.6672C206.125 77.5778 210.516 81.7152 217.946 81.7152C225.419 81.7152 229.768 77.5355 229.768 71.625Z" fill="white"/>
</svg>
