<svg width="157" height="157" viewBox="0 0 157 157" fill="none" xmlns="http://www.w3.org/2000/svg">
<circle cx="78.5" cy="78.5" r="78.5" fill="white"/>
<circle cx="57.9217" cy="44.9102" r="13" transform="rotate(-15 57.9217 44.9102)" fill="#56FF53"/>
<circle r="13" transform="matrix(0.965926 -0.258819 -0.258819 -0.965926 77.8508 119.286)" fill="#56FF53"/>
<circle r="13" transform="matrix(0.965926 -0.258819 -0.258819 -0.965926 67.2393 79.6833)" fill="#56FF53"/>
<path d="M81.2798 77.9917L68.08 28.7295L68.563 28.6001C82.1664 24.9551 96.149 33.0279 99.794 46.6313V46.6313C103.439 60.2347 95.3661 74.2173 81.7627 77.8623L81.2798 77.9917Z" fill="#56FF53"/>
<path d="M81.5386 78.958L94.7383 128.22L95.2213 128.091C108.825 124.446 116.898 110.463 113.253 96.8598V96.8598C109.608 83.2564 95.6249 75.1836 82.0215 78.8286L81.5386 78.958Z" fill="#56FF53"/>
</svg>
