<svg width="157" height="157" viewBox="0 0 157 157" fill="none" xmlns="http://www.w3.org/2000/svg">
<circle cx="78.5" cy="78.5" r="78.5" fill="white"/>
<path d="M87.9125 47.3046C85.4825 56.3736 76.1607 61.7555 67.0918 59.3254C58.0229 56.8954 52.641 47.5737 55.071 38.5048C57.501 29.4359 66.8227 24.054 75.8917 26.484C84.9606 28.914 90.3425 38.2357 87.9125 47.3046Z" fill="#6153FF"/>
<path d="M39.6805 88.2153L104.398 105.556L95.5977 138.398L30.8807 121.057L39.6805 88.2153Z" fill="#6153FF"/>
<path d="M75.9374 95.8597L93.2783 31.1427L93.7613 31.2721C111.632 36.0607 122.238 54.43 117.449 72.3011C112.661 90.1722 94.2915 100.778 76.4204 95.9892L75.9374 95.8597Z" fill="#6153FF"/>
</svg>
