<svg xmlns="http://www.w3.org/2000/svg" viewBox="0 0 45.98 63.39"><defs><style>.cls-1{fill:#ff5353;}</style></defs><title>Asset 15</title><g id="Layer_2" data-name="Layer 2"><g id="Layer_1-2" data-name="Layer 1"><path class="cls-1" d="M43.18,24.78a149.1,149.1,0,0,0-28.7,5.67c-2.91.88-6.58,1.57-8.6,4.07-2.2,2.73-2.45,6.88-2.11,10.2C5.46,61.22,27.11,64.81,40.35,63c3.72-.53,3-12.06-.28-11.59a46.63,46.63,0,0,1-17.33-.93c-3.39-.8-12.54-3.08-13.57-7.31.38,1.54-.05.48,1.36.32,1.72-.2,4.25-1.42,6-1.93q3.94-1.14,8-2.07a150.47,150.47,0,0,1,19-3.06c3.67-.37,3.13-11.94-.28-11.6Z"/><path class="cls-1" d="M41.3,1C31.3-.36,21-.59,11.18,1.89,3.25,3.89-.42,8.78,0,17.1c1.13,20.6,28.5,18.78,43.09,18.28,3.57-.13,3.28-11.72-.28-11.6a135.64,135.64,0,0,1-20.26-.29,42.75,42.75,0,0,1-10.2-2.18c-1.35-.5-7.73-3.23-7.21-5.26.17-.7,4.65-2.14,5.68-2.42a60.53,60.53,0,0,1,10.35-1.77,89.69,89.69,0,0,1,20.38.76c3.15.43,3.54-11.07-.29-11.59Z"/></g></g></svg>