<?xml version="1.0" encoding="utf-8"?>
<!-- Generator: Adobe Illustrator 23.1.0, SVG Export Plug-In . SVG Version: 6.00 Build 0)  -->
<svg version="1.1" id="Layer_1" xmlns="http://www.w3.org/2000/svg" xmlns:xlink="http://www.w3.org/1999/xlink" x="0px" y="0px"
	 viewBox="0 0 54.9 73.8" style="enable-background:new 0 0 54.9 73.8;" xml:space="preserve">
<style type="text/css">
	.st0{fill:#FF5353;}
</style>
<title>PLZ</title>
<g>
	<g id="Layer_3">
		<path class="st0" d="M47.1,7.9C37.7,4.7,27.6,3.7,17.7,5C8.9,6.2,5.6,12.8,5.6,21.2c0,8.1,3.2,14.5,11,17.4
			c9.4,3.4,19.3,5,29.3,4.9c3.5,0,3.3-11.6-0.3-11.6c-6.3,0-12.6-0.6-18.8-2c-4.1-0.9-13.5-2.4-15.8-6.8c-3.5-6.7,10.8-6.8,14-6.9
			c7.1-0.1,14.2,0.5,21,2.8C49.8,20.4,50.3,9,47.1,7.9z"/>
		<path class="st0" d="M46.3,31.8C34,30.9,6.1,28.4,7.2,47.5c0.9,15.8,23.4,21.9,36.3,21.9c3.5,0,3.3-11.6-0.3-11.6
			c-5.8,0.1-11.6-1-17.1-3.2c-2.6-1-5.1-2.3-7.4-3.7c-1.4-0.8-2.7-1.6-3.9-2.6c-1.3-1-1.9-3.3-2.5-1c-0.7,2.5,1.4-0.3,2.3-0.9
			c1.2-0.7,2.5-1.3,3.9-1.7c3-0.9,6.2-1.5,9.4-1.7c6.2-0.4,12.5-0.3,18.7,0.3C49.9,43.7,50.1,32.1,46.3,31.8L46.3,31.8z"/>
	</g>
</g>
</svg>
