<?xml version="1.0" encoding="utf-8"?>
<!-- Generator: Adobe Illustrator 23.1.0, SVG Export Plug-In . SVG Version: 6.00 Build 0)  -->
<svg version="1.1" id="Layer_1" xmlns="http://www.w3.org/2000/svg" xmlns:xlink="http://www.w3.org/1999/xlink" x="0px" y="0px"
	 viewBox="0 0 54.9 73.8" style="enable-background:new 0 0 54.9 73.8;" xml:space="preserve">
<style type="text/css">
	.st0{fill:none;stroke:#FF5353;stroke-width:0.25;stroke-linecap:round;stroke-miterlimit:10;}
</style>
<title>PLZ</title>
<g>
	<g id="Layer_3_1_">
		<path class="st0" d="M46.6,13.4c-8-2.9-16.8-3.3-25.4-2.9c-2.2,0-4.5,0.3-6.6,0.9c-2.2,0.6-4,2-5.2,3.9C8.5,17.1,8.1,19,8.2,21
			c-0.1,2,0.3,4,1.1,5.9c1.8,3.6,6,5.4,9.9,6.6c8.6,2.8,17.6,4.2,26.6,4.1"/>
		<path class="st0" d="M46.5,37.5c-4.1-0.3-8.3-0.5-12.4-0.5c-6,0-12.1,0.4-17.7,2.6c-3,1.1-6.1,3.2-6.5,6.4
			c-0.2,1.8,0.4,3.7,1.5,5.1c1.2,1.4,2.5,2.6,4.1,3.6c8.2,5.6,18,9,28,8.8"/>
	</g>
</g>
</svg>
