<?xml version="1.0" encoding="utf-8"?>
<!-- Generator: Adobe Illustrator 23.1.0, SVG Export Plug-In . SVG Version: 6.00 Build 0)  -->
<svg version="1.1" id="Layer_1" xmlns="http://www.w3.org/2000/svg" xmlns:xlink="http://www.w3.org/1999/xlink" x="0px" y="0px"
	 viewBox="0 0 54.6 82.6" style="enable-background:new 0 0 54.6 82.6;" xml:space="preserve">
<style type="text/css">
	.st0{fill:#FF5353;}
</style>
<title>plzzz</title>
<g>
	<g id="Layer_3">
		<path class="st0" d="M14.4,33.7c2.6-5.1,7.1-9,12.5-10.9c2.4-0.9,6.2-2,8.4-0.6c3.7,2.5,1.3,8.4-0.3,11.5C29,45.5,17.7,52,9,61.4
			c-1.8,2-0.4,11.2,2.3,8.3c12-13,32-24,30.1-44.6c-0.4-3.7-1.4-8.3-3.9-11.2c-2.2-2.7-5.7-2.1-8.8-1.4c-7.9,1.9-13.9,7.3-17.5,14.4
			C10,29.3,12,38.3,14.4,33.7L14.4,33.7z"/>
		<path class="st0" d="M10.2,70.7h34.4c2.9,0,2.8-9.6-0.2-9.6H10C7.1,61.1,7.2,70.7,10.2,70.7z"/>
	</g>
</g>
</svg>
