<svg xmlns="http://www.w3.org/2000/svg" viewBox="0 0 55.63 69.78"><defs><style>.cls-1{fill:none;stroke:#ff5353;stroke-miterlimit:10;stroke-width:0.25px;}</style></defs><title>Asset 13</title><g id="Layer_2" data-name="Layer 2"><g id="Layer_1-2" data-name="Layer 1"><path class="cls-1" d="M53.5,1.39a119.4,119.4,0,0,0-40.44,1c-4,.79-8.31,2-10.86,5.19C-1.25,11.91-.11,18.63,3.5,22.83S12.57,29.14,18,30.46C30.21,33.44,43,33,55.62,32.58A198.52,198.52,0,0,0,11.5,41.87c-1.93.64-3.95,1.38-5.27,2.93-1.95,2.28-1.83,5.73-.76,8.52,3,7.83,11.7,11.74,19.81,13.83,8.5,2.2,17.42,3.3,26.08,1.85"/></g></g></svg>