<svg xmlns="http://www.w3.org/2000/svg" viewBox="0 0 36.17 49.76"><defs><style>.cls-1{fill:#ff5353;}</style></defs><title>Asset 19</title><g id="Layer_2" data-name="Layer 2"><g id="Layer_1-2" data-name="Layer 1"><path class="cls-1" d="M6.68,19.58c3.76-3.17,7.15-7.51,11.92-9.19C25,8.13,30.74,12.61,28,19.45,23.67,30,10.2,34.43,1.47,40.3c-1.88,1.27-2.3,9.59.79,9.46l31.8-1.32c3-.13,2.72-9.77-.23-9.64L2,40.12l.79,9.45C16,40.73,33.47,34.26,33.12,15.49,33,9.82,31,2.33,24.92.47,16.83-2,10.73,5.76,5.33,10.32c-2.31,1.95-.72,11,1.35,9.26Z"/></g></g></svg>