<svg xmlns="http://www.w3.org/2000/svg" viewBox="0 0 476.72 435.83"><defs><style>.cls-1{fill:#ff5353;fill-rule:evenodd;}</style></defs><title>Asset 11</title><g id="Layer_2" data-name="Layer 2"><g id="Layer_1-2" data-name="Layer 1"><path class="cls-1" d="M452.67,195.68a27,27,0,0,1-.56-3.26A9.9,9.9,0,0,1,452.67,195.68Z"/><path class="cls-1" d="M459.24,140.46c-.41-1-1.85-4.1-1.41-3.87C458.57,138.37,458.8,139.15,459.24,140.46Z"/><path class="cls-1" d="M457.51,134.9c-.25-.22-1.09-2.71-1.61-3.83C456.13,131.05,457.3,134.15,457.51,134.9Z"/><path class="cls-1" d="M448.41,120.77a32.53,32.53,0,0,1-1.81-3.69A33.6,33.6,0,0,1,448.41,120.77Z"/><path class="cls-1" d="M447.56,112.83c-.79-1.19-1.91-3.33-3.5-6.22a26.23,26.23,0,0,1,1.6,2.6C446.29,110.37,447,111.71,447.56,112.83Z"/><path class="cls-1" d="M426.65,101.28l-3.5-5.87c-1.33-2.1-2.57-4.12-3.11-5.24,1,1.83,2.26,3.72,3.43,5.6S425.73,99.55,426.65,101.28Z"/><path class="cls-1" d="M426.4,90.46c-1.34-1.74-2.94-4.35-4.8-7l-2.74-4c-.95-1.28-1.89-2.51-2.77-3.6-.14-.4,1.1,1.25,2.51,3.13s2.87,4.12,3.43,4.72c.74,1.11,1.3,2,1.83,2.88A39.72,39.72,0,0,1,426.4,90.46Z"/><path class="cls-1" d="M393,48.4c0,.16-.34-.06-1.43-1.1-.28-.33-.36-.47-.25-.47Z"/><path class="cls-1" d="M375.14,34.92c-1.49-1-3.8-2.71-6.29-4.4L365.13,28l-1.71-1.15-1.54-1c-.52-.29-.58-.26-1.54-.85-2.25-1.41-7.47-4.26-2.42-1.48,3.09,1.8,5.87,3.36,8.57,5.24,1.35.93,2.77,1.8,4.17,2.84Z"/><path class="cls-1" d="M374,31.89c-.73-.45-1.9-1.28-3.36-2.3A36.22,36.22,0,0,1,374,31.89Z"/><path class="cls-1" d="M367,32.46c-.56-.3-2.9-2-4.17-2.89C363.8,30.18,366,31.69,367,32.46Z"/><path class="cls-1" d="M370.18,29.89c-1.23-.7-3.91-2.47-5.42-3.38C363.5,25.54,368.33,28.7,370.18,29.89Z"/><path class="cls-1" d="M368.22,28c-1-.51-3.77-2.43-6-3.6.65.35,1.71.88,2.78,1.58Z"/><path class="cls-1" d="M362.18,30c-.2-.06-2.07-1.22-3.4-2.06C359.11,28.06,361,29.26,362.18,30Z"/><path class="cls-1" d="M360.53,28c-.8-.46-2.53-1.53-4.39-2.7l-5.32-3L355.64,25C357.18,25.87,358.71,26.88,360.53,28Z"/><path class="cls-1" d="M361.24,23.87c-1.34-.66-2.88-1.64-4.47-2.43l-4.2-2.18c1.24.59,2.73,1.36,4.26,2.15S359.86,23.15,361.24,23.87Z"/><path class="cls-1" d="M353.9,21.42c-1-.46-2.68-1.39-4.14-2C349.54,19.1,352.19,20.51,353.9,21.42Z"/><path class="cls-1" d="M349.57,18.91c-1.27-.5-2.36-1-4.2-1.87C345.82,17.18,348.31,18.36,349.57,18.91Z"/><path class="cls-1" d="M345.16,16.58c-.58-.27-4.63-1.72-3.69-1.52,1.16.42,1,.41,1,.46A24.28,24.28,0,0,1,345.16,16.58Z"/><path class="cls-1" d="M333.31,14a37.38,37.38,0,0,1,3.7,1.25C337.55,15.54,336.92,15.22,333.31,14Z"/><path class="cls-1" d="M327.2,12.9,323.8,12c-.58-.15-1.17-.35-1.79-.47l-1.93-.39C321.79,11.35,326.1,12.61,327.2,12.9Z"/><path class="cls-1" d="M325.46,12.54a23.43,23.43,0,0,1-2.72-.74Z"/><path class="cls-1" d="M320.16,12.13c-.77-.14-2.5-.52-3.86-.83C316.71,11.35,319.55,12,320.16,12.13Z"/><path class="cls-1" d="M304.69,9.69c-4.71-.29-6.38-.45,0,0Z"/><path class="cls-1" d="M406,76.27c-.6-.7-1.39-1.72-1.83-2.16-.82-1.54-2.91-3.89-4.27-5.78.95,1,1.85,2.22,2.84,3.52S404.7,74.66,406,76.27Z"/><path class="cls-1" d="M364.35,29.86c-1.14-.76-.94-.77-2.3-1.6-.09-.12.49.24.56.24l-5.78-3.56c.28.14.55.28.57.24l-1.07-.61L355.18,24l-2.57-1.45c-.94-.52-2-1.14-3.15-1.74l-4-1.92c1.44.68,3.37,1.46,5.4,2.55s4.29,2.26,6.44,3.56,4.26,2.6,6.1,3.83l4.56,3.12c-.76-.36-4.72-3.23-5.26-3.43C362.48,28.49,365.22,30.27,364.35,29.86Z"/><path class="cls-1" d="M360.86,24.12c-.57-.33-.31-.15,0,0-.2,0-2.2-1.27-2.5-1.46C359,23,365.55,26.82,360.86,24.12Z"/><path class="cls-1" d="M321,9.41l.07-.06c-1.83-.24-4.18-.67-6.41-.9L309.09,8a108.24,108.24,0,0,1,16.56,2.16l2.77.66A119,119,0,0,1,357.85,22.4c-1.08-.5-2.49-1.16-4.05-2l-2.45-1.26c-.84-.45-1.76-.81-2.65-1.22-1.8-.8-3.6-1.66-5.31-2.32s-3.31-1.19-4.59-1.6c-.82-.32,0,0,.56.19-2.15-.9-5.3-1.75-8.58-2.75-.82-.27-1.67-.44-2.51-.63l-2.53-.55A44.15,44.15,0,0,0,321,9.41Z"/><path class="cls-1" d="M324.23,12.35l-1.63-.41c-.61-.17-1.24-.25-1.72-.35a9.7,9.7,0,0,1,1.08.17C322.73,11.91,323.68,12.19,324.23,12.35Z"/><path class="cls-1" d="M93.45,64.64c1.91-1.66,4.11-3.38,6.19-5l3.62-2.81c1.2-.9,2.42-1.74,3.62-2.61l3.63-2.62,1.85-1.34,1.92-1.31,6.77-4.66c2.28-1.5,4.62-3,7.07-4.51,1.82-1.15,3-1.91,4.12-2.53l3.24-1.9c1.82-1,3.55-2.09,5.2-3l4.65-2.5,3.84-2.09c1.13-.63,2.14-1.11,2.94-1.56,2.64-1.32,5.59-2.87,8.53-4.24l8.18-3.75c.73-.36,2.36-1,2.65-1.1l8.42-3.55,7.86-3c2.61-1,5.37-1.88,8.36-2.9,1.5-.48,3.06-1,4.72-1.53l5.31-1.52c1.29-.42,2.15-.74,4.69-1.5l4.59-1.17c3.07-.82.32-.33,6.08-1.73a8.86,8.86,0,0,0-1,.18c.13-.23-2.21.11-.82-.36-4,.79-3.16.48-6.28,1.06-2,.32-5.7,1.22-8.16,1.78-2.81.63-5.8,1.29-8.13,1.92a18.77,18.77,0,0,0-1.86.44c-1,.26-2,.54-2.39.61-4.36,1.13-7.59,2.21-12,3.54-.43.11-1.47.42-1.58.42-2.29.71-4.56,1.53-6.9,2.32s-4.75,1.58-7.2,2.55l-7.76,3-8.55,3.66c-1.1.44-3.39,1.53-4.72,2.18L136.85,27l-7.68,4c-2.53,1.26-4.82,2.65-6.84,3.73s-3.68,2-4.82,2.62c-1.52.91-1.47.94-3,1.85-.5.25-1.88,1-3.62,2l-2.82,1.65c-1,.6-2,1.25-2.9,1.88-1.3.86-3.49,2.49-6.31,4.4-2.08,1.48-4.1,2.91-6.09,4.28s-3.93,2.71-5.72,4.15S83.73,60.34,82,61.71c-1.14.87-2.51,2-4,3.31s-3.17,2.63-4.79,4c-3.23,2.72-6.26,5.5-8.09,7.07C63.67,77.33,62.69,78.2,61.8,79s-1.69,1.51-2.72,2.53c-1.87,1.81-3.15,3.33-2.82,3.29-2.49,2.8-7.12,7.62-11.86,13.07a178.16,178.16,0,0,0-12.79,16.39,118,118,0,0,0-6.92,10.55c-1.08,1.77-2,3.62-3,5.44l-2.92,5.45c-.42.72-.81,1.53-1.2,2.36s-.79,1.65-1.15,2.42c-1.14,2.58-2.75,6-3.9,9.43L11,154.15c-.49,1.38-1.06,2.68-1.42,4-.8,2.65-1.55,5.17-2.28,7.62a123.31,123.31,0,0,0-4.42,19.75c-.22,1.22-.47,2.42-.72,3.67s-.37,2.54-.54,3.92c-.27,2.33-.43,4.58-.74,7.14s-.45,5.2-.6,7.67c-.1,1.84-.16,3.29-.14,4.79,0,2-.12,3.23-.11,5.32s.11,4.42.3,6.63c.12,2,.23,4.09.35,6.16.07,1,.09,2.09.19,3.12l.34,3.11c.25,2.06.49,4.11.72,6.12l.2,1.5.28,1.46c.19,1,.38,1.92.57,2.86.52,3.42,1,6.74,1.78,10l1.11,4.88c.19.81.38,1.63.56,2.45l.71,2.43c.47,1.64,1,3.29,1.44,5s.94,3.41,1.57,5.13,1.2,3.5,1.82,5.33,1.21,3.72,2,5.62,1.53,3.51,2.24,5.16c.35.84.7,1.67,1.06,2.55s.81,1.76,1.23,2.74a24.26,24.26,0,0,1,1.18,2.14c.9,1.93,1.82,3.89,2.8,5.84L25.68,314c2.09,3.89,4.59,7.55,6.81,11.35a9.37,9.37,0,0,1,.77,1c1.6,2.57,3.45,5.22,5.29,7.95l1.4,2.05,1.5,2,3,3.94c1.95,2.63,4.06,5,6,7.25s3.74,4.31,5.46,6c1.21,1.39,2.5,2.82,3.85,4.27.68.72,1.35,1.48,2.09,2.19L64.1,364l4.68,4.44c1.6,1.51,3.33,2.92,5,4.44s3.14,2.88,4.74,4.22,3.19,2.64,4.76,3.87c3,2.48,6.73,5.08,10.33,7.77,1.78,1.36,3.66,2.57,5.43,3.77l5.07,3.37c1.89,1.2,3.86,2.15,5.74,3.28,1.72,1,3.44,2.14,5.26,3.18s3.67,2.07,5.55,3.05c3.59,2,7.46,3.7,11.3,5.6,1.91,1,3.9,1.81,5.87,2.67l5.89,2.59c7.9,3.22,15.67,6.16,22.54,8.2,4.23,1.36,7.95,2.1,12.75,3.33,8,1.82,16.27,4,24.46,5.08,2,.31,4,.52,5.95.7,2.46.26,4.85.58,7.28.88l7.51.71c12.72,1,25.52.67,37.5.31,7.63-.71,17-1.52,26.61-3.06a278.63,278.63,0,0,0,28.09-5.71c1.91-.63,3.77-1.2,5.68-1.7s3.84-.95,5.81-1.56c3-1,6.28-2,9.6-3.24l5-1.87,2.56-1,2.55-1,5.11-2.07c1.7-.68,3.35-1.45,5-2.16l4.9-2.11,4.69-2.12A265.68,265.68,0,0,0,404,386.18l4.34-3.16,2.17-1.59,2.12-1.66c2.82-2.21,5.67-4.4,8.38-6.78l4.1-3.49q2-1.78,4-3.63c2.66-2.46,5.29-5,7.83-7.67a124.63,124.63,0,0,0,14.12-17.47,114.66,114.66,0,0,0,10.38-20,171.66,171.66,0,0,0,6.74-20.55c.88-3.42,1.69-6.85,2.46-10.27s1.45-6.86,2-10.3a84.43,84.43,0,0,0,2.17-14.79,42.89,42.89,0,0,0,.87-5.26c.14-7,1.18-15.68,1.08-24.47a32.65,32.65,0,0,1-.35-5,41.54,41.54,0,0,0-.34-5.8c.22-1.42.32,1.9.37-.52a63.09,63.09,0,0,1-.76-6.38c-.31-2.71-.53-5.9-.89-9.16s-.68-6.61-1.15-9.67c-.21-1.52-.42-3-.61-4.32s-.46-2.55-.66-3.6c.1.59,0,.73-.15,0-.13-2.07-.7-3-1.1-5.26-.79-3.8-1.5-7.33-2.41-10.64-.44-1.66-.85-3.28-1.29-4.85s-.94-3.11-1.4-4.64c-1.85-6.08-3.93-11.78-6.14-18a47.06,47.06,0,0,0-2.42-7.19c.76,2.25,1.81,5.08,1.43,5-.63-1.87-1.38-4-2.2-6s-1.64-3.75-2.24-4.93c-.88-2.28-1.63-4-2.31-5.61s-1.36-3.22-2.4-5.14c-.45-1,.14,1.07-.81-1-.69-1.56-1.3-2.92-1.88-4.17s-1.2-2.35-1.76-3.45l-3.63-7c-.56-.71-1.67-2.66-2.84-4.63s-2.35-4-2.85-5c-1.1-1.65.92,2,0,.58-2.9-4.7-5.75-9-8.48-13.26-.79-1-1.39-1.59-2.64-3.25-.83-1.13.44.18-.85-1.47s.69,1.37.25,1.09a20.82,20.82,0,0,0-2.38-2.72,42.4,42.4,0,0,0-3.08-4.06l-3.11-3.72c-2.34-2.72-4.75-5.9-7.12-8.43-2-2.2-2.93-3.07-5.24-5.51-.93-1-1.76-1.95-2.61-2.92s-1.8-1.91-2.88-3,.65.88-1-.73a164.82,164.82,0,0,0-22.39-18.5c2.52,1.65,4.73,3.38,6.85,5s4,3.32,6,4.94,3.7,3.31,5.55,5,3.65,3.44,5.57,5.24a31.39,31.39,0,0,0,2.2,2.28,18.7,18.7,0,0,1,2.07,2.38c.58.44-1-1.4.57.35.52.58.69.84,1.53,1.71-1.21-.92.33.7.76,1.47,5.94,6.7,10.35,12.16,15,18.39.88,1.13-.45-.91.54.4l2.42,3.37c.8,1.11,1.64,2.28,2.62,3.72.4,1,1.6,3,.67,2.12a242.12,242.12,0,0,0-22.89-29.07c-1.27-1.39-2.55-2.81-3.71-4.09a29.62,29.62,0,0,0-3.13-3c1,1,1.93,1.9,2.8,2.84l2.46,2.8,2.34,2.72c.74.92,1.49,1.84,2.27,2.76l3.1,3.61L413,70.93l1.54,1.85,1.47,1.89c1,1.26,1.91,2.5,2.81,3.74,1,1.39,1.32,2,2.22,3.32.7,1,2,2.6,2.79,3.72s.76,1.39,1.46,2.45c1.44,2.18,2.75,3.74,4.23,6.24,2.56,4.13,4.74,8.36,7.34,13,.36.92-.07.66-.68-.4-1.49-2.78-2.44-4.36-3.34-6s-1.91-3.22-3.58-6c.35.63.54,1,.42,1a33.46,33.46,0,0,0-2.13-3.43c2.49,4.08,1.89,3.94.87,2.65-1.47-2.57-3.23-5.15-4.94-7.83s-3.63-5.28-5.46-7.86c-3.74-5.1-7.47-9.89-10.56-13.66A34.48,34.48,0,0,1,405,63.2l-1.36-1.57-1.41-1.55-2.88-3.14c-1.94-2.12-4-4.16-6.08-6.29s-4.26-4.12-6.48-6.09l-3.35-2.92c-.56-.48-1.11-1-1.68-1.44l-1.73-1.37L382,40.44l1.88,1.69,3.81,3.41,3.75,3.59c.63.61,1.27,1.2,1.89,1.82l1.86,1.9A222.2,222.2,0,0,1,410,69.41a4.68,4.68,0,0,0,.91,1.41c2.15,2.52,4.28,5.41,6.31,8.14s3.79,5.42,5.29,7.51q1.58,3.09,3,6c1.13,1.69,2.1,3.4,3.08,5,.49.82,1,1.63,1.43,2.44s.88,1.63,1.31,2.43c.85,1.61,1.67,3.19,2.49,4.75s1.5,3.17,2.25,4.73,1.45,3.14,2.14,4.74,1.39,3.2,2.1,4.82c1.31,3.3,2.78,6.63,4.18,10.24-.21,0,.19,1.15.24,1.64-.61-1.09-1.11-1.78-1.77-3.06-.93-2.36-2.13-4.67-2.87-6.78-.69-1.47-1.47-3-2.28-4.58s-1.58-3.27-2.46-5l-2.7-5.21c-.91-1.78-1.94-3.54-2.92-5.36a219,219,0,0,0-13.28-21.18c-1.32-1.48-.61-.08,0,1.18,1,1.64,2.11,3.22,3.16,4.78l3,4.76c1,1.58,2,3.21,3,4.9s2,3.4,2.84,5.27c.41,1.46.13,1.57-.61.63s-2-2.94-3.61-5.66c-2.62-4.54-6.44-10.57-10.2-16.09s-7.55-10.48-9.65-13.16A215.76,215.76,0,0,0,389,51.65a177.49,177.49,0,0,0-17.23-15.3l-2.29-1.77c-.76-.6-1.53-1.19-2.32-1.73l-4.75-3.32c-3.26-2.06-6.5-4.22-9.93-6A116.05,116.05,0,0,0,331,14.06l3.1,1.08c1,.36,2.05.67,3,1.12L343,18.74l5.65,2.77c1.86.92,3.64,2,5.43,3a147.37,147.37,0,0,1,19.7,13.66c0-.11.47.22,1.38,1a185.91,185.91,0,0,1,17.24,16.29c1.34,1.45,2.72,2.83,4,4.3l3.76,4.3,3.51,4.26,1.69,2,1.58,2c3.27,4.65,9.77,13.46,12.47,18.55a20.41,20.41,0,0,1-2.91-3.27c-1.3-1.64-2.77-3.84-4.55-6.19,1.77,2.43,3.26,4.95,4.76,7.29s2.76,4.71,4.06,6.86l3.75,6.44c1.28,2.22,2.33,4.28,2.77,5.23.2.47-.37-.32.08.53-.79-1.49,1.46,2.64,1.58,3,1.06,2,.92,1.6,2.06,4a37.5,37.5,0,0,1,2.15,5.08,251.75,251.75,0,0,1,12.23,32.68l1.05,3.73c.26,1.08-.13.21.25,1.62.21.8.27.4.58,1.58.54,2.22,1.11,4.6,1.68,7s1.06,4.77,1.55,7c.59,2.79,1.14,5.72,1.68,8.69.23,1.48.47,3,.71,4.47s.47,3,.64,4.46c.37,2.95.76,5.84,1,8.57.14,1.37.28,2.69.41,4s.19,2.5.28,3.65c.1,2.07-.36-.62-.15,2.16.42,8,.55,16.16.24,24.48S454.18,250.63,453,259c-.2,1.26-.41.2-.61,2.06-.39,2.3.12,1.8-.26,3.86a21,21,0,0,1-.94,3.08c-1.8,9.51-4,19.07-6.8,28.51a126,126,0,0,1-10.6,26.27,99.18,99.18,0,0,1-15.77,20.45c-3.11,3.2-6.39,6.33-9.79,9.32L403.18,357c-1.71,1.43-3.46,2.82-5.17,4.22a215.76,215.76,0,0,1-33,22.28,237.86,237.86,0,0,1-43.09,19.35,282,282,0,0,1-32.52,8.6c-1.62.39-3.53.87-5.45,1.19-1.44.25-2.9.44-4.35.63s-2.92.29-4.37.5c-7.8,1.16-15.84,2.06-23.71,2.46l-6.57.2c-2.17,0-4.34,0-6.49,0-1.08,0-2.16,0-3.24,0l-3.22-.13c-2.15-.1-4.32-.11-6.48-.29-2.44-.18-4.83-.29-7.23-.41s-4.77-.39-7.19-.63c-3.2-.34-6.5-1-9.82-1.47a243.76,243.76,0,0,1-27.16-5.63,298.4,298.4,0,0,1-33.83-12.23c-3-1.47-6.16-2.9-9.35-4.54l-4.79-2.53c-1.6-.85-3.25-1.66-4.8-2.6l-4.71-2.73c-1.56-.9-3.12-1.78-4.58-2.75l-4.37-2.76c-1.42-.9-2.83-1.76-4.12-2.69-2-1.58-4.14-3.12-6.29-4.66l-6.38-4.87c-2.2-1.6-4.3-3.39-6.46-5.19l-3.26-2.73c-1.1-.91-2.12-1.94-3.19-2.93-.9-.85-1.44-1.46-2.33-2.32L73.25,350l-2.34-2.42-4.75-4.85c-1.54-1.67-3-3.38-4.56-5.05-.76-.84-1.51-1.68-2.27-2.51s-1.43-1.72-2.14-2.57L53,327.54c-1.35-1.68-2.55-3.43-3.79-5.08L47.43,320c-.59-.81-1.18-1.61-1.68-2.43l-3-4.73c-.78-1.09-1.54-2.14-2.2-3.21s-1.25-2.16-1.84-3.23c-1.17-2.15-2.37-4.22-3.49-6.44-1.2-2.41-2.4-4.7-3.61-7-.63-1.12-1.13-2.29-1.67-3.45L28.35,286c-.67-1.55-1.28-3-1.86-4.57-.91-2.46-1.85-4.86-2.82-7.33-.52-1.23-.92-2.51-1.34-3.81s-.86-2.65-1.3-4l-1-3.11c-.31-1.05-.54-2.14-.81-3.22q-.76-3.25-1.58-6.61c-.48-2.26-.85-4.57-1.32-6.91-.24-1.18-.47-2.36-.71-3.55s-.38-2.41-.58-3.63c-.23-1.9-.48-4-.75-6.29s-.33-4.67-.53-7.1c-.1-1.22-.19-2.44-.28-3.66s-.07-2.45-.11-3.65c-.07-2.41-.15-4.76-.26-6.95.34-14.78,1.88-29.79,6-44.46.72-2.47,1.37-4.83,2.14-7.16s1.65-4.63,2.42-7.11q.36-.94.72-1.92l.87-2c.57-1.34,1.16-2.73,1.77-4.15q.45-1.06.9-2.16a23.4,23.4,0,0,1,1-2.17l2.18-4.34c.74-1.43,1.45-2.9,2.24-4.35s1.63-2.87,2.51-4.29c1.71-2.88,3.57-5.7,5.46-8.52,2.71-4,5.91-8.41,9.13-12.43s6.4-7.68,9-10.3c2.68-2,6.34-7.49,12-12.86a27.45,27.45,0,0,1,4.21-3.36c2.68-2.55,5.26-4.88,7.9-7.32C86.64,70,89.17,68.24,93.45,64.64Zm341,33.9c.12.07,0-.14-.18-.54C435.18,98.94,436.19,101.51,434.49,98.54Zm-.7-1c-1.29-2-2.86-4.48-4.35-6.77s-3-4.39-3.86-5.9c-.52-.78.21.87-.7-.35-1.08-1.75-2.39-3.8-4.47-6.69.24-.45,4.1,5.45,4.61,5.47a35.72,35.72,0,0,0,3.08,4.29c1.49,2.36,2.45,3.76,3.27,5.06S433,95.1,434,96.93C433.18,96.12,434.22,97.68,433.79,97.56Z"/></g></g></svg>