<svg width="883" height="178" viewBox="0 0 883 178" fill="none" xmlns="http://www.w3.org/2000/svg">
<path d="M0.380859 12.651C0.380859 11.0717 0.549526 9.72999 0.886859 8.62599C1.22419 7.52199 1.69186 6.62499 2.28986 5.93499C2.88786 5.24499 3.60086 4.74666 4.42886 4.43999C5.25686 4.13332 6.15386 3.97999 7.11986 3.97999C8.08586 3.97999 8.97519 4.13332 9.78786 4.43999C10.6159 4.74666 11.3289 5.24499 11.9269 5.93499C12.5249 6.62499 12.9925 7.52199 13.3299 8.62599C13.6672 9.72999 13.8359 11.0717 13.8359 12.651C13.8359 14.2457 13.6672 15.595 13.3299 16.699C12.9925 17.803 12.5249 18.7 11.9269 19.39C11.3289 20.08 10.6159 20.5783 9.78786 20.885C8.97519 21.1917 8.08586 21.345 7.11986 21.345C6.15386 21.345 5.25686 21.1917 4.42886 20.885C3.60086 20.5783 2.88786 20.08 2.28986 19.39C1.69186 18.7 1.22419 17.803 0.886859 16.699C0.549526 15.595 0.380859 14.2457 0.380859 12.651ZM2.56586 12.651C2.56586 13.8623 2.68086 14.8973 2.91086 15.756C3.14086 16.5993 3.46286 17.297 3.87686 17.849C4.29086 18.3857 4.77386 18.7767 5.32586 19.022C5.87786 19.2673 6.47586 19.39 7.11986 19.39C7.76386 19.39 8.36186 19.2673 8.91386 19.022C9.46586 18.7767 9.94119 18.3857 10.3399 17.849C10.7539 17.297 11.0759 16.5993 11.3059 15.756C11.5359 14.8973 11.6509 13.8623 11.6509 12.651C11.6509 11.4397 11.5359 10.4123 11.3059 9.56899C11.0759 8.71032 10.7539 8.01266 10.3399 7.47599C9.94119 6.93932 9.46586 6.54832 8.91386 6.30299C8.36186 6.05766 7.76386 5.93499 7.11986 5.93499C6.47586 5.93499 5.87786 6.05766 5.32586 6.30299C4.77386 6.54832 4.29086 6.93932 3.87686 7.47599C3.46286 8.01266 3.14086 8.71032 2.91086 9.56899C2.68086 10.4123 2.56586 11.4397 2.56586 12.651Z" fill="black"/>
<path d="M18.8977 21H16.7127V3.31299H18.7827V10.719C19.1353 10.075 19.6643 9.57666 20.3697 9.22399C21.0903 8.87132 21.926 8.69499 22.8767 8.69499C24.4253 8.69499 25.6367 9.10899 26.5107 9.93699C27.4 10.7497 27.8447 11.9303 27.8447 13.479V21H25.6597V13.916C25.6597 12.812 25.3683 11.9917 24.7857 11.455C24.2183 10.9183 23.3827 10.65 22.2787 10.65C21.4047 10.65 20.661 10.8723 20.0477 11.317C19.4497 11.7617 19.0663 12.352 18.8977 13.088V21Z" fill="black"/>
<path d="M71.5923 95.2248C70.8623 95.2248 70.1723 95.0998 69.5223 94.8498C68.8823 94.5898 68.3423 94.2348 67.9023 93.7848L68.8023 92.8248C69.1023 93.1248 69.4973 93.3898 69.9873 93.6198C70.4773 93.8398 71.0173 93.9498 71.6073 93.9498C72.4573 93.9498 73.1323 93.7298 73.6323 93.2898C74.1323 92.8398 74.3823 92.2198 74.3823 91.4298C74.3823 90.6398 74.1323 90.0298 73.6323 89.5998C73.1323 89.1598 72.4573 88.9398 71.6073 88.9398C71.1473 88.9398 70.7023 89.0398 70.2723 89.2398C69.8523 89.4298 69.5323 89.6998 69.3123 90.0498H68.3823V84.1398H75.1323L75.1173 85.4148H69.8073V88.2798C70.0073 88.1098 70.2973 87.9648 70.6773 87.8448C71.0573 87.7248 71.4473 87.6648 71.8473 87.6648C72.4373 87.6648 72.9723 87.7598 73.4523 87.9498C73.9423 88.1298 74.3623 88.3898 74.7123 88.7298C75.0623 89.0598 75.3323 89.4548 75.5223 89.9148C75.7123 90.3748 75.8073 90.8798 75.8073 91.4298C75.8073 91.9798 75.7073 92.4898 75.5073 92.9598C75.3173 93.4198 75.0373 93.8198 74.6673 94.1598C74.3073 94.4898 73.8673 94.7498 73.3473 94.9398C72.8273 95.1298 72.2423 95.2248 71.5923 95.2248Z" fill="black"/>
<path d="M78.9584 94.9998H77.5334V83.4648H78.8834V88.2948C79.1134 87.8748 79.4584 87.5498 79.9184 87.3198C80.3884 87.0898 80.9334 86.9748 81.5534 86.9748C82.5634 86.9748 83.3534 87.2448 83.9234 87.7848C84.5034 88.3148 84.7934 89.0848 84.7934 90.0948V94.9998H83.3684V90.3798C83.3684 89.6598 83.1784 89.1248 82.7984 88.7748C82.4284 88.4248 81.8834 88.2498 81.1634 88.2498C80.5934 88.2498 80.1084 88.3948 79.7084 88.6848C79.3184 88.9748 79.0684 89.3598 78.9584 89.8398V94.9998Z" fill="black"/>
<path d="M69.2058 117.48C69.2058 118.13 69.0558 118.765 68.7558 119.385C68.4658 119.995 68.0558 120.6 67.5258 121.2C67.0058 121.79 66.3758 122.375 65.6358 122.955C64.9058 123.535 64.1058 124.11 63.2358 124.68L62.4258 123.585C63.2758 123.055 64.0308 122.53 64.6908 122.01C65.3608 121.48 65.9258 120.96 66.3858 120.45C66.8558 119.93 67.2108 119.42 67.4508 118.92C67.7008 118.41 67.8258 117.9 67.8258 117.39V115.74H62.6358V114.54H69.2058V117.48ZM73.3758 113.865V127.47H72.0258V113.865H73.3758Z" fill="black"/>
<path d="M77.4667 118.335C77.4667 117.675 77.7867 117.175 78.4267 116.835C79.0767 116.495 79.9617 116.325 81.0817 116.325C82.2017 116.325 83.0817 116.495 83.7217 116.835C84.3717 117.175 84.6967 117.675 84.6967 118.335C84.6967 118.915 84.4417 119.375 83.9317 119.715C83.4217 120.045 82.7117 120.25 81.8017 120.33V121.425C82.5217 121.415 83.2367 121.38 83.9467 121.32C84.6667 121.26 85.3267 121.17 85.9267 121.05L86.1067 122.085C85.3967 122.235 84.5867 122.35 83.6767 122.43C82.7667 122.5 81.8217 122.535 80.8417 122.535H76.5667V121.425H80.4517V120.33C79.5117 120.27 78.7767 120.075 78.2467 119.745C77.7267 119.405 77.4667 118.935 77.4667 118.335ZM86.8717 127.545V124.845H78.5017V123.69H88.2217V127.545H86.8717ZM88.2217 113.865V123.015H86.8717V113.865H88.2217ZM85.2367 115.8H76.9267V114.69H80.4067V113.325H81.7567V114.69H85.2367V115.8ZM78.7867 118.335C78.7867 118.615 78.9717 118.835 79.3417 118.995C79.7217 119.155 80.3017 119.235 81.0817 119.235C81.8617 119.235 82.4367 119.155 82.8067 118.995C83.1867 118.835 83.3767 118.615 83.3767 118.335C83.3767 118.055 83.1867 117.835 82.8067 117.675C82.4367 117.515 81.8617 117.435 81.0817 117.435C80.3017 117.435 79.7217 117.515 79.3417 117.675C78.9717 117.835 78.7867 118.055 78.7867 118.335Z" fill="black"/>
<path d="M138.02 84.1248V94.9998H136.67V85.7898L134.36 87.6648L133.535 86.6898L136.79 84.1248H138.02Z" fill="black"/>
<path d="M143.434 95.2248C142.704 95.2248 142.014 95.0998 141.364 94.8498C140.724 94.5898 140.184 94.2348 139.744 93.7848L140.644 92.8248C140.944 93.1248 141.339 93.3898 141.829 93.6198C142.319 93.8398 142.859 93.9498 143.449 93.9498C144.299 93.9498 144.974 93.7298 145.474 93.2898C145.974 92.8398 146.224 92.2198 146.224 91.4298C146.224 90.6398 145.974 90.0298 145.474 89.5998C144.974 89.1598 144.299 88.9398 143.449 88.9398C142.989 88.9398 142.544 89.0398 142.114 89.2398C141.694 89.4298 141.374 89.6998 141.154 90.0498H140.224V84.1398H146.974L146.959 85.4148H141.649V88.2798C141.849 88.1098 142.139 87.9648 142.519 87.8448C142.899 87.7248 143.289 87.6648 143.689 87.6648C144.279 87.6648 144.814 87.7598 145.294 87.9498C145.784 88.1298 146.204 88.3898 146.554 88.7298C146.904 89.0598 147.174 89.4548 147.364 89.9148C147.554 90.3748 147.649 90.8798 147.649 91.4298C147.649 91.9798 147.549 92.4898 147.349 92.9598C147.159 93.4198 146.879 93.8198 146.509 94.1598C146.149 94.4898 145.709 94.7498 145.189 94.9398C144.669 95.1298 144.084 95.2248 143.434 95.2248Z" fill="black"/>
<path d="M150.8 94.9998H149.375V83.4648H150.725V88.2948C150.955 87.8748 151.3 87.5498 151.76 87.3198C152.23 87.0898 152.775 86.9748 153.395 86.9748C154.405 86.9748 155.195 87.2448 155.765 87.7848C156.345 88.3148 156.635 89.0848 156.635 90.0948V94.9998H155.21V90.3798C155.21 89.6598 155.02 89.1248 154.64 88.7748C154.27 88.4248 153.725 88.2498 153.005 88.2498C152.435 88.2498 151.95 88.3948 151.55 88.6848C151.16 88.9748 150.91 89.3598 150.8 89.8398V94.9998Z" fill="black"/>
<path d="M109.756 124.365V118.725H115.051V115.68H109.756V114.48H116.401V119.925H111.106V123.165H113.851C114.571 123.165 115.251 123.155 115.891 123.135C116.531 123.115 117.191 123.065 117.871 122.985L117.991 124.14C117.231 124.24 116.501 124.305 115.801 124.335C115.111 124.355 114.391 124.365 113.641 124.365H109.756ZM120.526 113.865V127.47H119.176V113.865H120.526Z" fill="black"/>
<path d="M130.497 114.45V116.505C130.497 116.995 130.662 117.45 130.992 117.87C131.332 118.29 131.752 118.675 132.252 119.025C132.752 119.365 133.292 119.675 133.872 119.955C134.462 120.225 135.007 120.455 135.507 120.645L134.907 121.785C134.397 121.605 133.882 121.39 133.362 121.14C132.842 120.89 132.352 120.62 131.892 120.33C131.442 120.04 131.032 119.735 130.662 119.415C130.302 119.095 130.022 118.785 129.822 118.485C129.622 118.785 129.337 119.095 128.967 119.415C128.607 119.735 128.197 120.04 127.737 120.33C127.287 120.62 126.802 120.89 126.282 121.14C125.762 121.39 125.247 121.605 124.737 121.785L124.137 120.645C124.637 120.455 125.177 120.225 125.757 119.955C126.347 119.675 126.892 119.365 127.392 119.025C127.892 118.675 128.307 118.29 128.637 117.87C128.977 117.45 129.147 116.995 129.147 116.505V114.45H130.497ZM129.147 124.515V121.305H130.497V124.515H136.392V125.715H123.252V124.515H129.147Z" fill="black"/>
<path d="M150.938 124.515V125.715H137.798V124.515H150.938ZM145.043 114.45V116.55C145.043 117.04 145.208 117.5 145.538 117.93C145.878 118.35 146.298 118.735 146.798 119.085C147.298 119.435 147.838 119.75 148.418 120.03C149.008 120.31 149.553 120.545 150.053 120.735L149.453 121.875C148.943 121.695 148.428 121.48 147.908 121.23C147.388 120.97 146.898 120.69 146.438 120.39C145.988 120.09 145.578 119.78 145.208 119.46C144.848 119.14 144.568 118.83 144.368 118.53C144.168 118.83 143.883 119.14 143.513 119.46C143.153 119.78 142.743 120.09 142.283 120.39C141.833 120.69 141.348 120.97 140.828 121.23C140.308 121.48 139.793 121.695 139.283 121.875L138.683 120.735C139.183 120.545 139.723 120.31 140.303 120.03C140.893 119.75 141.438 119.435 141.938 119.085C142.438 118.735 142.853 118.35 143.183 117.93C143.523 117.5 143.693 117.04 143.693 116.55V114.45H145.043Z" fill="black"/>
<path d="M165.484 121.665V122.865H159.589V127.47H158.239V122.865H152.344V121.665H165.484ZM158.914 117.495C158.704 117.755 158.419 118.03 158.059 118.32C157.709 118.6 157.304 118.88 156.844 119.16C156.394 119.44 155.909 119.71 155.389 119.97C154.869 120.23 154.344 120.465 153.814 120.675L153.229 119.52C153.899 119.25 154.534 118.965 155.134 118.665C155.744 118.355 156.279 118.035 156.739 117.705C157.199 117.365 157.564 117.015 157.834 116.655C158.104 116.285 158.239 115.905 158.239 115.515V114.075H159.589V115.515C159.589 115.905 159.724 116.285 159.994 116.655C160.264 117.015 160.629 117.365 161.089 117.705C161.549 118.035 162.079 118.355 162.679 118.665C163.289 118.965 163.929 119.25 164.599 119.52L164.014 120.675C163.484 120.465 162.959 120.23 162.439 119.97C161.919 119.71 161.429 119.44 160.969 119.16C160.519 118.88 160.114 118.6 159.754 118.32C159.404 118.03 159.124 117.755 158.914 117.495Z" fill="black"/>
<path d="M178.634 121.74V127.47H169.259V121.74H170.609V123.435H177.284V121.74H178.634ZM175.139 115.545H172.064V116.295C172.064 116.675 172.174 117.035 172.394 117.375C172.624 117.715 172.914 118.035 173.264 118.335C173.614 118.635 173.999 118.92 174.419 119.19C174.839 119.46 175.239 119.71 175.619 119.94L174.899 120.93C174.559 120.74 174.214 120.53 173.864 120.3C173.524 120.06 173.199 119.82 172.889 119.58C172.579 119.33 172.294 119.075 172.034 118.815C171.774 118.555 171.564 118.3 171.404 118.05C171.254 118.31 171.054 118.575 170.804 118.845C170.554 119.115 170.269 119.38 169.949 119.64C169.639 119.89 169.309 120.135 168.959 120.375C168.609 120.605 168.264 120.825 167.924 121.035L167.159 120.045C167.589 119.765 168.014 119.485 168.434 119.205C168.854 118.915 169.234 118.62 169.574 118.32C169.914 118.02 170.189 117.705 170.399 117.375C170.609 117.035 170.714 116.675 170.714 116.295V115.545H167.639V114.345H175.139V115.545ZM177.284 126.27V124.635H170.609V126.27H177.284ZM178.634 113.865V121.065H177.284V113.865H178.634Z" fill="black"/>
<path d="M208.592 95.2248C207.862 95.2248 207.172 95.0998 206.522 94.8498C205.882 94.5898 205.342 94.2348 204.902 93.7848L205.802 92.8248C206.102 93.1248 206.497 93.3898 206.987 93.6198C207.477 93.8398 208.017 93.9498 208.607 93.9498C209.457 93.9498 210.132 93.7298 210.632 93.2898C211.132 92.8398 211.382 92.2198 211.382 91.4298C211.382 90.6398 211.132 90.0298 210.632 89.5998C210.132 89.1598 209.457 88.9398 208.607 88.9398C208.147 88.9398 207.702 89.0398 207.272 89.2398C206.852 89.4298 206.532 89.6998 206.312 90.0498H205.382V84.1398H212.132L212.117 85.4148H206.807V88.2798C207.007 88.1098 207.297 87.9648 207.677 87.8448C208.057 87.7248 208.447 87.6648 208.847 87.6648C209.437 87.6648 209.972 87.7598 210.452 87.9498C210.942 88.1298 211.362 88.3898 211.712 88.7298C212.062 89.0598 212.332 89.4548 212.522 89.9148C212.712 90.3748 212.807 90.8798 212.807 91.4298C212.807 91.9798 212.707 92.4898 212.507 92.9598C212.317 93.4198 212.037 93.8198 211.667 94.1598C211.307 94.4898 210.867 94.7498 210.347 94.9398C209.827 95.1298 209.242 95.2248 208.592 95.2248Z" fill="black"/>
<path d="M215.958 94.9998H214.533V83.4648H215.883V88.2948C216.113 87.8748 216.458 87.5498 216.918 87.3198C217.388 87.0898 217.933 86.9748 218.553 86.9748C219.563 86.9748 220.353 87.2448 220.923 87.7848C221.503 88.3148 221.793 89.0848 221.793 90.0948V94.9998H220.368V90.3798C220.368 89.6598 220.178 89.1248 219.798 88.7748C219.428 88.4248 218.883 88.2498 218.163 88.2498C217.593 88.2498 217.108 88.3948 216.708 88.6848C216.318 88.9748 216.068 89.3598 215.958 89.8398V94.9998Z" fill="black"/>
<path d="M201.6 121.665H196.95V124.515H202.845V125.715H189.705V124.515H195.6V121.665H190.95V120.465H192.945V116.475H194.295V120.465H198.255V116.475H199.605V120.465H201.6V121.665ZM201.675 115.8H190.875V114.6H201.675V115.8Z" fill="black"/>
<path d="M215.246 118.86H207.371V120.99H215.846V122.19H211.496V124.515H217.391V125.715H204.251V124.515H210.146V122.19H206.021V114.51H215.621V115.71H207.371V117.66H215.246V118.86Z" fill="black"/>
<path d="M230.062 121.74V127.47H220.867V121.74H222.217V123.435H228.712V121.74H230.062ZM223.672 114.12V115.74C223.672 116.14 223.777 116.53 223.987 116.91C224.207 117.29 224.482 117.655 224.812 118.005C225.152 118.345 225.522 118.67 225.922 118.98C226.332 119.29 226.727 119.575 227.107 119.835L226.312 120.78C225.632 120.33 224.992 119.84 224.392 119.31C223.802 118.77 223.342 118.245 223.012 117.735C222.862 118.005 222.672 118.28 222.442 118.56C222.212 118.84 221.952 119.12 221.662 119.4C221.372 119.68 221.062 119.95 220.732 120.21C220.402 120.47 220.067 120.72 219.727 120.96L218.887 120.015C219.317 119.705 219.737 119.385 220.147 119.055C220.557 118.715 220.922 118.37 221.242 118.02C221.562 117.66 221.822 117.29 222.022 116.91C222.222 116.53 222.322 116.14 222.322 115.74V114.12H223.672ZM230.062 113.865V115.215H232.192V116.415H230.062V117.93H232.192V119.13H230.062V121.065H228.712V113.865H230.062ZM228.712 126.27V124.635H222.217V126.27H228.712Z" fill="black"/>
<path d="M200.1 137.865H201.45V144.84H200.1V137.865ZM192.075 147.84H200.1V146.715H192.075V145.515H201.45V149.04H193.425V150.345H201.675V151.545H192.075V147.84ZM191.805 141.165C191.805 141.455 191.86 141.72 191.97 141.96C192.09 142.2 192.25 142.405 192.45 142.575C192.65 142.745 192.885 142.88 193.155 142.98C193.435 143.07 193.74 143.115 194.07 143.115C194.4 143.115 194.7 143.07 194.97 142.98C195.25 142.88 195.49 142.745 195.69 142.575C195.89 142.405 196.045 142.2 196.155 141.96C196.275 141.72 196.335 141.455 196.335 141.165C196.335 140.875 196.275 140.61 196.155 140.37C196.045 140.13 195.89 139.925 195.69 139.755C195.49 139.585 195.25 139.455 194.97 139.365C194.7 139.265 194.4 139.215 194.07 139.215C193.74 139.215 193.435 139.265 193.155 139.365C192.885 139.455 192.65 139.585 192.45 139.755C192.25 139.925 192.09 140.13 191.97 140.37C191.86 140.61 191.805 140.875 191.805 141.165ZM190.485 141.165C190.485 140.695 190.57 140.27 190.74 139.89C190.91 139.5 191.15 139.17 191.46 138.9C191.78 138.63 192.16 138.42 192.6 138.27C193.04 138.12 193.53 138.045 194.07 138.045C194.61 138.045 195.1 138.12 195.54 138.27C195.98 138.42 196.355 138.63 196.665 138.9C196.985 139.17 197.23 139.5 197.4 139.89C197.57 140.27 197.655 140.695 197.655 141.165C197.655 141.635 197.57 142.065 197.4 142.455C197.23 142.835 196.985 143.16 196.665 143.43C196.355 143.7 195.98 143.91 195.54 144.06C195.1 144.21 194.61 144.285 194.07 144.285C193.53 144.285 193.04 144.21 192.6 144.06C192.16 143.91 191.78 143.7 191.46 143.43C191.15 143.16 190.91 142.835 190.74 142.455C190.57 142.065 190.485 141.635 190.485 141.165Z" fill="black"/>
<path d="M205.151 148.365V142.725H209.996V139.68H205.151V138.48H211.346V143.925H206.501V147.165H208.646C209.366 147.165 210.046 147.155 210.686 147.135C211.326 147.115 211.986 147.065 212.666 146.985L212.786 148.14C212.026 148.24 211.296 148.305 210.596 148.335C209.906 148.355 209.186 148.365 208.436 148.365H205.151ZM212.096 142.74H214.721V137.865H216.071V151.47H214.721V143.94H212.096V142.74Z" fill="black"/>
<path d="M231.937 148.515V149.715H218.797V148.515H231.937ZM226.042 138.45V140.55C226.042 141.04 226.207 141.5 226.537 141.93C226.877 142.35 227.297 142.735 227.797 143.085C228.297 143.435 228.837 143.75 229.417 144.03C230.007 144.31 230.552 144.545 231.052 144.735L230.452 145.875C229.942 145.695 229.427 145.48 228.907 145.23C228.387 144.97 227.897 144.69 227.437 144.39C226.987 144.09 226.577 143.78 226.207 143.46C225.847 143.14 225.567 142.83 225.367 142.53C225.167 142.83 224.882 143.14 224.512 143.46C224.152 143.78 223.742 144.09 223.282 144.39C222.832 144.69 222.347 144.97 221.827 145.23C221.307 145.48 220.792 145.695 220.282 145.875L219.682 144.735C220.182 144.545 220.722 144.31 221.302 144.03C221.892 143.75 222.437 143.435 222.937 143.085C223.437 142.735 223.852 142.35 224.182 141.93C224.522 141.5 224.692 141.04 224.692 140.55V138.45H226.042Z" fill="black"/>
<path d="M246.483 148.515V149.715H233.343V148.515H246.483ZM244.338 142.905H236.463V145.08H244.938V146.28H235.113V138.51H244.713V139.71H236.463V141.705H244.338V142.905Z" fill="black"/>
<path d="M197.715 163.545H194.685V164.49C194.685 164.87 194.795 165.235 195.015 165.585C195.235 165.925 195.515 166.255 195.855 166.575C196.205 166.885 196.585 167.18 196.995 167.46C197.415 167.74 197.815 168 198.195 168.24L197.475 169.23C197.135 169.03 196.795 168.815 196.455 168.585C196.115 168.345 195.79 168.1 195.48 167.85C195.18 167.59 194.9 167.33 194.64 167.07C194.39 166.8 194.185 166.535 194.025 166.275C193.875 166.545 193.675 166.815 193.425 167.085C193.175 167.355 192.895 167.625 192.585 167.895C192.285 168.155 191.96 168.41 191.61 168.66C191.27 168.9 190.93 169.125 190.59 169.335L189.825 168.345C190.255 168.055 190.68 167.765 191.1 167.475C191.52 167.175 191.895 166.87 192.225 166.56C192.555 166.24 192.82 165.91 193.02 165.57C193.23 165.23 193.335 164.87 193.335 164.49V163.545H190.305V162.345H197.715V163.545ZM199.62 175.545V171.39H191.7V170.19H200.97V175.545H199.62ZM200.97 161.865V164.925H203.1V166.125H200.97V169.515H199.62V161.865H200.97Z" fill="black"/>
<path d="M204.881 165.405C204.881 164.915 204.961 164.47 205.121 164.07C205.291 163.67 205.531 163.325 205.841 163.035C206.151 162.745 206.521 162.52 206.951 162.36C207.391 162.2 207.881 162.12 208.421 162.12C209.391 162.12 210.181 162.37 210.791 162.87C211.411 163.36 211.786 164.01 211.916 164.82H214.646V161.865H215.996V169.065H214.646V166.02H211.916C211.776 166.83 211.401 167.48 210.791 167.97C210.181 168.45 209.391 168.69 208.421 168.69C207.881 168.69 207.391 168.61 206.951 168.45C206.521 168.29 206.151 168.065 205.841 167.775C205.531 167.485 205.291 167.14 205.121 166.74C204.961 166.34 204.881 165.895 204.881 165.405ZM215.996 169.74V175.47H206.621V169.74H207.971V171.435H214.646V169.74H215.996ZM206.201 165.405C206.201 166.065 206.406 166.58 206.816 166.95C207.226 167.31 207.761 167.49 208.421 167.49C209.081 167.49 209.616 167.31 210.026 166.95C210.436 166.58 210.641 166.065 210.641 165.405C210.641 164.745 210.436 164.235 210.026 163.875C209.616 163.505 209.081 163.32 208.421 163.32C207.761 163.32 207.226 163.505 206.816 163.875C206.406 164.235 206.201 164.745 206.201 165.405ZM214.646 174.27V172.635H207.971V174.27H214.646Z" fill="black"/>
<path d="M314.879 89.5098C315.319 88.6198 315.869 87.9648 316.529 87.5448C317.189 87.1148 318.019 86.8998 319.019 86.8998C319.599 86.8998 320.124 86.9848 320.594 87.1548C321.064 87.3248 321.459 87.5598 321.779 87.8598C322.099 88.1498 322.344 88.4998 322.514 88.9098C322.694 89.3098 322.784 89.7498 322.784 90.2298C322.784 90.7098 322.679 91.1698 322.469 91.6098C322.259 92.0498 321.999 92.4598 321.689 92.8398C321.379 93.2198 321.049 93.5698 320.699 93.8898C320.359 94.1998 320.054 94.4748 319.784 94.7148L317.504 96.7248H323.189V97.9998H315.059V97.0548L318.539 94.0398C318.859 93.7698 319.184 93.4898 319.514 93.1998C319.854 92.8998 320.159 92.5948 320.429 92.2848C320.699 91.9648 320.919 91.6348 321.089 91.2948C321.269 90.9548 321.359 90.5998 321.359 90.2298C321.359 89.9098 321.294 89.6248 321.164 89.3748C321.034 89.1148 320.854 88.8998 320.624 88.7298C320.404 88.5498 320.139 88.4148 319.829 88.3248C319.529 88.2248 319.209 88.1748 318.869 88.1748C318.169 88.1748 317.604 88.3498 317.174 88.6998C316.744 89.0398 316.384 89.5048 316.094 90.0948L314.879 89.5098Z" fill="black"/>
<path d="M324.832 92.5548C324.832 91.5248 324.942 90.6498 325.162 89.9298C325.382 89.2098 325.687 88.6248 326.077 88.1748C326.467 87.7248 326.932 87.3998 327.472 87.1998C328.012 86.9998 328.597 86.8998 329.227 86.8998C329.857 86.8998 330.437 86.9998 330.967 87.1998C331.507 87.3998 331.972 87.7248 332.362 88.1748C332.752 88.6248 333.057 89.2098 333.277 89.9298C333.497 90.6498 333.607 91.5248 333.607 92.5548C333.607 93.5948 333.497 94.4748 333.277 95.1948C333.057 95.9148 332.752 96.4998 332.362 96.9498C331.972 97.3998 331.507 97.7248 330.967 97.9248C330.437 98.1248 329.857 98.2248 329.227 98.2248C328.597 98.2248 328.012 98.1248 327.472 97.9248C326.932 97.7248 326.467 97.3998 326.077 96.9498C325.687 96.4998 325.382 95.9148 325.162 95.1948C324.942 94.4748 324.832 93.5948 324.832 92.5548ZM326.257 92.5548C326.257 93.3448 326.332 94.0198 326.482 94.5798C326.632 95.1298 326.842 95.5848 327.112 95.9448C327.382 96.2948 327.697 96.5498 328.057 96.7098C328.417 96.8698 328.807 96.9498 329.227 96.9498C329.647 96.9498 330.037 96.8698 330.397 96.7098C330.757 96.5498 331.067 96.2948 331.327 95.9448C331.597 95.5848 331.807 95.1298 331.957 94.5798C332.107 94.0198 332.182 93.3448 332.182 92.5548C332.182 91.7648 332.107 91.0948 331.957 90.5448C331.807 89.9848 331.597 89.5298 331.327 89.1798C331.067 88.8298 330.757 88.5748 330.397 88.4148C330.037 88.2548 329.647 88.1748 329.227 88.1748C328.807 88.1748 328.417 88.2548 328.057 88.4148C327.697 88.5748 327.382 88.8298 327.112 89.1798C326.842 89.5298 326.632 89.9848 326.482 90.5448C326.332 91.0948 326.257 91.7648 326.257 92.5548Z" fill="black"/>
<path d="M336.908 97.9998H335.483V86.4648H336.833V91.2948C337.063 90.8748 337.408 90.5498 337.868 90.3198C338.338 90.0898 338.883 89.9748 339.503 89.9748C340.513 89.9748 341.303 90.2448 341.873 90.7848C342.453 91.3148 342.743 92.0848 342.743 93.0948V97.9998H341.318V93.3798C341.318 92.6598 341.128 92.1248 340.748 91.7748C340.378 91.4248 339.833 91.2498 339.113 91.2498C338.543 91.2498 338.058 91.3948 337.658 91.6848C337.268 91.9748 337.018 92.3598 336.908 92.8398V97.9998Z" fill="black"/>
<path d="M297.825 124.805H299.64V118.49H300.99V124.805H303.765V118.49H305.115V124.76C305.475 124.74 305.83 124.715 306.18 124.685C306.53 124.645 306.875 124.6 307.215 124.55L307.335 125.705C306.605 125.815 305.84 125.895 305.04 125.945C304.25 125.985 303.48 126.005 302.73 126.005H297.825V124.805ZM309.675 115.865V129.47H308.325V115.865H309.675ZM306.795 117.74H297.975V116.54H306.795V117.74Z" fill="black"/>
<path d="M313.796 116.6H323.546V118.865C323.546 119.795 323.506 120.735 323.426 121.685C323.356 122.625 323.251 123.555 323.111 124.475L321.806 124.355C321.946 123.455 322.046 122.57 322.106 121.7C322.166 120.82 322.196 119.96 322.196 119.12V117.8H313.796V116.6ZM325.391 126.515V127.715H312.251V126.515H325.391Z" fill="black"/>
<path d="M327.337 116.54H334.282V126.005H327.337V116.54ZM328.687 124.805H332.932V117.74H328.687V124.805ZM337.897 115.865V120.44H340.192V121.64H337.897V129.47H336.547V115.865H337.897Z" fill="black"/>
<path d="M297.75 142.955H299.52V144.74H297.75V142.955ZM297.75 147.89H299.52V149.675H297.75V147.89Z" fill="black"/>
<path d="M308.705 150.08V147.47C308.235 147.41 307.805 147.28 307.415 147.08C307.025 146.87 306.69 146.61 306.41 146.3C306.14 145.98 305.93 145.62 305.78 145.22C305.63 144.82 305.555 144.385 305.555 143.915C305.555 143.405 305.645 142.93 305.825 142.49C306.015 142.05 306.275 141.67 306.605 141.35C306.945 141.02 307.345 140.765 307.805 140.585C308.265 140.405 308.775 140.315 309.335 140.315C309.885 140.315 310.39 140.405 310.85 140.585C311.32 140.765 311.72 141.02 312.05 141.35C312.39 141.67 312.65 142.05 312.83 142.49C313.02 142.93 313.115 143.405 313.115 143.915C313.115 144.375 313.04 144.805 312.89 145.205C312.75 145.605 312.545 145.96 312.275 146.27C312.005 146.58 311.68 146.84 311.3 147.05C310.93 147.26 310.515 147.4 310.055 147.47V150.08C310.775 150.06 311.495 150.015 312.215 149.945C312.935 149.865 313.585 149.76 314.165 149.63L314.375 150.77C313.695 150.93 312.89 151.055 311.96 151.145C311.03 151.235 310.075 151.28 309.095 151.28H305.03V150.08H308.705ZM316.46 139.865V144.74H318.485V145.94H316.46V153.47H315.11V139.865H316.46ZM309.335 146.285C309.715 146.285 310.055 146.23 310.355 146.12C310.655 146 310.91 145.835 311.12 145.625C311.33 145.415 311.49 145.165 311.6 144.875C311.71 144.585 311.765 144.265 311.765 143.915C311.765 143.575 311.71 143.26 311.6 142.97C311.49 142.68 311.33 142.43 311.12 142.22C310.91 142.01 310.655 141.845 310.355 141.725C310.055 141.605 309.715 141.545 309.335 141.545C308.955 141.545 308.615 141.605 308.315 141.725C308.015 141.845 307.76 142.01 307.55 142.22C307.34 142.43 307.18 142.68 307.07 142.97C306.96 143.26 306.905 143.575 306.905 143.915C306.905 144.265 306.96 144.585 307.07 144.875C307.18 145.165 307.34 145.415 307.55 145.625C307.76 145.835 308.015 146 308.315 146.12C308.615 146.23 308.955 146.285 309.335 146.285Z" fill="black"/>
<path d="M331.53 139.865V153.47H330.18V139.865H331.53ZM326.565 145.265C326.565 144.055 326.34 143.13 325.89 142.49C325.45 141.84 324.825 141.515 324.015 141.515C323.205 141.515 322.575 141.84 322.125 142.49C321.685 143.13 321.465 144.055 321.465 145.265C321.465 146.475 321.685 147.405 322.125 148.055C322.575 148.695 323.205 149.015 324.015 149.015C324.825 149.015 325.45 148.695 325.89 148.055C326.34 147.405 326.565 146.475 326.565 145.265ZM327.915 145.265C327.915 146.065 327.82 146.775 327.63 147.395C327.45 148.005 327.19 148.52 326.85 148.94C326.52 149.36 326.115 149.68 325.635 149.9C325.155 150.11 324.615 150.215 324.015 150.215C323.415 150.215 322.875 150.11 322.395 149.9C321.915 149.68 321.505 149.36 321.165 148.94C320.835 148.52 320.575 148.005 320.385 147.395C320.205 146.775 320.115 146.065 320.115 145.265C320.115 144.465 320.205 143.76 320.385 143.15C320.575 142.53 320.835 142.01 321.165 141.59C321.505 141.17 321.915 140.855 322.395 140.645C322.875 140.425 323.415 140.315 324.015 140.315C324.615 140.315 325.155 140.425 325.635 140.645C326.115 140.855 326.52 141.17 326.85 141.59C327.19 142.01 327.45 142.53 327.63 143.15C327.82 143.76 327.915 144.465 327.915 145.265Z" fill="black"/>
<path d="M346.001 139.865V153.47H344.651V145.835H342.101C342.021 147.265 341.651 148.355 340.991 149.105C340.331 149.845 339.451 150.215 338.351 150.215C337.171 150.215 336.246 149.795 335.576 148.955C334.916 148.105 334.586 146.875 334.586 145.265C334.586 143.655 334.916 142.43 335.576 141.59C336.246 140.74 337.171 140.315 338.351 140.315C339.441 140.315 340.316 140.685 340.976 141.425C341.636 142.155 342.011 143.225 342.101 144.635H344.651V139.865H346.001ZM340.766 145.265C340.766 144.055 340.561 143.13 340.151 142.49C339.741 141.84 339.141 141.515 338.351 141.515C337.561 141.515 336.961 141.84 336.551 142.49C336.141 143.13 335.936 144.055 335.936 145.265C335.936 146.475 336.141 147.405 336.551 148.055C336.961 148.695 337.561 149.015 338.351 149.015C339.141 149.015 339.741 148.695 340.151 148.055C340.561 147.405 340.766 146.475 340.766 145.265Z" fill="black"/>
<path d="M360.547 147.755H349.897V146.555H351.892V142.475H353.242V146.555H357.202V142.475H358.552V146.555H360.547V147.755ZM361.792 150.515V151.715H348.652V150.515H361.792ZM360.622 141.8H349.822V140.6H360.622V141.8Z" fill="black"/>
<path d="M363.738 150.275V144.68H367.683V141.68H363.738V140.48H369.033V145.88H365.088V149.075H366.498C367.138 149.075 367.753 149.065 368.343 149.045C368.943 149.025 369.523 148.975 370.083 148.895L370.203 150.05C369.593 150.15 368.973 150.215 368.343 150.245C367.723 150.265 367.038 150.275 366.288 150.275H363.738ZM369.483 144.68H371.508V139.94H372.828V153.17H371.508V145.88H369.483V144.68ZM375.648 139.865V153.47H374.328V139.865H375.648Z" fill="black"/>
<path d="M389.489 139.865V147.365H388.139V139.865H389.489ZM380.114 148.04H389.489V153.47H380.114V148.04ZM381.464 149.24V152.27H388.139V149.24H381.464ZM379.844 143.465C379.844 143.795 379.899 144.09 380.009 144.35C380.129 144.61 380.289 144.835 380.489 145.025C380.689 145.215 380.924 145.36 381.194 145.46C381.474 145.56 381.779 145.61 382.109 145.61C382.439 145.61 382.739 145.56 383.009 145.46C383.289 145.36 383.529 145.215 383.729 145.025C383.929 144.835 384.084 144.61 384.194 144.35C384.314 144.09 384.374 143.795 384.374 143.465C384.374 143.135 384.314 142.84 384.194 142.58C384.084 142.32 383.929 142.095 383.729 141.905C383.529 141.715 383.289 141.57 383.009 141.47C382.739 141.37 382.439 141.32 382.109 141.32C381.779 141.32 381.474 141.37 381.194 141.47C380.924 141.57 380.689 141.715 380.489 141.905C380.289 142.095 380.129 142.32 380.009 142.58C379.899 142.84 379.844 143.135 379.844 143.465ZM378.524 143.465C378.524 142.975 378.609 142.525 378.779 142.115C378.949 141.705 379.189 141.355 379.499 141.065C379.819 140.765 380.199 140.535 380.639 140.375C381.079 140.205 381.569 140.12 382.109 140.12C382.649 140.12 383.139 140.205 383.579 140.375C384.019 140.535 384.394 140.765 384.704 141.065C385.024 141.355 385.269 141.705 385.439 142.115C385.609 142.525 385.694 142.975 385.694 143.465C385.694 143.955 385.609 144.405 385.439 144.815C385.269 145.225 385.024 145.58 384.704 145.88C384.394 146.17 384.019 146.4 383.579 146.57C383.139 146.73 382.649 146.81 382.109 146.81C381.569 146.81 381.079 146.73 380.639 146.57C380.199 146.4 379.819 146.17 379.499 145.88C379.189 145.58 378.949 145.225 378.779 144.815C378.609 144.405 378.524 143.955 378.524 143.465Z" fill="black"/>
<path d="M306.675 173.63C305.945 173.72 305.18 173.795 304.38 173.855C303.59 173.905 302.82 173.93 302.07 173.93H298.725V164.54H305.49V165.74H300.075V172.73H302.28C303 172.73 303.72 172.71 304.44 172.67C305.17 172.62 305.875 172.555 306.555 172.475L306.675 173.63ZM309.45 163.865V177.47H308.1V163.865H309.45Z" fill="black"/>
<path d="M320.186 165.74H317.141V167.87C317.141 168.46 317.246 169.02 317.456 169.55C317.676 170.07 317.961 170.565 318.311 171.035C318.661 171.505 319.051 171.945 319.481 172.355C319.921 172.765 320.366 173.15 320.816 173.51L320.006 174.455C319.666 174.205 319.316 173.91 318.956 173.57C318.606 173.22 318.271 172.865 317.951 172.505C317.641 172.135 317.356 171.77 317.096 171.41C316.846 171.04 316.656 170.705 316.526 170.405C316.386 170.755 316.176 171.13 315.896 171.53C315.626 171.92 315.316 172.305 314.966 172.685C314.626 173.065 314.271 173.43 313.901 173.78C313.531 174.12 313.176 174.42 312.836 174.68L311.966 173.735C312.456 173.345 312.931 172.935 313.391 172.505C313.851 172.065 314.256 171.6 314.606 171.11C314.966 170.62 315.251 170.11 315.461 169.58C315.681 169.04 315.791 168.47 315.791 167.87V165.74H312.491V164.54H320.186V165.74ZM323.201 163.865V168.44H325.646V169.64H323.201V177.47H321.851V163.865H323.201Z" fill="black"/>
<path d="M338.542 163.865V173.51H337.192V163.865H338.542ZM329.242 172.64H330.592V176.195H339.022V177.395H329.242V172.64ZM328.897 167.84C328.897 168.22 328.952 168.565 329.062 168.875C329.182 169.175 329.342 169.43 329.542 169.64C329.742 169.85 329.977 170.01 330.247 170.12C330.527 170.23 330.832 170.285 331.162 170.285C331.492 170.285 331.792 170.23 332.062 170.12C332.342 170.01 332.582 169.85 332.782 169.64C332.982 169.43 333.137 169.175 333.247 168.875C333.367 168.565 333.427 168.22 333.427 167.84C333.427 167.46 333.367 167.12 333.247 166.82C333.137 166.51 332.982 166.25 332.782 166.04C332.582 165.83 332.342 165.67 332.062 165.56C331.792 165.45 331.492 165.395 331.162 165.395C330.832 165.395 330.527 165.45 330.247 165.56C329.977 165.67 329.742 165.83 329.542 166.04C329.342 166.25 329.182 166.51 329.062 166.82C328.952 167.12 328.897 167.46 328.897 167.84ZM327.577 167.84C327.577 167.3 327.662 166.81 327.832 166.37C328.002 165.92 328.242 165.535 328.552 165.215C328.872 164.885 329.252 164.635 329.692 164.465C330.132 164.285 330.622 164.195 331.162 164.195C331.702 164.195 332.192 164.285 332.632 164.465C333.072 164.635 333.447 164.885 333.757 165.215C334.077 165.535 334.322 165.92 334.492 166.37C334.662 166.81 334.747 167.3 334.747 167.84C334.747 168.38 334.662 168.875 334.492 169.325C334.322 169.765 334.077 170.15 333.757 170.48C333.447 170.8 333.072 171.05 332.632 171.23C332.192 171.4 331.702 171.485 331.162 171.485C330.622 171.485 330.132 171.4 329.692 171.23C329.252 171.05 328.872 170.8 328.552 170.48C328.242 170.15 328.002 169.765 327.832 169.325C327.662 168.875 327.577 168.38 327.577 167.84Z" fill="black"/>
<path d="M349.353 165.545H346.323V166.49C346.323 166.87 346.433 167.235 346.653 167.585C346.873 167.925 347.153 168.255 347.493 168.575C347.843 168.885 348.223 169.18 348.633 169.46C349.053 169.74 349.453 170 349.833 170.24L349.113 171.23C348.773 171.03 348.433 170.815 348.093 170.585C347.753 170.345 347.428 170.1 347.118 169.85C346.818 169.59 346.538 169.33 346.278 169.07C346.028 168.8 345.823 168.535 345.663 168.275C345.513 168.545 345.313 168.815 345.063 169.085C344.813 169.355 344.533 169.625 344.223 169.895C343.923 170.155 343.598 170.41 343.248 170.66C342.908 170.9 342.568 171.125 342.228 171.335L341.463 170.345C341.893 170.055 342.318 169.765 342.738 169.475C343.158 169.175 343.533 168.87 343.863 168.56C344.193 168.24 344.458 167.91 344.658 167.57C344.868 167.23 344.973 166.87 344.973 166.49V165.545H341.943V164.345H349.353V165.545ZM351.258 177.545V173.39H343.338V172.19H352.608V177.545H351.258ZM352.608 163.865V166.925H354.738V168.125H352.608V171.515H351.258V163.865H352.608Z" fill="black"/>
<path d="M356.519 167.405C356.519 166.915 356.599 166.47 356.759 166.07C356.929 165.67 357.169 165.325 357.479 165.035C357.789 164.745 358.159 164.52 358.589 164.36C359.029 164.2 359.519 164.12 360.059 164.12C361.029 164.12 361.819 164.37 362.429 164.87C363.049 165.36 363.424 166.01 363.554 166.82H366.284V163.865H367.634V171.065H366.284V168.02H363.554C363.414 168.83 363.039 169.48 362.429 169.97C361.819 170.45 361.029 170.69 360.059 170.69C359.519 170.69 359.029 170.61 358.589 170.45C358.159 170.29 357.789 170.065 357.479 169.775C357.169 169.485 356.929 169.14 356.759 168.74C356.599 168.34 356.519 167.895 356.519 167.405ZM367.634 171.74V177.47H358.259V171.74H359.609V173.435H366.284V171.74H367.634ZM357.839 167.405C357.839 168.065 358.044 168.58 358.454 168.95C358.864 169.31 359.399 169.49 360.059 169.49C360.719 169.49 361.254 169.31 361.664 168.95C362.074 168.58 362.279 168.065 362.279 167.405C362.279 166.745 362.074 166.235 361.664 165.875C361.254 165.505 360.719 165.32 360.059 165.32C359.399 165.32 358.864 165.505 358.454 165.875C358.044 166.235 357.839 166.745 357.839 167.405ZM366.284 176.27V174.635H359.609V176.27H366.284Z" fill="black"/>
<path d="M463.868 94.9998V92.5698H457.748V91.6248L463.913 84.1248H465.203V91.4448H466.928V92.5698H465.203L465.218 94.9998H463.868ZM463.868 91.4448V86.1948L459.548 91.4448H463.868Z" fill="black"/>
<path d="M471.521 95.2248C470.791 95.2248 470.101 95.0998 469.451 94.8498C468.811 94.5898 468.271 94.2348 467.831 93.7848L468.731 92.8248C469.031 93.1248 469.426 93.3898 469.916 93.6198C470.406 93.8398 470.946 93.9498 471.536 93.9498C472.386 93.9498 473.061 93.7298 473.561 93.2898C474.061 92.8398 474.311 92.2198 474.311 91.4298C474.311 90.6398 474.061 90.0298 473.561 89.5998C473.061 89.1598 472.386 88.9398 471.536 88.9398C471.076 88.9398 470.631 89.0398 470.201 89.2398C469.781 89.4298 469.461 89.6998 469.241 90.0498H468.311V84.1398H475.061L475.046 85.4148H469.736V88.2798C469.936 88.1098 470.226 87.9648 470.606 87.8448C470.986 87.7248 471.376 87.6648 471.776 87.6648C472.366 87.6648 472.901 87.7598 473.381 87.9498C473.871 88.1298 474.291 88.3898 474.641 88.7298C474.991 89.0598 475.261 89.4548 475.451 89.9148C475.641 90.3748 475.736 90.8798 475.736 91.4298C475.736 91.9798 475.636 92.4898 475.436 92.9598C475.246 93.4198 474.966 93.8198 474.596 94.1598C474.236 94.4898 473.796 94.7498 473.276 94.9398C472.756 95.1298 472.171 95.2248 471.521 95.2248Z" fill="black"/>
<path d="M478.887 94.9998H477.462V83.4648H478.812V88.2948C479.043 87.8748 479.387 87.5498 479.847 87.3198C480.318 87.0898 480.863 86.9748 481.483 86.9748C482.493 86.9748 483.282 87.2448 483.852 87.7848C484.432 88.3148 484.722 89.0848 484.722 90.0948V94.9998H483.297V90.3798C483.297 89.6598 483.107 89.1248 482.727 88.7748C482.357 88.4248 481.812 88.2498 481.092 88.2498C480.522 88.2498 480.037 88.3948 479.637 88.6848C479.247 88.9748 478.997 89.3598 478.887 89.8398V94.9998Z" fill="black"/>
<path d="M443.396 124.305V122.61C442.496 122.5 441.791 122.205 441.281 121.725C440.771 121.245 440.516 120.635 440.516 119.895C440.516 119.485 440.596 119.11 440.756 118.77C440.926 118.43 441.166 118.14 441.476 117.9C441.786 117.66 442.161 117.475 442.601 117.345C443.041 117.215 443.531 117.15 444.071 117.15C444.611 117.15 445.101 117.215 445.541 117.345C445.981 117.475 446.356 117.66 446.666 117.9C446.976 118.14 447.211 118.43 447.371 118.77C447.541 119.11 447.626 119.485 447.626 119.895C447.626 120.635 447.371 121.245 446.861 121.725C446.351 122.205 445.646 122.5 444.746 122.61V124.305C445.466 124.285 446.186 124.24 446.906 124.17C447.626 124.09 448.276 123.985 448.856 123.855L449.066 124.995C448.386 125.155 447.581 125.28 446.651 125.37C445.721 125.46 444.766 125.505 443.786 125.505H439.721V124.305H443.396ZM451.151 113.865V118.89H453.176V120.09H451.151V127.47H449.801V113.865H451.151ZM444.731 113.595V115.35H448.271V116.52H439.871V115.35H443.411V113.595H444.731ZM444.071 121.47C444.821 121.47 445.376 121.33 445.736 121.05C446.096 120.76 446.276 120.375 446.276 119.895C446.276 119.415 446.096 119.035 445.736 118.755C445.376 118.465 444.821 118.32 444.071 118.32C443.321 118.32 442.766 118.465 442.406 118.755C442.046 119.035 441.866 119.415 441.866 119.895C441.866 120.375 442.046 120.76 442.406 121.05C442.766 121.33 443.321 121.47 444.071 121.47Z" fill="black"/>
<path d="M455.242 114.42H461.902V115.56H464.647V113.865H465.997V123.51H464.647V119.955H461.902V121.365H455.242V114.42ZM460.552 115.62H456.592V120.165H460.552V115.62ZM456.622 122.64H457.972V126.195H466.402V127.395H456.622V122.64ZM461.902 118.785H464.647V116.73H461.902V118.785Z" fill="black"/>
<path d="M474.385 114.375H484.045V116.04C484.045 116.77 484.02 117.535 483.97 118.335C483.92 119.125 483.835 119.91 483.715 120.69H485.98V121.89H479.935V127.47H478.585V121.89H472.84V120.69H482.41C482.46 120.32 482.5 119.935 482.53 119.535C482.57 119.135 482.6 118.745 482.62 118.365C482.65 117.975 482.67 117.605 482.68 117.255C482.69 116.905 482.695 116.585 482.695 116.295V115.575H474.385V114.375Z" fill="black"/>
<path d="M488.511 119.985C488.511 119.615 488.581 119.27 488.721 118.95C488.861 118.62 489.066 118.335 489.336 118.095C489.616 117.845 489.961 117.65 490.371 117.51C490.781 117.37 491.251 117.3 491.781 117.3C492.311 117.3 492.781 117.37 493.191 117.51C493.601 117.65 493.941 117.845 494.211 118.095C494.491 118.335 494.701 118.62 494.841 118.95C494.981 119.27 495.051 119.615 495.051 119.985C495.051 120.355 494.981 120.705 494.841 121.035C494.701 121.355 494.491 121.64 494.211 121.89C493.941 122.13 493.601 122.32 493.191 122.46C492.781 122.6 492.311 122.67 491.781 122.67C491.251 122.67 490.781 122.6 490.371 122.46C489.961 122.32 489.616 122.13 489.336 121.89C489.066 121.64 488.861 121.355 488.721 121.035C488.581 120.705 488.511 120.355 488.511 119.985ZM495.501 117.66H497.781V113.865H499.131V123.96H497.781V121.755H495.501V120.585H497.781V118.83H495.501V117.66ZM489.756 123.54H491.106V126.195H499.536V127.395H489.756V123.54ZM495.561 116.49H487.686V115.305H490.956V113.52H492.306V115.305H495.561V116.49ZM489.861 119.985C489.861 120.425 490.016 120.785 490.326 121.065C490.646 121.345 491.131 121.485 491.781 121.485C492.431 121.485 492.911 121.345 493.221 121.065C493.541 120.785 493.701 120.425 493.701 119.985C493.701 119.545 493.541 119.185 493.221 118.905C492.911 118.625 492.431 118.485 491.781 118.485C491.131 118.485 490.646 118.625 490.326 118.905C490.016 119.185 489.861 119.545 489.861 119.985Z" fill="black"/>
<path d="M447.281 144.99H441.551V150H440.126V139.125H441.551V143.715H447.281V139.125H448.706V150H447.281V144.99Z" fill="black"/>
<path d="M453.846 140.4H450.201V139.125H458.931V140.4H455.286V150H453.846V140.4Z" fill="black"/>
<path d="M465.483 148.41L461.853 141.66V150H460.428L460.443 139.125H461.928L465.933 146.475L469.938 139.125H471.423L471.438 150H470.013V141.66L466.383 148.41H465.483Z" fill="black"/>
<path d="M473.685 139.125H475.11V148.74H481.065V150H473.685V139.125Z" fill="black"/>
<path d="M493.524 141.705C493.524 142.105 493.444 142.45 493.284 142.74C493.124 143.03 492.909 143.29 492.639 143.52C492.369 143.74 492.059 143.945 491.709 144.135C491.359 144.315 490.989 144.5 490.599 144.69L490.764 144.84L493.404 147.33C493.694 146.71 493.864 145.945 493.914 145.035L495.264 145.14C495.214 145.74 495.124 146.305 494.994 146.835C494.874 147.365 494.684 147.85 494.424 148.29L496.239 150H494.364L493.599 149.295C493.209 149.645 492.739 149.915 492.189 150.105C491.649 150.295 491.004 150.39 490.254 150.39C489.714 150.39 489.194 150.33 488.694 150.21C488.194 150.09 487.749 149.905 487.359 149.655C486.969 149.405 486.659 149.085 486.429 148.695C486.199 148.305 486.084 147.84 486.084 147.3C486.084 146.96 486.149 146.65 486.279 146.37C486.409 146.08 486.579 145.82 486.789 145.59C486.999 145.35 487.244 145.135 487.524 144.945C487.804 144.755 488.094 144.575 488.394 144.405C488.034 144.025 487.719 143.61 487.449 143.16C487.179 142.7 487.044 142.215 487.044 141.705C487.044 141.305 487.124 140.935 487.284 140.595C487.444 140.255 487.664 139.96 487.944 139.71C488.234 139.46 488.579 139.265 488.979 139.125C489.379 138.975 489.814 138.9 490.284 138.9C490.754 138.9 491.189 138.97 491.589 139.11C491.989 139.25 492.329 139.445 492.609 139.695C492.899 139.935 493.124 140.23 493.284 140.58C493.444 140.92 493.524 141.295 493.524 141.705ZM489.744 145.695C489.684 145.645 489.619 145.59 489.549 145.53C489.489 145.46 489.419 145.395 489.339 145.335C488.789 145.625 488.344 145.92 488.004 146.22C487.674 146.52 487.509 146.88 487.509 147.3C487.509 147.63 487.584 147.91 487.734 148.14C487.884 148.37 488.084 148.56 488.334 148.71C488.584 148.85 488.874 148.955 489.204 149.025C489.544 149.085 489.894 149.115 490.254 149.115C491.234 149.115 492.019 148.865 492.609 148.365L489.744 145.695ZM488.469 141.765C488.469 142.075 488.589 142.41 488.829 142.77C489.069 143.12 489.339 143.455 489.639 143.775C489.679 143.755 489.714 143.74 489.744 143.73C489.774 143.71 489.804 143.69 489.834 143.67C490.194 143.49 490.514 143.34 490.794 143.22C491.074 143.09 491.309 142.96 491.499 142.83C491.699 142.7 491.849 142.56 491.949 142.41C492.049 142.25 492.099 142.04 492.099 141.78C492.099 141.27 491.929 140.875 491.589 140.595C491.259 140.315 490.824 140.175 490.284 140.175C489.744 140.175 489.304 140.32 488.964 140.61C488.634 140.9 488.469 141.285 488.469 141.765Z" fill="black"/>
<path d="M501.029 144.555C501.029 143.685 501.164 142.9 501.434 142.2C501.704 141.5 502.074 140.905 502.544 140.415C503.024 139.925 503.589 139.55 504.239 139.29C504.889 139.03 505.599 138.9 506.369 138.9C507.269 138.9 508.084 139.08 508.814 139.44C509.544 139.8 510.149 140.31 510.629 140.97L509.504 141.795C509.154 141.275 508.709 140.875 508.169 140.595C507.629 140.315 507.029 140.175 506.369 140.175C505.809 140.175 505.289 140.28 504.809 140.49C504.329 140.69 503.914 140.98 503.564 141.36C503.214 141.73 502.939 142.19 502.739 142.74C502.549 143.28 502.454 143.885 502.454 144.555C502.454 145.235 502.549 145.845 502.739 146.385C502.939 146.925 503.214 147.385 503.564 147.765C503.914 148.145 504.329 148.44 504.809 148.65C505.289 148.85 505.809 148.95 506.369 148.95C507.109 148.95 507.774 148.805 508.364 148.515C508.954 148.225 509.434 147.83 509.804 147.33L510.839 148.155C510.349 148.825 509.724 149.34 508.964 149.7C508.204 150.05 507.339 150.225 506.369 150.225C505.599 150.225 504.889 150.095 504.239 149.835C503.589 149.565 503.024 149.185 502.544 148.695C502.074 148.205 501.704 147.61 501.434 146.91C501.164 146.21 501.029 145.425 501.029 144.555Z" fill="black"/>
<path d="M513.006 147.075C513.366 147.635 513.846 148.09 514.446 148.44C515.046 148.78 515.771 148.95 516.621 148.95C517.001 148.95 517.366 148.92 517.716 148.86C518.066 148.79 518.371 148.685 518.631 148.545C518.901 148.405 519.111 148.22 519.261 147.99C519.421 147.76 519.501 147.48 519.501 147.15C519.501 146.85 519.421 146.6 519.261 146.4C519.101 146.19 518.901 146.015 518.661 145.875C518.421 145.725 518.156 145.6 517.866 145.5C517.576 145.4 517.296 145.31 517.026 145.23L515.541 144.795C515.011 144.645 514.541 144.49 514.131 144.33C513.721 144.16 513.376 143.965 513.096 143.745C512.816 143.515 512.601 143.245 512.451 142.935C512.311 142.625 512.241 142.25 512.241 141.81C512.241 141.37 512.336 140.975 512.526 140.625C512.726 140.265 513.001 139.96 513.351 139.71C513.711 139.45 514.141 139.25 514.641 139.11C515.151 138.97 515.716 138.9 516.336 138.9C517.186 138.9 517.951 139.045 518.631 139.335C519.321 139.615 519.956 140.1 520.536 140.79L519.516 141.705C519.136 141.255 518.681 140.89 518.151 140.61C517.621 140.32 517.016 140.175 516.336 140.175C515.556 140.175 514.916 140.31 514.416 140.58C513.916 140.84 513.666 141.23 513.666 141.75C513.666 142 513.721 142.215 513.831 142.395C513.941 142.565 514.096 142.715 514.296 142.845C514.506 142.975 514.751 143.095 515.031 143.205C515.321 143.305 515.641 143.405 515.991 143.505L517.446 143.925C517.946 144.065 518.406 144.225 518.826 144.405C519.256 144.585 519.626 144.8 519.936 145.05C520.246 145.3 520.486 145.595 520.656 145.935C520.836 146.275 520.926 146.68 520.926 147.15C520.926 147.69 520.811 148.155 520.581 148.545C520.351 148.925 520.041 149.24 519.651 149.49C519.261 149.74 518.811 149.925 518.301 150.045C517.801 150.165 517.276 150.225 516.726 150.225C515.646 150.225 514.686 150.025 513.846 149.625C513.016 149.215 512.361 148.64 511.881 147.9L513.006 147.075Z" fill="black"/>
<path d="M523.246 147.075C523.606 147.635 524.086 148.09 524.686 148.44C525.286 148.78 526.011 148.95 526.861 148.95C527.241 148.95 527.606 148.92 527.956 148.86C528.306 148.79 528.611 148.685 528.871 148.545C529.141 148.405 529.351 148.22 529.501 147.99C529.661 147.76 529.741 147.48 529.741 147.15C529.741 146.85 529.661 146.6 529.501 146.4C529.341 146.19 529.141 146.015 528.901 145.875C528.661 145.725 528.396 145.6 528.106 145.5C527.816 145.4 527.536 145.31 527.266 145.23L525.781 144.795C525.251 144.645 524.781 144.49 524.371 144.33C523.961 144.16 523.616 143.965 523.336 143.745C523.056 143.515 522.841 143.245 522.691 142.935C522.551 142.625 522.481 142.25 522.481 141.81C522.481 141.37 522.576 140.975 522.766 140.625C522.966 140.265 523.241 139.96 523.591 139.71C523.951 139.45 524.381 139.25 524.881 139.11C525.391 138.97 525.956 138.9 526.576 138.9C527.426 138.9 528.191 139.045 528.871 139.335C529.561 139.615 530.196 140.1 530.776 140.79L529.756 141.705C529.376 141.255 528.921 140.89 528.391 140.61C527.861 140.32 527.256 140.175 526.576 140.175C525.796 140.175 525.156 140.31 524.656 140.58C524.156 140.84 523.906 141.23 523.906 141.75C523.906 142 523.961 142.215 524.071 142.395C524.181 142.565 524.336 142.715 524.536 142.845C524.746 142.975 524.991 143.095 525.271 143.205C525.561 143.305 525.881 143.405 526.231 143.505L527.686 143.925C528.186 144.065 528.646 144.225 529.066 144.405C529.496 144.585 529.866 144.8 530.176 145.05C530.486 145.3 530.726 145.595 530.896 145.935C531.076 146.275 531.166 146.68 531.166 147.15C531.166 147.69 531.051 148.155 530.821 148.545C530.591 148.925 530.281 149.24 529.891 149.49C529.501 149.74 529.051 149.925 528.541 150.045C528.041 150.165 527.516 150.225 526.966 150.225C525.886 150.225 524.926 150.025 524.086 149.625C523.256 149.215 522.601 148.64 522.121 147.9L523.246 147.075Z" fill="black"/>
<path d="M668.014 85.3998H662.029V84.1248H669.634V85.0698L664.834 94.9998H663.364L668.014 85.3998Z" fill="black"/>
<path d="M670.679 89.5548C670.679 88.5248 670.789 87.6498 671.009 86.9298C671.229 86.2098 671.534 85.6248 671.924 85.1748C672.314 84.7248 672.779 84.3998 673.319 84.1998C673.859 83.9998 674.444 83.8998 675.074 83.8998C675.704 83.8998 676.284 83.9998 676.814 84.1998C677.354 84.3998 677.819 84.7248 678.209 85.1748C678.599 85.6248 678.904 86.2098 679.124 86.9298C679.344 87.6498 679.454 88.5248 679.454 89.5548C679.454 90.5948 679.344 91.4748 679.124 92.1948C678.904 92.9148 678.599 93.4998 678.209 93.9498C677.819 94.3998 677.354 94.7248 676.814 94.9248C676.284 95.1248 675.704 95.2248 675.074 95.2248C674.444 95.2248 673.859 95.1248 673.319 94.9248C672.779 94.7248 672.314 94.3998 671.924 93.9498C671.534 93.4998 671.229 92.9148 671.009 92.1948C670.789 91.4748 670.679 90.5948 670.679 89.5548ZM672.104 89.5548C672.104 90.3448 672.179 91.0198 672.329 91.5798C672.479 92.1298 672.689 92.5848 672.959 92.9448C673.229 93.2948 673.544 93.5498 673.904 93.7098C674.264 93.8698 674.654 93.9498 675.074 93.9498C675.494 93.9498 675.884 93.8698 676.244 93.7098C676.604 93.5498 676.914 93.2948 677.174 92.9448C677.444 92.5848 677.654 92.1298 677.804 91.5798C677.954 91.0198 678.029 90.3448 678.029 89.5548C678.029 88.7648 677.954 88.0948 677.804 87.5448C677.654 86.9848 677.444 86.5298 677.174 86.1798C676.914 85.8298 676.604 85.5748 676.244 85.4148C675.884 85.2548 675.494 85.1748 675.074 85.1748C674.654 85.1748 674.264 85.2548 673.904 85.4148C673.544 85.5748 673.229 85.8298 672.959 86.1798C672.689 86.5298 672.479 86.9848 672.329 87.5448C672.179 88.0948 672.104 88.7648 672.104 89.5548Z" fill="black"/>
<path d="M682.755 94.9998H681.33V83.4648H682.68V88.2948C682.91 87.8748 683.255 87.5498 683.715 87.3198C684.185 87.0898 684.73 86.9748 685.35 86.9748C686.36 86.9748 687.15 87.2448 687.72 87.7848C688.3 88.3148 688.59 89.0848 688.59 90.0948V94.9998H687.165V90.3798C687.165 89.6598 686.975 89.1248 686.595 88.7748C686.225 88.4248 685.68 88.2498 684.96 88.2498C684.39 88.2498 683.905 88.3948 683.505 88.6848C683.115 88.9748 682.865 89.3598 682.755 89.8398V94.9998Z" fill="black"/>
<path d="M641.675 115.865V129.47H640.325V115.865H641.675ZM636.71 121.265C636.71 120.055 636.485 119.13 636.035 118.49C635.595 117.84 634.97 117.515 634.16 117.515C633.35 117.515 632.72 117.84 632.27 118.49C631.83 119.13 631.61 120.055 631.61 121.265C631.61 122.475 631.83 123.405 632.27 124.055C632.72 124.695 633.35 125.015 634.16 125.015C634.97 125.015 635.595 124.695 636.035 124.055C636.485 123.405 636.71 122.475 636.71 121.265ZM638.06 121.265C638.06 122.065 637.965 122.775 637.775 123.395C637.595 124.005 637.335 124.52 636.995 124.94C636.665 125.36 636.26 125.68 635.78 125.9C635.3 126.11 634.76 126.215 634.16 126.215C633.56 126.215 633.02 126.11 632.54 125.9C632.06 125.68 631.65 125.36 631.31 124.94C630.98 124.52 630.72 124.005 630.53 123.395C630.35 122.775 630.26 122.065 630.26 121.265C630.26 120.465 630.35 119.76 630.53 119.15C630.72 118.53 630.98 118.01 631.31 117.59C631.65 117.17 632.06 116.855 632.54 116.645C633.02 116.425 633.56 116.315 634.16 116.315C634.76 116.315 635.3 116.425 635.78 116.645C636.26 116.855 636.665 117.17 636.995 117.59C637.335 118.01 637.595 118.53 637.775 119.15C637.965 119.76 638.06 120.465 638.06 121.265Z" fill="black"/>
<path d="M650.491 116.27V119.06H652.411V115.94H653.686V124.655H652.411V120.26H650.491V123.29H644.941V116.27H646.261V118.595H649.171V116.27H650.491ZM646.846 124.73H648.196V128.195H656.806V129.395H646.846V124.73ZM656.401 115.865V125.405H655.096V115.865H656.401ZM649.171 122.12V119.765H646.261V122.12H649.171Z" fill="black"/>
<path d="M671.937 126.515V127.715H658.797V126.515H671.937ZM669.792 120.905H661.917V123.08H670.392V124.28H660.567V116.51H670.167V117.71H661.917V119.705H669.792V120.905Z" fill="black"/>
<path d="M684.87 119.705C684.87 120.105 684.79 120.45 684.63 120.74C684.47 121.03 684.255 121.29 683.985 121.52C683.715 121.74 683.405 121.945 683.055 122.135C682.705 122.315 682.335 122.5 681.945 122.69L682.11 122.84L684.75 125.33C685.04 124.71 685.21 123.945 685.26 123.035L686.61 123.14C686.56 123.74 686.47 124.305 686.34 124.835C686.22 125.365 686.03 125.85 685.77 126.29L687.585 128H685.71L684.945 127.295C684.555 127.645 684.085 127.915 683.535 128.105C682.995 128.295 682.35 128.39 681.6 128.39C681.06 128.39 680.54 128.33 680.04 128.21C679.54 128.09 679.095 127.905 678.705 127.655C678.315 127.405 678.005 127.085 677.775 126.695C677.545 126.305 677.43 125.84 677.43 125.3C677.43 124.96 677.495 124.65 677.625 124.37C677.755 124.08 677.925 123.82 678.135 123.59C678.345 123.35 678.59 123.135 678.87 122.945C679.15 122.755 679.44 122.575 679.74 122.405C679.38 122.025 679.065 121.61 678.795 121.16C678.525 120.7 678.39 120.215 678.39 119.705C678.39 119.305 678.47 118.935 678.63 118.595C678.79 118.255 679.01 117.96 679.29 117.71C679.58 117.46 679.925 117.265 680.325 117.125C680.725 116.975 681.16 116.9 681.63 116.9C682.1 116.9 682.535 116.97 682.935 117.11C683.335 117.25 683.675 117.445 683.955 117.695C684.245 117.935 684.47 118.23 684.63 118.58C684.79 118.92 684.87 119.295 684.87 119.705ZM681.09 123.695C681.03 123.645 680.965 123.59 680.895 123.53C680.835 123.46 680.765 123.395 680.685 123.335C680.135 123.625 679.69 123.92 679.35 124.22C679.02 124.52 678.855 124.88 678.855 125.3C678.855 125.63 678.93 125.91 679.08 126.14C679.23 126.37 679.43 126.56 679.68 126.71C679.93 126.85 680.22 126.955 680.55 127.025C680.89 127.085 681.24 127.115 681.6 127.115C682.58 127.115 683.365 126.865 683.955 126.365L681.09 123.695ZM679.815 119.765C679.815 120.075 679.935 120.41 680.175 120.77C680.415 121.12 680.685 121.455 680.985 121.775C681.025 121.755 681.06 121.74 681.09 121.73C681.12 121.71 681.15 121.69 681.18 121.67C681.54 121.49 681.86 121.34 682.14 121.22C682.42 121.09 682.655 120.96 682.845 120.83C683.045 120.7 683.195 120.56 683.295 120.41C683.395 120.25 683.445 120.04 683.445 119.78C683.445 119.27 683.275 118.875 682.935 118.595C682.605 118.315 682.17 118.175 681.63 118.175C681.09 118.175 680.65 118.32 680.31 118.61C679.98 118.9 679.815 119.285 679.815 119.765Z" fill="black"/>
<path d="M699.68 119.48C699.68 120.13 699.53 120.765 699.23 121.385C698.94 121.995 698.53 122.6 698 123.2C697.48 123.79 696.85 124.375 696.11 124.955C695.38 125.535 694.58 126.11 693.71 126.68L692.9 125.585C693.75 125.055 694.505 124.53 695.165 124.01C695.835 123.48 696.4 122.96 696.86 122.45C697.33 121.93 697.685 121.42 697.925 120.92C698.175 120.41 698.3 119.9 698.3 119.39V117.74H693.11V116.54H699.68V119.48ZM703.85 115.865V129.47H702.5V115.865H703.85Z" fill="black"/>
<path d="M719.866 121.805V123.005H706.726V121.805H719.866ZM713.296 124.085C714.916 124.085 716.146 124.34 716.986 124.85C717.826 125.36 718.246 126.065 718.246 126.965C718.246 127.865 717.826 128.57 716.986 129.08C716.146 129.59 714.916 129.845 713.296 129.845C711.676 129.845 710.446 129.59 709.606 129.08C708.766 128.57 708.346 127.865 708.346 126.965C708.346 126.065 708.766 125.36 709.606 124.85C710.446 124.34 711.676 124.085 713.296 124.085ZM713.296 128.645C714.486 128.645 715.381 128.5 715.981 128.21C716.591 127.93 716.896 127.515 716.896 126.965C716.896 126.415 716.591 126 715.981 125.72C715.381 125.43 714.486 125.285 713.296 125.285C712.106 125.285 711.206 125.43 710.596 125.72C709.996 126 709.696 126.415 709.696 126.965C709.696 127.515 709.996 127.93 710.596 128.21C711.206 128.5 712.106 128.645 713.296 128.645ZM709.921 115.97V119.225H718.171V120.425H708.571V115.97H709.921Z" fill="black"/>
<path d="M837.107 3.32499V20H835.037V5.87799L831.495 8.75299L830.23 7.25799L835.221 3.32499H837.107Z" fill="black"/>
<path d="M842.625 10.11C843.101 9.63466 843.699 9.28966 844.419 9.07499C845.14 8.86032 845.838 8.75299 846.512 8.75299C847.386 8.75299 848.191 8.89865 848.927 9.18999C849.679 9.46599 850.323 9.86466 850.859 10.386C851.411 10.892 851.841 11.5053 852.147 12.226C852.454 12.9313 852.607 13.7057 852.607 14.549C852.607 15.3923 852.439 16.1743 852.101 16.895C851.764 17.6003 851.304 18.2137 850.721 18.735C850.154 19.241 849.479 19.6397 848.697 19.931C847.931 20.207 847.11 20.345 846.236 20.345C845.362 20.345 844.534 20.1993 843.752 19.908C842.986 19.6167 842.311 19.195 841.728 18.643C841.161 18.091 840.709 17.424 840.371 16.642C840.034 15.86 839.865 14.9707 839.865 13.974C839.865 12.6707 840.065 11.4517 840.463 10.317C840.862 9.16699 841.406 8.11666 842.096 7.16599C842.786 6.19999 843.591 5.33365 844.511 4.56699C845.447 3.78499 846.443 3.10265 847.501 2.51999L848.536 4.24499C847.969 4.59766 847.371 4.99632 846.742 5.44099C846.114 5.88566 845.516 6.36865 844.948 6.88999C844.396 7.39599 843.906 7.92499 843.476 8.47699C843.062 9.02899 842.779 9.57332 842.625 10.11ZM842.05 14.549C842.05 15.0857 842.15 15.5917 842.349 16.067C842.549 16.527 842.832 16.9333 843.2 17.286C843.568 17.6233 844.005 17.8917 844.511 18.091C845.033 18.2903 845.608 18.39 846.236 18.39C846.85 18.39 847.409 18.2903 847.915 18.091C848.437 17.8917 848.881 17.6233 849.249 17.286C849.617 16.9333 849.901 16.527 850.1 16.067C850.315 15.5917 850.422 15.0857 850.422 14.549C850.422 14.0123 850.315 13.514 850.1 13.054C849.901 12.5787 849.617 12.1723 849.249 11.835C848.881 11.4823 848.437 11.2063 847.915 11.007C847.409 10.8077 846.85 10.708 846.236 10.708C845.608 10.708 845.033 10.8077 844.511 11.007C844.005 11.2063 843.568 11.4823 843.2 11.835C842.832 12.1723 842.549 12.5787 842.349 13.054C842.15 13.514 842.05 14.0123 842.05 14.549Z" fill="black"/>
<path d="M855.032 11.651C855.032 10.0717 855.201 8.72999 855.538 7.62599C855.875 6.52199 856.343 5.62499 856.941 4.93499C857.539 4.24499 858.252 3.74666 859.08 3.43999C859.908 3.13332 860.805 2.97999 861.771 2.97999C862.737 2.97999 863.626 3.13332 864.439 3.43999C865.267 3.74666 865.98 4.24499 866.578 4.93499C867.176 5.62499 867.644 6.52199 867.981 7.62599C868.318 8.72999 868.487 10.0717 868.487 11.651C868.487 13.2457 868.318 14.595 867.981 15.699C867.644 16.803 867.176 17.7 866.578 18.39C865.98 19.08 865.267 19.5783 864.439 19.885C863.626 20.1917 862.737 20.345 861.771 20.345C860.805 20.345 859.908 20.1917 859.08 19.885C858.252 19.5783 857.539 19.08 856.941 18.39C856.343 17.7 855.875 16.803 855.538 15.699C855.201 14.595 855.032 13.2457 855.032 11.651ZM857.217 11.651C857.217 12.8623 857.332 13.8973 857.562 14.756C857.792 15.5993 858.114 16.297 858.528 16.849C858.942 17.3857 859.425 17.7767 859.977 18.022C860.529 18.2673 861.127 18.39 861.771 18.39C862.415 18.39 863.013 18.2673 863.565 18.022C864.117 17.7767 864.592 17.3857 864.991 16.849C865.405 16.297 865.727 15.5993 865.957 14.756C866.187 13.8973 866.302 12.8623 866.302 11.651C866.302 10.4397 866.187 9.41232 865.957 8.56899C865.727 7.71032 865.405 7.01266 864.991 6.47599C864.592 5.93932 864.117 5.54832 863.565 5.30299C863.013 5.05766 862.415 4.93499 861.771 4.93499C861.127 4.93499 860.529 5.05766 859.977 5.30299C859.425 5.54832 858.942 5.93932 858.528 6.47599C858.114 7.01266 857.792 7.71032 857.562 8.56899C857.332 9.41232 857.217 10.4397 857.217 11.651Z" fill="black"/>
<path d="M873.549 20H871.364V2.31299H873.434V9.71899C873.786 9.07499 874.315 8.57666 875.021 8.22399C875.741 7.87132 876.577 7.69499 877.528 7.69499C879.076 7.69499 880.288 8.10899 881.162 8.93699C882.051 9.74965 882.496 10.9303 882.496 12.479V20H880.311V12.916C880.311 11.812 880.019 10.9917 879.437 10.455C878.869 9.91832 878.034 9.64999 876.93 9.64999C876.056 9.64999 875.312 9.87232 874.699 10.317C874.101 10.7617 873.717 11.352 873.549 12.088V20Z" fill="black"/>
<path d="M48 10.5C48 4.70101 52.701 0 58.5 0H790.5C796.299 0 801 4.70101 801 10.5V10.5C801 16.299 796.299 21 790.5 21H58.5C52.701 21 48 16.299 48 10.5V10.5Z" fill="white"/>
<path fill-rule="evenodd" clip-rule="evenodd" d="M790.5 1H58.5C53.2533 1 49 5.25329 49 10.5C49 15.7467 53.2533 20 58.5 20H790.5C795.747 20 800 15.7467 800 10.5C800 5.25329 795.747 1 790.5 1ZM58.5 0C52.701 0 48 4.70101 48 10.5C48 16.299 52.701 21 58.5 21H790.5C796.299 21 801 16.299 801 10.5C801 4.70101 796.299 0 790.5 0H58.5Z" fill="black"/>
<path d="M439 10.5C439 5.25329 443.253 1 448.5 1H791.5C796.747 1 801 5.25329 801 10.5V10.5C801 15.7467 796.747 20 791.5 20H448.5C443.253 20 439 15.7467 439 10.5V10.5Z" fill="#B03939"/>
<path d="M319 10.5C319 5.25329 323.253 1 328.5 1H516.5C521.747 1 526 5.25329 526 10.5V10.5C526 15.7467 521.747 20 516.5 20H328.5C323.253 20 319 15.7467 319 10.5V10.5Z" fill="#D14E4E"/>
<path d="M200 10.5C200 5.25329 204.253 1 209.5 1H372.5C377.747 1 382 5.25329 382 10.5V10.5C382 15.7467 377.747 20 372.5 20H209.5C204.253 20 200 15.7467 200 10.5V10.5Z" fill="#EE6363"/>
<path d="M145 10.5C145 5.25329 149.253 1 154.5 1H223.5C228.747 1 233 5.25329 233 10.5V10.5C233 15.7467 228.747 20 223.5 20H154.5C149.253 20 145 15.7467 145 10.5V10.5Z" fill="#FF7B7B"/>
<path d="M56 10.5C56 5.25329 60.2533 1 65.5 1H171.5C176.747 1 181 5.25329 181 10.5V10.5C181 15.7467 176.747 20 171.5 20H65.5C60.2533 20 56 15.7467 56 10.5V10.5Z" fill="#FFABAB"/>
<path d="M49 10.5C49 5.25329 53.2533 1 58.5 1H98.5C103.747 1 108 5.25329 108 10.5V10.5C108 15.7467 103.747 20 98.5 20H58.5C53.2533 20 49 15.7467 49 10.5V10.5Z" fill="#FFDEDE"/>
<path fill-rule="evenodd" clip-rule="evenodd" d="M76 74L76 21L77 21L77 74L76 74Z" fill="black"/>
<path fill-rule="evenodd" clip-rule="evenodd" d="M145 74L145 21L146 21L146 74L145 74Z" fill="black"/>
<path fill-rule="evenodd" clip-rule="evenodd" d="M213 74L213 21L214 21L214 74L213 74Z" fill="black"/>
<path fill-rule="evenodd" clip-rule="evenodd" d="M329 74L329 21L330 21L330 74L329 74Z" fill="black"/>
<path fill-rule="evenodd" clip-rule="evenodd" d="M467 74L467 21L468 21L468 74L467 74Z" fill="black"/>
<path fill-rule="evenodd" clip-rule="evenodd" d="M671 74L671 21L672 21L672 74L671 74Z" fill="black"/>
</svg>
