<svg width="890" height="532" viewBox="0 0 890 532" fill="none" xmlns="http://www.w3.org/2000/svg">
<path fill-rule="evenodd" clip-rule="evenodd" d="M445 424L445 35L446 35L446 424L445 424Z" fill="#D0D0D0"/>
<path fill-rule="evenodd" clip-rule="evenodd" d="M73 137L824 137V138L73 138V137Z" fill="#D0D0D0"/>
<path fill-rule="evenodd" clip-rule="evenodd" d="M261 507L261 129L262 129L262 507L261 507Z" fill="#D0D0D0"/>
<path d="M370 0H520V50H370V0Z" fill="#FF5353"/>
<path d="M427.845 32.3499L433.895 21.0999V34.9999H436.27L436.245 16.8749H433.77L427.095 29.1249L420.42 16.8749H417.945L417.92 34.9999H420.295V21.0999L426.345 32.3499H427.845Z" fill="white"/>
<path d="M448.64 35.1249H451.015V25.9249C451.015 22.6999 448.59 21.6249 445.415 21.6249C443.615 21.6249 441.365 22.2749 440.215 22.9749L440.94 24.9749C442.09 24.2749 443.865 23.7499 445.365 23.7499C447.49 23.7499 448.64 24.3499 448.64 26.4749V26.6249L445.04 26.7749C441.99 26.9249 439.39 28.2499 439.39 31.0999C439.39 33.7999 441.14 35.3749 444.265 35.3749C446.24 35.3749 447.815 34.6749 448.64 33.6999V35.1249ZM444.515 33.2749C442.84 33.2749 441.765 32.5249 441.765 31.0999C441.765 29.5749 443.44 28.7999 445.34 28.7249L448.64 28.5999V31.5749C447.69 32.6999 445.865 33.2749 444.515 33.2749Z" fill="white"/>
<path d="M454.917 34.9999H457.317V21.9999H454.917V34.9999ZM454.642 18.7499H457.592V15.7749H454.642V18.7499Z" fill="white"/>
<path d="M463.6 34.9999V26.3999C463.95 24.8249 465.375 23.7499 467.275 23.7499C469.65 23.7499 470.95 24.9249 470.95 27.2999V34.9999H473.325V26.8249C473.325 23.4749 471.275 21.6249 467.925 21.6249C465.875 21.6249 464.25 22.4249 463.475 23.8249V21.9999H461.225V34.9999H463.6Z" fill="white"/>
<path d="M370 110H520V160H370V110Z" fill="#FF7C7C"/>
<path d="M411.847 145.46C410.847 145.46 409.947 145.353 409.147 145.14C408.36 144.94 407.687 144.66 407.127 144.3C406.58 143.94 406.154 143.513 405.847 143.02C405.554 142.526 405.407 141.986 405.407 141.4C405.407 140.8 405.554 140.253 405.847 139.76C406.154 139.253 406.58 138.82 407.127 138.46C407.687 138.1 408.36 137.826 409.147 137.64C409.947 137.44 410.847 137.34 411.847 137.34C412.847 137.34 413.74 137.44 414.527 137.64C415.327 137.826 416 138.1 416.547 138.46C417.107 138.82 417.534 139.253 417.827 139.76C418.134 140.253 418.287 140.8 418.287 141.4C418.287 142 418.134 142.546 417.827 143.04C417.534 143.546 417.107 143.98 416.547 144.34C416 144.7 415.327 144.973 414.527 145.16C413.74 145.36 412.847 145.46 411.847 145.46ZM413.027 129.06H409.087V130.64C409.087 131.133 409.227 131.593 409.507 132.02C409.8 132.446 410.167 132.853 410.607 133.24C411.06 133.613 411.554 133.973 412.087 134.32C412.634 134.666 413.16 135 413.667 135.32L412.707 136.64C412.254 136.373 411.807 136.1 411.367 135.82C410.927 135.526 410.507 135.226 410.107 134.92C409.72 134.613 409.36 134.3 409.027 133.98C408.694 133.646 408.42 133.306 408.207 132.96C408.007 133.32 407.747 133.693 407.427 134.08C407.107 134.453 406.747 134.826 406.347 135.2C405.947 135.56 405.52 135.913 405.067 136.26C404.627 136.593 404.18 136.9 403.727 137.18L402.707 135.86C403.28 135.473 403.84 135.08 404.387 134.68C404.934 134.266 405.42 133.846 405.847 133.42C406.274 132.98 406.62 132.533 406.887 132.08C407.154 131.613 407.287 131.133 407.287 130.64V129.06H403.347V127.46H413.027V129.06ZM411.847 138.94C411.167 138.94 410.54 139 409.967 139.12C409.394 139.226 408.9 139.386 408.487 139.6C408.087 139.813 407.774 140.073 407.547 140.38C407.32 140.686 407.207 141.026 407.207 141.4C407.207 141.786 407.32 142.133 407.547 142.44C407.774 142.733 408.087 142.986 408.487 143.2C408.9 143.413 409.394 143.573 409.967 143.68C410.54 143.8 411.167 143.86 411.847 143.86C412.527 143.86 413.154 143.8 413.727 143.68C414.3 143.573 414.787 143.413 415.187 143.2C415.6 142.986 415.92 142.733 416.147 142.44C416.374 142.133 416.487 141.786 416.487 141.4C416.487 141.026 416.374 140.686 416.147 140.38C415.92 140.073 415.6 139.813 415.187 139.6C414.787 139.386 414.3 139.226 413.727 139.12C413.154 139 412.527 138.94 411.847 138.94ZM412.267 130.9H416.207V126.82H418.007V137.08H416.207V132.5H412.267V130.9Z" fill="white"/>
<path d="M436.902 127.6V137.02H431.402V141.02H439.262V142.62H421.742V141.02H429.602V137.02H424.102V127.6H425.902V130.56H435.102V127.6H436.902ZM435.102 135.42V132.16H425.902V135.42H435.102Z" fill="white"/>
<path d="M443.816 134.28H446.176V136.66H443.816V134.28Z" fill="white"/>
<path d="M460.405 127.6V130.34C460.405 130.993 460.625 131.6 461.065 132.16C461.519 132.72 462.079 133.233 462.745 133.7C463.412 134.153 464.132 134.566 464.905 134.94C465.692 135.3 466.419 135.606 467.085 135.86L466.285 137.38C465.605 137.14 464.919 136.853 464.225 136.52C463.532 136.186 462.879 135.826 462.265 135.44C461.665 135.053 461.119 134.646 460.625 134.22C460.145 133.793 459.772 133.38 459.505 132.98C459.239 133.38 458.859 133.793 458.365 134.22C457.885 134.646 457.339 135.053 456.725 135.44C456.125 135.826 455.479 136.186 454.785 136.52C454.092 136.853 453.405 137.14 452.725 137.38L451.925 135.86C452.592 135.606 453.312 135.3 454.085 134.94C454.872 134.566 455.599 134.153 456.265 133.7C456.932 133.233 457.485 132.72 457.925 132.16C458.379 131.6 458.605 130.993 458.605 130.34V127.6H460.405ZM458.605 141.02V136.74H460.405V141.02H468.265V142.62H450.745V141.02H458.605Z" fill="white"/>
<path d="M485.7 126.82V137.02H483.9V126.82H485.7ZM483.9 145.06V139.52H473.1V137.92H485.7V145.06H483.9ZM476.98 127.16V129.52C476.98 130.053 477.12 130.58 477.4 131.1C477.693 131.606 478.067 132.1 478.52 132.58C478.973 133.06 479.473 133.513 480.02 133.94C480.567 134.366 481.093 134.753 481.6 135.1L480.54 136.36C480.087 136.066 479.64 135.746 479.2 135.4C478.773 135.04 478.367 134.68 477.98 134.32C477.593 133.96 477.233 133.6 476.9 133.24C476.58 132.866 476.313 132.513 476.1 132.18C475.9 132.54 475.64 132.913 475.32 133.3C475.013 133.686 474.66 134.073 474.26 134.46C473.873 134.846 473.46 135.22 473.02 135.58C472.58 135.94 472.133 136.28 471.68 136.6L470.56 135.34C471.133 134.926 471.693 134.493 472.24 134.04C472.8 133.573 473.293 133.1 473.72 132.62C474.16 132.126 474.513 131.62 474.78 131.1C475.047 130.58 475.18 130.053 475.18 129.52V127.16H476.98Z" fill="white"/>
<path fill-rule="evenodd" clip-rule="evenodd" d="M76 331L76 125L77 125L77 331L76 331Z" fill="#D0D0D0"/>
<path d="M185 203H335V253H185V203Z" fill="#FFABAB"/>
<path d="M185 296H335V346H185V296Z" fill="#FFABAB"/>
<path d="M185 389H335V439H185V389Z" fill="#FFABAB"/>
<path d="M185 482H335V532H185V482Z" fill="#FFABAB"/>
<path d="M185 110H335V160H185V110Z" fill="#FF7C7C"/>
<path d="M237.811 230.32V237.96H225.311V230.32H227.111V232.58H236.011V230.32H237.811ZM223.191 224.54C223.191 223.887 223.305 223.294 223.531 222.76C223.758 222.227 224.078 221.767 224.491 221.38C224.918 220.994 225.425 220.694 226.011 220.48C226.598 220.267 227.251 220.16 227.971 220.16C228.691 220.16 229.345 220.267 229.931 220.48C230.518 220.694 231.018 220.994 231.431 221.38C231.858 221.767 232.185 222.227 232.411 222.76C232.638 223.294 232.751 223.887 232.751 224.54C232.751 225.194 232.638 225.787 232.411 226.32C232.185 226.854 231.858 227.314 231.431 227.7C231.018 228.087 230.518 228.387 229.931 228.6C229.345 228.814 228.691 228.92 227.971 228.92C227.251 228.92 226.598 228.814 226.011 228.6C225.425 228.387 224.918 228.087 224.491 227.7C224.078 227.314 223.758 226.854 223.531 226.32C223.305 225.787 223.191 225.194 223.191 224.54ZM224.951 224.54C224.951 224.98 225.025 225.374 225.171 225.72C225.331 226.054 225.545 226.34 225.811 226.58C226.078 226.82 226.391 227.007 226.751 227.14C227.125 227.26 227.531 227.32 227.971 227.32C228.411 227.32 228.811 227.26 229.171 227.14C229.545 227.007 229.865 226.82 230.131 226.58C230.398 226.34 230.605 226.054 230.751 225.72C230.911 225.374 230.991 224.98 230.991 224.54C230.991 224.1 230.911 223.714 230.751 223.38C230.605 223.034 230.398 222.74 230.131 222.5C229.865 222.26 229.545 222.08 229.171 221.96C228.811 221.827 228.411 221.76 227.971 221.76C227.531 221.76 227.125 221.827 226.751 221.96C226.391 222.08 226.078 222.26 225.811 222.5C225.545 222.74 225.331 223.034 225.171 223.38C225.025 223.714 224.951 224.1 224.951 224.54ZM236.011 236.36V234.18H227.111V236.36H236.011ZM237.811 219.82V229.42H236.011V219.82H237.811Z" fill="white"/>
<path d="M250.526 238.46C249.526 238.46 248.633 238.354 247.846 238.14C247.073 237.94 246.413 237.66 245.866 237.3C245.333 236.94 244.919 236.514 244.626 236.02C244.346 235.527 244.206 234.987 244.206 234.4C244.206 233.8 244.346 233.254 244.626 232.76C244.919 232.254 245.333 231.82 245.866 231.46C246.413 231.1 247.073 230.827 247.846 230.64C248.633 230.44 249.526 230.34 250.526 230.34C251.526 230.34 252.413 230.44 253.186 230.64C253.973 230.827 254.633 231.1 255.166 231.46C255.713 231.82 256.126 232.254 256.406 232.76C256.699 233.254 256.846 233.8 256.846 234.4C256.846 235 256.699 235.547 256.406 236.04C256.126 236.547 255.713 236.98 255.166 237.34C254.633 237.7 253.973 237.974 253.186 238.16C252.413 238.36 251.526 238.46 250.526 238.46ZM242.186 224.62C242.186 223.967 242.299 223.367 242.526 222.82C242.753 222.274 243.073 221.807 243.486 221.42C243.913 221.02 244.419 220.714 245.006 220.5C245.593 220.274 246.246 220.16 246.966 220.16C247.686 220.16 248.339 220.274 248.926 220.5C249.513 220.714 250.013 221.02 250.426 221.42C250.853 221.807 251.179 222.274 251.406 222.82C251.633 223.367 251.746 223.967 251.746 224.62C251.746 225.274 251.633 225.874 251.406 226.42C251.179 226.967 250.853 227.44 250.426 227.84C250.013 228.227 249.513 228.534 248.926 228.76C248.339 228.974 247.686 229.08 246.966 229.08C246.246 229.08 245.593 228.974 245.006 228.76C244.419 228.534 243.913 228.227 243.486 227.84C243.073 227.44 242.753 226.967 242.526 226.42C242.299 225.874 242.186 225.274 242.186 224.62ZM250.526 231.94C249.846 231.94 249.226 232 248.666 232.12C248.106 232.227 247.626 232.387 247.226 232.6C246.839 232.814 246.539 233.074 246.326 233.38C246.113 233.687 246.006 234.027 246.006 234.4C246.006 234.787 246.113 235.134 246.326 235.44C246.539 235.734 246.839 235.987 247.226 236.2C247.626 236.414 248.106 236.574 248.666 236.68C249.226 236.8 249.846 236.86 250.526 236.86C251.206 236.86 251.826 236.8 252.386 236.68C252.946 236.574 253.419 236.414 253.806 236.2C254.206 235.987 254.513 235.734 254.726 235.44C254.939 235.134 255.046 234.787 255.046 234.4C255.046 234.027 254.939 233.687 254.726 233.38C254.513 233.074 254.206 232.814 253.806 232.6C253.419 232.387 252.946 232.227 252.386 232.12C251.826 232 251.206 231.94 250.526 231.94ZM243.946 224.62C243.946 225.06 244.019 225.454 244.166 225.8C244.326 226.147 244.539 226.447 244.806 226.7C245.073 226.954 245.386 227.147 245.746 227.28C246.119 227.414 246.526 227.48 246.966 227.48C247.406 227.48 247.806 227.414 248.166 227.28C248.539 227.147 248.859 226.954 249.126 226.7C249.393 226.447 249.599 226.147 249.746 225.8C249.906 225.454 249.986 225.06 249.986 224.62C249.986 224.18 249.906 223.787 249.746 223.44C249.599 223.094 249.393 222.794 249.126 222.54C248.859 222.287 248.539 222.094 248.166 221.96C247.806 221.827 247.406 221.76 246.966 221.76C246.526 221.76 246.119 221.827 245.746 221.96C245.386 222.094 245.073 222.287 244.806 222.54C244.539 222.794 244.326 223.094 244.166 223.44C244.019 223.787 243.946 224.18 243.946 224.62ZM256.566 219.82V221.8H259.406V223.4H256.566V225.8H259.406V227.4H256.566V230.08H254.766V219.82H256.566Z" fill="white"/>
<path d="M261.62 229.7C261.62 229.047 261.74 228.447 261.98 227.9C262.234 227.354 262.574 226.887 263 226.5C263.44 226.1 263.96 225.794 264.56 225.58C265.16 225.354 265.814 225.24 266.52 225.24C267.227 225.24 267.88 225.354 268.48 225.58C269.08 225.794 269.594 226.1 270.02 226.5C270.46 226.887 270.8 227.354 271.04 227.9C271.294 228.447 271.42 229.047 271.42 229.7C271.42 230.354 271.294 230.954 271.04 231.5C270.8 232.047 270.46 232.52 270.02 232.92C269.594 233.307 269.08 233.614 268.48 233.84C267.88 234.054 267.227 234.16 266.52 234.16C265.814 234.16 265.16 234.054 264.56 233.84C263.96 233.614 263.44 233.307 263 232.92C262.574 232.52 262.234 232.047 261.98 231.5C261.74 230.954 261.62 230.354 261.62 229.7ZM275.74 219.82V227.02H278.8V228.62H275.74V237.96H273.94V219.82H275.74ZM263.42 229.7C263.42 230.58 263.694 231.28 264.24 231.8C264.8 232.307 265.56 232.56 266.52 232.56C267.48 232.56 268.234 232.307 268.78 231.8C269.34 231.28 269.62 230.58 269.62 229.7C269.62 228.82 269.34 228.127 268.78 227.62C268.234 227.1 267.48 226.84 266.52 226.84C265.56 226.84 264.8 227.1 264.24 227.62C263.694 228.127 263.42 228.82 263.42 229.7ZM267.36 219.68V222.32H272V223.92H260.94V222.32H265.56V219.68H267.36Z" fill="white"/>
<path d="M290.335 224.64C290.335 225.507 290.135 226.354 289.735 227.18C289.348 227.994 288.802 228.8 288.095 229.6C287.402 230.387 286.562 231.167 285.575 231.94C284.602 232.714 283.535 233.48 282.375 234.24L281.295 232.78C282.428 232.074 283.435 231.374 284.315 230.68C285.208 229.974 285.962 229.28 286.575 228.6C287.202 227.907 287.675 227.227 287.995 226.56C288.328 225.88 288.495 225.2 288.495 224.52V222.32H281.575V220.72H290.335V224.64ZM295.895 219.82V237.96H294.095V219.82H295.895Z" fill="white"/>
<path d="M237.811 323.32V330.96H225.311V323.32H227.111V325.58H236.011V323.32H237.811ZM223.191 317.54C223.191 316.886 223.305 316.293 223.531 315.76C223.758 315.226 224.078 314.766 224.491 314.38C224.918 313.993 225.425 313.693 226.011 313.48C226.598 313.266 227.251 313.16 227.971 313.16C228.691 313.16 229.345 313.266 229.931 313.48C230.518 313.693 231.018 313.993 231.431 314.38C231.858 314.766 232.185 315.226 232.411 315.76C232.638 316.293 232.751 316.886 232.751 317.54C232.751 318.193 232.638 318.786 232.411 319.32C232.185 319.853 231.858 320.313 231.431 320.7C231.018 321.086 230.518 321.386 229.931 321.6C229.345 321.813 228.691 321.92 227.971 321.92C227.251 321.92 226.598 321.813 226.011 321.6C225.425 321.386 224.918 321.086 224.491 320.7C224.078 320.313 223.758 319.853 223.531 319.32C223.305 318.786 223.191 318.193 223.191 317.54ZM224.951 317.54C224.951 317.98 225.025 318.373 225.171 318.72C225.331 319.053 225.545 319.34 225.811 319.58C226.078 319.82 226.391 320.006 226.751 320.14C227.125 320.26 227.531 320.32 227.971 320.32C228.411 320.32 228.811 320.26 229.171 320.14C229.545 320.006 229.865 319.82 230.131 319.58C230.398 319.34 230.605 319.053 230.751 318.72C230.911 318.373 230.991 317.98 230.991 317.54C230.991 317.1 230.911 316.713 230.751 316.38C230.605 316.033 230.398 315.74 230.131 315.5C229.865 315.26 229.545 315.08 229.171 314.96C228.811 314.826 228.411 314.76 227.971 314.76C227.531 314.76 227.125 314.826 226.751 314.96C226.391 315.08 226.078 315.26 225.811 315.5C225.545 315.74 225.331 316.033 225.171 316.38C225.025 316.713 224.951 317.1 224.951 317.54ZM236.011 329.36V327.18H227.111V329.36H236.011ZM237.811 312.82V322.42H236.011V312.82H237.811Z" fill="white"/>
<path d="M250.526 331.46C249.526 331.46 248.633 331.353 247.846 331.14C247.073 330.94 246.413 330.66 245.866 330.3C245.333 329.94 244.919 329.513 244.626 329.02C244.346 328.526 244.206 327.986 244.206 327.4C244.206 326.8 244.346 326.253 244.626 325.76C244.919 325.253 245.333 324.82 245.866 324.46C246.413 324.1 247.073 323.826 247.846 323.64C248.633 323.44 249.526 323.34 250.526 323.34C251.526 323.34 252.413 323.44 253.186 323.64C253.973 323.826 254.633 324.1 255.166 324.46C255.713 324.82 256.126 325.253 256.406 325.76C256.699 326.253 256.846 326.8 256.846 327.4C256.846 328 256.699 328.546 256.406 329.04C256.126 329.546 255.713 329.98 255.166 330.34C254.633 330.7 253.973 330.973 253.186 331.16C252.413 331.36 251.526 331.46 250.526 331.46ZM242.186 317.62C242.186 316.966 242.299 316.366 242.526 315.82C242.753 315.273 243.073 314.806 243.486 314.42C243.913 314.02 244.419 313.713 245.006 313.5C245.593 313.273 246.246 313.16 246.966 313.16C247.686 313.16 248.339 313.273 248.926 313.5C249.513 313.713 250.013 314.02 250.426 314.42C250.853 314.806 251.179 315.273 251.406 315.82C251.633 316.366 251.746 316.966 251.746 317.62C251.746 318.273 251.633 318.873 251.406 319.42C251.179 319.966 250.853 320.44 250.426 320.84C250.013 321.226 249.513 321.533 248.926 321.76C248.339 321.973 247.686 322.08 246.966 322.08C246.246 322.08 245.593 321.973 245.006 321.76C244.419 321.533 243.913 321.226 243.486 320.84C243.073 320.44 242.753 319.966 242.526 319.42C242.299 318.873 242.186 318.273 242.186 317.62ZM250.526 324.94C249.846 324.94 249.226 325 248.666 325.12C248.106 325.226 247.626 325.386 247.226 325.6C246.839 325.813 246.539 326.073 246.326 326.38C246.113 326.686 246.006 327.026 246.006 327.4C246.006 327.786 246.113 328.133 246.326 328.44C246.539 328.733 246.839 328.986 247.226 329.2C247.626 329.413 248.106 329.573 248.666 329.68C249.226 329.8 249.846 329.86 250.526 329.86C251.206 329.86 251.826 329.8 252.386 329.68C252.946 329.573 253.419 329.413 253.806 329.2C254.206 328.986 254.513 328.733 254.726 328.44C254.939 328.133 255.046 327.786 255.046 327.4C255.046 327.026 254.939 326.686 254.726 326.38C254.513 326.073 254.206 325.813 253.806 325.6C253.419 325.386 252.946 325.226 252.386 325.12C251.826 325 251.206 324.94 250.526 324.94ZM243.946 317.62C243.946 318.06 244.019 318.453 244.166 318.8C244.326 319.146 244.539 319.446 244.806 319.7C245.073 319.953 245.386 320.146 245.746 320.28C246.119 320.413 246.526 320.48 246.966 320.48C247.406 320.48 247.806 320.413 248.166 320.28C248.539 320.146 248.859 319.953 249.126 319.7C249.393 319.446 249.599 319.146 249.746 318.8C249.906 318.453 249.986 318.06 249.986 317.62C249.986 317.18 249.906 316.786 249.746 316.44C249.599 316.093 249.393 315.793 249.126 315.54C248.859 315.286 248.539 315.093 248.166 314.96C247.806 314.826 247.406 314.76 246.966 314.76C246.526 314.76 246.119 314.826 245.746 314.96C245.386 315.093 245.073 315.286 244.806 315.54C244.539 315.793 244.326 316.093 244.166 316.44C244.019 316.786 243.946 317.18 243.946 317.62ZM256.566 312.82V314.8H259.406V316.4H256.566V318.8H259.406V320.4H256.566V323.08H254.766V312.82H256.566Z" fill="white"/>
<path d="M275.96 312.82V317.74H278.8V319.34H275.96V325.68H274.16V312.82H275.96ZM263.7 324.52H265.5V329.26H276.5V330.86H263.7V324.52ZM263.34 318.12C263.34 318.626 263.414 319.086 263.56 319.5C263.72 319.9 263.934 320.24 264.2 320.52C264.467 320.8 264.78 321.013 265.14 321.16C265.514 321.306 265.92 321.38 266.36 321.38C266.8 321.38 267.2 321.306 267.56 321.16C267.934 321.013 268.254 320.8 268.52 320.52C268.787 320.24 268.994 319.9 269.14 319.5C269.3 319.086 269.38 318.626 269.38 318.12C269.38 317.613 269.3 317.16 269.14 316.76C268.994 316.346 268.787 316 268.52 315.72C268.254 315.44 267.934 315.226 267.56 315.08C267.2 314.933 266.8 314.86 266.36 314.86C265.92 314.86 265.514 314.933 265.14 315.08C264.78 315.226 264.467 315.44 264.2 315.72C263.934 316 263.72 316.346 263.56 316.76C263.414 317.16 263.34 317.613 263.34 318.12ZM261.58 318.12C261.58 317.4 261.694 316.746 261.92 316.16C262.147 315.56 262.467 315.046 262.88 314.62C263.307 314.18 263.814 313.846 264.4 313.62C264.987 313.38 265.64 313.26 266.36 313.26C267.08 313.26 267.734 313.38 268.32 313.62C268.907 313.846 269.407 314.18 269.82 314.62C270.247 315.046 270.574 315.56 270.8 316.16C271.027 316.746 271.14 317.4 271.14 318.12C271.14 318.84 271.027 319.5 270.8 320.1C270.574 320.686 270.247 321.2 269.82 321.64C269.407 322.066 268.907 322.4 268.32 322.64C267.734 322.866 267.08 322.98 266.36 322.98C265.64 322.98 264.987 322.866 264.4 322.64C263.814 322.4 263.307 322.066 262.88 321.64C262.467 321.2 262.147 320.686 261.92 320.1C261.694 319.5 261.58 318.84 261.58 318.12Z" fill="white"/>
<path d="M292.175 312.92V319.06H294.975V312.82H296.735V330.96H294.975V320.66H292.175V330.56H290.415V312.92H292.175ZM283.055 313.52V324.54H284.355C284.835 324.54 285.275 324.533 285.675 324.52C286.088 324.506 286.482 324.486 286.855 324.46C287.242 324.433 287.615 324.4 287.975 324.36C288.348 324.32 288.728 324.266 289.115 324.2L289.275 325.74C288.862 325.806 288.462 325.866 288.075 325.92C287.688 325.96 287.288 326 286.875 326.04C286.475 326.066 286.055 326.093 285.615 326.12C285.188 326.133 284.728 326.14 284.235 326.14H281.255V313.52H283.055Z" fill="white"/>
<path d="M237.811 416.32V423.96H225.311V416.32H227.111V418.58H236.011V416.32H237.811ZM223.191 410.54C223.191 409.887 223.305 409.293 223.531 408.76C223.758 408.227 224.078 407.767 224.491 407.38C224.918 406.993 225.425 406.693 226.011 406.48C226.598 406.267 227.251 406.16 227.971 406.16C228.691 406.16 229.345 406.267 229.931 406.48C230.518 406.693 231.018 406.993 231.431 407.38C231.858 407.767 232.185 408.227 232.411 408.76C232.638 409.293 232.751 409.887 232.751 410.54C232.751 411.193 232.638 411.787 232.411 412.32C232.185 412.853 231.858 413.313 231.431 413.7C231.018 414.087 230.518 414.387 229.931 414.6C229.345 414.813 228.691 414.92 227.971 414.92C227.251 414.92 226.598 414.813 226.011 414.6C225.425 414.387 224.918 414.087 224.491 413.7C224.078 413.313 223.758 412.853 223.531 412.32C223.305 411.787 223.191 411.193 223.191 410.54ZM224.951 410.54C224.951 410.98 225.025 411.373 225.171 411.72C225.331 412.053 225.545 412.34 225.811 412.58C226.078 412.82 226.391 413.007 226.751 413.14C227.125 413.26 227.531 413.32 227.971 413.32C228.411 413.32 228.811 413.26 229.171 413.14C229.545 413.007 229.865 412.82 230.131 412.58C230.398 412.34 230.605 412.053 230.751 411.72C230.911 411.373 230.991 410.98 230.991 410.54C230.991 410.1 230.911 409.713 230.751 409.38C230.605 409.033 230.398 408.74 230.131 408.5C229.865 408.26 229.545 408.08 229.171 407.96C228.811 407.827 228.411 407.76 227.971 407.76C227.531 407.76 227.125 407.827 226.751 407.96C226.391 408.08 226.078 408.26 225.811 408.5C225.545 408.74 225.331 409.033 225.171 409.38C225.025 409.713 224.951 410.1 224.951 410.54ZM236.011 422.36V420.18H227.111V422.36H236.011ZM237.811 405.82V415.42H236.011V405.82H237.811Z" fill="white"/>
<path d="M250.526 424.46C249.526 424.46 248.633 424.353 247.846 424.14C247.073 423.94 246.413 423.66 245.866 423.3C245.333 422.94 244.919 422.513 244.626 422.02C244.346 421.527 244.206 420.987 244.206 420.4C244.206 419.8 244.346 419.253 244.626 418.76C244.919 418.253 245.333 417.82 245.866 417.46C246.413 417.1 247.073 416.827 247.846 416.64C248.633 416.44 249.526 416.34 250.526 416.34C251.526 416.34 252.413 416.44 253.186 416.64C253.973 416.827 254.633 417.1 255.166 417.46C255.713 417.82 256.126 418.253 256.406 418.76C256.699 419.253 256.846 419.8 256.846 420.4C256.846 421 256.699 421.547 256.406 422.04C256.126 422.547 255.713 422.98 255.166 423.34C254.633 423.7 253.973 423.973 253.186 424.16C252.413 424.36 251.526 424.46 250.526 424.46ZM242.186 410.62C242.186 409.967 242.299 409.367 242.526 408.82C242.753 408.273 243.073 407.807 243.486 407.42C243.913 407.02 244.419 406.713 245.006 406.5C245.593 406.273 246.246 406.16 246.966 406.16C247.686 406.16 248.339 406.273 248.926 406.5C249.513 406.713 250.013 407.02 250.426 407.42C250.853 407.807 251.179 408.273 251.406 408.82C251.633 409.367 251.746 409.967 251.746 410.62C251.746 411.273 251.633 411.873 251.406 412.42C251.179 412.967 250.853 413.44 250.426 413.84C250.013 414.227 249.513 414.533 248.926 414.76C248.339 414.973 247.686 415.08 246.966 415.08C246.246 415.08 245.593 414.973 245.006 414.76C244.419 414.533 243.913 414.227 243.486 413.84C243.073 413.44 242.753 412.967 242.526 412.42C242.299 411.873 242.186 411.273 242.186 410.62ZM250.526 417.94C249.846 417.94 249.226 418 248.666 418.12C248.106 418.227 247.626 418.387 247.226 418.6C246.839 418.813 246.539 419.073 246.326 419.38C246.113 419.687 246.006 420.027 246.006 420.4C246.006 420.787 246.113 421.133 246.326 421.44C246.539 421.733 246.839 421.987 247.226 422.2C247.626 422.413 248.106 422.573 248.666 422.68C249.226 422.8 249.846 422.86 250.526 422.86C251.206 422.86 251.826 422.8 252.386 422.68C252.946 422.573 253.419 422.413 253.806 422.2C254.206 421.987 254.513 421.733 254.726 421.44C254.939 421.133 255.046 420.787 255.046 420.4C255.046 420.027 254.939 419.687 254.726 419.38C254.513 419.073 254.206 418.813 253.806 418.6C253.419 418.387 252.946 418.227 252.386 418.12C251.826 418 251.206 417.94 250.526 417.94ZM243.946 410.62C243.946 411.06 244.019 411.453 244.166 411.8C244.326 412.147 244.539 412.447 244.806 412.7C245.073 412.953 245.386 413.147 245.746 413.28C246.119 413.413 246.526 413.48 246.966 413.48C247.406 413.48 247.806 413.413 248.166 413.28C248.539 413.147 248.859 412.953 249.126 412.7C249.393 412.447 249.599 412.147 249.746 411.8C249.906 411.453 249.986 411.06 249.986 410.62C249.986 410.18 249.906 409.787 249.746 409.44C249.599 409.093 249.393 408.793 249.126 408.54C248.859 408.287 248.539 408.093 248.166 407.96C247.806 407.827 247.406 407.76 246.966 407.76C246.526 407.76 246.119 407.827 245.746 407.96C245.386 408.093 245.073 408.287 244.806 408.54C244.539 408.793 244.326 409.093 244.166 409.44C244.019 409.787 243.946 410.18 243.946 410.62ZM256.566 405.82V407.8H259.406V409.4H256.566V411.8H259.406V413.4H256.566V416.08H254.766V405.82H256.566Z" fill="white"/>
<path d="M269.7 409.66C271.767 409.66 273.327 409.953 274.38 410.54C275.447 411.127 275.98 411.967 275.98 413.06C275.98 414.153 275.447 414.993 274.38 415.58C273.327 416.167 271.767 416.46 269.7 416.46C267.634 416.46 266.067 416.167 265 415.58C263.947 414.993 263.42 414.153 263.42 413.06C263.42 411.967 263.947 411.127 265 410.54C266.067 409.953 267.634 409.66 269.7 409.66ZM278.46 417.72V419.32H270.6V423.96H268.8V419.32H260.94V417.72H278.46ZM269.7 414.9C271.287 414.9 272.427 414.753 273.12 414.46C273.827 414.153 274.18 413.687 274.18 413.06C274.18 412.433 273.827 411.973 273.12 411.68C272.427 411.373 271.287 411.22 269.7 411.22C268.114 411.22 266.967 411.373 266.26 411.68C265.567 411.973 265.22 412.433 265.22 413.06C265.22 413.687 265.567 414.153 266.26 414.46C266.967 414.753 268.114 414.9 269.7 414.9ZM270.58 404.96V407.16H277.1V408.72H262.3V407.16H268.82V404.96H270.58Z" fill="white"/>
<path d="M290.335 410.64C290.335 411.507 290.135 412.353 289.735 413.18C289.348 413.993 288.802 414.8 288.095 415.6C287.402 416.387 286.562 417.167 285.575 417.94C284.602 418.713 283.535 419.48 282.375 420.24L281.295 418.78C282.428 418.073 283.435 417.373 284.315 416.68C285.208 415.973 285.962 415.28 286.575 414.6C287.202 413.907 287.675 413.227 287.995 412.56C288.328 411.88 288.495 411.2 288.495 410.52V408.32H281.575V406.72H290.335V410.64ZM295.895 405.82V423.96H294.095V405.82H295.895Z" fill="white"/>
<path d="M237.811 509.32V516.96H225.311V509.32H227.111V511.58H236.011V509.32H237.811ZM223.191 503.54C223.191 502.886 223.305 502.293 223.531 501.76C223.758 501.226 224.078 500.766 224.491 500.38C224.918 499.993 225.425 499.693 226.011 499.48C226.598 499.266 227.251 499.16 227.971 499.16C228.691 499.16 229.345 499.266 229.931 499.48C230.518 499.693 231.018 499.993 231.431 500.38C231.858 500.766 232.185 501.226 232.411 501.76C232.638 502.293 232.751 502.886 232.751 503.54C232.751 504.193 232.638 504.786 232.411 505.32C232.185 505.853 231.858 506.313 231.431 506.7C231.018 507.086 230.518 507.386 229.931 507.6C229.345 507.813 228.691 507.92 227.971 507.92C227.251 507.92 226.598 507.813 226.011 507.6C225.425 507.386 224.918 507.086 224.491 506.7C224.078 506.313 223.758 505.853 223.531 505.32C223.305 504.786 223.191 504.193 223.191 503.54ZM224.951 503.54C224.951 503.98 225.025 504.373 225.171 504.72C225.331 505.053 225.545 505.34 225.811 505.58C226.078 505.82 226.391 506.006 226.751 506.14C227.125 506.26 227.531 506.32 227.971 506.32C228.411 506.32 228.811 506.26 229.171 506.14C229.545 506.006 229.865 505.82 230.131 505.58C230.398 505.34 230.605 505.053 230.751 504.72C230.911 504.373 230.991 503.98 230.991 503.54C230.991 503.1 230.911 502.713 230.751 502.38C230.605 502.033 230.398 501.74 230.131 501.5C229.865 501.26 229.545 501.08 229.171 500.96C228.811 500.826 228.411 500.76 227.971 500.76C227.531 500.76 227.125 500.826 226.751 500.96C226.391 501.08 226.078 501.26 225.811 501.5C225.545 501.74 225.331 502.033 225.171 502.38C225.025 502.713 224.951 503.1 224.951 503.54ZM236.011 515.36V513.18H227.111V515.36H236.011ZM237.811 498.82V508.42H236.011V498.82H237.811Z" fill="white"/>
<path d="M250.526 517.46C249.526 517.46 248.633 517.353 247.846 517.14C247.073 516.94 246.413 516.66 245.866 516.3C245.333 515.94 244.919 515.513 244.626 515.02C244.346 514.526 244.206 513.986 244.206 513.4C244.206 512.8 244.346 512.253 244.626 511.76C244.919 511.253 245.333 510.82 245.866 510.46C246.413 510.1 247.073 509.826 247.846 509.64C248.633 509.44 249.526 509.34 250.526 509.34C251.526 509.34 252.413 509.44 253.186 509.64C253.973 509.826 254.633 510.1 255.166 510.46C255.713 510.82 256.126 511.253 256.406 511.76C256.699 512.253 256.846 512.8 256.846 513.4C256.846 514 256.699 514.546 256.406 515.04C256.126 515.546 255.713 515.98 255.166 516.34C254.633 516.7 253.973 516.973 253.186 517.16C252.413 517.36 251.526 517.46 250.526 517.46ZM242.186 503.62C242.186 502.966 242.299 502.366 242.526 501.82C242.753 501.273 243.073 500.806 243.486 500.42C243.913 500.02 244.419 499.713 245.006 499.5C245.593 499.273 246.246 499.16 246.966 499.16C247.686 499.16 248.339 499.273 248.926 499.5C249.513 499.713 250.013 500.02 250.426 500.42C250.853 500.806 251.179 501.273 251.406 501.82C251.633 502.366 251.746 502.966 251.746 503.62C251.746 504.273 251.633 504.873 251.406 505.42C251.179 505.966 250.853 506.44 250.426 506.84C250.013 507.226 249.513 507.533 248.926 507.76C248.339 507.973 247.686 508.08 246.966 508.08C246.246 508.08 245.593 507.973 245.006 507.76C244.419 507.533 243.913 507.226 243.486 506.84C243.073 506.44 242.753 505.966 242.526 505.42C242.299 504.873 242.186 504.273 242.186 503.62ZM250.526 510.94C249.846 510.94 249.226 511 248.666 511.12C248.106 511.226 247.626 511.386 247.226 511.6C246.839 511.813 246.539 512.073 246.326 512.38C246.113 512.686 246.006 513.026 246.006 513.4C246.006 513.786 246.113 514.133 246.326 514.44C246.539 514.733 246.839 514.986 247.226 515.2C247.626 515.413 248.106 515.573 248.666 515.68C249.226 515.8 249.846 515.86 250.526 515.86C251.206 515.86 251.826 515.8 252.386 515.68C252.946 515.573 253.419 515.413 253.806 515.2C254.206 514.986 254.513 514.733 254.726 514.44C254.939 514.133 255.046 513.786 255.046 513.4C255.046 513.026 254.939 512.686 254.726 512.38C254.513 512.073 254.206 511.813 253.806 511.6C253.419 511.386 252.946 511.226 252.386 511.12C251.826 511 251.206 510.94 250.526 510.94ZM243.946 503.62C243.946 504.06 244.019 504.453 244.166 504.8C244.326 505.146 244.539 505.446 244.806 505.7C245.073 505.953 245.386 506.146 245.746 506.28C246.119 506.413 246.526 506.48 246.966 506.48C247.406 506.48 247.806 506.413 248.166 506.28C248.539 506.146 248.859 505.953 249.126 505.7C249.393 505.446 249.599 505.146 249.746 504.8C249.906 504.453 249.986 504.06 249.986 503.62C249.986 503.18 249.906 502.786 249.746 502.44C249.599 502.093 249.393 501.793 249.126 501.54C248.859 501.286 248.539 501.093 248.166 500.96C247.806 500.826 247.406 500.76 246.966 500.76C246.526 500.76 246.119 500.826 245.746 500.96C245.386 501.093 245.073 501.286 244.806 501.54C244.539 501.793 244.326 502.093 244.166 502.44C244.019 502.786 243.946 503.18 243.946 503.62ZM256.566 498.82V500.8H259.406V502.4H256.566V504.8H259.406V506.4H256.566V509.08H254.766V498.82H256.566Z" fill="white"/>
<path d="M264.3 510.52H266.1V515.26H277.58V516.86H264.3V510.52ZM266.58 499.26V502.6C266.58 503.12 266.7 503.633 266.94 504.14C267.18 504.633 267.487 505.106 267.86 505.56C268.234 506.013 268.64 506.44 269.08 506.84C269.534 507.226 269.974 507.573 270.4 507.88L269.28 509.08C268.934 508.826 268.587 508.546 268.24 508.24C267.907 507.933 267.587 507.613 267.28 507.28C266.974 506.933 266.687 506.586 266.42 506.24C266.154 505.88 265.92 505.54 265.72 505.22C265.56 505.526 265.347 505.866 265.08 506.24C264.827 506.6 264.54 506.966 264.22 507.34C263.9 507.7 263.56 508.053 263.2 508.4C262.84 508.733 262.487 509.04 262.14 509.32L260.96 508.12C261.427 507.733 261.887 507.326 262.34 506.9C262.807 506.46 263.22 506.006 263.58 505.54C263.954 505.073 264.254 504.593 264.48 504.1C264.707 503.606 264.82 503.106 264.82 502.6V499.26H266.58ZM268.66 502.42H271.72V498.92H273.42V510.42H271.72V504.02H268.66V502.42ZM277.04 498.82V511.42H275.3V498.82H277.04Z" fill="white"/>
<path d="M289.795 506.9H283.335V511.22H286.195C287.155 511.22 288.062 511.206 288.915 511.18C289.768 511.153 290.648 511.086 291.555 510.98L291.715 512.52C290.702 512.653 289.728 512.74 288.795 512.78C287.875 512.806 286.915 512.82 285.915 512.82H281.535V499.64H290.515V501.24H283.335V505.3H289.795V506.9ZM290.795 505.32H294.295V498.82H296.095V516.96H294.295V506.92H290.795V505.32Z" fill="white"/>
<path d="M232.348 141.02V142.62H249.868V141.02H240.688V134.08H238.888V141.02H232.348ZM234.608 129.4H245.808V131.06C245.808 133.28 245.688 135.44 245.408 137.72L247.148 137.9C247.408 135.5 247.608 133.18 247.608 130.72V127.8H234.608V129.4Z" fill="white"/>
<path d="M260.722 145.46C264.702 145.46 267.042 143.82 267.042 141.4C267.042 138.98 264.702 137.34 260.722 137.34C256.742 137.34 254.402 138.98 254.402 141.4C254.402 143.72 256.742 145.46 260.722 145.46ZM252.382 131.62C252.382 134.22 254.282 136.08 257.162 136.08C260.042 136.08 261.942 134.22 261.942 131.62C261.942 129.02 260.042 127.16 257.162 127.16C254.282 127.16 252.382 129.02 252.382 131.62ZM260.722 138.94C263.462 138.94 265.242 139.88 265.242 141.4C265.242 142.92 263.462 143.86 260.722 143.86C257.982 143.86 256.202 142.92 256.202 141.4C256.202 139.88 257.982 138.94 260.722 138.94ZM254.142 131.62C254.142 129.88 255.422 128.76 257.162 128.76C258.902 128.76 260.182 129.88 260.182 131.62C260.182 133.36 258.902 134.48 257.162 134.48C255.422 134.48 254.142 133.36 254.142 131.62ZM264.962 126.82V137.08H266.762V134.4H269.602V132.8H266.762V130.4H269.602V128.8H266.762V126.82H264.962Z" fill="white"/>
<path d="M285.297 126.82V144.96H287.097V126.82H285.297ZM280.477 134.02C280.477 137.22 279.237 139.02 277.077 139.02C274.917 139.02 273.677 137.22 273.677 134.02C273.677 130.82 274.917 129.02 277.077 129.02C279.237 129.02 280.477 130.82 280.477 134.02ZM282.277 134.02C282.277 129.74 280.257 127.42 277.077 127.42C273.897 127.42 271.877 129.74 271.877 134.02C271.877 138.3 273.897 140.62 277.077 140.62C280.257 140.62 282.277 138.3 282.277 134.02Z" fill="white"/>
<path d="M0 110H150V160H0V110Z" fill="#FF7C7C"/>
<path d="M0 203H150V253H0V203Z" fill="#FFABAB"/>
<path d="M0 296H150V346H0V296Z" fill="#FFABAB"/>
<path d="M46.1349 126.82H47.9349V135.92H46.1349V126.82ZM35.4349 140.02H46.1349V138.42H35.4349V136.82H47.9349V141.62H37.2349V143.46H48.2349V145.06H35.4349V140.02ZM39.2149 127.06V129.02C39.2149 129.553 39.3549 130.067 39.6349 130.56C39.9283 131.053 40.3016 131.52 40.7549 131.96C41.2083 132.4 41.7083 132.82 42.2549 133.22C42.8016 133.607 43.3283 133.967 43.8349 134.3L42.8349 135.54C42.3816 135.26 41.9349 134.96 41.4949 134.64C41.0549 134.32 40.6349 133.993 40.2349 133.66C39.8483 133.313 39.4883 132.967 39.1549 132.62C38.8216 132.273 38.5483 131.927 38.3349 131.58C38.1349 131.94 37.8749 132.307 37.5549 132.68C37.2349 133.053 36.8749 133.42 36.4749 133.78C36.0749 134.14 35.6483 134.493 35.1949 134.84C34.7549 135.173 34.3083 135.487 33.8549 135.78L32.7949 134.54C33.3683 134.14 33.9283 133.727 34.4749 133.3C35.0349 132.873 35.5283 132.433 35.9549 131.98C36.3949 131.527 36.7483 131.053 37.0149 130.56C37.2816 130.067 37.4149 129.553 37.4149 129.02V127.06H39.2149Z" fill="white"/>
<path d="M60.5295 138.18C62.6895 138.18 64.3295 138.487 65.4495 139.1C66.5695 139.713 67.1295 140.62 67.1295 141.82C67.1295 143.02 66.5695 143.927 65.4495 144.54C64.3295 145.153 62.6895 145.46 60.5295 145.46C58.3695 145.46 56.7295 145.153 55.6095 144.54C54.4895 143.927 53.9295 143.02 53.9295 141.82C53.9295 140.62 54.4895 139.713 55.6095 139.1C56.7295 138.487 58.3695 138.18 60.5295 138.18ZM60.5295 131.22C60.2495 131.5 59.8561 131.773 59.3495 132.04C58.8561 132.307 58.2961 132.567 57.6695 132.82C57.0561 133.06 56.3961 133.287 55.6895 133.5C54.9828 133.7 54.2895 133.88 53.6095 134.04L53.0895 132.54C53.8761 132.353 54.6561 132.147 55.4295 131.92C56.2161 131.693 56.9228 131.447 57.5495 131.18C58.1761 130.913 58.6828 130.627 59.0695 130.32C59.4561 130.013 59.6495 129.68 59.6495 129.32V128.76H54.0295V127.16H67.0295V128.76H61.4095V129.32C61.4095 129.68 61.6028 130.013 61.9895 130.32C62.3761 130.627 62.8828 130.913 63.5095 131.18C64.1361 131.447 64.8361 131.693 65.6095 131.92C66.3961 132.147 67.1828 132.353 67.9695 132.54L67.4495 134.04C66.7695 133.88 66.0761 133.7 65.3695 133.5C64.6628 133.287 63.9961 133.06 63.3695 132.82C62.7561 132.567 62.1961 132.307 61.6895 132.04C61.1961 131.773 60.8095 131.5 60.5295 131.22ZM60.5295 143.86C62.1161 143.86 63.3095 143.7 64.1095 143.38C64.9228 143.073 65.3295 142.553 65.3295 141.82C65.3295 141.087 64.9228 140.567 64.1095 140.26C63.3095 139.94 62.1161 139.78 60.5295 139.78C58.9428 139.78 57.7428 139.94 56.9295 140.26C56.1295 140.567 55.7295 141.087 55.7295 141.82C55.7295 142.553 56.1295 143.073 56.9295 143.38C57.7428 143.7 58.9428 143.86 60.5295 143.86ZM59.6295 135.5V133.18H61.4295V135.5H69.2895V137.1H51.7695V135.5H59.6295Z" fill="white"/>
<path d="M77.084 125.96H78.884L72.724 145.54H70.924L77.084 125.96Z" fill="white"/>
<path d="M95.8748 127.6V137.02H90.3748V141.02H98.2348V142.62H80.7148V141.02H88.5748V137.02H83.0748V127.6H84.8748V130.56H94.0748V127.6H95.8748ZM94.0748 135.42V132.16H84.8748V135.42H94.0748Z" fill="white"/>
<path d="M108.869 131.5C110.936 131.5 112.489 131.82 113.529 132.46C114.583 133.087 115.109 133.967 115.109 135.1C115.109 136.153 114.656 136.993 113.749 137.62C112.856 138.233 111.529 138.587 109.769 138.68V141.02H117.629V142.62H100.109V141.02H107.969V138.68C106.196 138.587 104.863 138.233 103.969 137.62C103.076 136.993 102.629 136.153 102.629 135.1C102.629 133.967 103.149 133.087 104.189 132.46C105.243 131.82 106.803 131.5 108.869 131.5ZM108.869 137.14C110.456 137.14 111.589 136.973 112.269 136.64C112.963 136.293 113.309 135.78 113.309 135.1C113.309 134.42 112.963 133.913 112.269 133.58C111.589 133.233 110.456 133.06 108.869 133.06C107.283 133.06 106.143 133.233 105.449 133.58C104.769 133.913 104.429 134.42 104.429 135.1C104.429 135.78 104.769 136.293 105.449 136.64C106.143 136.973 107.283 137.14 108.869 137.14ZM109.749 126.36V128.9H116.269V130.46H101.469V128.9H107.989V126.36H109.749Z" fill="white"/>
<path d="M70.8048 219.82H72.6048V228.92H70.8048V219.82ZM60.1048 233.02H70.8048V231.42H60.1048V229.82H72.6048V234.62H61.9048V236.46H72.9048V238.06H60.1048V233.02ZM63.8848 220.06V222.02C63.8848 222.553 64.0248 223.066 64.3048 223.56C64.5982 224.053 64.9715 224.52 65.4248 224.96C65.8782 225.4 66.3782 225.82 66.9248 226.22C67.4715 226.606 67.9982 226.966 68.5048 227.3L67.5048 228.54C67.0515 228.26 66.6048 227.96 66.1648 227.64C65.7248 227.32 65.3048 226.993 64.9048 226.66C64.5182 226.313 64.1582 225.966 63.8248 225.62C63.4915 225.273 63.2182 224.926 63.0048 224.58C62.8048 224.94 62.5448 225.306 62.2248 225.68C61.9048 226.053 61.5448 226.42 61.1448 226.78C60.7448 227.14 60.3182 227.493 59.8648 227.84C59.4248 228.173 58.9782 228.486 58.5248 228.78L57.4648 227.54C58.0382 227.14 58.5982 226.726 59.1448 226.3C59.7048 225.873 60.1982 225.433 60.6248 224.98C61.0648 224.526 61.4182 224.053 61.6848 223.56C61.9515 223.066 62.0848 222.553 62.0848 222.02V220.06H63.8848Z" fill="white"/>
<path d="M85.1994 231.18C87.3594 231.18 88.9994 231.486 90.1194 232.1C91.2394 232.713 91.7994 233.62 91.7994 234.82C91.7994 236.02 91.2394 236.926 90.1194 237.54C88.9994 238.153 87.3594 238.46 85.1994 238.46C83.0394 238.46 81.3994 238.153 80.2794 237.54C79.1594 236.926 78.5994 236.02 78.5994 234.82C78.5994 233.62 79.1594 232.713 80.2794 232.1C81.3994 231.486 83.0394 231.18 85.1994 231.18ZM85.1994 224.22C84.9194 224.5 84.526 224.773 84.0194 225.04C83.526 225.306 82.966 225.566 82.3394 225.82C81.726 226.06 81.066 226.286 80.3594 226.5C79.6527 226.7 78.9594 226.88 78.2794 227.04L77.7594 225.54C78.546 225.353 79.326 225.146 80.0994 224.92C80.886 224.693 81.5927 224.446 82.2194 224.18C82.846 223.913 83.3527 223.626 83.7394 223.32C84.126 223.013 84.3194 222.68 84.3194 222.32V221.76H78.6994V220.16H91.6994V221.76H86.0794V222.32C86.0794 222.68 86.2727 223.013 86.6594 223.32C87.046 223.626 87.5527 223.913 88.1794 224.18C88.806 224.446 89.506 224.693 90.2794 224.92C91.066 225.146 91.8527 225.353 92.6394 225.54L92.1194 227.04C91.4394 226.88 90.746 226.7 90.0394 226.5C89.3327 226.286 88.666 226.06 88.0394 225.82C87.426 225.566 86.866 225.306 86.3594 225.04C85.866 224.773 85.4794 224.5 85.1994 224.22ZM85.1994 236.86C86.786 236.86 87.9794 236.7 88.7794 236.38C89.5927 236.073 89.9994 235.553 89.9994 234.82C89.9994 234.086 89.5927 233.566 88.7794 233.26C87.9794 232.94 86.786 232.78 85.1994 232.78C83.6127 232.78 82.4127 232.94 81.5994 233.26C80.7994 233.566 80.3994 234.086 80.3994 234.82C80.3994 235.553 80.7994 236.073 81.5994 236.38C82.4127 236.7 83.6127 236.86 85.1994 236.86ZM84.2994 228.5V226.18H86.0994V228.5H93.9594V230.1H76.4394V228.5H84.2994Z" fill="white"/>
<path d="M72.2049 313.6V323.02H66.7049V327.02H74.5649V328.62H57.0449V327.02H64.9049V323.02H59.4049V313.6H61.2049V316.56H70.4049V313.6H72.2049ZM70.4049 321.42V318.16H61.2049V321.42H70.4049Z" fill="white"/>
<path d="M85.1995 317.5C87.2661 317.5 88.8195 317.82 89.8595 318.46C90.9128 319.087 91.4395 319.967 91.4395 321.1C91.4395 322.153 90.9861 322.993 90.0795 323.62C89.1861 324.233 87.8595 324.587 86.0995 324.68V327.02H93.9595V328.62H76.4395V327.02H84.2995V324.68C82.5261 324.587 81.1928 324.233 80.2995 323.62C79.4061 322.993 78.9595 322.153 78.9595 321.1C78.9595 319.967 79.4795 319.087 80.5195 318.46C81.5728 317.82 83.1328 317.5 85.1995 317.5ZM85.1995 323.14C86.7861 323.14 87.9195 322.973 88.5995 322.64C89.2928 322.293 89.6395 321.78 89.6395 321.1C89.6395 320.42 89.2928 319.913 88.5995 319.58C87.9195 319.233 86.7861 319.06 85.1995 319.06C83.6128 319.06 82.4728 319.233 81.7795 319.58C81.0995 319.913 80.7595 320.42 80.7595 321.1C80.7595 321.78 81.0995 322.293 81.7795 322.64C82.4728 322.973 83.6128 323.14 85.1995 323.14ZM86.0795 312.36V314.9H92.5995V316.46H77.7995V314.9H84.3195V312.36H86.0795Z" fill="white"/>
<path d="M555 110H705V160H555V110Z" fill="#FF7C7C"/>
<path d="M740 110H890V160H740V110Z" fill="#FF7C7C"/>
<path d="M604.708 131.88H615.708V129.28H604.708V127.68H617.508V133.48H606.508V136.32H617.808V137.92H612.008V141.02H619.868V142.62H602.348V141.02H610.208V137.92H604.708V131.88Z" fill="white"/>
<path d="M623.802 127.8H636.802V130.82C636.802 132.06 636.749 133.313 636.642 134.58C636.549 135.833 636.409 137.073 636.222 138.3L634.482 138.14C634.669 136.94 634.802 135.76 634.882 134.6C634.962 133.426 635.002 132.28 635.002 131.16V129.4H623.802V127.8ZM639.262 141.02V142.62H621.742V141.02H639.262Z" fill="white"/>
<path d="M656.797 126.82V139.68H654.997V126.82H656.797ZM644.397 138.52H646.197V143.26H657.437V144.86H644.397V138.52ZM643.937 132.12C643.937 132.626 644.01 133.086 644.157 133.5C644.317 133.9 644.53 134.24 644.797 134.52C645.063 134.8 645.377 135.013 645.737 135.16C646.11 135.306 646.517 135.38 646.957 135.38C647.397 135.38 647.797 135.306 648.157 135.16C648.53 135.013 648.85 134.8 649.117 134.52C649.383 134.24 649.59 133.9 649.737 133.5C649.897 133.086 649.977 132.626 649.977 132.12C649.977 131.613 649.897 131.16 649.737 130.76C649.59 130.346 649.383 130 649.117 129.72C648.85 129.44 648.53 129.226 648.157 129.08C647.797 128.933 647.397 128.86 646.957 128.86C646.517 128.86 646.11 128.933 645.737 129.08C645.377 129.226 645.063 129.44 644.797 129.72C644.53 130 644.317 130.346 644.157 130.76C644.01 131.16 643.937 131.613 643.937 132.12ZM642.177 132.12C642.177 131.4 642.29 130.746 642.517 130.16C642.743 129.56 643.063 129.046 643.477 128.62C643.903 128.18 644.41 127.846 644.997 127.62C645.583 127.38 646.237 127.26 646.957 127.26C647.677 127.26 648.33 127.38 648.917 127.62C649.503 127.846 650.003 128.18 650.417 128.62C650.843 129.046 651.17 129.56 651.397 130.16C651.623 130.746 651.737 131.4 651.737 132.12C651.737 132.84 651.623 133.5 651.397 134.1C651.17 134.686 650.843 135.2 650.417 135.64C650.003 136.066 649.503 136.4 648.917 136.64C648.33 136.866 647.677 136.98 646.957 136.98C646.237 136.98 645.583 136.866 644.997 136.64C644.41 136.4 643.903 136.066 643.477 135.64C643.063 135.2 642.743 134.686 642.517 134.1C642.29 133.5 642.177 132.84 642.177 132.12Z" fill="white"/>
<path d="M779.812 138.92H781.612V143.26H792.612V144.86H779.812V138.92ZM792.312 126.82V131.9H795.012V133.5H792.312V139.68H790.512V126.82H792.312ZM781.092 135.92V131.58H782.892V135.92H783.352C784.405 135.92 785.465 135.88 786.532 135.8C787.599 135.72 788.572 135.593 789.452 135.42L789.692 136.92C788.745 137.12 787.665 137.273 786.452 137.38C785.239 137.473 783.979 137.52 782.672 137.52H777.172V135.92H781.092ZM778.372 127.26H787.712V129.98C787.712 130.3 787.705 130.64 787.692 131C787.679 131.346 787.659 131.7 787.632 132.06C787.605 132.42 787.572 132.78 787.532 133.14C787.505 133.486 787.472 133.806 787.432 134.1L785.652 133.98C785.732 133.34 785.792 132.693 785.832 132.04C785.885 131.373 785.912 130.733 785.912 130.12V128.86H778.372V127.26Z" fill="white"/>
<path d="M812.106 126.82V136.82H810.306V126.82H812.106ZM799.606 137.72H812.106V144.96H799.606V137.72ZM801.406 139.32V143.36H810.306V139.32H801.406ZM803.386 127.16V129.46C803.386 129.993 803.526 130.52 803.806 131.04C804.1 131.546 804.473 132.033 804.926 132.5C805.38 132.966 805.88 133.413 806.426 133.84C806.973 134.253 807.5 134.633 808.006 134.98L806.946 136.24C806.493 135.946 806.046 135.626 805.606 135.28C805.18 134.933 804.773 134.586 804.386 134.24C804 133.88 803.64 133.52 803.306 133.16C802.986 132.8 802.72 132.453 802.506 132.12C802.306 132.48 802.046 132.853 801.726 133.24C801.42 133.613 801.066 133.993 800.666 134.38C800.28 134.753 799.866 135.12 799.426 135.48C798.986 135.826 798.54 136.16 798.086 136.48L796.966 135.22C797.54 134.806 798.1 134.373 798.646 133.92C799.206 133.466 799.7 133 800.126 132.52C800.566 132.04 800.92 131.546 801.186 131.04C801.453 130.52 801.586 129.993 801.586 129.46V127.16H803.386Z" fill="white"/>
<path d="M824.701 137.98C826.861 137.98 828.501 138.306 829.621 138.96C830.741 139.6 831.301 140.52 831.301 141.72C831.301 142.92 830.741 143.84 829.621 144.48C828.501 145.133 826.861 145.46 824.701 145.46C822.541 145.46 820.901 145.133 819.781 144.48C818.661 143.84 818.101 142.92 818.101 141.72C818.101 140.52 818.661 139.6 819.781 138.96C820.901 138.306 822.541 137.98 824.701 137.98ZM818.401 127.16H831.001V128.76H820.201V131.7H831.201V133.3H825.601V135.3H833.461V136.9H815.941V135.3H823.801V133.3H818.401V127.16ZM824.701 143.86C826.288 143.86 827.481 143.686 828.281 143.34C829.094 142.993 829.501 142.453 829.501 141.72C829.501 140.986 829.094 140.446 828.281 140.1C827.481 139.753 826.288 139.58 824.701 139.58C823.114 139.58 821.914 139.753 821.101 140.1C820.301 140.446 819.901 140.986 819.901 141.72C819.901 142.453 820.301 142.993 821.101 143.34C821.914 143.686 823.114 143.86 824.701 143.86Z" fill="white"/>
<path d="M852.855 134.02V135.58H844.995V137.18H850.495V141.84H839.495V143.46H850.795V145.06H837.695V140.24H848.695V138.78H837.695V137.18H843.195V135.58H835.335V134.02H852.855ZM850.395 132.8H837.795V127.06H850.395V132.8ZM839.595 131.2H848.595V128.66H839.595V131.2Z" fill="white"/>
<path d="M370 203H520V253H370V203Z" fill="#FFABAB"/>
<path d="M370 296H520V346H370V296Z" fill="#FFABAB"/>
<path d="M370 389H520V439H370V389Z" fill="#FFABAB"/>
<path d="M415.91 230.78C418.07 230.78 419.71 231.12 420.83 231.8C421.95 232.48 422.51 233.42 422.51 234.62C422.51 235.82 421.95 236.76 420.83 237.44C419.71 238.12 418.07 238.46 415.91 238.46C413.75 238.46 412.11 238.12 410.99 237.44C409.87 236.76 409.31 235.82 409.31 234.62C409.31 233.42 409.87 232.48 410.99 231.8C412.11 231.12 413.75 230.78 415.91 230.78ZM415.91 236.86C417.497 236.86 418.69 236.666 419.49 236.28C420.304 235.906 420.71 235.353 420.71 234.62C420.71 233.886 420.304 233.333 419.49 232.96C418.69 232.573 417.497 232.38 415.91 232.38C414.324 232.38 413.124 232.573 412.31 232.96C411.51 233.333 411.11 233.886 411.11 234.62C411.11 235.353 411.51 235.906 412.31 236.28C413.124 236.666 414.324 236.86 415.91 236.86ZM414.09 227.8V224.18H415.89V227.8H424.67V229.4H407.15V227.8H414.09ZM409.61 220.16H422.21V222.48C422.21 223.12 422.177 223.786 422.11 224.48C422.057 225.16 421.99 225.8 421.91 226.4L420.15 226.28C420.244 225.64 420.31 225.026 420.35 224.44C420.39 223.84 420.41 223.233 420.41 222.62V221.76H409.61V220.16Z" fill="white"/>
<path d="M437.605 222.32H433.505V225.16C433.505 225.946 433.652 226.693 433.945 227.4C434.238 228.093 434.618 228.753 435.085 229.38C435.552 230.006 436.078 230.593 436.665 231.14C437.252 231.686 437.845 232.2 438.445 232.68L437.365 233.94C436.912 233.606 436.445 233.213 435.965 232.76C435.498 232.293 435.045 231.82 434.605 231.34C434.178 230.846 433.792 230.36 433.445 229.88C433.112 229.386 432.858 228.94 432.685 228.54C432.498 229.006 432.218 229.506 431.845 230.04C431.472 230.56 431.052 231.073 430.585 231.58C430.132 232.086 429.652 232.573 429.145 233.04C428.652 233.493 428.178 233.893 427.725 234.24L426.565 232.98C427.218 232.46 427.852 231.913 428.465 231.34C429.092 230.753 429.645 230.133 430.125 229.48C430.605 228.826 430.985 228.146 431.265 227.44C431.558 226.72 431.705 225.96 431.705 225.16V222.32H427.265V220.72H437.605V222.32ZM442.405 219.82V237.96H440.605V219.82H442.405Z" fill="white"/>
<path d="M452.279 220.52V224.9C452.279 225.833 452.419 226.673 452.699 227.42C452.979 228.166 453.346 228.853 453.799 229.48C454.253 230.093 454.759 230.66 455.319 231.18C455.879 231.686 456.439 232.166 456.999 232.62L455.839 233.88C455.386 233.533 454.933 233.153 454.479 232.74C454.026 232.313 453.599 231.873 453.199 231.42C452.799 230.953 452.439 230.48 452.119 230C451.799 229.52 451.553 229.06 451.379 228.62C451.206 229.14 450.959 229.66 450.639 230.18C450.319 230.686 449.959 231.18 449.559 231.66C449.159 232.126 448.733 232.573 448.279 233C447.826 233.426 447.373 233.82 446.919 234.18L445.759 232.92C446.373 232.413 446.966 231.886 447.539 231.34C448.113 230.793 448.613 230.2 449.039 229.56C449.479 228.92 449.826 228.22 450.079 227.46C450.346 226.686 450.479 225.833 450.479 224.9V220.52H452.279ZM460.539 219.82V226.12H463.799V227.72H460.539V237.96H458.739V219.82H460.539Z" fill="white"/>
<path d="M474.434 238.46C472.434 238.46 470.894 238.146 469.814 237.52C468.734 236.906 468.194 236.066 468.194 235C468.194 233.88 468.734 233.026 469.814 232.44C470.894 231.84 472.434 231.54 474.434 231.54C476.434 231.54 477.967 231.84 479.034 232.44C480.101 233.026 480.634 233.88 480.634 235C480.634 236.12 480.101 236.973 479.034 237.56C477.967 238.16 476.434 238.46 474.434 238.46ZM466.734 227.38C466.734 226.913 466.827 226.48 467.014 226.08C467.214 225.68 467.501 225.333 467.874 225.04C468.247 224.746 468.707 224.52 469.254 224.36C469.814 224.186 470.447 224.1 471.154 224.1C471.861 224.1 472.487 224.186 473.034 224.36C473.594 224.52 474.061 224.746 474.434 225.04C474.807 225.333 475.087 225.68 475.274 226.08C475.474 226.48 475.574 226.913 475.574 227.38C475.574 227.846 475.474 228.28 475.274 228.68C475.087 229.08 474.807 229.426 474.434 229.72C474.061 230.013 473.594 230.246 473.034 230.42C472.487 230.58 471.861 230.66 471.154 230.66C470.447 230.66 469.814 230.58 469.254 230.42C468.707 230.246 468.247 230.013 467.874 229.72C467.501 229.426 467.214 229.08 467.014 228.68C466.827 228.28 466.734 227.846 466.734 227.38ZM474.434 233.08C473.061 233.08 471.974 233.233 471.174 233.54C470.387 233.846 469.994 234.333 469.994 235C469.994 235.666 470.387 236.153 471.174 236.46C471.974 236.766 473.061 236.92 474.434 236.92C475.807 236.92 476.881 236.766 477.654 236.46C478.441 236.153 478.834 235.666 478.834 235C478.834 234.333 478.441 233.846 477.654 233.54C476.881 233.233 475.807 233.08 474.434 233.08ZM480.354 219.82V224.64H483.194V226.24H480.354V231.28H478.554V219.82H480.354ZM476.254 223.12H465.634V221.58H470.054V219.26H471.854V221.58H476.254V223.12ZM468.534 227.38C468.534 227.926 468.754 228.353 469.194 228.66C469.634 228.953 470.287 229.1 471.154 229.1C472.021 229.1 472.674 228.953 473.114 228.66C473.554 228.353 473.774 227.926 473.774 227.38C473.774 226.833 473.554 226.413 473.114 226.12C472.674 225.813 472.021 225.66 471.154 225.66C470.287 225.66 469.634 225.813 469.194 226.12C468.754 226.413 468.534 226.833 468.534 227.38Z" fill="white"/>
<path d="M427.511 316.2V321H435.551V322.7H427.511V329H425.611V314.5H435.951V316.2H427.511Z" fill="white"/>
<path d="M443.892 314.5L449.692 329H447.752L446.332 325.38H439.412L437.992 329H436.052L441.852 314.5H443.892ZM440.072 323.68H445.672L442.912 316.64H442.832L440.072 323.68Z" fill="white"/>
<path d="M461.429 328.22C460.869 328.567 460.263 328.834 459.609 329.02C458.956 329.207 458.256 329.3 457.509 329.3C456.483 329.3 455.536 329.127 454.669 328.78C453.803 328.42 453.049 327.914 452.409 327.26C451.783 326.607 451.289 325.814 450.929 324.88C450.569 323.947 450.389 322.9 450.389 321.74C450.389 320.58 450.569 319.534 450.929 318.6C451.289 317.667 451.783 316.874 452.409 316.22C453.049 315.567 453.803 315.067 454.669 314.72C455.536 314.374 456.483 314.2 457.509 314.2C458.536 314.2 459.483 314.374 460.349 314.72C461.216 315.067 461.963 315.567 462.589 316.22C463.229 316.874 463.729 317.667 464.089 318.6C464.449 319.534 464.629 320.58 464.629 321.74C464.629 322.847 464.469 323.847 464.149 324.74C463.829 325.634 463.376 326.407 462.789 327.06L464.689 329.4L463.289 330.52L461.429 328.22ZM452.289 321.74C452.289 322.647 452.416 323.46 452.669 324.18C452.936 324.9 453.303 325.514 453.769 326.02C454.236 326.527 454.789 326.92 455.429 327.2C456.069 327.467 456.763 327.6 457.509 327.6C458.549 327.6 459.483 327.34 460.309 326.82L458.089 324.06L459.489 322.94L461.609 325.58C461.956 325.087 462.229 324.52 462.429 323.88C462.629 323.24 462.729 322.527 462.729 321.74C462.729 320.847 462.596 320.04 462.329 319.32C462.076 318.587 461.716 317.974 461.249 317.48C460.783 316.974 460.229 316.587 459.589 316.32C458.949 316.04 458.256 315.9 457.509 315.9C456.763 315.9 456.069 316.04 455.429 316.32C454.789 316.587 454.236 316.974 453.769 317.48C453.303 317.974 452.936 318.587 452.669 319.32C452.416 320.04 452.289 320.847 452.289 321.74Z" fill="white"/>
<path d="M432.408 412.5H427.008V414.62H434.868V416.22H417.348V414.62H425.208V412.5H419.808V406.16H432.408V412.5ZM430.708 424.06V419.52H419.488V417.92H432.508V424.06H430.708ZM421.608 410.9H430.608V407.76H421.608V410.9Z" fill="white"/>
<path d="M450.502 405.82H452.302V416.02H450.502V413.74H445.762V412.14H450.502V409.74H446.422C446.302 410.566 445.962 411.313 445.402 411.98C444.842 412.633 444.162 413.226 443.362 413.76C442.562 414.293 441.696 414.766 440.762 415.18C439.842 415.593 438.962 415.96 438.122 416.28L437.402 414.74C438.189 414.433 439.009 414.08 439.862 413.68C440.716 413.28 441.496 412.846 442.202 412.38C442.922 411.9 443.509 411.386 443.962 410.84C444.429 410.293 444.662 409.726 444.662 409.14V408.1H438.082V406.5H446.462V408.14H450.502V405.82ZM452.302 424.06H450.502V418.52H439.702V416.92H452.302V424.06Z" fill="white"/>
<path d="M471.157 405.82V409.6H473.997V411.2H471.157V415.82H469.357V405.82H471.157ZM458.897 416.72H471.157V423.96H458.897V416.72ZM460.697 418.32V422.36H469.357V418.32H460.697ZM467.637 414.32C466.663 414.44 465.643 414.54 464.577 414.62C463.523 414.686 462.497 414.72 461.497 414.72H457.357V406.46H466.257V408.06H459.157V413.12H461.777C462.737 413.12 463.697 413.093 464.657 413.04C465.63 412.973 466.57 412.886 467.477 412.78L467.637 414.32Z" fill="white"/>
</svg>
