<svg width="43" height="43" viewBox="0 0 43 43" fill="none" xmlns="http://www.w3.org/2000/svg">
<mask id="path-1-outside-1_142_497" maskUnits="userSpaceOnUse" x="0" y="0" width="43" height="43" fill="black">
<rect fill="white" width="43" height="43"/>
<path fill-rule="evenodd" clip-rule="evenodd" d="M34.463 10.0895C34.5766 9.97587 34.6667 9.84102 34.7281 9.69262C34.7896 9.54421 34.8212 9.38515 34.8212 9.22452C34.8212 9.06389 34.7896 8.90483 34.7281 8.75642C34.6667 8.60802 34.5766 8.47317 34.463 8.35959C34.3494 8.246 34.2146 8.1559 34.0662 8.09443C33.9177 8.03296 33.7587 8.00132 33.5981 8.00132C33.4374 8.00132 33.2784 8.03296 33.13 8.09443C32.9815 8.1559 32.8467 8.246 32.7331 8.35959L21.3815 19.7136L10.0299 8.35959C9.91631 8.246 9.78147 8.1559 9.63306 8.09443C9.48466 8.03296 9.3256 8.00132 9.16496 8.00132C9.00433 8.00132 8.84527 8.03296 8.69687 8.09443C8.54846 8.1559 8.41362 8.246 8.30003 8.35959C8.18645 8.47317 8.09635 8.60802 8.03488 8.75642C7.9734 8.90483 7.94177 9.06389 7.94177 9.22452C7.94177 9.38515 7.9734 9.54421 8.03488 9.69262C8.09635 9.84102 8.18645 9.97587 8.30003 10.0895L19.6541 21.4411L8.30003 32.7927C8.07064 33.0221 7.94177 33.3332 7.94177 33.6576C7.94177 33.982 8.07064 34.2931 8.30003 34.5225C8.52943 34.7519 8.84055 34.8808 9.16496 34.8808C9.48938 34.8808 9.8005 34.7519 10.0299 34.5225L21.3815 23.1685L32.7331 34.5225C32.9625 34.7519 33.2736 34.8808 33.5981 34.8808C33.9225 34.8808 34.2336 34.7519 34.463 34.5225C34.6924 34.2931 34.8212 33.982 34.8212 33.6576C34.8212 33.3332 34.6924 33.0221 34.463 32.7927L23.1089 21.4411L34.463 10.0895Z"/>
<path fill-rule="evenodd" clip-rule="evenodd" d="M38.7768 22.7232C38.9374 22.7232 39.0965 22.6916 39.2449 22.6301C39.3933 22.5686 39.5281 22.4785 39.6417 22.3649C39.7553 22.2513 39.8454 22.1165 39.9069 21.9681C39.9684 21.8197 40 21.6606 40 21.5C40 21.3394 39.9684 21.1803 39.9069 21.0319C39.8454 20.8835 39.7553 20.7487 39.6417 20.6351C39.5281 20.5215 39.3933 20.4314 39.2449 20.3699C39.0965 20.3084 38.9374 20.2768 38.7768 20.2768L22.7215 20.2785L22.7232 4.2232C22.7232 4.06257 22.6916 3.90351 22.6301 3.7551C22.5686 3.6067 22.4785 3.47185 22.3649 3.35827C22.2513 3.24468 22.1165 3.15458 21.9681 3.09311C21.8197 3.03164 21.6606 3 21.5 3C21.3394 3 21.1803 3.03164 21.0319 3.09311C20.8835 3.15458 20.7487 3.24468 20.6351 3.35827C20.5215 3.47185 20.4314 3.6067 20.3699 3.7551C20.3084 3.90351 20.2768 4.06257 20.2768 4.2232L20.2785 20.2785L4.2232 20.2768C3.89879 20.2768 3.58766 20.4057 3.35827 20.6351C3.12887 20.8645 3 21.1756 3 21.5C3 21.8244 3.12887 22.1355 3.35827 22.3649C3.58766 22.5943 3.89879 22.7232 4.2232 22.7232L20.2785 22.7215L20.2768 38.7768C20.2768 39.1012 20.4057 39.4123 20.6351 39.6417C20.8645 39.8711 21.1756 40 21.5 40C21.8244 40 22.1355 39.8711 22.3649 39.6417C22.5943 39.4123 22.7232 39.1012 22.7232 38.7768L22.7215 22.7215L38.7768 22.7232Z"/>
<path fill-rule="evenodd" clip-rule="evenodd" d="M37.8728 16.0071C38.0215 15.9464 38.1568 15.857 38.271 15.7441C38.3852 15.6311 38.4761 15.4967 38.5383 15.3487C38.6006 15.2006 38.6331 15.0417 38.634 14.8811C38.6349 14.7205 38.6041 14.5612 38.5434 14.4125C38.4827 14.2638 38.3934 14.1284 38.2804 14.0142C38.1674 13.9 38.0331 13.8092 37.885 13.7469C37.7369 13.6847 37.5781 13.6522 37.4174 13.6513C37.2568 13.6504 37.0976 13.6812 36.9488 13.7419L22.0833 19.8072L16.0211 4.94033C15.9604 4.7916 15.8711 4.65627 15.7581 4.54207C15.6451 4.42787 15.5108 4.33704 15.3627 4.27477C15.2146 4.21249 15.0558 4.18 14.8951 4.17913C14.7345 4.17826 14.5753 4.20903 14.4265 4.2697C14.2778 4.33037 14.1425 4.41974 14.0283 4.53271C13.9141 4.64567 13.8232 4.78003 13.761 4.9281C13.6987 5.07617 13.6662 5.23506 13.6653 5.39569C13.6645 5.55632 13.6952 5.71555 13.7559 5.86428L19.8212 20.7299L4.95437 26.792C4.65398 26.9145 4.41457 27.1514 4.2888 27.4504C4.16304 27.7494 4.16121 28.0862 4.28374 28.3866C4.40626 28.687 4.64309 28.9264 4.94213 29.0521C5.24118 29.1779 5.57793 29.1797 5.87832 29.0572L20.7439 22.9919L26.806 37.8587C26.9286 38.1591 27.1654 38.3985 27.4644 38.5243C27.7635 38.6501 28.1002 38.6519 28.4006 38.5294C28.701 38.4068 28.9404 38.17 29.0662 37.871C29.1919 37.5719 29.1938 37.2352 29.0712 36.9348L23.0059 22.0692L37.8728 16.0071Z"/>
<path fill-rule="evenodd" clip-rule="evenodd" d="M36.9514 29.3252C37.0995 29.3874 37.2584 29.4199 37.419 29.4208C37.5796 29.4217 37.7389 29.3909 37.8876 29.3302C38.0363 29.2696 38.1717 29.1802 38.2859 29.0672C38.4001 28.9543 38.4909 28.8199 38.5532 28.6718C38.6154 28.5238 38.6479 28.3649 38.6488 28.2043C38.6497 28.0436 38.6189 27.8844 38.5582 27.7357C38.4976 27.5869 38.4082 27.4516 38.2952 27.3374C38.1823 27.2232 38.0479 27.1324 37.8998 27.0701L23.0994 20.8474L29.3253 6.04834C29.3876 5.90027 29.4201 5.74138 29.421 5.58075C29.4218 5.42012 29.3911 5.26089 29.3304 5.11216C29.2697 4.96342 29.1803 4.82809 29.0674 4.71389C28.9544 4.5997 28.8201 4.50887 28.672 4.44659C28.5239 4.38432 28.365 4.35182 28.2044 4.35095C28.0438 4.35008 27.8845 4.38086 27.7358 4.44153C27.5871 4.50219 27.4517 4.59156 27.3375 4.70453C27.2233 4.8175 27.1325 4.95185 27.0702 5.09992L20.8475 19.9003L6.04849 13.6744C5.74944 13.5487 5.41269 13.5468 5.1123 13.6694C4.81192 13.7919 4.57251 14.0287 4.44674 14.3278C4.32097 14.6268 4.31915 14.9636 4.44168 15.2639C4.5642 15.5643 4.80103 15.8037 5.10007 15.9295L19.9005 22.1522L13.6746 36.9513C13.5488 37.2503 13.547 37.5871 13.6695 37.8874C13.792 38.1878 14.0289 38.4272 14.3279 38.553C14.627 38.6788 14.9637 38.6806 15.2641 38.5581C15.5645 38.4356 15.8039 38.1987 15.9297 37.8997L22.1524 23.0993L36.9514 29.3252Z"/>
</mask>
<path fill-rule="evenodd" clip-rule="evenodd" d="M34.463 10.0895C34.5766 9.97587 34.6667 9.84102 34.7281 9.69262C34.7896 9.54421 34.8212 9.38515 34.8212 9.22452C34.8212 9.06389 34.7896 8.90483 34.7281 8.75642C34.6667 8.60802 34.5766 8.47317 34.463 8.35959C34.3494 8.246 34.2146 8.1559 34.0662 8.09443C33.9177 8.03296 33.7587 8.00132 33.5981 8.00132C33.4374 8.00132 33.2784 8.03296 33.13 8.09443C32.9815 8.1559 32.8467 8.246 32.7331 8.35959L21.3815 19.7136L10.0299 8.35959C9.91631 8.246 9.78147 8.1559 9.63306 8.09443C9.48466 8.03296 9.3256 8.00132 9.16496 8.00132C9.00433 8.00132 8.84527 8.03296 8.69687 8.09443C8.54846 8.1559 8.41362 8.246 8.30003 8.35959C8.18645 8.47317 8.09635 8.60802 8.03488 8.75642C7.9734 8.90483 7.94177 9.06389 7.94177 9.22452C7.94177 9.38515 7.9734 9.54421 8.03488 9.69262C8.09635 9.84102 8.18645 9.97587 8.30003 10.0895L19.6541 21.4411L8.30003 32.7927C8.07064 33.0221 7.94177 33.3332 7.94177 33.6576C7.94177 33.982 8.07064 34.2931 8.30003 34.5225C8.52943 34.7519 8.84055 34.8808 9.16496 34.8808C9.48938 34.8808 9.8005 34.7519 10.0299 34.5225L21.3815 23.1685L32.7331 34.5225C32.9625 34.7519 33.2736 34.8808 33.5981 34.8808C33.9225 34.8808 34.2336 34.7519 34.463 34.5225C34.6924 34.2931 34.8212 33.982 34.8212 33.6576C34.8212 33.3332 34.6924 33.0221 34.463 32.7927L23.1089 21.4411L34.463 10.0895Z" fill="#D9A9FF"/>
<path fill-rule="evenodd" clip-rule="evenodd" d="M38.7768 22.7232C38.9374 22.7232 39.0965 22.6916 39.2449 22.6301C39.3933 22.5686 39.5281 22.4785 39.6417 22.3649C39.7553 22.2513 39.8454 22.1165 39.9069 21.9681C39.9684 21.8197 40 21.6606 40 21.5C40 21.3394 39.9684 21.1803 39.9069 21.0319C39.8454 20.8835 39.7553 20.7487 39.6417 20.6351C39.5281 20.5215 39.3933 20.4314 39.2449 20.3699C39.0965 20.3084 38.9374 20.2768 38.7768 20.2768L22.7215 20.2785L22.7232 4.2232C22.7232 4.06257 22.6916 3.90351 22.6301 3.7551C22.5686 3.6067 22.4785 3.47185 22.3649 3.35827C22.2513 3.24468 22.1165 3.15458 21.9681 3.09311C21.8197 3.03164 21.6606 3 21.5 3C21.3394 3 21.1803 3.03164 21.0319 3.09311C20.8835 3.15458 20.7487 3.24468 20.6351 3.35827C20.5215 3.47185 20.4314 3.6067 20.3699 3.7551C20.3084 3.90351 20.2768 4.06257 20.2768 4.2232L20.2785 20.2785L4.2232 20.2768C3.89879 20.2768 3.58766 20.4057 3.35827 20.6351C3.12887 20.8645 3 21.1756 3 21.5C3 21.8244 3.12887 22.1355 3.35827 22.3649C3.58766 22.5943 3.89879 22.7232 4.2232 22.7232L20.2785 22.7215L20.2768 38.7768C20.2768 39.1012 20.4057 39.4123 20.6351 39.6417C20.8645 39.8711 21.1756 40 21.5 40C21.8244 40 22.1355 39.8711 22.3649 39.6417C22.5943 39.4123 22.7232 39.1012 22.7232 38.7768L22.7215 22.7215L38.7768 22.7232Z" fill="#D9A9FF"/>
<path fill-rule="evenodd" clip-rule="evenodd" d="M37.8728 16.0071C38.0215 15.9464 38.1568 15.857 38.271 15.7441C38.3852 15.6311 38.4761 15.4967 38.5383 15.3487C38.6006 15.2006 38.6331 15.0417 38.634 14.8811C38.6349 14.7205 38.6041 14.5612 38.5434 14.4125C38.4827 14.2638 38.3934 14.1284 38.2804 14.0142C38.1674 13.9 38.0331 13.8092 37.885 13.7469C37.7369 13.6847 37.5781 13.6522 37.4174 13.6513C37.2568 13.6504 37.0976 13.6812 36.9488 13.7419L22.0833 19.8072L16.0211 4.94033C15.9604 4.7916 15.8711 4.65627 15.7581 4.54207C15.6451 4.42787 15.5108 4.33704 15.3627 4.27477C15.2146 4.21249 15.0558 4.18 14.8951 4.17913C14.7345 4.17826 14.5753 4.20903 14.4265 4.2697C14.2778 4.33037 14.1425 4.41974 14.0283 4.53271C13.9141 4.64567 13.8232 4.78003 13.761 4.9281C13.6987 5.07617 13.6662 5.23506 13.6653 5.39569C13.6645 5.55632 13.6952 5.71555 13.7559 5.86428L19.8212 20.7299L4.95437 26.792C4.65398 26.9145 4.41457 27.1514 4.2888 27.4504C4.16304 27.7494 4.16121 28.0862 4.28374 28.3866C4.40626 28.687 4.64309 28.9264 4.94213 29.0521C5.24118 29.1779 5.57793 29.1797 5.87832 29.0572L20.7439 22.9919L26.806 37.8587C26.9286 38.1591 27.1654 38.3985 27.4644 38.5243C27.7635 38.6501 28.1002 38.6519 28.4006 38.5294C28.701 38.4068 28.9404 38.17 29.0662 37.871C29.1919 37.5719 29.1938 37.2352 29.0712 36.9348L23.0059 22.0692L37.8728 16.0071Z" fill="#D9A9FF"/>
<path fill-rule="evenodd" clip-rule="evenodd" d="M36.9514 29.3252C37.0995 29.3874 37.2584 29.4199 37.419 29.4208C37.5796 29.4217 37.7389 29.3909 37.8876 29.3302C38.0363 29.2696 38.1717 29.1802 38.2859 29.0672C38.4001 28.9543 38.4909 28.8199 38.5532 28.6718C38.6154 28.5238 38.6479 28.3649 38.6488 28.2043C38.6497 28.0436 38.6189 27.8844 38.5582 27.7357C38.4976 27.5869 38.4082 27.4516 38.2952 27.3374C38.1823 27.2232 38.0479 27.1324 37.8998 27.0701L23.0994 20.8474L29.3253 6.04834C29.3876 5.90027 29.4201 5.74138 29.421 5.58075C29.4218 5.42012 29.3911 5.26089 29.3304 5.11216C29.2697 4.96342 29.1803 4.82809 29.0674 4.71389C28.9544 4.5997 28.8201 4.50887 28.672 4.44659C28.5239 4.38432 28.365 4.35182 28.2044 4.35095C28.0438 4.35008 27.8845 4.38086 27.7358 4.44153C27.5871 4.50219 27.4517 4.59156 27.3375 4.70453C27.2233 4.8175 27.1325 4.95185 27.0702 5.09992L20.8475 19.9003L6.04849 13.6744C5.74944 13.5487 5.41269 13.5468 5.1123 13.6694C4.81192 13.7919 4.57251 14.0287 4.44674 14.3278C4.32097 14.6268 4.31915 14.9636 4.44168 15.2639C4.5642 15.5643 4.80103 15.8037 5.10007 15.9295L19.9005 22.1522L13.6746 36.9513C13.5488 37.2503 13.547 37.5871 13.6695 37.8874C13.792 38.1878 14.0289 38.4272 14.3279 38.553C14.627 38.6788 14.9637 38.6806 15.2641 38.5581C15.5645 38.4356 15.8039 38.1987 15.9297 37.8997L22.1524 23.0993L36.9514 29.3252Z" fill="#D9A9FF"/>
<path fill-rule="evenodd" clip-rule="evenodd" d="M34.463 10.0895C34.5766 9.97587 34.6667 9.84102 34.7281 9.69262C34.7896 9.54421 34.8212 9.38515 34.8212 9.22452C34.8212 9.06389 34.7896 8.90483 34.7281 8.75642C34.6667 8.60802 34.5766 8.47317 34.463 8.35959C34.3494 8.246 34.2146 8.1559 34.0662 8.09443C33.9177 8.03296 33.7587 8.00132 33.5981 8.00132C33.4374 8.00132 33.2784 8.03296 33.13 8.09443C32.9815 8.1559 32.8467 8.246 32.7331 8.35959L21.3815 19.7136L10.0299 8.35959C9.91631 8.246 9.78147 8.1559 9.63306 8.09443C9.48466 8.03296 9.3256 8.00132 9.16496 8.00132C9.00433 8.00132 8.84527 8.03296 8.69687 8.09443C8.54846 8.1559 8.41362 8.246 8.30003 8.35959C8.18645 8.47317 8.09635 8.60802 8.03488 8.75642C7.9734 8.90483 7.94177 9.06389 7.94177 9.22452C7.94177 9.38515 7.9734 9.54421 8.03488 9.69262C8.09635 9.84102 8.18645 9.97587 8.30003 10.0895L19.6541 21.4411L8.30003 32.7927C8.07064 33.0221 7.94177 33.3332 7.94177 33.6576C7.94177 33.982 8.07064 34.2931 8.30003 34.5225C8.52943 34.7519 8.84055 34.8808 9.16496 34.8808C9.48938 34.8808 9.8005 34.7519 10.0299 34.5225L21.3815 23.1685L32.7331 34.5225C32.9625 34.7519 33.2736 34.8808 33.5981 34.8808C33.9225 34.8808 34.2336 34.7519 34.463 34.5225C34.6924 34.2931 34.8212 33.982 34.8212 33.6576C34.8212 33.3332 34.6924 33.0221 34.463 32.7927L23.1089 21.4411L34.463 10.0895Z" stroke="#D9A9FF" stroke-width="6" mask="url(#path-1-outside-1_142_497)"/>
<path fill-rule="evenodd" clip-rule="evenodd" d="M38.7768 22.7232C38.9374 22.7232 39.0965 22.6916 39.2449 22.6301C39.3933 22.5686 39.5281 22.4785 39.6417 22.3649C39.7553 22.2513 39.8454 22.1165 39.9069 21.9681C39.9684 21.8197 40 21.6606 40 21.5C40 21.3394 39.9684 21.1803 39.9069 21.0319C39.8454 20.8835 39.7553 20.7487 39.6417 20.6351C39.5281 20.5215 39.3933 20.4314 39.2449 20.3699C39.0965 20.3084 38.9374 20.2768 38.7768 20.2768L22.7215 20.2785L22.7232 4.2232C22.7232 4.06257 22.6916 3.90351 22.6301 3.7551C22.5686 3.6067 22.4785 3.47185 22.3649 3.35827C22.2513 3.24468 22.1165 3.15458 21.9681 3.09311C21.8197 3.03164 21.6606 3 21.5 3C21.3394 3 21.1803 3.03164 21.0319 3.09311C20.8835 3.15458 20.7487 3.24468 20.6351 3.35827C20.5215 3.47185 20.4314 3.6067 20.3699 3.7551C20.3084 3.90351 20.2768 4.06257 20.2768 4.2232L20.2785 20.2785L4.2232 20.2768C3.89879 20.2768 3.58766 20.4057 3.35827 20.6351C3.12887 20.8645 3 21.1756 3 21.5C3 21.8244 3.12887 22.1355 3.35827 22.3649C3.58766 22.5943 3.89879 22.7232 4.2232 22.7232L20.2785 22.7215L20.2768 38.7768C20.2768 39.1012 20.4057 39.4123 20.6351 39.6417C20.8645 39.8711 21.1756 40 21.5 40C21.8244 40 22.1355 39.8711 22.3649 39.6417C22.5943 39.4123 22.7232 39.1012 22.7232 38.7768L22.7215 22.7215L38.7768 22.7232Z" stroke="#D9A9FF" stroke-width="6" mask="url(#path-1-outside-1_142_497)"/>
<path fill-rule="evenodd" clip-rule="evenodd" d="M37.8728 16.0071C38.0215 15.9464 38.1568 15.857 38.271 15.7441C38.3852 15.6311 38.4761 15.4967 38.5383 15.3487C38.6006 15.2006 38.6331 15.0417 38.634 14.8811C38.6349 14.7205 38.6041 14.5612 38.5434 14.4125C38.4827 14.2638 38.3934 14.1284 38.2804 14.0142C38.1674 13.9 38.0331 13.8092 37.885 13.7469C37.7369 13.6847 37.5781 13.6522 37.4174 13.6513C37.2568 13.6504 37.0976 13.6812 36.9488 13.7419L22.0833 19.8072L16.0211 4.94033C15.9604 4.7916 15.8711 4.65627 15.7581 4.54207C15.6451 4.42787 15.5108 4.33704 15.3627 4.27477C15.2146 4.21249 15.0558 4.18 14.8951 4.17913C14.7345 4.17826 14.5753 4.20903 14.4265 4.2697C14.2778 4.33037 14.1425 4.41974 14.0283 4.53271C13.9141 4.64567 13.8232 4.78003 13.761 4.9281C13.6987 5.07617 13.6662 5.23506 13.6653 5.39569C13.6645 5.55632 13.6952 5.71555 13.7559 5.86428L19.8212 20.7299L4.95437 26.792C4.65398 26.9145 4.41457 27.1514 4.2888 27.4504C4.16304 27.7494 4.16121 28.0862 4.28374 28.3866C4.40626 28.687 4.64309 28.9264 4.94213 29.0521C5.24118 29.1779 5.57793 29.1797 5.87832 29.0572L20.7439 22.9919L26.806 37.8587C26.9286 38.1591 27.1654 38.3985 27.4644 38.5243C27.7635 38.6501 28.1002 38.6519 28.4006 38.5294C28.701 38.4068 28.9404 38.17 29.0662 37.871C29.1919 37.5719 29.1938 37.2352 29.0712 36.9348L23.0059 22.0692L37.8728 16.0071Z" stroke="#D9A9FF" stroke-width="6" mask="url(#path-1-outside-1_142_497)"/>
<path fill-rule="evenodd" clip-rule="evenodd" d="M36.9514 29.3252C37.0995 29.3874 37.2584 29.4199 37.419 29.4208C37.5796 29.4217 37.7389 29.3909 37.8876 29.3302C38.0363 29.2696 38.1717 29.1802 38.2859 29.0672C38.4001 28.9543 38.4909 28.8199 38.5532 28.6718C38.6154 28.5238 38.6479 28.3649 38.6488 28.2043C38.6497 28.0436 38.6189 27.8844 38.5582 27.7357C38.4976 27.5869 38.4082 27.4516 38.2952 27.3374C38.1823 27.2232 38.0479 27.1324 37.8998 27.0701L23.0994 20.8474L29.3253 6.04834C29.3876 5.90027 29.4201 5.74138 29.421 5.58075C29.4218 5.42012 29.3911 5.26089 29.3304 5.11216C29.2697 4.96342 29.1803 4.82809 29.0674 4.71389C28.9544 4.5997 28.8201 4.50887 28.672 4.44659C28.5239 4.38432 28.365 4.35182 28.2044 4.35095C28.0438 4.35008 27.8845 4.38086 27.7358 4.44153C27.5871 4.50219 27.4517 4.59156 27.3375 4.70453C27.2233 4.8175 27.1325 4.95185 27.0702 5.09992L20.8475 19.9003L6.04849 13.6744C5.74944 13.5487 5.41269 13.5468 5.1123 13.6694C4.81192 13.7919 4.57251 14.0287 4.44674 14.3278C4.32097 14.6268 4.31915 14.9636 4.44168 15.2639C4.5642 15.5643 4.80103 15.8037 5.10007 15.9295L19.9005 22.1522L13.6746 36.9513C13.5488 37.2503 13.547 37.5871 13.6695 37.8874C13.792 38.1878 14.0289 38.4272 14.3279 38.553C14.627 38.6788 14.9637 38.6806 15.2641 38.5581C15.5645 38.4356 15.8039 38.1987 15.9297 37.8997L22.1524 23.0993L36.9514 29.3252Z" stroke="#D9A9FF" stroke-width="6" mask="url(#path-1-outside-1_142_497)"/>
</svg>
