<svg width="37" height="37" viewBox="0 0 37 37" fill="none" xmlns="http://www.w3.org/2000/svg">
<path fill-rule="evenodd" clip-rule="evenodd" d="M31.463 7.08945C31.5766 6.97587 31.6667 6.84102 31.7281 6.69262C31.7896 6.54421 31.8212 6.38515 31.8212 6.22452C31.8212 6.06389 31.7896 5.90483 31.7281 5.75642C31.6667 5.60802 31.5766 5.47317 31.463 5.35959C31.3494 5.246 31.2146 5.1559 31.0662 5.09443C30.9177 5.03296 30.7587 5.00132 30.5981 5.00132C30.4374 5.00132 30.2784 5.03296 30.13 5.09443C29.9815 5.1559 29.8467 5.246 29.7331 5.35959L18.3815 16.7136L7.02989 5.35959C6.91631 5.246 6.78147 5.1559 6.63306 5.09443C6.48466 5.03296 6.3256 5.00132 6.16496 5.00132C6.00433 5.00132 5.84527 5.03296 5.69687 5.09443C5.54846 5.1559 5.41362 5.246 5.30003 5.35959C5.18645 5.47317 5.09635 5.60802 5.03488 5.75642C4.9734 5.90483 4.94177 6.06389 4.94177 6.22452C4.94177 6.38515 4.9734 6.54421 5.03488 6.69262C5.09635 6.84102 5.18645 6.97587 5.30003 7.08945L16.6541 18.4411L5.30003 29.7927C5.07064 30.0221 4.94177 30.3332 4.94177 30.6576C4.94177 30.982 5.07064 31.2931 5.30003 31.5225C5.52943 31.7519 5.84055 31.8808 6.16496 31.8808C6.48938 31.8808 6.8005 31.7519 7.02989 31.5225L18.3815 20.1685L29.7331 31.5225C29.9625 31.7519 30.2736 31.8808 30.5981 31.8808C30.9225 31.8808 31.2336 31.7519 31.463 31.5225C31.6924 31.2931 31.8212 30.982 31.8212 30.6576C31.8212 30.3332 31.6924 30.0221 31.463 29.7927L20.1089 18.4411L31.463 7.08945Z" fill="#5B1E8C"/>
<path fill-rule="evenodd" clip-rule="evenodd" d="M35.7768 19.7232C35.9374 19.7232 36.0965 19.6916 36.2449 19.6301C36.3933 19.5686 36.5282 19.4785 36.6417 19.3649C36.7553 19.2513 36.8454 19.1165 36.9069 18.9681C36.9684 18.8197 37 18.6606 37 18.5C37 18.3394 36.9684 18.1803 36.9069 18.0319C36.8454 17.8835 36.7553 17.7487 36.6417 17.6351C36.5282 17.5215 36.3933 17.4314 36.2449 17.3699C36.0965 17.3084 35.9374 17.2768 35.7768 17.2768L19.7215 17.2785L19.7232 1.2232C19.7232 1.06257 19.6916 0.903506 19.6301 0.755101C19.5686 0.606695 19.4785 0.471851 19.3649 0.358267C19.2513 0.244682 19.1165 0.154582 18.9681 0.0931108C18.8197 0.0316394 18.6606 0 18.5 0C18.3394 0 18.1803 0.0316394 18.0319 0.0931108C17.8835 0.154582 17.7487 0.244682 17.6351 0.358267C17.5215 0.471851 17.4314 0.606695 17.3699 0.755101C17.3084 0.903506 17.2768 1.06257 17.2768 1.2232L17.2785 17.2785L1.2232 17.2768C0.898786 17.2768 0.587661 17.4057 0.358267 17.6351C0.128873 17.8645 0 18.1756 0 18.5C0 18.8244 0.128873 19.1355 0.358267 19.3649C0.587661 19.5943 0.898786 19.7232 1.2232 19.7232L17.2785 19.7215L17.2768 35.7768C17.2768 36.1012 17.4057 36.4123 17.6351 36.6417C17.8645 36.8711 18.1756 37 18.5 37C18.8244 37 19.1355 36.8711 19.3649 36.6417C19.5943 36.4123 19.7232 36.1012 19.7232 35.7768L19.7215 19.7215L35.7768 19.7232Z" fill="#5B1E8C"/>
</svg>
