<svg xmlns="http://www.w3.org/2000/svg" viewBox="0 0 123.8 109.19"><defs><style>.cls-1{fill:#3d48b7;}</style></defs><g id="레이어_2" data-name="레이어 2"><g id="Layer_1" data-name="Layer 1"><path class="cls-1" d="M14.08,107.78C32.74,75.43,37.9,38,50.13,3.2H35.58A182.39,182.39,0,0,0,43.85,48C45.48,53.12,47,61,50.94,64.93s12.7,3.53,17.77,2.24c12.12-3.09,19.23-17.1,25.38-26.84C101.57,28.49,108.23,16,109.9,1.9H95.35a300.12,300.12,0,0,0,13.89,91.83c1.06,3.36,14.93,1.2,14.55,0A300.12,300.12,0,0,1,109.9,1.9c0-2.34-14.23-2.72-14.55,0C93.79,15.06,87.9,26.82,81,37.94c-3.21,5.15-6.46,10.34-10,15.24a53.31,53.31,0,0,1-5,6c-1.22,1.24-5,5.35-6.53,5.41l7.08.44c-3.91-.9-5.9-10.34-7-13.49q-2.67-7.78-4.61-15.79A183.9,183.9,0,0,1,50.13,3.2C50,.64,36.48.64,35.58,3.2,23.48,37.63,18.5,74.89.05,106.87c-1,1.69,12.4,3.75,14,.91Z"/></g></g></svg>