<svg xmlns="http://www.w3.org/2000/svg" viewBox="0 0 84.13 114.74"><defs><style>.cls-1{fill:#3d48b7;}</style></defs><g id="레이어_2" data-name="레이어 2"><g id="Layer_1" data-name="Layer 1"><path class="cls-1" d="M15.26,11.74C3.87,28.5-.21,48.55,0,68.58c.21,19.65,5.34,40,27,44.72a62.65,62.65,0,0,0,28.82-.5c9.45-2.54,14.95-10,19.34-18.29,9.32-17.69,11-39.63,6.74-59C79.74,25.5,75.35,14,66.57,8,57.36,1.59,43.9-1,33,.37c-1.68.22-4.56.46-2.61,2.08s7.8.83,9.95.55c-2.89.37,2.1,1.35,3,1.62a46,46,0,0,1,5.58,2,25.94,25.94,0,0,1,9.86,8.19c5,6.75,7.69,15.1,9.19,23.27C70.71,53.5,70,70,64.82,84.86c-5,14.41-16.77,33.74-34.33,23.63-14.85-8.54-16.12-28-15.93-43.27C14.8,46.75,18.79,28,29.29,12.55c1.09-1.61-4.35-1.83-5.08-1.88-1.66-.1-7.75-.7-9,1.07Z"/></g></g></svg>