<svg width="340" height="456" viewBox="0 0 340 456" fill="none" xmlns="http://www.w3.org/2000/svg">
<path d="M44.9428 63.3928C20.0387 69.2522 1.5 91.5934 1.5 118.262C1.5 144.93 20.0387 167.271 44.9428 173.131C20.0387 178.99 1.5 201.332 1.5 228C1.5 254.668 20.0387 277.01 44.9428 282.869C20.0387 288.728 1.5 311.07 1.5 337.738C1.5 364.407 20.0387 386.748 44.9428 392.607C20.0387 398.467 1.5 420.808 1.5 447.476V453V454.5H3H337H338.5V453V447.476C338.5 420.808 319.961 398.467 295.057 392.607C319.961 386.748 338.5 364.407 338.5 337.738C338.5 311.07 319.961 288.728 295.057 282.869C319.961 277.01 338.5 254.668 338.5 228C338.5 201.332 319.961 178.99 295.057 173.131C319.961 167.271 338.5 144.93 338.5 118.262C338.5 91.5934 319.961 69.2522 295.057 63.3928C319.961 57.5334 338.5 35.1922 338.5 8.52373V3V1.5H337H3H1.5V3V8.52373C1.5 35.1922 20.0387 57.5334 44.9428 63.3928Z" fill="#A9B1FF" stroke="black" stroke-width="3"/>
</svg>
