<svg width="1817" height="1504" viewBox="0 0 1817 1504" fill="none" xmlns="http://www.w3.org/2000/svg">
<g opacity="0.5">
<circle cx="461" cy="1043" r="461" fill="#FF7878" fill-opacity="0.3"/>
<circle cx="865" cy="405" r="201" fill="#FF7878" fill-opacity="0.5"/>
<circle cx="1624.5" cy="795.5" r="192.5" fill="#FF7878" fill-opacity="0.5"/>
<circle cx="1341.5" cy="648.5" r="94" stroke="#FF7878" stroke-opacity="0.5"/>
<circle cx="1449.5" cy="648.5" r="94" stroke="#FF7878" stroke-opacity="0.5"/>
<mask id="path-6-inside-1_368_2" fill="white">
<path d="M1322 252C1271.57 252 1221.64 261.933 1175.05 281.23C1128.46 300.528 1086.13 328.813 1050.47 364.471C1014.81 400.129 986.528 442.461 967.23 489.05C947.932 535.639 938 585.572 938 636C938 686.428 947.932 736.361 967.23 782.95C986.528 829.539 1014.81 871.871 1050.47 907.529C1086.13 943.187 1128.46 971.472 1175.05 990.77C1221.64 1010.07 1271.57 1020 1322 1020L1322 636L1322 252Z"/>
</mask>
<path d="M1322 252C1271.57 252 1221.64 261.933 1175.05 281.23C1128.46 300.528 1086.13 328.813 1050.47 364.471C1014.81 400.129 986.528 442.461 967.23 489.05C947.932 535.639 938 585.572 938 636C938 686.428 947.932 736.361 967.23 782.95C986.528 829.539 1014.81 871.871 1050.47 907.529C1086.13 943.187 1128.46 971.472 1175.05 990.77C1221.64 1010.07 1271.57 1020 1322 1020L1322 636L1322 252Z" stroke="#FF7878" stroke-width="2" mask="url(#path-6-inside-1_368_2)"/>
<mask id="path-7-inside-2_368_2" fill="white">
<path d="M1322 363C1286.15 363 1250.65 370.061 1217.53 383.781C1184.41 397.5 1154.31 417.609 1128.96 442.96C1103.61 468.31 1083.5 498.406 1069.78 531.527C1056.06 564.649 1049 600.149 1049 636C1049 671.851 1056.06 707.351 1069.78 740.473C1083.5 773.594 1103.61 803.69 1128.96 829.04C1154.31 854.391 1184.41 874.5 1217.53 888.219C1250.65 901.939 1286.15 909 1322 909L1322 636L1322 363Z"/>
</mask>
<path d="M1322 363C1286.15 363 1250.65 370.061 1217.53 383.781C1184.41 397.5 1154.31 417.609 1128.96 442.96C1103.61 468.31 1083.5 498.406 1069.78 531.527C1056.06 564.649 1049 600.149 1049 636C1049 671.851 1056.06 707.351 1069.78 740.473C1083.5 773.594 1103.61 803.69 1128.96 829.04C1154.31 854.391 1184.41 874.5 1217.53 888.219C1250.65 901.939 1286.15 909 1322 909L1322 636L1322 363Z" stroke="#FF7878" stroke-width="2" mask="url(#path-7-inside-2_368_2)"/>
<mask id="path-8-inside-3_368_2" fill="white">
<path d="M1321.5 470C1299.11 470 1276.94 474.41 1256.25 482.979C1235.57 491.547 1216.77 504.106 1200.94 519.938C1185.11 535.771 1172.55 554.566 1163.98 575.252C1155.41 595.938 1151 618.11 1151 640.5C1151 662.89 1155.41 685.062 1163.98 705.748C1172.55 726.434 1185.11 745.229 1200.94 761.062C1216.77 776.894 1235.57 789.453 1256.25 798.021C1276.94 806.59 1299.11 811 1321.5 811L1321.5 640.5L1321.5 470Z"/>
</mask>
<path d="M1321.5 470C1299.11 470 1276.94 474.41 1256.25 482.979C1235.57 491.547 1216.77 504.106 1200.94 519.938C1185.11 535.771 1172.55 554.566 1163.98 575.252C1155.41 595.938 1151 618.11 1151 640.5C1151 662.89 1155.41 685.062 1163.98 705.748C1172.55 726.434 1185.11 745.229 1200.94 761.062C1216.77 776.894 1235.57 789.453 1256.25 798.021C1276.94 806.59 1299.11 811 1321.5 811L1321.5 640.5L1321.5 470Z" stroke="#FF7878" stroke-width="2" mask="url(#path-8-inside-3_368_2)"/>
<path d="M1448 107C1448 121.051 1450.77 134.965 1456.14 147.947C1461.52 160.929 1469.4 172.725 1479.34 182.66C1489.28 192.596 1501.07 200.478 1514.05 205.855C1527.03 211.232 1540.95 214 1555 214C1569.05 214 1582.97 211.232 1595.95 205.855C1608.93 200.478 1620.72 192.596 1630.66 182.66C1640.6 172.725 1648.48 160.929 1653.86 147.947C1659.23 134.965 1662 121.051 1662 107L1555 107L1448 107Z" fill="#FF7878" fill-opacity="0.2"/>
</g>
</svg>
