<svg width="881" height="146" viewBox="0 0 881 146" fill="none" xmlns="http://www.w3.org/2000/svg">
<path d="M0 10.0022C0 8.47962 0.164991 7.18621 0.494974 6.12192C0.824957 5.05762 1.28243 4.19288 1.8674 3.5277C2.45237 2.86252 3.14984 2.3821 3.9598 2.08647C4.76975 1.79083 5.64721 1.64301 6.59216 1.64301C7.53711 1.64301 8.40706 1.79083 9.20202 2.08647C10.012 2.3821 10.7094 2.86252 11.2944 3.5277C11.8794 4.19288 12.3369 5.05762 12.6668 6.12192C12.9968 7.18621 13.1618 8.47962 13.1618 10.0022C13.1618 11.5395 12.9968 12.8403 12.6668 13.9046C12.3369 14.9689 11.8794 15.8336 11.2944 16.4988C10.7094 17.164 10.012 17.6444 9.20202 17.94C8.40706 18.2357 7.53711 18.3835 6.59216 18.3835C5.64721 18.3835 4.76975 18.2357 3.9598 17.94C3.14984 17.6444 2.45237 17.164 1.8674 16.4988C1.28243 15.8336 0.824957 14.9689 0.494974 13.9046C0.164991 12.8403 0 11.5395 0 10.0022ZM2.13739 10.0022C2.13739 11.1699 2.24988 12.1677 2.47487 12.9955C2.69986 13.8085 3.01484 14.4811 3.41982 15.0132C3.8248 15.5306 4.29728 15.9075 4.83725 16.144C5.37722 16.3805 5.96219 16.4988 6.59216 16.4988C7.22213 16.4988 7.80709 16.3805 8.34707 16.144C8.88704 15.9075 9.35202 15.5306 9.742 15.0132C10.147 14.4811 10.462 13.8085 10.6869 12.9955C10.9119 12.1677 11.0244 11.1699 11.0244 10.0022C11.0244 8.83439 10.9119 7.844 10.6869 7.031C10.462 6.20322 10.147 5.53064 9.742 5.01328C9.35202 4.49591 8.88704 4.11897 8.34707 3.88246C7.80709 3.64595 7.22213 3.5277 6.59216 3.5277C5.96219 3.5277 5.37722 3.64595 4.83725 3.88246C4.29728 4.11897 3.8248 4.49591 3.41982 5.01328C3.01484 5.53064 2.69986 6.20322 2.47487 7.031C2.24988 7.844 2.13739 8.83439 2.13739 10.0022Z" fill="black"/>
<path d="M18.1133 18.0509H15.9759V1H18.0008V8.13964C18.3458 7.5188 18.8633 7.03839 19.5532 6.69841C20.2582 6.35843 21.0757 6.18843 22.0056 6.18843C23.5205 6.18843 24.7055 6.58754 25.5604 7.38576C26.4304 8.1692 26.8654 9.30741 26.8654 10.8004V18.0509H24.728V11.2217C24.728 10.1574 24.443 9.36654 23.873 8.84917C23.318 8.33181 22.5006 8.07312 21.4206 8.07312C20.5657 8.07312 19.8382 8.28746 19.2383 8.71613C18.6533 9.14481 18.2783 9.71391 18.1133 10.4234V18.0509Z" fill="black"/>
<path d="M72.3268 79.6782V90.8524H71.0097V81.389L68.756 83.3156L67.9512 82.3137L71.1268 79.6782H72.3268Z" fill="black"/>
<path d="M75.6912 90.8524H74.301V79H75.618V83.9629C75.8424 83.5313 76.179 83.1974 76.6278 82.9611C77.0863 82.7247 77.618 82.6066 78.2229 82.6066C79.2083 82.6066 79.979 82.884 80.5351 83.4389C81.1009 83.9834 81.3839 84.7746 81.3839 85.8124V90.8524H79.9936V86.1053C79.9936 85.3654 79.8083 84.8157 79.4375 84.4561C79.0766 84.0965 78.5448 83.9167 77.8424 83.9167C77.2863 83.9167 76.8132 84.0656 76.4229 84.3636C76.0424 84.6616 75.7985 85.0572 75.6912 85.5504V90.8524Z" fill="black"/>
<path d="M68.7424 108.749V111.961C68.7424 112.646 68.8443 113.262 69.0479 113.809C69.2516 114.357 69.5183 114.861 69.848 115.32C70.1778 115.77 70.5463 116.185 70.9536 116.567C71.3609 116.938 71.7683 117.29 72.1756 117.623L71.3318 118.547C71.0021 118.293 70.6724 118.014 70.3426 117.711C70.0129 117.398 69.7025 117.075 69.4116 116.743C69.1207 116.401 68.8588 116.053 68.626 115.701C68.3933 115.349 68.2139 115.012 68.0878 114.689C67.9617 115.071 67.7823 115.452 67.5495 115.833C67.3168 116.205 67.0549 116.567 66.764 116.919C66.473 117.261 66.1627 117.589 65.833 117.902C65.5032 118.214 65.1735 118.503 64.8437 118.767L64 117.843C64.4461 117.471 64.8777 117.085 65.2947 116.684C65.7117 116.283 66.0754 115.848 66.3858 115.379C66.7058 114.909 66.958 114.396 67.1422 113.839C67.3362 113.272 67.4332 112.646 67.4332 111.961V108.749H68.7424ZM74.7505 108.236V112.856H77.1217V114.029H74.7505V121.539H73.4412V108.236H74.7505Z" fill="black"/>
<path d="M89.8466 108.236V121.539H88.5373V108.236H89.8466ZM85.0314 113.516C85.0314 112.333 84.8132 111.428 84.3768 110.803C83.9501 110.167 83.3439 109.849 82.5584 109.849C81.7728 109.849 81.1619 110.167 80.7254 110.803C80.2987 111.428 80.0854 112.333 80.0854 113.516C80.0854 114.699 80.2987 115.609 80.7254 116.244C81.1619 116.87 81.7728 117.183 82.5584 117.183C83.3439 117.183 83.9501 116.87 84.3768 116.244C84.8132 115.609 85.0314 114.699 85.0314 113.516ZM86.3407 113.516C86.3407 114.298 86.2486 114.993 86.0643 115.599C85.8897 116.195 85.6376 116.699 85.3078 117.11C84.9878 117.52 84.595 117.833 84.1295 118.048C83.664 118.254 83.1403 118.356 82.5584 118.356C81.9765 118.356 81.4528 118.254 80.9873 118.048C80.5218 117.833 80.1241 117.52 79.7944 117.11C79.4744 116.699 79.2222 116.195 79.0379 115.599C78.8634 114.993 78.7761 114.298 78.7761 113.516C78.7761 112.734 78.8634 112.044 79.0379 111.448C79.2222 110.842 79.4744 110.333 79.7944 109.923C80.1241 109.512 80.5218 109.204 80.9873 108.999C81.4528 108.783 81.9765 108.676 82.5584 108.676C83.1403 108.676 83.664 108.783 84.1295 108.999C84.595 109.204 84.9878 109.512 85.3078 109.923C85.6376 110.333 85.8897 110.842 86.0643 111.448C86.2486 112.044 86.3407 112.734 86.3407 113.516Z" fill="black"/>
<path d="M105.088 118.65V119.823H92.3448V118.65H105.088ZM103.008 113.164H95.3706V115.291H103.59V116.464H94.0613V108.867H103.372V110.04H95.3706V111.991H103.008V113.164Z" fill="black"/>
<path d="M69.0334 132.026V134.329C69.0334 134.74 69.1352 135.14 69.3389 135.532C69.5425 135.923 69.8044 136.299 70.1244 136.661C70.4445 137.013 70.7984 137.345 71.1864 137.658C71.5743 137.971 71.9525 138.255 72.3211 138.509L71.521 139.433C71.1912 139.218 70.8712 138.983 70.5608 138.729C70.2505 138.465 69.9595 138.201 69.688 137.937C69.4261 137.663 69.1837 137.389 68.9606 137.116C68.7376 136.832 68.5485 136.563 68.3933 136.309C68.2575 136.583 68.0781 136.866 67.855 137.16C67.6417 137.453 67.3992 137.741 67.1277 138.025C66.8561 138.309 66.5603 138.587 66.2403 138.861C65.9299 139.125 65.6099 139.374 65.2802 139.609L64.4364 138.685C64.8534 138.382 65.2559 138.064 65.6438 137.732C66.0415 137.389 66.3906 137.037 66.6913 136.676C67.0016 136.304 67.2489 135.923 67.4332 135.532C67.6271 135.14 67.7241 134.74 67.7241 134.329V132.026H69.0334ZM71.1282 134.388H74.1395V131.703H75.4487V141.134H74.1395V135.561H71.1282V134.388ZM66.4294 140.137H67.7387V143.76H75.9143V144.933H66.4294V140.137Z" fill="black"/>
<path d="M85.1478 145.373C84.4205 145.373 83.7658 145.295 83.1839 145.139C82.6117 144.992 82.122 144.787 81.7147 144.523C81.317 144.259 81.0067 143.946 80.7836 143.584C80.5703 143.222 80.4636 142.826 80.4636 142.396C80.4636 141.956 80.5703 141.555 80.7836 141.193C81.0067 140.822 81.317 140.504 81.7147 140.24C82.122 139.976 82.6117 139.775 83.1839 139.638C83.7658 139.492 84.4205 139.418 85.1478 139.418C85.8752 139.418 86.525 139.492 87.0972 139.638C87.679 139.775 88.1688 139.976 88.5664 140.24C88.9738 140.504 89.2841 140.822 89.4975 141.193C89.7205 141.555 89.8321 141.956 89.8321 142.396C89.8321 142.836 89.7205 143.237 89.4975 143.599C89.2841 143.97 88.9738 144.288 88.5664 144.552C88.1688 144.816 87.679 145.016 87.0972 145.153C86.525 145.3 85.8752 145.373 85.1478 145.373ZM86.0061 133.346H83.1403V134.505C83.1403 134.867 83.2421 135.204 83.4458 135.517C83.6591 135.83 83.9258 136.128 84.2459 136.412C84.5756 136.685 84.9345 136.949 85.3224 137.204C85.72 137.458 86.1031 137.702 86.4716 137.937L85.7734 138.905C85.4436 138.709 85.1187 138.509 84.7987 138.304C84.4786 138.089 84.1731 137.869 83.8822 137.644C83.601 137.419 83.3391 137.189 83.0966 136.954C82.8542 136.71 82.6554 136.46 82.5002 136.206C82.3547 136.47 82.1656 136.744 81.9329 137.028C81.7001 137.301 81.4383 137.575 81.1473 137.849C80.8564 138.113 80.546 138.372 80.2163 138.626C79.8962 138.871 79.5713 139.096 79.2416 139.301L78.4997 138.333C78.9167 138.049 79.324 137.761 79.7217 137.468C80.1193 137.164 80.4733 136.856 80.7836 136.544C81.094 136.221 81.3461 135.893 81.5401 135.561C81.734 135.219 81.831 134.867 81.831 134.505V133.346H78.9652V132.173H86.0061V133.346ZM85.1478 140.592C84.6532 140.592 84.1974 140.636 83.7804 140.724C83.3633 140.802 83.0045 140.919 82.7039 141.076C82.4129 141.232 82.185 141.423 82.0201 141.648C81.8553 141.873 81.7728 142.122 81.7728 142.396C81.7728 142.679 81.8553 142.934 82.0201 143.159C82.185 143.374 82.4129 143.559 82.7039 143.716C83.0045 143.872 83.3633 143.99 83.7804 144.068C84.1974 144.156 84.6532 144.2 85.1478 144.2C85.6424 144.2 86.0982 144.156 86.5153 144.068C86.9323 143.99 87.2863 143.872 87.5772 143.716C87.8779 143.559 88.1106 143.374 88.2755 143.159C88.4404 142.934 88.5228 142.679 88.5228 142.396C88.5228 142.122 88.4404 141.873 88.2755 141.648C88.1106 141.423 87.8779 141.232 87.5772 141.076C87.2863 140.919 86.9323 140.802 86.5153 140.724C86.0982 140.636 85.6424 140.592 85.1478 140.592ZM85.4533 134.696H88.3191V131.703H89.6284V139.228H88.3191V135.869H85.4533V134.696Z" fill="black"/>
<path d="M141.645 81.4037C142.03 80.7688 142.529 80.285 143.144 79.9524C143.759 79.6098 144.48 79.4384 145.306 79.4384C145.776 79.4384 146.218 79.5039 146.632 79.6349C147.054 79.7559 147.419 79.9474 147.727 80.2094C148.044 80.4614 148.294 80.7789 148.476 81.1618C148.659 81.5448 148.75 81.9933 148.75 82.5073C148.75 82.8298 148.697 83.1272 148.591 83.3993C148.495 83.6613 148.366 83.8982 148.202 84.1098C148.039 84.3114 147.852 84.4827 147.64 84.6238C147.439 84.7548 147.237 84.8506 147.035 84.9111C147.304 84.9514 147.568 85.0471 147.828 85.1983C148.087 85.3495 148.322 85.541 148.534 85.7728C148.745 86.0046 148.913 86.2767 149.038 86.5891C149.173 86.8915 149.24 87.214 149.24 87.5567C149.24 88.0505 149.153 88.499 148.98 88.9022C148.808 89.3053 148.548 89.653 148.202 89.9453C147.866 90.2275 147.448 90.4492 146.949 90.6105C146.449 90.7717 145.877 90.8524 145.234 90.8524C144.888 90.8524 144.528 90.807 144.153 90.7163C143.778 90.6357 143.413 90.5097 143.058 90.3384C142.702 90.167 142.371 89.9554 142.063 89.7034C141.756 89.4514 141.497 89.1642 141.285 88.8417L142.236 87.9497C142.4 88.2017 142.592 88.4285 142.813 88.63C143.043 88.8215 143.288 88.9878 143.548 89.1289C143.817 89.27 144.09 89.3809 144.369 89.4615C144.657 89.5321 144.941 89.5674 145.219 89.5674C146.036 89.5674 146.68 89.4011 147.15 89.0685C147.631 88.7359 147.871 88.237 147.871 87.5718C147.871 86.8663 147.64 86.3573 147.179 86.0449C146.728 85.7224 146.113 85.5611 145.335 85.5611H143.591V84.2761H145.248C145.882 84.2761 146.396 84.1199 146.79 83.8075C147.184 83.495 147.381 83.0617 147.381 82.5073C147.381 81.9429 147.17 81.5096 146.747 81.2072C146.334 80.8948 145.81 80.7385 145.176 80.7385C144.638 80.7385 144.158 80.8696 143.735 81.1316C143.322 81.3836 142.99 81.701 142.741 82.084L141.645 81.4037Z" fill="black"/>
<path d="M152.273 90.6256H150.904V79H152.201V83.8679C152.422 83.4446 152.753 83.1171 153.195 82.8853C153.647 82.6535 154.17 82.5376 154.766 82.5376C155.736 82.5376 156.495 82.8097 157.043 83.3539C157.6 83.8881 157.878 84.6641 157.878 85.6821V90.6256H156.509V85.9693C156.509 85.2437 156.327 84.7045 155.962 84.3517C155.606 83.999 155.083 83.8226 154.391 83.8226C153.843 83.8226 153.378 83.9687 152.993 84.261C152.619 84.5533 152.378 84.9413 152.273 85.4251V90.6256Z" fill="black"/>
<path d="M116 119.213V113.317H121.163V110.133H116V108.879H122.48V114.571H117.316V117.958H119.993C120.695 117.958 121.358 117.948 121.982 117.927C122.606 117.906 123.25 117.854 123.913 117.77L124.03 118.977C123.289 119.082 122.577 119.15 121.894 119.181C121.222 119.202 120.52 119.213 119.788 119.213H116ZM126.502 108.236V122.459H125.185V108.236H126.502Z" fill="black"/>
<path d="M136.224 108.847V110.996C136.224 111.508 136.385 111.984 136.707 112.423C137.039 112.862 137.448 113.264 137.936 113.63C138.423 113.986 138.95 114.31 139.515 114.602C140.091 114.885 140.622 115.125 141.11 115.324L140.525 116.516C140.027 116.327 139.525 116.103 139.018 115.841C138.511 115.58 138.033 115.298 137.585 114.994C137.146 114.691 136.746 114.372 136.385 114.038C136.034 113.703 135.761 113.379 135.566 113.066C135.371 113.379 135.093 113.703 134.733 114.038C134.381 114.372 133.982 114.691 133.533 114.994C133.094 115.298 132.621 115.58 132.114 115.841C131.607 116.103 131.105 116.327 130.608 116.516L130.023 115.324C130.51 115.125 131.037 114.885 131.602 114.602C132.178 114.31 132.709 113.986 133.197 113.63C133.684 113.264 134.089 112.862 134.411 112.423C134.742 111.984 134.908 111.508 134.908 110.996V108.847H136.224ZM134.908 119.369V116.014H136.224V119.369H141.973V120.624H129.16V119.369H134.908Z" fill="black"/>
<path d="M156.156 119.369V120.624H143.344V119.369H156.156ZM150.408 108.847V111.043C150.408 111.555 150.569 112.036 150.891 112.485C151.222 112.925 151.632 113.327 152.119 113.693C152.607 114.059 153.134 114.388 153.699 114.681C154.274 114.974 154.806 115.219 155.293 115.418L154.708 116.61C154.211 116.421 153.709 116.197 153.202 115.935C152.695 115.663 152.217 115.371 151.768 115.057C151.33 114.744 150.93 114.419 150.569 114.085C150.218 113.75 149.945 113.426 149.75 113.113C149.555 113.426 149.277 113.75 148.916 114.085C148.565 114.419 148.165 114.744 147.717 115.057C147.278 115.371 146.805 115.663 146.298 115.935C145.791 116.197 145.289 116.421 144.792 116.61L144.206 115.418C144.694 115.219 145.221 114.974 145.786 114.681C146.361 114.388 146.893 114.059 147.38 113.693C147.868 113.327 148.273 112.925 148.594 112.485C148.926 112.036 149.092 111.555 149.092 111.043V108.847H150.408Z" fill="black"/>
<path d="M170.34 116.39V117.645H164.592V122.459H163.275V117.645H157.527V116.39H170.34ZM163.934 112.031C163.729 112.302 163.451 112.59 163.1 112.893C162.759 113.186 162.364 113.479 161.915 113.771C161.476 114.064 161.003 114.346 160.496 114.618C159.989 114.89 159.477 115.136 158.961 115.355L158.39 114.148C159.043 113.865 159.663 113.567 160.248 113.254C160.843 112.93 161.364 112.595 161.813 112.25C162.261 111.895 162.617 111.529 162.88 111.153C163.144 110.766 163.275 110.368 163.275 109.961V108.455H164.592V109.961C164.592 110.368 164.723 110.766 164.987 111.153C165.25 111.529 165.606 111.895 166.054 112.25C166.503 112.595 167.02 112.93 167.605 113.254C168.2 113.567 168.824 113.865 169.477 114.148L168.907 115.355C168.39 115.136 167.878 114.89 167.371 114.618C166.864 114.346 166.386 114.064 165.937 113.771C165.499 113.479 165.104 113.186 164.753 112.893C164.411 112.59 164.138 112.302 163.934 112.031Z" fill="black"/>
<path d="M183.163 116.468V122.459H174.022V116.468H175.338V118.24H181.847V116.468H183.163ZM179.755 109.992H176.757V110.776C176.757 111.173 176.864 111.55 177.079 111.905C177.303 112.261 177.586 112.595 177.927 112.909C178.268 113.222 178.644 113.52 179.053 113.803C179.463 114.085 179.853 114.346 180.223 114.587L179.521 115.622C179.19 115.423 178.853 115.204 178.512 114.963C178.181 114.712 177.864 114.461 177.561 114.21C177.259 113.949 176.981 113.682 176.728 113.411C176.474 113.139 176.269 112.872 176.113 112.611C175.967 112.883 175.772 113.16 175.528 113.442C175.285 113.724 175.007 114.001 174.695 114.273C174.392 114.534 174.071 114.791 173.729 115.041C173.388 115.282 173.052 115.512 172.72 115.731L171.974 114.696C172.393 114.404 172.808 114.111 173.217 113.818C173.627 113.515 173.997 113.207 174.329 112.893C174.661 112.58 174.929 112.25 175.133 111.905C175.338 111.55 175.441 111.173 175.441 110.776V109.992H172.442V108.738H179.755V109.992ZM181.847 121.204V119.495H175.338V121.204H181.847ZM183.163 108.236V115.763H181.847V108.236H183.163Z" fill="black"/>
<path d="M355.004 81.4037C355.39 80.7688 355.892 80.285 356.509 79.9524C357.127 79.6098 357.85 79.4384 358.68 79.4384C359.153 79.4384 359.596 79.5039 360.011 79.6349C360.436 79.7559 360.802 79.9474 361.111 80.2094C361.429 80.4614 361.68 80.7789 361.863 81.1618C362.047 81.5448 362.138 81.9933 362.138 82.5073C362.138 82.8298 362.085 83.1272 361.979 83.3993C361.883 83.6613 361.753 83.8982 361.589 84.1098C361.424 84.3114 361.236 84.4827 361.024 84.6238C360.822 84.7548 360.619 84.8506 360.416 84.9111C360.686 84.9514 360.952 85.0471 361.212 85.1983C361.473 85.3495 361.709 85.541 361.921 85.7728C362.134 86.0046 362.302 86.2767 362.428 86.5891C362.563 86.8915 362.63 87.214 362.63 87.5567C362.63 88.0505 362.544 88.499 362.37 88.9022C362.196 89.3053 361.936 89.653 361.589 89.9453C361.251 90.2275 360.831 90.4492 360.33 90.6105C359.828 90.7717 359.254 90.8524 358.608 90.8524C358.26 90.8524 357.898 90.807 357.522 90.7163C357.146 90.6357 356.779 90.5097 356.422 90.3384C356.066 90.167 355.733 89.9554 355.424 89.7034C355.115 89.4514 354.855 89.1642 354.643 88.8417L355.598 87.9497C355.762 88.2017 355.955 88.4285 356.176 88.63C356.408 88.8215 356.654 88.9878 356.914 89.1289C357.185 89.27 357.46 89.3809 357.739 89.4615C358.029 89.5321 358.313 89.5674 358.593 89.5674C359.413 89.5674 360.059 89.4011 360.532 89.0685C361.014 88.7359 361.256 88.237 361.256 87.5718C361.256 86.8663 361.024 86.3573 360.561 86.0449C360.108 85.7224 359.49 85.5611 358.709 85.5611H356.958V84.2761H358.622C359.259 84.2761 359.775 84.1199 360.17 83.8075C360.566 83.495 360.764 83.0617 360.764 82.5073C360.764 81.9429 360.551 81.5096 360.127 81.2072C359.712 80.8948 359.186 80.7385 358.55 80.7385C358.009 80.7385 357.527 80.8696 357.103 81.1316C356.688 81.3836 356.355 81.701 356.104 82.084L355.004 81.4037Z" fill="black"/>
<path d="M364.229 85.1378C364.229 84.0997 364.335 83.2179 364.547 82.4922C364.759 81.7666 365.054 81.177 365.43 80.7234C365.806 80.2699 366.255 79.9423 366.776 79.7408C367.297 79.5392 367.861 79.4384 368.469 79.4384C369.077 79.4384 369.636 79.5392 370.147 79.7408C370.668 79.9423 371.117 80.2699 371.493 80.7234C371.869 81.177 372.164 81.7666 372.376 82.4922C372.588 83.2179 372.694 84.0997 372.694 85.1378C372.694 86.186 372.588 87.0729 372.376 87.7986C372.164 88.5242 371.869 89.1138 371.493 89.5674C371.117 90.0209 370.668 90.3484 370.147 90.55C369.636 90.7516 369.077 90.8524 368.469 90.8524C367.861 90.8524 367.297 90.7516 366.776 90.55C366.255 90.3484 365.806 90.0209 365.43 89.5674C365.054 89.1138 364.759 88.5242 364.547 87.7986C364.335 87.0729 364.229 86.186 364.229 85.1378ZM365.604 85.1378C365.604 85.934 365.676 86.6143 365.821 87.1787C365.965 87.7331 366.168 88.1916 366.428 88.5545C366.689 88.9072 366.993 89.1642 367.34 89.3255C367.687 89.4867 368.064 89.5674 368.469 89.5674C368.874 89.5674 369.25 89.4867 369.597 89.3255C369.945 89.1642 370.244 88.9072 370.495 88.5545C370.755 88.1916 370.958 87.7331 371.102 87.1787C371.247 86.6143 371.319 85.934 371.319 85.1378C371.319 84.3416 371.247 83.6664 371.102 83.112C370.958 82.5476 370.755 82.0891 370.495 81.7363C370.244 81.3836 369.945 81.1266 369.597 80.9653C369.25 80.8041 368.874 80.7234 368.469 80.7234C368.064 80.7234 367.687 80.8041 367.34 80.9653C366.993 81.1266 366.689 81.3836 366.428 81.7363C366.168 82.0891 365.965 82.5476 365.821 83.112C365.676 83.6664 365.604 84.3416 365.604 85.1378Z" fill="black"/>
<path d="M375.879 90.6256H374.504V79H375.807V83.8679C376.028 83.4446 376.361 83.1171 376.805 82.8853C377.258 82.6535 377.784 82.5376 378.382 82.5376C379.357 82.5376 380.119 82.8097 380.669 83.3539C381.228 83.8881 381.508 84.6641 381.508 85.6821V90.6256H380.133V85.9693C380.133 85.2437 379.95 84.7045 379.583 84.3517C379.226 83.999 378.701 83.8226 378.006 83.8226C377.456 83.8226 376.988 83.9687 376.602 84.261C376.226 84.5533 375.985 84.9413 375.879 85.4251V90.6256Z" fill="black"/>
<path d="M345.588 118.637V117.002C344.71 116.896 344.021 116.612 343.523 116.149C343.025 115.686 342.776 115.097 342.776 114.384C342.776 113.988 342.854 113.627 343.011 113.299C343.177 112.971 343.411 112.691 343.714 112.46C344.016 112.228 344.382 112.05 344.812 111.925C345.242 111.799 345.72 111.737 346.247 111.737C346.775 111.737 347.253 111.799 347.683 111.925C348.112 112.05 348.478 112.228 348.781 112.46C349.084 112.691 349.313 112.971 349.47 113.299C349.636 113.627 349.719 113.988 349.719 114.384C349.719 115.097 349.47 115.686 348.972 116.149C348.474 116.612 347.785 116.896 346.906 117.002V118.637C347.609 118.618 348.312 118.574 349.016 118.507C349.719 118.429 350.353 118.328 350.92 118.203L351.125 119.302C350.461 119.457 349.675 119.577 348.767 119.664C347.858 119.751 346.926 119.794 345.969 119.794H342V118.637H345.588ZM353.16 108.569V113.415H355.138V114.572H353.16V121.689H351.842V108.569H353.16ZM346.892 108.308V110.001H350.348V111.129H342.146V110.001H345.603V108.308H346.892ZM346.247 115.903C346.98 115.903 347.522 115.768 347.873 115.498C348.225 115.218 348.4 114.847 348.4 114.384C348.4 113.921 348.225 113.554 347.873 113.284C347.522 113.005 346.98 112.865 346.247 112.865C345.515 112.865 344.973 113.005 344.622 113.284C344.27 113.554 344.094 113.921 344.094 114.384C344.094 114.847 344.27 115.218 344.622 115.498C344.973 115.768 345.515 115.903 346.247 115.903Z" fill="black"/>
<path d="M357.155 109.104H363.658V110.203H366.338V108.569H367.656V117.87H366.338V114.442H363.658V115.801H357.155V109.104ZM362.34 110.261H358.473V114.644H362.34V110.261ZM358.502 117.031H359.82V120.459H368.052V121.617H358.502V117.031ZM363.658 113.313H366.338V111.332H363.658V113.313Z" fill="black"/>
<path d="M375.847 109.06H385.279V110.666C385.279 111.37 385.255 112.108 385.206 112.879C385.157 113.641 385.074 114.398 384.957 115.151H387.169V116.308H381.266V121.689H379.948V116.308H374.339V115.151H383.683C383.732 114.794 383.771 114.422 383.8 114.037C383.839 113.651 383.868 113.275 383.888 112.908C383.917 112.532 383.937 112.175 383.946 111.838C383.956 111.5 383.961 111.192 383.961 110.912V110.218H375.847V109.06Z" fill="black"/>
<path d="M389.64 114.471C389.64 114.114 389.708 113.781 389.845 113.472C389.981 113.154 390.182 112.879 390.445 112.648C390.719 112.407 391.056 112.219 391.456 112.084C391.856 111.949 392.315 111.881 392.833 111.881C393.35 111.881 393.809 111.949 394.209 112.084C394.61 112.219 394.942 112.407 395.205 112.648C395.479 112.879 395.684 113.154 395.82 113.472C395.957 113.781 396.025 114.114 396.025 114.471C396.025 114.827 395.957 115.165 395.82 115.483C395.684 115.792 395.479 116.067 395.205 116.308C394.942 116.539 394.61 116.722 394.209 116.857C393.809 116.993 393.35 117.06 392.833 117.06C392.315 117.06 391.856 116.993 391.456 116.857C391.056 116.722 390.719 116.539 390.445 116.308C390.182 116.067 389.981 115.792 389.845 115.483C389.708 115.165 389.64 114.827 389.64 114.471ZM396.465 112.228H398.691V108.569H400.009V118.304H398.691V116.178H396.465V115.049H398.691V113.357H396.465V112.228ZM390.855 117.899H392.174V120.459H400.405V121.617H390.855V117.899ZM396.523 111.1H388.834V109.957H392.027V108.236H393.345V109.957H396.523V111.1ZM390.958 114.471C390.958 114.895 391.109 115.242 391.412 115.512C391.724 115.782 392.198 115.917 392.833 115.917C393.467 115.917 393.936 115.782 394.239 115.512C394.551 115.242 394.707 114.895 394.707 114.471C394.707 114.046 394.551 113.699 394.239 113.429C393.936 113.159 393.467 113.024 392.833 113.024C392.198 113.024 391.724 113.159 391.412 113.429C391.109 113.699 390.958 114.046 390.958 114.471Z" fill="black"/>
<path d="M349.382 138.585H343.787V143.417H342.395V132.929H343.787V137.356H349.382V132.929H350.773V143.417H349.382V138.585Z" fill="black"/>
<path d="M355.792 134.159H352.233V132.929H360.757V134.159H357.198V143.417H355.792V134.159Z" fill="black"/>
<path d="M367.155 141.883L363.611 135.374V143.417H362.219L362.234 132.929H363.684L367.594 140.017L371.505 132.929H372.955L372.97 143.417H371.578V135.374L368.034 141.883H367.155Z" fill="black"/>
<path d="M375.163 132.929H376.555V142.202H382.369V143.417H375.163V132.929Z" fill="black"/>
<path d="M394.534 135.417C394.534 135.803 394.456 136.136 394.3 136.415C394.143 136.695 393.933 136.946 393.67 137.168C393.406 137.38 393.103 137.577 392.762 137.761C392.42 137.934 392.059 138.113 391.678 138.296L391.839 138.441L394.417 140.842C394.7 140.244 394.866 139.506 394.915 138.629L396.233 138.73C396.184 139.309 396.096 139.853 395.969 140.365C395.852 140.876 395.666 141.343 395.413 141.768L397.185 143.417H395.354L394.607 142.737C394.226 143.074 393.767 143.335 393.23 143.518C392.703 143.701 392.073 143.793 391.341 143.793C390.814 143.793 390.306 143.735 389.818 143.619C389.33 143.504 388.895 143.325 388.514 143.084C388.133 142.843 387.831 142.534 387.606 142.158C387.382 141.782 387.269 141.334 387.269 140.813C387.269 140.485 387.333 140.186 387.46 139.916C387.587 139.636 387.753 139.386 387.958 139.164C388.163 138.932 388.402 138.725 388.675 138.542C388.949 138.359 389.232 138.185 389.525 138.021C389.173 137.655 388.866 137.254 388.602 136.82C388.339 136.377 388.207 135.909 388.207 135.417C388.207 135.031 388.285 134.675 388.441 134.347C388.597 134.019 388.812 133.734 389.085 133.493C389.369 133.252 389.705 133.064 390.096 132.929C390.487 132.784 390.911 132.712 391.37 132.712C391.829 132.712 392.254 132.78 392.644 132.915C393.035 133.05 393.367 133.238 393.64 133.479C393.924 133.71 394.143 133.995 394.3 134.332C394.456 134.66 394.534 135.022 394.534 135.417ZM390.843 139.265C390.784 139.217 390.721 139.164 390.653 139.106C390.594 139.038 390.526 138.976 390.448 138.918C389.911 139.198 389.476 139.482 389.144 139.771C388.822 140.061 388.661 140.408 388.661 140.813C388.661 141.131 388.734 141.401 388.88 141.623C389.027 141.845 389.222 142.028 389.466 142.173C389.71 142.308 389.994 142.409 390.316 142.477C390.648 142.534 390.989 142.563 391.341 142.563C392.298 142.563 393.064 142.322 393.64 141.84L390.843 139.265ZM389.598 135.475C389.598 135.774 389.715 136.097 389.95 136.444C390.184 136.782 390.448 137.105 390.74 137.413C390.78 137.394 390.814 137.38 390.843 137.37C390.872 137.351 390.902 137.332 390.931 137.312C391.282 137.139 391.595 136.994 391.868 136.878C392.142 136.753 392.371 136.628 392.557 136.502C392.752 136.377 392.898 136.242 392.996 136.097C393.094 135.943 393.142 135.74 393.142 135.49C393.142 134.998 392.976 134.617 392.644 134.347C392.322 134.077 391.898 133.942 391.37 133.942C390.843 133.942 390.413 134.082 390.081 134.361C389.759 134.641 389.598 135.012 389.598 135.475Z" fill="black"/>
<path d="M401.862 138.166C401.862 137.327 401.994 136.57 402.257 135.895C402.521 135.22 402.882 134.646 403.341 134.173C403.81 133.701 404.361 133.339 404.996 133.088C405.631 132.837 406.324 132.712 407.076 132.712C407.955 132.712 408.75 132.886 409.463 133.233C410.176 133.58 410.767 134.072 411.235 134.708L410.137 135.504C409.795 135.003 409.361 134.617 408.833 134.347C408.306 134.077 407.72 133.942 407.076 133.942C406.529 133.942 406.021 134.043 405.553 134.245C405.084 134.438 404.679 134.718 404.337 135.084C403.995 135.441 403.727 135.885 403.531 136.415C403.346 136.936 403.253 137.52 403.253 138.166C403.253 138.822 403.346 139.41 403.531 139.931C403.727 140.451 403.995 140.895 404.337 141.261C404.679 141.628 405.084 141.912 405.553 142.115C406.021 142.308 406.529 142.404 407.076 142.404C407.798 142.404 408.448 142.264 409.024 141.985C409.6 141.705 410.068 141.324 410.43 140.842L411.44 141.638C410.962 142.284 410.352 142.78 409.61 143.128C408.867 143.465 408.023 143.634 407.076 143.634C406.324 143.634 405.631 143.508 404.996 143.258C404.361 142.997 403.81 142.631 403.341 142.158C402.882 141.686 402.521 141.112 402.257 140.437C401.994 139.762 401.862 139.005 401.862 138.166Z" fill="black"/>
<path d="M413.557 140.596C413.908 141.136 414.377 141.575 414.963 141.912C415.549 142.24 416.257 142.404 417.087 142.404C417.458 142.404 417.814 142.375 418.156 142.317C418.498 142.25 418.795 142.149 419.049 142.014C419.313 141.879 419.518 141.7 419.664 141.478C419.821 141.257 419.899 140.987 419.899 140.668C419.899 140.379 419.821 140.138 419.664 139.945C419.508 139.743 419.313 139.574 419.079 139.439C418.844 139.294 418.585 139.174 418.302 139.077C418.019 138.981 417.746 138.894 417.482 138.817L416.032 138.397C415.515 138.253 415.056 138.103 414.655 137.949C414.255 137.785 413.918 137.597 413.645 137.385C413.371 137.163 413.161 136.902 413.015 136.603C412.878 136.304 412.81 135.943 412.81 135.518C412.81 135.094 412.903 134.713 413.088 134.376C413.284 134.028 413.552 133.734 413.894 133.493C414.245 133.243 414.665 133.05 415.153 132.915C415.651 132.78 416.203 132.712 416.808 132.712C417.638 132.712 418.385 132.852 419.049 133.132C419.723 133.402 420.343 133.869 420.909 134.535L419.913 135.417C419.542 134.983 419.098 134.631 418.581 134.361C418.063 134.082 417.472 133.942 416.808 133.942C416.047 133.942 415.422 134.072 414.934 134.332C414.445 134.583 414.201 134.959 414.201 135.461C414.201 135.702 414.255 135.909 414.362 136.083C414.47 136.247 414.621 136.391 414.816 136.517C415.022 136.642 415.261 136.758 415.534 136.864C415.817 136.96 416.13 137.057 416.472 137.153L417.892 137.558C418.38 137.693 418.83 137.847 419.24 138.021C419.659 138.195 420.021 138.402 420.323 138.643C420.626 138.884 420.86 139.169 421.026 139.497C421.202 139.824 421.29 140.215 421.29 140.668C421.29 141.189 421.178 141.638 420.953 142.014C420.729 142.38 420.426 142.684 420.045 142.925C419.664 143.166 419.225 143.344 418.727 143.46C418.239 143.576 417.726 143.634 417.189 143.634C416.135 143.634 415.197 143.441 414.377 143.055C413.567 142.66 412.927 142.105 412.458 141.392L413.557 140.596Z" fill="black"/>
<path d="M423.555 140.596C423.906 141.136 424.375 141.575 424.961 141.912C425.547 142.24 426.254 142.404 427.084 142.404C427.455 142.404 427.812 142.375 428.154 142.317C428.495 142.25 428.793 142.149 429.047 142.014C429.311 141.879 429.516 141.7 429.662 141.478C429.818 141.257 429.896 140.987 429.896 140.668C429.896 140.379 429.818 140.138 429.662 139.945C429.506 139.743 429.311 139.574 429.076 139.439C428.842 139.294 428.583 139.174 428.3 139.077C428.017 138.981 427.743 138.894 427.48 138.817L426.03 138.397C425.512 138.253 425.053 138.103 424.653 137.949C424.253 137.785 423.916 137.597 423.643 137.385C423.369 137.163 423.159 136.902 423.013 136.603C422.876 136.304 422.808 135.943 422.808 135.518C422.808 135.094 422.9 134.713 423.086 134.376C423.281 134.028 423.55 133.734 423.892 133.493C424.243 133.243 424.663 133.05 425.151 132.915C425.649 132.78 426.201 132.712 426.806 132.712C427.636 132.712 428.383 132.852 429.047 133.132C429.721 133.402 430.341 133.869 430.907 134.535L429.911 135.417C429.54 134.983 429.096 134.631 428.578 134.361C428.061 134.082 427.47 133.942 426.806 133.942C426.045 133.942 425.42 134.072 424.931 134.332C424.443 134.583 424.199 134.959 424.199 135.461C424.199 135.702 424.253 135.909 424.36 136.083C424.468 136.247 424.619 136.391 424.814 136.517C425.019 136.642 425.258 136.758 425.532 136.864C425.815 136.96 426.127 137.057 426.469 137.153L427.89 137.558C428.378 137.693 428.827 137.847 429.237 138.021C429.657 138.195 430.018 138.402 430.321 138.643C430.624 138.884 430.858 139.169 431.024 139.497C431.2 139.824 431.288 140.215 431.288 140.668C431.288 141.189 431.176 141.638 430.951 142.014C430.726 142.38 430.424 142.684 430.043 142.925C429.662 143.166 429.223 143.344 428.725 143.46C428.237 143.576 427.724 143.634 427.187 143.634C426.132 143.634 425.195 143.441 424.375 143.055C423.564 142.66 422.925 142.105 422.456 141.392L423.555 140.596Z" fill="black"/>
<path d="M658.349 81.4037C658.746 80.7688 659.263 80.285 659.898 79.9524C660.534 79.6098 661.279 79.4384 662.133 79.4384C662.619 79.4384 663.076 79.5039 663.503 79.6349C663.94 79.7559 664.317 79.9474 664.635 80.2094C664.963 80.4614 665.221 80.7789 665.41 81.1618C665.598 81.5448 665.693 81.9933 665.693 82.5073C665.693 82.8298 665.638 83.1272 665.529 83.3993C665.43 83.6613 665.296 83.8982 665.127 84.1098C664.958 84.3114 664.764 84.4827 664.546 84.6238C664.337 84.7548 664.129 84.8506 663.92 84.9111C664.198 84.9514 664.471 85.0471 664.739 85.1983C665.008 85.3495 665.251 85.541 665.469 85.7728C665.688 86.0046 665.862 86.2767 665.991 86.5891C666.13 86.8915 666.199 87.214 666.199 87.5567C666.199 88.0505 666.11 88.499 665.931 88.9022C665.752 89.3053 665.484 89.653 665.127 89.9453C664.779 90.2275 664.347 90.4492 663.831 90.6105C663.314 90.7717 662.724 90.8524 662.058 90.8524C661.701 90.8524 661.328 90.807 660.941 90.7163C660.554 90.6357 660.176 90.5097 659.809 90.3384C659.441 90.167 659.099 89.9554 658.781 89.7034C658.463 89.4514 658.195 89.1642 657.977 88.8417L658.96 87.9497C659.129 88.2017 659.327 88.4285 659.556 88.63C659.794 88.8215 660.047 88.9878 660.315 89.1289C660.593 89.27 660.876 89.3809 661.164 89.4615C661.462 89.5321 661.755 89.5674 662.043 89.5674C662.887 89.5674 663.553 89.4011 664.039 89.0685C664.536 88.7359 664.784 88.237 664.784 87.5718C664.784 86.8663 664.546 86.3573 664.069 86.0449C663.602 85.7224 662.967 85.5611 662.162 85.5611H660.36V84.2761H662.073C662.728 84.2761 663.26 84.1199 663.667 83.8075C664.074 83.495 664.278 83.0617 664.278 82.5073C664.278 81.9429 664.059 81.5096 663.622 81.2072C663.195 80.8948 662.654 80.7385 661.999 80.7385C661.442 80.7385 660.946 80.8696 660.509 81.1316C660.082 81.3836 659.739 81.701 659.481 82.084L658.349 81.4037Z" fill="black"/>
<path d="M667.845 85.1378C667.845 84.0997 667.954 83.2179 668.172 82.4922C668.391 81.7666 668.694 81.177 669.081 80.7234C669.468 80.2699 669.93 79.9423 670.467 79.7408C671.003 79.5392 671.584 79.4384 672.209 79.4384C672.835 79.4384 673.411 79.5392 673.937 79.7408C674.474 79.9423 674.935 80.2699 675.323 80.7234C675.71 81.177 676.013 81.7666 676.231 82.4922C676.45 83.2179 676.559 84.0997 676.559 85.1378C676.559 86.186 676.45 87.0729 676.231 87.7986C676.013 88.5242 675.71 89.1138 675.323 89.5674C674.935 90.0209 674.474 90.3484 673.937 90.55C673.411 90.7516 672.835 90.8524 672.209 90.8524C671.584 90.8524 671.003 90.7516 670.467 90.55C669.93 90.3484 669.468 90.0209 669.081 89.5674C668.694 89.1138 668.391 88.5242 668.172 87.7986C667.954 87.0729 667.845 86.186 667.845 85.1378ZM669.26 85.1378C669.26 85.934 669.334 86.6143 669.483 87.1787C669.632 87.7331 669.841 88.1916 670.109 88.5545C670.377 88.9072 670.69 89.1642 671.047 89.3255C671.405 89.4867 671.792 89.5674 672.209 89.5674C672.626 89.5674 673.014 89.4867 673.371 89.3255C673.729 89.1642 674.037 88.9072 674.295 88.5545C674.563 88.1916 674.772 87.7331 674.92 87.1787C675.069 86.6143 675.144 85.934 675.144 85.1378C675.144 84.3416 675.069 83.6664 674.92 83.112C674.772 82.5476 674.563 82.0891 674.295 81.7363C674.037 81.3836 673.729 81.1266 673.371 80.9653C673.014 80.8041 672.626 80.7234 672.209 80.7234C671.792 80.7234 671.405 80.8041 671.047 80.9653C670.69 81.1266 670.377 81.3836 670.109 81.7363C669.841 82.0891 669.632 82.5476 669.483 83.112C669.334 83.6664 669.26 84.3416 669.26 85.1378Z" fill="black"/>
<path d="M679.837 90.6256H678.422V79H679.763V83.8679C679.991 83.4446 680.334 83.1171 680.791 82.8853C681.258 82.6535 681.799 82.5376 682.414 82.5376C683.418 82.5376 684.202 82.8097 684.768 83.3539C685.344 83.8881 685.632 84.6641 685.632 85.6821V90.6256H684.217V85.9693C684.217 85.2437 684.028 84.7045 683.651 84.3517C683.283 83.999 682.742 83.8226 682.027 83.8226C681.461 83.8226 680.979 83.9687 680.582 84.261C680.195 84.5533 679.947 84.9413 679.837 85.4251V90.6256Z" fill="black"/>
<path d="M635.072 110.606V123.679H633.763V110.606H635.072ZM630.256 115.795C630.256 114.632 630.038 113.744 629.602 113.129C629.175 112.504 628.569 112.192 627.783 112.192C626.997 112.192 626.386 112.504 625.95 113.129C625.523 113.744 625.309 114.632 625.309 115.795C625.309 116.958 625.523 117.851 625.95 118.476C626.386 119.091 626.997 119.398 627.783 119.398C628.569 119.398 629.175 119.091 629.602 118.476C630.038 117.851 630.256 116.958 630.256 115.795ZM631.566 115.795C631.566 116.564 631.474 117.246 631.289 117.842C631.115 118.428 630.863 118.923 630.533 119.326C630.213 119.73 629.82 120.037 629.354 120.249C628.889 120.45 628.365 120.551 627.783 120.551C627.201 120.551 626.677 120.45 626.212 120.249C625.746 120.037 625.348 119.73 625.018 119.326C624.698 118.923 624.446 118.428 624.262 117.842C624.087 117.246 624 116.564 624 115.795C624 115.026 624.087 114.349 624.262 113.763C624.446 113.167 624.698 112.667 625.018 112.264C625.348 111.86 625.746 111.558 626.212 111.356C626.677 111.145 627.201 111.039 627.783 111.039C628.365 111.039 628.889 111.145 629.354 111.356C629.82 111.558 630.213 111.86 630.533 112.264C630.863 112.667 631.115 113.167 631.289 113.763C631.474 114.349 631.566 115.026 631.566 115.795Z" fill="black"/>
<path d="M643.624 110.996V113.676H645.486V110.679H646.723V119.052H645.486V114.829H643.624V117.741H638.24V110.996H639.521V113.23H642.343V110.996H643.624ZM640.088 119.124H641.398V122.454H649.749V123.607H640.088V119.124ZM649.356 110.606V119.773H648.091V110.606H649.356ZM642.343 116.617V114.354H639.521V116.617H642.343Z" fill="black"/>
<path d="M664.426 120.839V121.993H651.68V120.839H664.426ZM662.345 115.449H654.707V117.539H662.927V118.692H653.397V111.226H662.709V112.379H654.707V114.296H662.345V115.449Z" fill="black"/>
<path d="M676.972 114.296C676.972 114.68 676.894 115.012 676.739 115.291C676.584 115.569 676.375 115.819 676.113 116.04C675.851 116.251 675.551 116.448 675.211 116.631C674.872 116.804 674.513 116.982 674.135 117.164L674.295 117.308L676.855 119.701C677.137 119.105 677.302 118.37 677.35 117.496L678.66 117.597C678.611 118.173 678.524 118.716 678.398 119.225C678.281 119.735 678.097 120.201 677.845 120.623L679.605 122.266H677.787L677.045 121.589C676.666 121.925 676.21 122.185 675.677 122.367C675.153 122.55 674.527 122.641 673.8 122.641C673.276 122.641 672.772 122.583 672.287 122.468C671.802 122.353 671.37 122.175 670.992 121.935C670.614 121.695 670.313 121.387 670.09 121.012C669.867 120.638 669.755 120.191 669.755 119.672C669.755 119.345 669.818 119.048 669.944 118.778C670.07 118.5 670.235 118.25 670.439 118.029C670.643 117.798 670.88 117.592 671.152 117.409C671.423 117.227 671.705 117.054 671.996 116.89C671.647 116.525 671.341 116.127 671.079 115.694C670.817 115.252 670.686 114.786 670.686 114.296C670.686 113.912 670.764 113.556 670.919 113.23C671.074 112.903 671.288 112.619 671.559 112.379C671.841 112.139 672.175 111.952 672.563 111.817C672.951 111.673 673.373 111.601 673.829 111.601C674.285 111.601 674.707 111.668 675.095 111.803C675.483 111.937 675.813 112.125 676.084 112.365C676.366 112.595 676.584 112.879 676.739 113.215C676.894 113.542 676.972 113.902 676.972 114.296ZM673.305 118.13C673.247 118.082 673.184 118.029 673.116 117.971C673.058 117.904 672.99 117.842 672.912 117.784C672.379 118.063 671.947 118.346 671.617 118.634C671.297 118.923 671.137 119.269 671.137 119.672C671.137 119.989 671.21 120.258 671.356 120.479C671.501 120.7 671.695 120.883 671.938 121.027C672.18 121.161 672.461 121.262 672.781 121.33C673.111 121.387 673.451 121.416 673.8 121.416C674.751 121.416 675.512 121.176 676.084 120.695L673.305 118.13ZM672.068 114.354C672.068 114.652 672.185 114.974 672.418 115.319C672.65 115.656 672.912 115.978 673.203 116.285C673.242 116.266 673.276 116.251 673.305 116.242C673.334 116.223 673.363 116.203 673.393 116.184C673.742 116.011 674.052 115.867 674.324 115.752C674.595 115.627 674.823 115.502 675.008 115.377C675.202 115.252 675.347 115.118 675.444 114.974C675.541 114.82 675.59 114.618 675.59 114.368C675.59 113.878 675.425 113.499 675.095 113.23C674.775 112.961 674.353 112.826 673.829 112.826C673.305 112.826 672.878 112.965 672.549 113.244C672.229 113.523 672.068 113.893 672.068 114.354Z" fill="black"/>
<path d="M691.337 114.08C691.337 114.704 691.192 115.315 690.901 115.91C690.619 116.496 690.222 117.078 689.708 117.654C689.203 118.221 688.592 118.783 687.874 119.341C687.166 119.898 686.39 120.45 685.546 120.998L684.761 119.946C685.585 119.437 686.318 118.932 686.958 118.433C687.608 117.923 688.156 117.424 688.602 116.934C689.058 116.434 689.402 115.944 689.635 115.464C689.877 114.974 689.999 114.483 689.999 113.993V112.408H684.964V111.255H691.337V114.08ZM695.382 110.606V123.679H694.073V110.606H695.382Z" fill="black"/>
<path d="M710.917 116.314V117.467H698.172V116.314H710.917ZM704.545 118.505C706.116 118.505 707.309 118.75 708.124 119.24C708.939 119.73 709.346 120.407 709.346 121.272C709.346 122.137 708.939 122.814 708.124 123.304C707.309 123.794 706.116 124.039 704.545 124.039C702.973 124.039 701.78 123.794 700.965 123.304C700.15 122.814 699.743 122.137 699.743 121.272C699.743 120.407 700.15 119.73 700.965 119.24C701.78 118.75 702.973 118.505 704.545 118.505ZM704.545 122.886C705.699 122.886 706.567 122.747 707.149 122.468C707.741 122.199 708.036 121.8 708.036 121.272C708.036 120.743 707.741 120.345 707.149 120.076C706.567 119.797 705.699 119.658 704.545 119.658C703.39 119.658 702.517 119.797 701.926 120.076C701.344 120.345 701.053 120.743 701.053 121.272C701.053 121.8 701.344 122.199 701.926 122.468C702.517 122.747 703.39 122.886 704.545 122.886ZM701.271 110.707V113.835H709.273V114.988H699.961V110.707H701.271Z" fill="black"/>
<path d="M842.678 8.51658C843.139 8.05834 843.72 7.72575 844.419 7.5188C845.118 7.31186 845.795 7.20838 846.45 7.20838C847.298 7.20838 848.079 7.34881 848.793 7.62967C849.522 7.89574 850.147 8.28007 850.668 8.78265C851.204 9.27045 851.62 9.86173 851.918 10.5565C852.215 11.2364 852.364 11.9829 852.364 12.7959C852.364 13.6089 852.2 14.3628 851.873 15.0576C851.546 15.7375 851.099 16.3288 850.534 16.8314C849.984 17.3192 849.329 17.7035 848.57 17.9844C847.826 18.2504 847.03 18.3835 846.182 18.3835C845.334 18.3835 844.531 18.243 843.772 17.9622C843.028 17.6813 842.373 17.2748 841.808 16.7427C841.257 16.2105 840.818 15.5675 840.491 14.8137C840.164 14.0598 840 13.2024 840 12.2416C840 10.9851 840.193 9.80999 840.58 8.71613C840.967 7.60749 841.495 6.59494 842.165 5.67846C842.834 4.7472 843.615 3.91203 844.508 3.17293C845.416 2.41906 846.383 1.76127 847.41 1.19955L848.414 2.86251C847.863 3.2025 847.283 3.58683 846.673 4.0155C846.063 4.44418 845.483 4.9098 844.932 5.41239C844.397 5.90019 843.921 6.41016 843.504 6.94231C843.102 7.47446 842.827 7.99921 842.678 8.51658ZM842.12 12.7959C842.12 13.3133 842.217 13.8011 842.41 14.2593C842.604 14.7028 842.879 15.0945 843.236 15.4345C843.593 15.7597 844.017 16.0184 844.508 16.2105C845.014 16.4027 845.572 16.4988 846.182 16.4988C846.777 16.4988 847.32 16.4027 847.811 16.2105C848.317 16.0184 848.749 15.7597 849.106 15.4345C849.463 15.0945 849.738 14.7028 849.931 14.2593C850.14 13.8011 850.244 13.3133 850.244 12.7959C850.244 12.2786 850.14 11.7982 849.931 11.3547C849.738 10.8965 849.463 10.5047 849.106 10.1795C848.749 9.83955 848.317 9.57348 847.811 9.38132C847.32 9.18915 846.777 9.09307 846.182 9.09307C845.572 9.09307 845.014 9.18915 844.508 9.38132C844.017 9.57348 843.593 9.83955 843.236 10.1795C842.879 10.5047 842.604 10.8965 842.41 11.3547C842.217 11.7982 842.12 12.2786 842.12 12.7959Z" fill="black"/>
<path d="M863.153 18.0509V14.4589H854.047V13.062L863.22 1.9756H865.139V12.7959H867.706V14.4589H865.139L865.161 18.0509H863.153ZM863.153 12.7959V5.03545L856.725 12.7959H863.153Z" fill="black"/>
<path d="M871.616 18.0509H869.496V1H871.505V8.13964C871.847 7.5188 872.36 7.03839 873.045 6.69841C873.744 6.35843 874.555 6.18843 875.477 6.18843C876.98 6.18843 878.156 6.58754 879.004 7.38576C879.867 8.1692 880.298 9.30741 880.298 10.8004V18.0509H878.178V11.2217C878.178 10.1574 877.895 9.36654 877.33 8.84917C876.779 8.33181 875.968 8.07312 874.897 8.07312C874.049 8.07312 873.327 8.28746 872.732 8.71613C872.152 9.14481 871.78 9.71391 871.616 10.4234V18.0509Z" fill="black"/>
<path d="M57 10.2721C57 4.59895 61.701 0 67.5 0H799.5C805.299 0 810 4.59895 810 10.2721V10.2721C810 15.9451 805.299 20.5441 799.5 20.5441H67.5C61.701 20.5441 57 15.9451 57 10.2721V10.2721Z" fill="white"/>
<path fill-rule="evenodd" clip-rule="evenodd" d="M799.5 0.978291H67.5C62.2533 0.978291 58 5.13925 58 10.2721C58 15.4049 62.2533 19.5658 67.5 19.5658H799.5C804.747 19.5658 809 15.4049 809 10.2721C809 5.13925 804.747 0.978291 799.5 0.978291ZM67.5 0C61.701 0 57 4.59895 57 10.2721C57 15.9452 61.701 20.5441 67.5 20.5441H799.5C805.299 20.5441 810 15.9452 810 10.2721C810 4.59895 805.299 0 799.5 0H67.5Z" fill="black"/>
<path d="M432 10.5C432 5.25329 436.253 1 441.5 1H799.5C804.747 1 809 5.25329 809 10.5V10.5C809 15.7467 804.747 20 799.5 20H441.5C436.253 20 432 15.7467 432 10.5V10.5Z" fill="#EE6363"/>
<path d="M175.895 10.2719C175.895 5.03523 180.132 0.790039 185.359 0.790039H493.189C498.416 0.790039 502.653 5.03523 502.653 10.2719V10.2719C502.653 15.5086 498.416 19.7538 493.189 19.7538H185.359C180.132 19.7538 175.895 15.5086 175.895 10.2719V10.2719Z" fill="#FF7B7B"/>
<path d="M72.3652 10.2719C72.3652 5.03523 76.6148 0.790039 81.8568 0.790039H181.768C187.01 0.790039 191.26 5.03523 191.26 10.2719V10.2719C191.26 15.5086 187.01 19.7538 181.768 19.7538H81.8568C76.6148 19.7538 72.3652 15.5086 72.3652 10.2719V10.2719Z" fill="#FFABAB"/>
<path d="M58.6172 10.2719C58.6172 5.03523 62.8218 0.790039 68.0083 0.790039H75.9167C81.1033 0.790039 85.3078 5.03523 85.3078 10.2719V10.2719C85.3078 15.5086 81.1033 19.7538 75.9167 19.7538H68.0083C62.8218 19.7538 58.6172 15.5086 58.6172 10.2719V10.2719Z" fill="#FFDEDE"/>
<path fill-rule="evenodd" clip-rule="evenodd" d="M73.1754 71.9042L73.1754 20.5439L74.793 20.5439L74.793 71.9042L73.1754 71.9042Z" fill="black"/>
<path fill-rule="evenodd" clip-rule="evenodd" d="M149.203 71.9042L149.203 20.5439L150.012 20.5439L150.012 71.9042L149.203 71.9042Z" fill="black"/>
<path fill-rule="evenodd" clip-rule="evenodd" d="M368 71.9042L368 20.5439L368.809 20.5439L368.809 71.9042L368 71.9042Z" fill="black"/>
<path fill-rule="evenodd" clip-rule="evenodd" d="M666.562 71.9042L666.562 20.5439L668.18 20.5439L668.18 71.9042L666.562 71.9042Z" fill="black"/>
</svg>
