<svg width="1454" height="641" viewBox="0 0 1454 641" fill="none" xmlns="http://www.w3.org/2000/svg">
<path fill-rule="evenodd" clip-rule="evenodd" d="M470.365 564.135L470.365 83.1348L471.365 83.1348L471.365 564.135L470.365 564.135Z" fill="#D0D0D0"/>
<path fill-rule="evenodd" clip-rule="evenodd" d="M527.365 92.1348L644.365 92.1348V93.1348L527.365 93.1348V92.1348Z" fill="#D0D0D0"/>
<path d="M391.365 67.1348H541.365V117.135H391.365V67.1348Z" fill="#FF5353"/>
<path d="M449.21 99.4847L455.26 88.2347V102.135H457.635L457.61 84.0097H455.135L448.46 96.2597L441.785 84.0097H439.31L439.285 102.135H441.66V88.2347L447.71 99.4847H449.21Z" fill="white"/>
<path d="M470.005 102.26H472.38V93.0597C472.38 89.8347 469.955 88.7597 466.78 88.7597C464.98 88.7597 462.73 89.4097 461.58 90.1097L462.305 92.1097C463.455 91.4097 465.23 90.8847 466.73 90.8847C468.855 90.8847 470.005 91.4847 470.005 93.6097V93.7597L466.405 93.9097C463.355 94.0597 460.755 95.3847 460.755 98.2347C460.755 100.935 462.505 102.51 465.63 102.51C467.605 102.51 469.18 101.81 470.005 100.835V102.26ZM465.88 100.41C464.205 100.41 463.13 99.6597 463.13 98.2347C463.13 96.7097 464.805 95.9347 466.705 95.8597L470.005 95.7347V98.7097C469.055 99.8347 467.23 100.41 465.88 100.41Z" fill="white"/>
<path d="M476.282 102.135H478.682V89.1347H476.282V102.135ZM476.007 85.8847H478.957V82.9097H476.007V85.8847Z" fill="white"/>
<path d="M484.965 102.135V93.5347C485.315 91.9597 486.74 90.8847 488.64 90.8847C491.015 90.8847 492.315 92.0597 492.315 94.4347V102.135H494.69V93.9597C494.69 90.6097 492.64 88.7597 489.29 88.7597C487.24 88.7597 485.615 89.5597 484.84 90.9597V89.1347H482.59V102.135H484.965Z" fill="white"/>
<path d="M986.44 67.735H976.84V74.5H980.965V77.65H975.07V78.85H988.21V77.65H982.315V74.5H986.44V67.735ZM978.19 68.935H985.09V73.3H978.19V68.935Z" fill="#444444"/>
<path d="M995.751 67.54V70.93H991.506V67.54H990.156V77.215H997.101V67.54H995.751ZM999.366 67V80.605H1000.72V72.775H1003.01V71.575H1000.72V67H999.366ZM991.506 76.015V72.13H995.751V76.015H991.506Z" fill="#444444"/>
<path d="M1014.56 73.975H1015.91V67H1014.56V73.975ZM1006.53 80.68H1016.13V79.48H1007.88V78.175H1015.91V74.65H1006.53V75.85H1014.56V76.975H1006.53V80.68ZM1006.26 70.3C1006.26 69.13 1007.22 68.35 1008.53 68.35C1009.83 68.35 1010.79 69.13 1010.79 70.3C1010.79 71.47 1009.83 72.25 1008.53 72.25C1007.22 72.25 1006.26 71.47 1006.26 70.3ZM1004.94 70.3C1004.94 72.175 1006.37 73.42 1008.53 73.42C1010.69 73.42 1012.11 72.175 1012.11 70.3C1012.11 68.425 1010.69 67.18 1008.53 67.18C1006.37 67.18 1004.94 68.425 1004.94 70.3Z" fill="#444444"/>
<path d="M1022.69 77.215H1026.44C1027.97 77.215 1029.13 77.14 1030.33 76.96L1030.21 75.805C1029.7 75.865 1029.16 75.925 1028.62 75.955V69.625H1027.28V76.015H1025.41V69.625H1024.07V76.015H1022.69V77.215ZM1029.46 72.88H1031.35V80.305H1032.67V67.075H1031.35V71.68H1029.46V72.88ZM1034.03 67V80.605H1035.35V67H1034.03ZM1029.95 67.675H1022.84V68.875H1029.95V67.675Z" fill="#444444"/>
<path d="M1047.92 67V80.605H1049.27V67H1047.92ZM1044.3 72.4C1044.3 74.8 1043.37 76.15 1041.75 76.15C1040.13 76.15 1039.2 74.8 1039.2 72.4C1039.2 70 1040.13 68.65 1041.75 68.65C1043.37 68.65 1044.3 70 1044.3 72.4ZM1045.65 72.4C1045.65 69.19 1044.14 67.45 1041.75 67.45C1039.37 67.45 1037.85 69.19 1037.85 72.4C1037.85 75.61 1039.37 77.35 1041.75 77.35C1044.14 77.35 1045.65 75.61 1045.65 72.4Z" fill="#444444"/>
<path d="M1060.14 67.675H1052.38V68.875H1055.71V71.005C1055.71 73.39 1053.82 75.31 1051.86 76.87L1052.73 77.815C1054.08 76.78 1055.88 74.95 1056.45 73.54C1056.97 74.725 1058.61 76.585 1059.96 77.59L1060.77 76.645C1058.98 75.22 1057.06 73.36 1057.06 71.005V68.875H1060.14V67.675ZM1062.39 67V80.605H1063.74V67H1062.39Z" fill="#444444"/>
<path d="M1077.12 67.675H1070.63V68.875H1073.33V71.155C1073.33 73.285 1071.84 75.34 1070.18 77.065L1071.15 77.89C1072.35 76.645 1073.49 75.01 1074.06 73.66C1074.65 74.965 1075.58 76.435 1076.75 77.665L1077.68 76.84C1076.19 75.25 1074.68 73.21 1074.68 71.155V68.875H1077.12V67.675ZM1076.13 72.88H1078.71V80.305H1080.03V67.075H1078.71V71.68H1076.13V72.88ZM1081.56 67V80.605H1082.88V67H1081.56Z" fill="#444444"/>
<path d="M1092.99 67.48H1085.58V68.68H1088.61V69.625C1088.61 71.155 1086.81 72.325 1085.1 73.48L1085.86 74.47C1087.21 73.615 1088.71 72.49 1089.3 71.41C1089.96 72.445 1091.4 73.555 1092.75 74.365L1093.47 73.375C1091.94 72.415 1089.96 71.14 1089.96 69.625V68.68H1092.99V67.48ZM1096.24 80.68V75.325H1086.97V76.525H1094.89V80.68H1096.24ZM1094.89 67V74.65H1096.24V71.26H1098.37V70.06H1096.24V67H1094.89Z" fill="#444444"/>
<path d="M975.115 95.875H976.885V94.09H975.115V95.875ZM975.115 100.81H976.885V99.025H975.115V100.81Z" fill="#444444"/>
<path d="M982.38 101.65V102.85H995.52V101.65H982.38ZM988.275 91.585V93.685C988.275 95.635 985.275 97.09 983.265 97.87L983.865 99.01C985.92 98.305 988.14 96.88 988.95 95.665C989.76 96.88 991.98 98.305 994.035 99.01L994.635 97.87C992.625 97.09 989.625 95.635 989.625 93.685V91.585H988.275Z" fill="#444444"/>
<path d="M998.201 96.76H1006.92C1006.86 97.825 1006.77 98.905 1006.66 99.91L1007.97 100C1008.16 98.2 1008.33 96.19 1008.33 94.345V91.735H998.426V92.935H1006.98V94.6C1006.98 94.915 1006.96 95.23 1006.96 95.56H998.201V96.76ZM996.926 101.65V102.85H1010.07V101.65H996.926Z" fill="#444444"/>
<path d="M1014.67 94.315H1022.77V91.105H1013.32V92.26H1021.42V93.205H1013.32V96.385H1017.37V97.375H1011.47V98.455H1024.61V97.375H1018.72V96.385H1022.99V95.23H1014.67V94.315ZM1013.24 101.32V104.68H1023.07V103.525H1014.59V102.46H1022.84V99.22H1013.24V100.375H1021.49V101.32H1013.24Z" fill="#444444"/>
<path d="M1037.28 104.98C1040.26 104.98 1042.02 104.05 1042.02 102.385C1042.02 100.72 1040.26 99.79 1037.28 99.79C1034.29 99.79 1032.54 100.72 1032.54 102.385C1032.54 103.975 1034.29 104.98 1037.28 104.98ZM1031.19 96.67C1031.19 98.08 1032.33 99.13 1034.46 99.13C1036.59 99.13 1037.73 98.08 1037.73 96.67C1037.73 95.26 1036.59 94.21 1034.46 94.21C1032.33 94.21 1031.19 95.26 1031.19 96.67ZM1038.18 95.515H1040.46V96.82H1038.18V97.99H1040.46V99.595H1041.81V91H1040.46V94.345H1038.18V95.515ZM1037.28 100.945C1039.33 100.945 1040.67 101.395 1040.67 102.385C1040.67 103.375 1039.33 103.825 1037.28 103.825C1035.22 103.825 1033.89 103.375 1033.89 102.385C1033.89 101.395 1035.22 100.945 1037.28 100.945ZM1038.24 92.32H1034.98V90.58H1033.63V92.32H1030.36V93.475H1038.24V92.32ZM1032.54 96.67C1032.54 95.86 1033.17 95.38 1034.46 95.38C1035.75 95.38 1036.38 95.86 1036.38 96.67C1036.38 97.48 1035.75 97.96 1034.46 97.96C1033.17 97.96 1032.54 97.48 1032.54 96.67Z" fill="#444444"/>
<path d="M1054.93 91V98.65H1056.28V91H1054.93ZM1056.28 104.68V99.325H1046.83V100.525H1054.93V104.68H1056.28ZM1048.39 91.255V93.025C1048.39 94.63 1046.63 96.145 1044.92 97.39L1045.76 98.335C1047.11 97.39 1048.49 96.1 1049.08 95.02C1049.74 96.025 1051.06 97.255 1052.41 98.155L1053.2 97.21C1051.67 96.175 1049.74 94.615 1049.74 93.025V91.255H1048.39Z" fill="#444444"/>
<path d="M1069.92 91V104.605H1071.27V91H1069.92ZM1063.92 91.45C1061.66 91.45 1060.04 93.07 1060.04 95.125C1060.04 97.18 1061.66 98.8 1063.92 98.8C1066.19 98.8 1067.81 97.18 1067.81 95.125C1067.81 93.07 1066.19 91.45 1063.92 91.45ZM1063.92 97.57C1062.36 97.57 1061.39 96.505 1061.39 95.125C1061.39 93.745 1062.36 92.68 1063.92 92.68C1065.48 92.68 1066.46 93.745 1066.46 95.125C1066.46 96.505 1065.48 97.57 1063.92 97.57ZM1059.39 100.99V102.19H1063.68C1065.63 102.19 1067.61 101.995 1068.96 101.68L1068.75 100.54C1067.48 100.825 1065.77 100.99 1064.19 100.99H1059.39Z" fill="#444444"/>
<path d="M1084.87 104.98C1087.85 104.98 1089.7 103.75 1089.7 101.935C1089.7 100.12 1087.85 98.89 1084.87 98.89C1081.88 98.89 1080.04 100.12 1080.04 101.935C1080.04 103.675 1081.88 104.98 1084.87 104.98ZM1085.75 91.48H1078.49V92.68H1081.45V93.865C1081.45 95.35 1079.72 96.625 1078.01 97.78L1078.78 98.77C1080.13 97.915 1081.55 96.685 1082.14 95.605C1082.8 96.64 1084.16 97.555 1085.51 98.365L1086.23 97.375C1084.7 96.415 1082.8 95.335 1082.8 93.865V92.68H1085.75V91.48ZM1084.87 100.09C1086.92 100.09 1088.35 100.795 1088.35 101.935C1088.35 103.075 1086.92 103.78 1084.87 103.78C1082.81 103.78 1081.39 103.075 1081.39 101.935C1081.39 100.795 1082.81 100.09 1084.87 100.09ZM1085.18 95.26H1088.14V98.695H1089.49V91H1088.14V94.06H1085.18V95.26Z" fill="#444444"/>
<path d="M1102.31 91.585V93.805H1095.41V91.585H1094.06V98.65H1098.18V101.65H1092.29V102.85H1105.43V101.65H1099.53V98.65H1103.66V91.585H1102.31ZM1095.41 97.45V95.005H1102.31V97.45H1095.41Z" fill="#444444"/>
<path d="M1113.17 104.68H1122.77V103.48H1114.52V102.1H1122.55V98.5H1113.17V99.7H1121.2V100.9H1113.17V104.68ZM1114.58 91.18V92.875C1114.58 94.435 1112.9 95.665 1111.19 96.865L1111.99 97.795C1113.34 96.895 1114.64 95.785 1115.27 94.75C1115.98 95.74 1117.22 96.76 1118.57 97.615L1119.32 96.685C1117.79 95.695 1115.93 94.42 1115.93 92.875V91.18H1114.58ZM1118.09 94.42H1121.2V97.825H1122.55V91H1121.2V93.22H1118.09V94.42Z" fill="#444444"/>
<path d="M1130.67 99.775H1133.57V104.305H1134.89V91.075H1133.57V93.925H1131.38V91.675H1125.9V92.875H1129.98V94.465C1129.98 96.46 1128.5 98.53 1125.59 100.81L1126.47 101.815C1129.13 99.685 1131 97.54 1131.32 95.125H1133.57V98.575H1130.67V99.775ZM1136.4 91V104.605H1137.72V91H1136.4Z" fill="#444444"/>
<path d="M391.365 181.135H541.365V231.135H391.365V181.135Z" fill="#FF7C7C"/>
<path d="M430.876 211.435V216.195H443.976V214.595H432.676V213.035H443.676V208.435H430.876V210.035H441.876V211.435H430.876ZM437.276 201.335C438.296 202.155 441.196 203.375 444.016 204.375L444.656 202.855C441.676 201.775 438.176 200.615 438.176 199.195V197.895H436.376V199.195C436.376 200.615 432.876 201.775 429.896 202.855L430.536 204.375C433.356 203.375 436.256 202.155 437.276 201.335ZM428.516 205.275V206.835H446.036V205.275H428.516Z" fill="white"/>
<path d="M453.41 211.955C455.39 211.955 457.19 211.915 459.21 211.655L459.05 210.115C457.25 210.335 455.59 210.355 453.69 210.355H450.63V206.035H457.69V198.775H448.83V200.375H455.89V204.435H448.83V211.955H453.41ZM460.91 197.955V216.095H462.71V205.655H465.77V204.055H462.71V197.955H460.91Z" fill="white"/>
<path d="M481.465 197.955V216.095H483.265V197.955H481.465ZM476.645 205.155C476.645 208.355 475.405 210.155 473.245 210.155C471.085 210.155 469.845 208.355 469.845 205.155C469.845 201.955 471.085 200.155 473.245 200.155C475.405 200.155 476.645 201.955 476.645 205.155ZM478.445 205.155C478.445 200.875 476.425 198.555 473.245 198.555C470.065 198.555 468.045 200.875 468.045 205.155C468.045 209.435 470.065 211.755 473.245 211.755C476.425 211.755 478.445 209.435 478.445 205.155Z" fill="white"/>
<path d="M489.059 208.075H502.059V206.475H490.859V200.535H501.859V198.935H489.059V208.075ZM486.699 212.155V213.755H504.219V212.155H486.699Z" fill="white"/>
<path d="M391.365 295.135H541.365V345.135H391.365V295.135Z" fill="#FF7C7C"/>
<path d="M407.75 312.055V318.195H405.01V312.855H397.35V325.575H405.01V319.795H407.75V329.695H409.51V312.055H407.75ZM399.15 314.455H403.21V323.975H399.15V314.455ZM411.57 311.955V330.095H413.33V311.955H411.57Z" fill="white"/>
<path d="M429.984 311.955V324.815H431.784V311.955H429.984ZM419.384 329.995H432.424V328.395H421.184V323.655H419.384V329.995ZM418.924 317.255C418.924 315.215 420.204 313.995 421.944 313.995C423.684 313.995 424.964 315.215 424.964 317.255C424.964 319.295 423.684 320.515 421.944 320.515C420.204 320.515 418.924 319.295 418.924 317.255ZM417.164 317.255C417.164 320.135 419.064 322.115 421.944 322.115C424.824 322.115 426.724 320.135 426.724 317.255C426.724 314.375 424.824 312.395 421.944 312.395C419.064 312.395 417.164 314.375 417.164 317.255Z" fill="white"/>
<path d="M448.729 316.295H443.589V314.155H449.329V312.595H441.829V321.775H445.169C447.349 321.775 448.689 321.675 450.249 321.455L450.089 319.915C448.489 320.135 447.229 320.215 445.329 320.215H443.589V317.815H448.729V316.295ZM457.109 330.195V323.655H444.269V325.255H455.309V330.195H457.109ZM449.529 317.835H451.869V322.755H453.569V312.055H451.869V316.235H449.529V317.835ZM455.369 311.955V322.755H457.109V311.955H455.369Z" fill="white"/>
<path d="M460.304 326.155V327.755H477.824V326.155H460.304ZM468.164 312.735V315.535C468.164 318.135 464.164 320.075 461.484 321.115L462.284 322.635C465.024 321.695 467.984 319.795 469.064 318.175C470.144 319.795 473.104 321.695 475.844 322.635L476.644 321.115C473.964 320.075 469.964 318.135 469.964 315.535V312.735H468.164Z" fill="white"/>
<path d="M479.698 326.155V327.755H497.218V326.155H479.698ZM494.358 317.075H483.858V314.415H494.858V312.815H482.058V323.175H495.158V321.575H483.858V318.675H494.358V317.075Z" fill="white"/>
<path d="M507.413 312.395V315.175H502.013V312.395H500.213V321.175H509.213V312.395H507.413ZM514.113 330.195V323.175H501.753V324.775H512.313V330.195H514.113ZM512.313 311.955V322.275H514.113V317.535H516.953V315.935H514.113V311.955H512.313ZM502.013 319.575V316.775H507.413V319.575H502.013Z" fill="white"/>
<path d="M518.487 326.155V327.755H536.007V326.155H518.487ZM526.347 312.735V315.535C526.347 318.135 522.347 320.075 519.667 321.115L520.467 322.635C523.207 321.695 526.167 319.795 527.247 318.175C528.327 319.795 531.287 321.695 534.027 322.635L534.827 321.115C532.147 320.075 528.147 318.135 528.147 315.535V312.735H526.347Z" fill="white"/>
<path d="M391.365 409.135H541.365V459.135H391.365V409.135Z" fill="#FF7C7C"/>
<path d="M407.75 426.055V432.195H405.01V426.855H397.35V439.575H405.01V433.795H407.75V443.695H409.51V426.055H407.75ZM399.15 428.455H403.21V437.975H399.15V428.455ZM411.57 425.955V444.095H413.33V425.955H411.57Z" fill="white"/>
<path d="M429.984 425.955V438.815H431.784V425.955H429.984ZM419.384 443.995H432.424V442.395H421.184V437.655H419.384V443.995ZM418.924 431.255C418.924 429.215 420.204 427.995 421.944 427.995C423.684 427.995 424.964 429.215 424.964 431.255C424.964 433.295 423.684 434.515 421.944 434.515C420.204 434.515 418.924 433.295 418.924 431.255ZM417.164 431.255C417.164 434.135 419.064 436.115 421.944 436.115C424.824 436.115 426.724 434.135 426.724 431.255C426.724 428.375 424.824 426.395 421.944 426.395C419.064 426.395 417.164 428.375 417.164 431.255Z" fill="white"/>
<path d="M455.069 425.955V444.095H456.869V425.955H455.069ZM450.249 433.155C450.249 436.355 449.009 438.155 446.849 438.155C444.689 438.155 443.449 436.355 443.449 433.155C443.449 429.955 444.689 428.155 446.849 428.155C449.009 428.155 450.249 429.955 450.249 433.155ZM452.049 433.155C452.049 428.875 450.029 426.555 446.849 426.555C443.669 426.555 441.649 428.875 441.649 433.155C441.649 437.435 443.669 439.755 446.849 439.755C450.029 439.755 452.049 437.435 452.049 433.155Z" fill="white"/>
<path d="M474.464 425.955V444.095H476.264V425.955H474.464ZM461.424 439.475H470.764V426.855H461.424V439.475ZM463.224 428.455H468.964V437.875H463.224V428.455Z" fill="white"/>
<path d="M490.758 426.855H480.418V428.455H484.858V431.295C484.858 434.475 482.338 437.035 479.718 439.115L480.878 440.375C482.678 438.995 485.078 436.555 485.838 434.675C486.538 436.255 488.718 438.735 490.518 440.075L491.598 438.815C489.218 436.915 486.658 434.435 486.658 431.295V428.455H490.758V426.855ZM493.758 425.955V444.095H495.558V425.955H493.758Z" fill="white"/>
<path d="M507.413 426.395V429.175H502.013V426.395H500.213V435.175H509.213V426.395H507.413ZM514.113 444.195V437.175H501.753V438.775H512.313V444.195H514.113ZM512.313 425.955V436.275H514.113V431.535H516.953V429.935H514.113V425.955H512.313ZM502.013 433.575V430.775H507.413V433.575H502.013Z" fill="white"/>
<path d="M518.487 440.155V441.755H536.007V440.155H518.487ZM526.347 426.735V429.535C526.347 432.135 522.347 434.075 519.667 435.115L520.467 436.635C523.207 435.695 526.167 433.795 527.247 432.175C528.327 433.795 531.287 435.695 534.027 436.635L534.827 435.115C532.147 434.075 528.147 432.135 528.147 429.535V426.735H526.347Z" fill="white"/>
<path d="M391.365 523.135H541.365V573.135H391.365V523.135Z" fill="#FF7C7C"/>
<path d="M448.41 550.555V552.155H456.27V558.095H458.07V552.155H465.93V550.555H448.41ZM464.31 546.855H461.65V542.935H459.85V546.855H454.49V542.935H452.69V546.855H450.03V548.455H464.31V546.855ZM464.41 540.535H449.93V542.135H464.41V540.535Z" fill="white"/>
<path d="M477.265 546.435H470.805V542.375H477.985V540.775H469.005V553.955H473.385C475.365 553.955 477.165 553.915 479.185 553.655L479.025 552.115C477.225 552.335 475.565 552.355 473.665 552.355H470.805V548.035H477.265V546.435ZM478.265 548.055H481.765V558.095H483.565V539.955H481.765V546.455H478.265V548.055Z" fill="white"/>
<path d="M640.365 67.1348H790.365V117.135H640.365V67.1348Z" fill="#FFABAB"/>
<path d="M685.877 84.6746V89.1946H680.337V84.6746H678.537V97.5746H687.677V91.7146H691.577V102.095H693.377V83.9546H691.577V90.1146H687.677V84.6746H685.877ZM680.337 95.9746V90.7946H685.877V95.9746H680.337Z" fill="white"/>
<path d="M710.672 83.9546V90.6546H706.192C706.372 90.0546 706.492 89.4146 706.492 88.7746V84.8546H698.052V86.4546H704.652V88.6546C704.652 91.3546 702.292 94.0746 697.772 96.9146L698.852 98.3746C701.892 96.3946 704.212 94.3746 705.472 92.2546H710.672V102.095H712.472V83.9546H710.672Z" fill="white"/>
<path d="M727.326 84.0546V90.1946H724.586V84.8546H716.926V97.5746H724.586V91.7946H727.326V101.695H729.086V84.0546H727.326ZM718.726 86.4546H722.786V95.9746H718.726V86.4546ZM731.146 83.9546V102.095H732.906V83.9546H731.146Z" fill="white"/>
<path d="M735.701 94.1546V95.7546H740.041V102.095H741.841V95.7546H747.081V102.095H748.881V95.7546H753.221V94.1546H735.701ZM738.061 91.7546H751.261V90.1546H739.861V84.3346H738.061V91.7546Z" fill="white"/>
<path fill-rule="evenodd" clip-rule="evenodd" d="M949.537 72.5991L952.719 75.7811C952.914 75.9763 952.914 76.2929 952.719 76.4882L949.537 79.6702C949.342 79.8654 949.025 79.8654 948.83 79.6702C948.634 79.4749 948.634 79.1583 948.83 78.963L951.158 76.6346L917.365 76.6346L917.365 75.6346L951.158 75.6346L948.83 73.3062C948.634 73.1109 948.634 72.7943 948.83 72.5991C949.025 72.4038 949.342 72.4038 949.537 72.5991Z" fill="#464646"/>
<path fill-rule="evenodd" clip-rule="evenodd" d="M330.436 542.478L324.072 548.842C323.681 549.232 323.048 549.232 322.657 548.842L316.293 542.478C315.903 542.087 315.903 541.454 316.293 541.064C316.684 540.673 317.317 540.673 317.708 541.064L322.365 545.721L322.365 92.1348L324.365 92.1348L324.365 545.721L329.021 541.064C329.412 540.673 330.045 540.673 330.436 541.064C330.826 541.454 330.826 542.087 330.436 542.478Z" fill="#D0D0D0"/>
</svg>
