<svg width="887" height="190" viewBox="0 0 887 190" fill="none" xmlns="http://www.w3.org/2000/svg">
<path d="M1.38 20.651C1.38 26.999 4.232 29.345 8.119 29.345C12.006 29.345 14.835 26.999 14.835 20.651C14.835 14.303 12.006 11.98 8.119 11.98C4.232 11.98 1.38 14.303 1.38 20.651ZM3.565 20.651C3.565 15.798 5.543 13.935 8.119 13.935C10.695 13.935 12.65 15.798 12.65 20.651C12.65 25.504 10.695 27.39 8.119 27.39C5.543 27.39 3.565 25.504 3.565 20.651ZM19.8968 21.088C20.2188 19.639 21.5298 18.65 23.2778 18.65C25.4628 18.65 26.6588 19.731 26.6588 21.916V29H28.8438V21.479C28.8438 18.397 26.9578 16.695 23.8758 16.695C21.9898 16.695 20.4948 17.431 19.7818 18.719V11.313H17.7118V29H19.8968V21.088Z" fill="black"/>
<path d="M105.365 103.225C104.635 103.225 103.945 103.1 103.295 102.85C102.655 102.59 102.115 102.235 101.675 101.785L102.575 100.825C102.875 101.125 103.27 101.39 103.76 101.62C104.25 101.84 104.79 101.95 105.38 101.95C106.23 101.95 106.905 101.73 107.405 101.29C107.905 100.84 108.155 100.22 108.155 99.43C108.155 98.64 107.905 98.03 107.405 97.6C106.905 97.16 106.23 96.94 105.38 96.94C104.92 96.94 104.475 97.04 104.045 97.24C103.625 97.43 103.305 97.7 103.085 98.05H102.155V92.14H108.905L108.89 93.415H103.58V96.28C103.78 96.11 104.07 95.965 104.45 95.845C104.83 95.725 105.22 95.665 105.62 95.665C106.21 95.665 106.745 95.76 107.225 95.95C107.715 96.13 108.135 96.39 108.485 96.73C108.835 97.06 109.105 97.455 109.295 97.915C109.485 98.375 109.58 98.88 109.58 99.43C109.58 99.98 109.48 100.49 109.28 100.96C109.09 101.42 108.81 101.82 108.44 102.16C108.08 102.49 107.64 102.75 107.12 102.94C106.6 103.13 106.015 103.225 105.365 103.225ZM112.731 103H111.306V91.465H112.656V96.295C112.886 95.875 113.231 95.55 113.691 95.32C114.161 95.09 114.706 94.975 115.326 94.975C116.336 94.975 117.126 95.245 117.696 95.785C118.276 96.315 118.566 97.085 118.566 98.095V103H117.141V98.38C117.141 97.66 116.951 97.125 116.571 96.775C116.201 96.425 115.656 96.25 114.936 96.25C114.366 96.25 113.881 96.395 113.481 96.685C113.091 96.975 112.841 97.36 112.731 97.84V103Z" fill="black"/>
<path d="M104.205 122.54H97.635V123.74H102.825V125.39C102.825 127.415 100.815 129.455 97.425 131.585L98.235 132.68C101.73 130.4 104.205 128.075 104.205 125.48V122.54ZM107.025 121.865V135.47H108.375V121.865H107.025ZM112.466 126.335C112.466 127.52 113.591 128.21 115.451 128.33V129.425H111.566V130.535H115.841C117.791 130.535 119.696 130.385 121.106 130.085L120.926 129.05C119.726 129.29 118.241 129.41 116.801 129.425V128.33C118.601 128.18 119.696 127.49 119.696 126.335C119.696 125.03 118.316 124.325 116.081 124.325C113.846 124.325 112.466 125.03 112.466 126.335ZM123.221 135.545V131.69H113.501V132.845H121.871V135.545H123.221ZM121.871 121.865V131.015H123.221V121.865H121.871ZM120.236 122.69H116.756V121.325H115.406V122.69H111.926V123.8H120.236V122.69ZM113.786 126.335C113.786 125.78 114.521 125.435 116.081 125.435C117.641 125.435 118.376 125.78 118.376 126.335C118.376 126.89 117.641 127.235 116.081 127.235C114.521 127.235 113.786 126.89 113.786 126.335Z" fill="black"/>
<path d="M207.635 92.125V103H206.285V93.79L203.975 95.665L203.15 94.69L206.405 92.125H207.635ZM209.584 97.555C209.584 96.525 209.694 95.65 209.914 94.93C210.134 94.21 210.439 93.625 210.829 93.175C211.219 92.725 211.684 92.4 212.224 92.2C212.764 92 213.349 91.9 213.979 91.9C214.609 91.9 215.189 92 215.719 92.2C216.259 92.4 216.724 92.725 217.114 93.175C217.504 93.625 217.809 94.21 218.029 94.93C218.249 95.65 218.359 96.525 218.359 97.555C218.359 98.595 218.249 99.475 218.029 100.195C217.809 100.915 217.504 101.5 217.114 101.95C216.724 102.4 216.259 102.725 215.719 102.925C215.189 103.125 214.609 103.225 213.979 103.225C213.349 103.225 212.764 103.125 212.224 102.925C211.684 102.725 211.219 102.4 210.829 101.95C210.439 101.5 210.134 100.915 209.914 100.195C209.694 99.475 209.584 98.595 209.584 97.555ZM211.009 97.555C211.009 98.345 211.084 99.02 211.234 99.58C211.384 100.13 211.594 100.585 211.864 100.945C212.134 101.295 212.449 101.55 212.809 101.71C213.169 101.87 213.559 101.95 213.979 101.95C214.399 101.95 214.789 101.87 215.149 101.71C215.509 101.55 215.819 101.295 216.079 100.945C216.349 100.585 216.559 100.13 216.709 99.58C216.859 99.02 216.934 98.345 216.934 97.555C216.934 96.765 216.859 96.095 216.709 95.545C216.559 94.985 216.349 94.53 216.079 94.18C215.819 93.83 215.509 93.575 215.149 93.415C214.789 93.255 214.399 93.175 213.979 93.175C213.559 93.175 213.169 93.255 212.809 93.415C212.449 93.575 212.134 93.83 211.864 94.18C211.594 94.53 211.384 94.985 211.234 95.545C211.084 96.095 211.009 96.765 211.009 97.555ZM221.66 103H220.235V91.465H221.585V96.295C221.815 95.875 222.16 95.55 222.62 95.32C223.09 95.09 223.635 94.975 224.255 94.975C225.265 94.975 226.055 95.245 226.625 95.785C227.205 96.315 227.495 97.085 227.495 98.095V103H226.07V98.38C226.07 97.66 225.88 97.125 225.5 96.775C225.13 96.425 224.585 96.25 223.865 96.25C223.295 96.25 222.81 96.395 222.41 96.685C222.02 96.975 221.77 97.36 221.66 97.84V103Z" fill="black"/>
<path d="M181.64 132.365C183.125 132.365 184.475 132.335 185.99 132.14L185.87 130.985C184.52 131.15 183.275 131.165 181.85 131.165H179.105V127.925H184.4V122.48H177.755V123.68H183.05V126.725H177.755V132.365H181.64ZM187.175 121.865V135.47H188.525V121.865H187.175ZM197.146 122.45V124.505C197.146 126.455 194.146 127.865 192.136 128.645L192.736 129.785C194.791 129.08 197.011 127.7 197.821 126.485C198.631 127.7 200.851 129.08 202.906 129.785L203.506 128.645C201.496 127.865 198.496 126.455 198.496 124.505V122.45H197.146ZM191.251 132.515V133.715H204.391V132.515H198.496V129.305H197.146V132.515H191.251ZM205.797 132.515V133.715H218.937V132.515H205.797ZM211.692 122.45V124.55C211.692 126.5 208.692 127.955 206.682 128.735L207.282 129.875C209.337 129.17 211.557 127.745 212.367 126.53C213.177 127.745 215.397 129.17 217.452 129.875L218.052 128.735C216.042 127.955 213.042 126.5 213.042 124.55V122.45H211.692ZM220.343 129.665V130.865H226.238V135.47H227.588V130.865H233.483V129.665H220.343ZM226.913 125.495C227.738 126.515 229.898 127.85 232.013 128.675L232.598 127.52C229.913 126.425 227.588 125.075 227.588 123.515V122.075H226.238V123.515C226.238 125.075 223.913 126.425 221.228 127.52L221.813 128.675C223.928 127.85 226.088 126.515 226.913 125.495ZM245.284 129.74V131.435H238.609V129.74H237.259V135.47H246.634V129.74H245.284ZM243.139 122.345H235.639V123.545H238.714V124.295C238.714 125.825 236.869 126.92 235.159 128.045L235.924 129.035C237.274 128.21 238.819 127.1 239.404 126.05C240.064 127.055 241.549 128.15 242.899 128.93L243.619 127.94C242.089 127.01 240.064 125.81 240.064 124.295V123.545H243.139V122.345ZM238.609 134.27V132.635H245.284V134.27H238.609ZM245.284 121.865V129.065H246.634V121.865H245.284Z" fill="black"/>
<path d="M284.365 103.225C283.635 103.225 282.945 103.1 282.295 102.85C281.655 102.59 281.115 102.235 280.675 101.785L281.575 100.825C281.875 101.125 282.27 101.39 282.76 101.62C283.25 101.84 283.79 101.95 284.38 101.95C285.23 101.95 285.905 101.73 286.405 101.29C286.905 100.84 287.155 100.22 287.155 99.43C287.155 98.64 286.905 98.03 286.405 97.6C285.905 97.16 285.23 96.94 284.38 96.94C283.92 96.94 283.475 97.04 283.045 97.24C282.625 97.43 282.305 97.7 282.085 98.05H281.155V92.14H287.905L287.89 93.415H282.58V96.28C282.78 96.11 283.07 95.965 283.45 95.845C283.83 95.725 284.22 95.665 284.62 95.665C285.21 95.665 285.745 95.76 286.225 95.95C286.715 96.13 287.135 96.39 287.485 96.73C287.835 97.06 288.105 97.455 288.295 97.915C288.485 98.375 288.58 98.88 288.58 99.43C288.58 99.98 288.48 100.49 288.28 100.96C288.09 101.42 287.81 101.82 287.44 102.16C287.08 102.49 286.64 102.75 286.12 102.94C285.6 103.13 285.015 103.225 284.365 103.225ZM291.731 103H290.306V91.465H291.656V96.295C291.886 95.875 292.231 95.55 292.691 95.32C293.161 95.09 293.706 94.975 294.326 94.975C295.336 94.975 296.126 95.245 296.696 95.785C297.276 96.315 297.566 97.085 297.566 98.095V103H296.141V98.38C296.141 97.66 295.951 97.125 295.571 96.775C295.201 96.425 294.656 96.25 293.936 96.25C293.366 96.25 292.881 96.395 292.481 96.685C292.091 96.975 291.841 97.36 291.731 97.84V103Z" fill="black"/>
<path d="M278.6 128.465H276.605V124.475H275.255V128.465H271.295V124.475H269.945V128.465H267.95V129.665H272.6V132.515H266.705V133.715H279.845V132.515H273.95V129.665H278.6V128.465ZM278.675 122.6H267.875V123.8H278.675V122.6ZM292.246 125.66H284.371V123.71H292.621V122.51H283.021V130.19H287.146V132.515H281.251V133.715H294.391V132.515H288.496V130.19H292.846V128.99H284.371V126.86H292.246V125.66ZM305.712 129.74V131.435H299.217V129.74H297.867V135.47H307.062V129.74H305.712ZM299.322 122.12V123.74C299.322 125.345 297.597 126.77 295.887 128.015L296.727 128.96C298.077 128.015 299.427 126.815 300.012 125.735C300.672 126.74 301.962 127.88 303.312 128.78L304.107 127.835C302.577 126.8 300.672 125.33 300.672 123.74V122.12H299.322ZM305.712 121.865V129.065H307.062V127.13H309.192V125.93H307.062V124.415H309.192V123.215H307.062V121.865H305.712ZM299.217 134.27V132.635H305.712V134.27H299.217ZM277.1 152.84H278.45V145.865H277.1V152.84ZM269.075 159.545H278.675V158.345H270.425V157.04H278.45V153.515H269.075V154.715H277.1V155.84H269.075V159.545ZM268.805 149.165C268.805 147.995 269.765 147.215 271.07 147.215C272.375 147.215 273.335 147.995 273.335 149.165C273.335 150.335 272.375 151.115 271.07 151.115C269.765 151.115 268.805 150.335 268.805 149.165ZM267.485 149.165C267.485 151.04 268.91 152.285 271.07 152.285C273.23 152.285 274.655 151.04 274.655 149.165C274.655 147.29 273.23 146.045 271.07 146.045C268.91 146.045 267.485 147.29 267.485 149.165ZM285.436 156.365C286.921 156.365 288.271 156.335 289.786 156.14L289.666 154.985C288.316 155.15 287.071 155.165 285.646 155.165H283.501V151.925H288.346V146.48H282.151V147.68H286.996V150.725H282.151V156.365H285.436ZM289.096 151.94H291.721V159.47H293.071V145.865H291.721V150.74H289.096V151.94ZM295.797 156.515V157.715H308.937V156.515H295.797ZM301.692 146.45V148.55C301.692 150.5 298.692 151.955 296.682 152.735L297.282 153.875C299.337 153.17 301.557 151.745 302.367 150.53C303.177 151.745 305.397 153.17 307.452 153.875L308.052 152.735C306.042 151.955 303.042 150.5 303.042 148.55V146.45H301.692ZM310.343 156.515V157.715H323.483V156.515H310.343ZM321.338 149.705H313.463V147.71H321.713V146.51H312.113V154.28H321.938V153.08H313.463V150.905H321.338V149.705ZM274.715 170.345H267.305V171.545H270.335V172.49C270.335 174.02 268.535 175.19 266.825 176.345L267.59 177.335C268.94 176.48 270.44 175.355 271.025 174.275C271.685 175.31 273.125 176.42 274.475 177.23L275.195 176.24C273.665 175.28 271.685 174.005 271.685 172.49V171.545H274.715V170.345ZM277.97 183.545V178.19H268.7V179.39H276.62V183.545H277.97ZM276.62 169.865V177.515H277.97V174.125H280.1V172.925H277.97V169.865H276.62ZM281.881 173.405C281.881 175.355 283.261 176.69 285.421 176.69C287.341 176.69 288.646 175.625 288.916 174.02H291.646V177.065H292.996V169.865H291.646V172.82H288.916C288.661 171.2 287.356 170.12 285.421 170.12C283.261 170.12 281.881 171.455 281.881 173.405ZM291.646 177.74V179.435H284.971V177.74H283.621V183.47H292.996V177.74H291.646ZM283.201 173.405C283.201 172.1 284.116 171.32 285.421 171.32C286.726 171.32 287.641 172.1 287.641 173.405C287.641 174.71 286.726 175.49 285.421 175.49C284.116 175.49 283.201 174.71 283.201 173.405ZM284.971 182.27V180.635H291.646V182.27H284.971Z" fill="black"/>
<path d="M394.6 97.51C395.04 96.62 395.59 95.965 396.25 95.545C396.91 95.115 397.74 94.9 398.74 94.9C399.32 94.9 399.845 94.985 400.315 95.155C400.785 95.325 401.18 95.56 401.5 95.86C401.82 96.15 402.065 96.5 402.235 96.91C402.415 97.31 402.505 97.75 402.505 98.23C402.505 98.71 402.4 99.17 402.19 99.61C401.98 100.05 401.72 100.46 401.41 100.84C401.1 101.22 400.77 101.57 400.42 101.89C400.08 102.2 399.775 102.475 399.505 102.715L397.225 104.725H402.91V106H394.78V105.055L398.26 102.04C398.58 101.77 398.905 101.49 399.235 101.2C399.575 100.9 399.88 100.595 400.15 100.285C400.42 99.965 400.64 99.635 400.81 99.295C400.99 98.955 401.08 98.6 401.08 98.23C401.08 97.91 401.015 97.625 400.885 97.375C400.755 97.115 400.575 96.9 400.345 96.73C400.125 96.55 399.86 96.415 399.55 96.325C399.25 96.225 398.93 96.175 398.59 96.175C397.89 96.175 397.325 96.35 396.895 96.7C396.465 97.04 396.105 97.505 395.815 98.095L394.6 97.51ZM404.553 100.555C404.553 99.525 404.663 98.65 404.883 97.93C405.103 97.21 405.408 96.625 405.798 96.175C406.188 95.725 406.653 95.4 407.193 95.2C407.733 95 408.318 94.9 408.948 94.9C409.578 94.9 410.158 95 410.688 95.2C411.228 95.4 411.693 95.725 412.083 96.175C412.473 96.625 412.778 97.21 412.998 97.93C413.218 98.65 413.328 99.525 413.328 100.555C413.328 101.595 413.218 102.475 412.998 103.195C412.778 103.915 412.473 104.5 412.083 104.95C411.693 105.4 411.228 105.725 410.688 105.925C410.158 106.125 409.578 106.225 408.948 106.225C408.318 106.225 407.733 106.125 407.193 105.925C406.653 105.725 406.188 105.4 405.798 104.95C405.408 104.5 405.103 103.915 404.883 103.195C404.663 102.475 404.553 101.595 404.553 100.555ZM405.978 100.555C405.978 101.345 406.053 102.02 406.203 102.58C406.353 103.13 406.563 103.585 406.833 103.945C407.103 104.295 407.418 104.55 407.778 104.71C408.138 104.87 408.528 104.95 408.948 104.95C409.368 104.95 409.758 104.87 410.118 104.71C410.478 104.55 410.788 104.295 411.048 103.945C411.318 103.585 411.528 103.13 411.678 102.58C411.828 102.02 411.903 101.345 411.903 100.555C411.903 99.765 411.828 99.095 411.678 98.545C411.528 97.985 411.318 97.53 411.048 97.18C410.788 96.83 410.478 96.575 410.118 96.415C409.758 96.255 409.368 96.175 408.948 96.175C408.528 96.175 408.138 96.255 407.778 96.415C407.418 96.575 407.103 96.83 406.833 97.18C406.563 97.53 406.353 97.985 406.203 98.545C406.053 99.095 405.978 99.765 405.978 100.555ZM416.629 106H415.204V94.465H416.554V99.295C416.784 98.875 417.129 98.55 417.589 98.32C418.059 98.09 418.604 97.975 419.224 97.975C420.234 97.975 421.024 98.245 421.594 98.785C422.174 99.315 422.464 100.085 422.464 101.095V106H421.039V101.38C421.039 100.66 420.849 100.125 420.469 99.775C420.099 99.425 419.554 99.25 418.834 99.25C418.264 99.25 417.779 99.395 417.379 99.685C416.989 99.975 416.739 100.36 416.629 100.84V106Z" fill="black"/>
<path d="M377.825 134.005H382.73C384.215 134.005 385.88 133.93 387.335 133.705L387.215 132.55C386.54 132.655 385.835 132.73 385.115 132.76V126.49H383.765V132.805H380.99V126.49H379.64V132.805H377.825V134.005ZM388.325 123.865V137.47H389.675V123.865H388.325ZM386.795 124.54H377.975V125.74H386.795V124.54ZM393.796 125.8H402.196V127.12C402.196 128.785 402.091 130.57 401.806 132.355L403.111 132.475C403.381 130.645 403.546 128.71 403.546 126.865V124.6H393.796V125.8ZM392.251 134.515V135.715H405.391V134.515H392.251ZM407.337 134.005H414.282V124.54H407.337V134.005ZM408.687 125.74H412.932V132.805H408.687V125.74ZM416.547 123.865V137.47H417.897V129.64H420.192V128.44H417.897V123.865H416.547ZM377.75 152.74H379.52V150.955H377.75V152.74ZM377.75 157.675H379.52V155.89H377.75V157.675ZM385.03 158.08V159.28H389.095C391.045 159.28 393.025 159.085 394.375 158.77L394.165 157.63C393.01 157.885 391.495 158.05 390.055 158.08V155.47C391.885 155.17 393.115 153.745 393.115 151.915C393.115 149.86 391.555 148.315 389.335 148.315C387.115 148.315 385.555 149.86 385.555 151.915C385.555 153.775 386.815 155.215 388.705 155.47V158.08H385.03ZM395.11 147.865V161.47H396.46V153.94H398.485V152.74H396.46V147.865H395.11ZM389.335 154.285C387.82 154.285 386.905 153.295 386.905 151.915C386.905 150.535 387.82 149.545 389.335 149.545C390.85 149.545 391.765 150.535 391.765 151.915C391.765 153.295 390.85 154.285 389.335 154.285ZM410.18 147.865V161.47H411.53V147.865H410.18ZM406.565 153.265C406.565 155.665 405.635 157.015 404.015 157.015C402.395 157.015 401.465 155.665 401.465 153.265C401.465 150.865 402.395 149.515 404.015 149.515C405.635 149.515 406.565 150.865 406.565 153.265ZM407.915 153.265C407.915 150.055 406.4 148.315 404.015 148.315C401.63 148.315 400.115 150.055 400.115 153.265C400.115 156.475 401.63 158.215 404.015 158.215C406.4 158.215 407.915 156.475 407.915 153.265ZM424.651 147.865V152.635H422.101C421.921 149.83 420.526 148.315 418.351 148.315C416.011 148.315 414.586 150.055 414.586 153.265C414.586 156.475 416.011 158.215 418.351 158.215C420.541 158.215 421.936 156.685 422.101 153.835H424.651V161.47H426.001V147.865H424.651ZM420.766 153.265C420.766 155.665 419.926 157.015 418.351 157.015C416.776 157.015 415.936 155.665 415.936 153.265C415.936 150.865 416.776 149.515 418.351 149.515C419.926 149.515 420.766 150.865 420.766 153.265ZM440.547 154.555H438.552V150.475H437.202V154.555H433.242V150.475H431.892V154.555H429.897V155.755H440.547V154.555ZM428.652 158.515V159.715H441.792V158.515H428.652ZM440.622 148.6H429.822V149.8H440.622V148.6ZM446.288 158.275C447.773 158.275 448.988 158.245 450.203 158.05L450.083 156.895C448.973 157.06 447.773 157.075 446.498 157.075H445.088V153.88H449.033V148.48H443.738V149.68H447.683V152.68H443.738V158.275H446.288ZM449.483 153.88H451.508V161.17H452.828V147.94H451.508V152.68H449.483V153.88ZM454.328 147.865V161.47H455.648V147.865H454.328ZM468.139 147.865V155.365H469.489V147.865H468.139ZM460.114 161.47H469.489V156.04H460.114V161.47ZM468.139 157.24V160.27H461.464V157.24H468.139ZM459.844 151.465C459.844 150.16 460.804 149.32 462.109 149.32C463.414 149.32 464.374 150.16 464.374 151.465C464.374 152.77 463.414 153.61 462.109 153.61C460.804 153.61 459.844 152.77 459.844 151.465ZM458.524 151.465C458.524 153.415 459.949 154.81 462.109 154.81C464.269 154.81 465.694 153.415 465.694 151.465C465.694 149.515 464.269 148.12 462.109 148.12C459.949 148.12 458.524 149.515 458.524 151.465ZM386.555 180.475C385.205 180.64 383.705 180.73 382.28 180.73H380.075V173.74H385.49V172.54H378.725V181.93H382.07C383.555 181.93 385.22 181.81 386.675 181.63L386.555 180.475ZM388.1 171.865V185.47H389.45V171.865H388.1ZM400.186 172.54H392.491V173.74H395.791V175.87C395.791 178.255 393.931 180.175 391.966 181.735L392.836 182.68C394.186 181.645 395.956 179.815 396.526 178.405C397.051 179.59 398.656 181.45 400.006 182.455L400.816 181.51C399.031 180.085 397.141 178.225 397.141 175.87V173.74H400.186V172.54ZM401.851 171.865V185.47H403.201V177.64H405.646V176.44H403.201V171.865H401.851ZM417.192 171.865V181.51H418.542V171.865H417.192ZM409.242 185.395H419.022V184.195H410.592V180.64H409.242V185.395ZM408.897 175.84C408.897 174.31 409.857 173.395 411.162 173.395C412.467 173.395 413.427 174.31 413.427 175.84C413.427 177.37 412.467 178.285 411.162 178.285C409.857 178.285 408.897 177.37 408.897 175.84ZM407.577 175.84C407.577 178 409.002 179.485 411.162 179.485C413.322 179.485 414.747 178 414.747 175.84C414.747 173.68 413.322 172.195 411.162 172.195C409.002 172.195 407.577 173.68 407.577 175.84ZM429.353 172.345H421.943V173.545H424.973V174.49C424.973 176.02 423.173 177.19 421.463 178.345L422.228 179.335C423.578 178.48 425.078 177.355 425.663 176.275C426.323 177.31 427.763 178.42 429.113 179.23L429.833 178.24C428.303 177.28 426.323 176.005 426.323 174.49V173.545H429.353V172.345ZM432.608 185.545V180.19H423.338V181.39H431.258V185.545H432.608ZM431.258 171.865V179.515H432.608V176.125H434.738V174.925H432.608V171.865H431.258ZM436.519 175.405C436.519 177.355 437.899 178.69 440.059 178.69C441.979 178.69 443.284 177.625 443.554 176.02H446.284V179.065H447.634V171.865H446.284V174.82H443.554C443.299 173.2 441.994 172.12 440.059 172.12C437.899 172.12 436.519 173.455 436.519 175.405ZM446.284 179.74V181.435H439.609V179.74H438.259V185.47H447.634V179.74H446.284ZM437.839 175.405C437.839 174.1 438.754 173.32 440.059 173.32C441.364 173.32 442.279 174.1 442.279 175.405C442.279 176.71 441.364 177.49 440.059 177.49C438.754 177.49 437.839 176.71 437.839 175.405ZM439.609 184.27V182.635H446.284V184.27H439.609Z" fill="black"/>
<path d="M566.365 103.225C565.635 103.225 564.945 103.1 564.295 102.85C563.655 102.59 563.115 102.235 562.675 101.785L563.575 100.825C563.875 101.125 564.27 101.39 564.76 101.62C565.25 101.84 565.79 101.95 566.38 101.95C567.23 101.95 567.905 101.73 568.405 101.29C568.905 100.84 569.155 100.22 569.155 99.43C569.155 98.64 568.905 98.03 568.405 97.6C567.905 97.16 567.23 96.94 566.38 96.94C565.92 96.94 565.475 97.04 565.045 97.24C564.625 97.43 564.305 97.7 564.085 98.05H563.155V92.14H569.905L569.89 93.415H564.58V96.28C564.78 96.11 565.07 95.965 565.45 95.845C565.83 95.725 566.22 95.665 566.62 95.665C567.21 95.665 567.745 95.76 568.225 95.95C568.715 96.13 569.135 96.39 569.485 96.73C569.835 97.06 570.105 97.455 570.295 97.915C570.485 98.375 570.58 98.88 570.58 99.43C570.58 99.98 570.48 100.49 570.28 100.96C570.09 101.42 569.81 101.82 569.44 102.16C569.08 102.49 568.64 102.75 568.12 102.94C567.6 103.13 567.015 103.225 566.365 103.225ZM572.231 97.555C572.231 96.525 572.341 95.65 572.561 94.93C572.781 94.21 573.086 93.625 573.476 93.175C573.866 92.725 574.331 92.4 574.871 92.2C575.411 92 575.996 91.9 576.626 91.9C577.256 91.9 577.836 92 578.366 92.2C578.906 92.4 579.371 92.725 579.761 93.175C580.151 93.625 580.456 94.21 580.676 94.93C580.896 95.65 581.006 96.525 581.006 97.555C581.006 98.595 580.896 99.475 580.676 100.195C580.456 100.915 580.151 101.5 579.761 101.95C579.371 102.4 578.906 102.725 578.366 102.925C577.836 103.125 577.256 103.225 576.626 103.225C575.996 103.225 575.411 103.125 574.871 102.925C574.331 102.725 573.866 102.4 573.476 101.95C573.086 101.5 572.781 100.915 572.561 100.195C572.341 99.475 572.231 98.595 572.231 97.555ZM573.656 97.555C573.656 98.345 573.731 99.02 573.881 99.58C574.031 100.13 574.241 100.585 574.511 100.945C574.781 101.295 575.096 101.55 575.456 101.71C575.816 101.87 576.206 101.95 576.626 101.95C577.046 101.95 577.436 101.87 577.796 101.71C578.156 101.55 578.466 101.295 578.726 100.945C578.996 100.585 579.206 100.13 579.356 99.58C579.506 99.02 579.581 98.345 579.581 97.555C579.581 96.765 579.506 96.095 579.356 95.545C579.206 94.985 578.996 94.53 578.726 94.18C578.466 93.83 578.156 93.575 577.796 93.415C577.436 93.255 577.046 93.175 576.626 93.175C576.206 93.175 575.816 93.255 575.456 93.415C575.096 93.575 574.781 93.83 574.511 94.18C574.241 94.53 574.031 94.985 573.881 95.545C573.731 96.095 573.656 96.765 573.656 97.555ZM584.307 103H582.882V91.465H584.232V96.295C584.462 95.875 584.807 95.55 585.267 95.32C585.737 95.09 586.282 94.975 586.902 94.975C587.912 94.975 588.702 95.245 589.272 95.785C589.852 96.315 590.142 97.085 590.142 98.095V103H588.717V98.38C588.717 97.66 588.527 97.125 588.147 96.775C587.777 96.425 587.232 96.25 586.512 96.25C585.942 96.25 585.457 96.395 585.057 96.685C584.667 96.975 584.417 97.36 584.307 97.84V103Z" fill="black"/>
<path d="M549.72 132.305V133.505H553.785C555.735 133.505 557.715 133.31 559.065 132.995L558.855 131.855C557.7 132.11 556.185 132.275 554.745 132.305V130.61C556.53 130.4 557.625 129.365 557.625 127.895C557.625 126.245 556.245 125.15 554.07 125.15C551.895 125.15 550.515 126.245 550.515 127.895C550.515 129.365 551.61 130.4 553.395 130.61V132.305H549.72ZM559.8 121.865V135.47H561.15V128.09H563.175V126.89H561.15V121.865H559.8ZM553.41 121.595V123.35H549.87V124.52H558.27V123.35H554.73V121.595H553.41ZM554.07 129.47C552.57 129.47 551.865 128.855 551.865 127.895C551.865 126.935 552.57 126.32 554.07 126.32C555.57 126.32 556.275 126.935 556.275 127.895C556.275 128.855 555.57 129.47 554.07 129.47ZM565.241 129.365H571.901V127.955H574.646V131.51H575.996V121.865H574.646V123.56H571.901V122.42H565.241V129.365ZM570.551 128.165H566.591V123.62H570.551V128.165ZM566.621 135.395H576.401V134.195H567.971V130.64H566.621V135.395ZM571.901 124.73H574.646V126.785H571.901V124.73ZM584.385 123.575H592.695V124.295C592.695 125.435 592.62 127.19 592.41 128.69H582.84V129.89H588.585V135.47H589.935V129.89H595.98V128.69H593.715C593.955 127.13 594.045 125.495 594.045 124.04V122.375H584.385V123.575ZM598.511 127.985C598.511 129.455 599.651 130.67 601.781 130.67C603.911 130.67 605.051 129.455 605.051 127.985C605.051 126.515 603.911 125.3 601.781 125.3C599.651 125.3 598.511 126.515 598.511 127.985ZM605.501 126.83H607.781V128.585H605.501V129.755H607.781V131.96H609.131V121.865H607.781V125.66H605.501V126.83ZM599.756 135.395H609.536V134.195H601.106V131.54H599.756V135.395ZM605.561 123.305H602.306V121.52H600.956V123.305H597.686V124.49H605.561V123.305ZM599.861 127.985C599.861 127.115 600.491 126.485 601.781 126.485C603.071 126.485 603.701 127.115 603.701 127.985C603.701 128.855 603.071 129.485 601.781 129.485C600.491 129.485 599.861 128.855 599.861 127.985ZM557.28 158H558.705V147.125H557.28V151.715H551.55V147.125H550.125V158H551.55V152.99H557.28V158ZM563.845 158H565.285V148.4H568.93V147.125H560.2V148.4H563.845V158ZM576.383 156.41L580.013 149.66V158H581.438L581.423 147.125H579.938L575.933 154.475L571.928 147.125H570.443L570.428 158H571.853V149.66L575.483 156.41H576.383ZM583.685 158H591.065V156.74H585.11V147.125H583.685V158ZM603.523 149.705C603.523 148.055 602.173 146.9 600.283 146.9C598.393 146.9 597.043 148.115 597.043 149.705C597.043 150.725 597.673 151.64 598.393 152.405C597.193 153.065 596.083 153.935 596.083 155.3C596.083 157.46 598.093 158.39 600.253 158.39C601.738 158.39 602.818 157.985 603.598 157.295L604.363 158H606.238L604.423 156.29C604.933 155.42 605.173 154.325 605.263 153.14L603.913 153.035C603.868 153.935 603.703 154.7 603.403 155.33L600.763 152.84L600.598 152.69C602.143 151.91 603.523 151.31 603.523 149.705ZM599.743 153.695L602.608 156.365C602.023 156.86 601.243 157.115 600.253 157.115C598.798 157.115 597.508 156.605 597.508 155.3C597.508 154.46 598.243 153.92 599.338 153.335C599.488 153.455 599.623 153.59 599.743 153.695ZM598.468 149.765C598.468 148.82 599.218 148.175 600.283 148.175C601.348 148.175 602.098 148.76 602.098 149.78C602.098 150.8 601.273 150.935 599.833 151.67C599.773 151.7 599.713 151.745 599.638 151.775C599.038 151.13 598.468 150.38 598.468 149.765ZM611.028 152.555C611.028 156.05 613.293 158.225 616.368 158.225C618.303 158.225 619.863 157.49 620.838 156.155L619.803 155.33C619.068 156.32 617.838 156.95 616.368 156.95C614.118 156.95 612.453 155.255 612.453 152.555C612.453 149.855 614.118 148.175 616.368 148.175C617.688 148.175 618.798 148.76 619.503 149.795L620.628 148.97C619.668 147.65 618.153 146.9 616.368 146.9C613.293 146.9 611.028 149.06 611.028 152.555ZM621.881 155.9C622.841 157.37 624.581 158.225 626.726 158.225C628.931 158.225 630.926 157.295 630.926 155.15C630.926 153.275 629.441 152.495 627.446 151.925L625.991 151.505C624.596 151.1 623.666 150.74 623.666 149.75C623.666 148.715 624.776 148.175 626.336 148.175C627.686 148.175 628.766 148.805 629.516 149.705L630.536 148.79C629.381 147.425 628.016 146.9 626.336 146.9C623.846 146.9 622.241 148.055 622.241 149.81C622.241 151.58 623.426 152.18 625.541 152.795L627.026 153.23C628.091 153.545 629.501 153.965 629.501 155.15C629.501 156.47 628.151 156.95 626.621 156.95C624.926 156.95 623.726 156.185 623.006 155.075L621.881 155.9ZM632.12 155.9C633.08 157.37 634.82 158.225 636.965 158.225C639.17 158.225 641.165 157.295 641.165 155.15C641.165 153.275 639.68 152.495 637.685 151.925L636.23 151.505C634.835 151.1 633.905 150.74 633.905 149.75C633.905 148.715 635.015 148.175 636.575 148.175C637.925 148.175 639.005 148.805 639.755 149.705L640.775 148.79C639.62 147.425 638.255 146.9 636.575 146.9C634.085 146.9 632.48 148.055 632.48 149.81C632.48 151.58 633.665 152.18 635.78 152.795L637.265 153.23C638.33 153.545 639.74 153.965 639.74 155.15C639.74 156.47 638.39 156.95 636.86 156.95C635.165 156.95 633.965 156.185 633.245 155.075L632.12 155.9Z" fill="black"/>
<path d="M731.635 92.125V103H730.285V93.79L727.975 95.665L727.15 94.69L730.405 92.125H731.635ZM733.584 97.555C733.584 96.525 733.694 95.65 733.914 94.93C734.134 94.21 734.439 93.625 734.829 93.175C735.219 92.725 735.684 92.4 736.224 92.2C736.764 92 737.349 91.9 737.979 91.9C738.609 91.9 739.189 92 739.719 92.2C740.259 92.4 740.724 92.725 741.114 93.175C741.504 93.625 741.809 94.21 742.029 94.93C742.249 95.65 742.359 96.525 742.359 97.555C742.359 98.595 742.249 99.475 742.029 100.195C741.809 100.915 741.504 101.5 741.114 101.95C740.724 102.4 740.259 102.725 739.719 102.925C739.189 103.125 738.609 103.225 737.979 103.225C737.349 103.225 736.764 103.125 736.224 102.925C735.684 102.725 735.219 102.4 734.829 101.95C734.439 101.5 734.134 100.915 733.914 100.195C733.694 99.475 733.584 98.595 733.584 97.555ZM735.009 97.555C735.009 98.345 735.084 99.02 735.234 99.58C735.384 100.13 735.594 100.585 735.864 100.945C736.134 101.295 736.449 101.55 736.809 101.71C737.169 101.87 737.559 101.95 737.979 101.95C738.399 101.95 738.789 101.87 739.149 101.71C739.509 101.55 739.819 101.295 740.079 100.945C740.349 100.585 740.559 100.13 740.709 99.58C740.859 99.02 740.934 98.345 740.934 97.555C740.934 96.765 740.859 96.095 740.709 95.545C740.559 94.985 740.349 94.53 740.079 94.18C739.819 93.83 739.509 93.575 739.149 93.415C738.789 93.255 738.399 93.175 737.979 93.175C737.559 93.175 737.169 93.255 736.809 93.415C736.449 93.575 736.134 93.83 735.864 94.18C735.594 94.53 735.384 94.985 735.234 95.545C735.084 96.095 735.009 96.765 735.009 97.555ZM745.66 103H744.235V91.465H745.585V96.295C745.815 95.875 746.16 95.55 746.62 95.32C747.09 95.09 747.635 94.975 748.255 94.975C749.265 94.975 750.055 95.245 750.625 95.785C751.205 96.315 751.495 97.085 751.495 98.095V103H750.07V98.38C750.07 97.66 749.88 97.125 749.5 96.775C749.13 96.425 748.585 96.25 747.865 96.25C747.295 96.25 746.81 96.395 746.41 96.685C746.02 96.975 745.77 97.36 745.66 97.84V103Z" fill="black"/>
<path d="M702.325 123.865V137.47H703.675V123.865H702.325ZM698.71 129.265C698.71 131.665 697.78 133.015 696.16 133.015C694.54 133.015 693.61 131.665 693.61 129.265C693.61 126.865 694.54 125.515 696.16 125.515C697.78 125.515 698.71 126.865 698.71 129.265ZM700.06 129.265C700.06 126.055 698.545 124.315 696.16 124.315C693.775 124.315 692.26 126.055 692.26 129.265C692.26 132.475 693.775 134.215 696.16 134.215C698.545 134.215 700.06 132.475 700.06 129.265ZM711.171 124.27V126.595H708.261V124.27H706.941V131.29H712.491V128.26H714.411V132.655H715.686V123.94H714.411V127.06H712.491V124.27H711.171ZM708.846 137.395H718.806V136.195H710.196V132.73H708.846V137.395ZM717.096 123.865V133.405H718.401V123.865H717.096ZM708.261 130.12V127.765H711.171V130.12H708.261ZM720.797 134.515V135.715H733.937V134.515H720.797ZM731.792 127.705H723.917V125.71H732.167V124.51H722.567V132.28H732.392V131.08H723.917V128.905H731.792V127.705ZM746.871 127.705C746.871 126.055 745.521 124.9 743.631 124.9C741.741 124.9 740.391 126.115 740.391 127.705C740.391 128.725 741.021 129.64 741.741 130.405C740.541 131.065 739.431 131.935 739.431 133.3C739.431 135.46 741.441 136.39 743.601 136.39C745.086 136.39 746.166 135.985 746.946 135.295L747.711 136H749.586L747.771 134.29C748.281 133.42 748.521 132.325 748.611 131.14L747.261 131.035C747.216 131.935 747.051 132.7 746.751 133.33L744.111 130.84L743.946 130.69C745.491 129.91 746.871 129.31 746.871 127.705ZM743.091 131.695L745.956 134.365C745.371 134.86 744.591 135.115 743.601 135.115C742.146 135.115 740.856 134.605 740.856 133.3C740.856 132.46 741.591 131.92 742.686 131.335C742.836 131.455 742.971 131.59 743.091 131.695ZM741.816 127.765C741.816 126.82 742.566 126.175 743.631 126.175C744.696 126.175 745.446 126.76 745.446 127.78C745.446 128.8 744.621 128.935 743.181 129.67C743.121 129.7 743.061 129.745 742.986 129.775C742.386 129.13 741.816 128.38 741.816 127.765ZM761.681 124.54H755.111V125.74H760.301V127.39C760.301 129.415 758.291 131.455 754.901 133.585L755.711 134.68C759.206 132.4 761.681 130.075 761.681 127.48V124.54ZM764.501 123.865V137.47H765.851V123.865H764.501ZM768.726 129.805V131.005H781.866V129.805H768.726ZM775.296 132.085C772.071 132.085 770.346 133.18 770.346 134.965C770.346 136.75 772.071 137.845 775.296 137.845C778.521 137.845 780.246 136.75 780.246 134.965C780.246 133.18 778.521 132.085 775.296 132.085ZM775.296 136.645C772.926 136.645 771.696 136.06 771.696 134.965C771.696 133.87 772.926 133.285 775.296 133.285C777.666 133.285 778.896 133.87 778.896 134.965C778.896 136.06 777.666 136.645 775.296 136.645ZM770.571 123.97V128.425H780.171V127.225H771.921V123.97H770.571Z" fill="black"/>
<path d="M836.221 11.325L831.23 15.258L832.495 16.753L836.037 13.878V28H838.107V11.325H836.221ZM841.095 19.651C841.095 25.999 843.947 28.345 847.834 28.345C851.721 28.345 854.55 25.999 854.55 19.651C854.55 13.303 851.721 10.98 847.834 10.98C843.947 10.98 841.095 13.303 841.095 19.651ZM843.28 19.651C843.28 14.798 845.258 12.935 847.834 12.935C850.41 12.935 852.365 14.798 852.365 19.651C852.365 24.504 850.41 26.39 847.834 26.39C845.258 26.39 843.28 24.504 843.28 19.651ZM857.312 19.651C857.312 25.999 860.164 28.345 864.051 28.345C867.938 28.345 870.767 25.999 870.767 19.651C870.767 13.303 867.938 10.98 864.051 10.98C860.164 10.98 857.312 13.303 857.312 19.651ZM859.497 19.651C859.497 14.798 861.475 12.935 864.051 12.935C866.627 12.935 868.582 14.798 868.582 19.651C868.582 24.504 866.627 26.39 864.051 26.39C861.475 26.39 859.497 24.504 859.497 19.651ZM875.828 20.088C876.15 18.639 877.461 17.65 879.209 17.65C881.394 17.65 882.59 18.731 882.59 20.916V28H884.775V20.479C884.775 17.397 882.889 15.695 879.807 15.695C877.921 15.695 876.426 16.431 875.713 17.719V10.313H873.643V28H875.828V20.088Z" fill="black"/>
<rect x="49.5" y="8.5" width="752" height="20" rx="10" fill="white" stroke="black"/>
<rect x="642" y="9" width="159" height="19" rx="9.5" fill="#B03939"/>
<rect x="434" y="9" width="244" height="19" rx="9.5" fill="#D14E4E"/>
<rect x="310" y="9" width="182" height="19" rx="9.5" fill="#EE6363"/>
<rect x="249" y="9" width="90" height="19" rx="9.5" fill="#FF7B7B"/>
<rect x="154" y="9" width="119" height="19" rx="9.5" fill="#FFABAB"/>
<rect x="50" y="9" width="121" height="19" rx="9.5" fill="#FFDEDE"/>
<line x1="111.5" y1="29" x2="111.5" y2="82" stroke="black"/>
<line x1="213.5" y1="29" x2="213.5" y2="82" stroke="black"/>
<line x1="290.5" y1="29" x2="290.5" y2="82" stroke="black"/>
<line x1="409.5" y1="29" x2="409.5" y2="82" stroke="black"/>
<line x1="577.5" y1="29" x2="577.5" y2="82" stroke="black"/>
<line x1="733.5" y1="29" x2="733.5" y2="82" stroke="black"/>
</svg>
