<svg width="890" height="261" viewBox="0 0 890 261" fill="none" xmlns="http://www.w3.org/2000/svg">
<path d="M0.380859 12.651C0.380859 18.999 3.23286 21.345 7.11986 21.345C11.0069 21.345 13.8359 18.999 13.8359 12.651C13.8359 6.30299 11.0069 3.97999 7.11986 3.97999C3.23286 3.97999 0.380859 6.30299 0.380859 12.651ZM2.56586 12.651C2.56586 7.79799 4.54386 5.93499 7.11986 5.93499C9.69586 5.93499 11.6509 7.79799 11.6509 12.651C11.6509 17.504 9.69586 19.39 7.11986 19.39C4.54386 19.39 2.56586 17.504 2.56586 12.651Z" fill="black"/>
<path d="M18.8977 13.088C19.2197 11.639 20.5307 10.65 22.2787 10.65C24.4637 10.65 25.6597 11.731 25.6597 13.916V21H27.8447V13.479C27.8447 10.397 25.9587 8.69499 22.8767 8.69499C20.9907 8.69499 19.4957 9.43099 18.7827 10.719V3.31299H16.7127V21H18.8977V13.088Z" fill="black"/>
<path d="M50.2279 86.5248C50.7529 85.7598 51.6529 85.1898 52.7629 85.1898C54.0829 85.1898 55.0579 85.8348 55.0579 86.9448C55.0579 88.0398 54.1579 88.6998 52.8379 88.6998H51.1129V89.9748H52.9279C54.5479 89.9748 55.5679 90.5748 55.5679 91.9698C55.5679 93.2898 54.4879 93.9498 52.8079 93.9498C51.6679 93.9498 50.3779 93.3348 49.7029 92.3448L48.7129 93.2298C49.6129 94.5198 51.3679 95.2248 52.8229 95.2248C55.5229 95.2248 56.9929 93.9048 56.9929 91.9548C56.9929 90.5748 55.8079 89.4948 54.6979 89.3298C55.5529 89.0898 56.4829 88.2198 56.4829 86.9448C56.4829 84.9198 54.8479 83.8998 52.8979 83.8998C51.1879 83.8998 49.8829 84.5898 49.0879 85.8498L50.2279 86.5248Z" fill="black"/>
<path d="M60.1498 89.8398C60.3598 88.8948 61.2148 88.2498 62.3548 88.2498C63.7798 88.2498 64.5598 88.9548 64.5598 90.3798V94.9998H65.9848V90.0948C65.9848 88.0848 64.7548 86.9748 62.7448 86.9748C61.5148 86.9748 60.5398 87.4548 60.0748 88.2948V83.4648H58.7248V94.9998H60.1498V89.8398Z" fill="black"/>
<path d="M50.2058 114.54H43.6358V115.74H48.8258V117.39C48.8258 119.415 46.8158 121.455 43.4258 123.585L44.2358 124.68C47.7308 122.4 50.2058 120.075 50.2058 117.48V114.54ZM53.0258 113.865V127.47H54.3758V113.865H53.0258Z" fill="black"/>
<path d="M58.4667 118.335C58.4667 119.52 59.5917 120.21 61.4517 120.33V121.425H57.5667V122.535H61.8417C63.7917 122.535 65.6967 122.385 67.1067 122.085L66.9267 121.05C65.7267 121.29 64.2417 121.41 62.8017 121.425V120.33C64.6017 120.18 65.6967 119.49 65.6967 118.335C65.6967 117.03 64.3167 116.325 62.0817 116.325C59.8467 116.325 58.4667 117.03 58.4667 118.335ZM69.2217 127.545V123.69H59.5017V124.845H67.8717V127.545H69.2217ZM67.8717 113.865V123.015H69.2217V113.865H67.8717ZM66.2367 114.69H62.7567V113.325H61.4067V114.69H57.9267V115.8H66.2367V114.69ZM59.7867 118.335C59.7867 117.78 60.5217 117.435 62.0817 117.435C63.6417 117.435 64.3767 117.78 64.3767 118.335C64.3767 118.89 63.6417 119.235 62.0817 119.235C60.5217 119.235 59.7867 118.89 59.7867 118.335Z" fill="black"/>
<path d="M103.669 84.1248L100.414 86.6898L101.239 87.6648L103.549 85.7898V94.9998H104.899V84.1248H103.669Z" fill="black"/>
<path d="M106.848 89.5548C106.848 93.6948 108.708 95.2248 111.243 95.2248C113.778 95.2248 115.623 93.6948 115.623 89.5548C115.623 85.4148 113.778 83.8998 111.243 83.8998C108.708 83.8998 106.848 85.4148 106.848 89.5548ZM108.273 89.5548C108.273 86.3898 109.563 85.1748 111.243 85.1748C112.923 85.1748 114.198 86.3898 114.198 89.5548C114.198 92.7198 112.923 93.9498 111.243 93.9498C109.563 93.9498 108.273 92.7198 108.273 89.5548Z" fill="black"/>
<path d="M118.924 89.8398C119.134 88.8948 119.989 88.2498 121.129 88.2498C122.554 88.2498 123.334 88.9548 123.334 90.3798V94.9998H124.759V90.0948C124.759 88.0848 123.529 86.9748 121.519 86.9748C120.289 86.9748 119.314 87.4548 118.849 88.2948V83.4648H117.499V94.9998H118.924V89.8398Z" fill="black"/>
<path d="M81.6409 124.365C83.1259 124.365 84.4759 124.335 85.9909 124.14L85.8709 122.985C84.5209 123.15 83.2759 123.165 81.8509 123.165H79.1059V119.925H84.4009V114.48H77.7559V115.68H83.0509V118.725H77.7559V124.365H81.6409ZM87.1759 113.865V127.47H88.5259V113.865H87.1759Z" fill="black"/>
<path d="M97.1468 114.45V116.505C97.1468 118.455 94.1468 119.865 92.1368 120.645L92.7368 121.785C94.7918 121.08 97.0118 119.7 97.8218 118.485C98.6318 119.7 100.852 121.08 102.907 121.785L103.507 120.645C101.497 119.865 98.4968 118.455 98.4968 116.505V114.45H97.1468ZM91.2518 124.515V125.715H104.392V124.515H98.4968V121.305H97.1468V124.515H91.2518Z" fill="black"/>
<path d="M105.798 124.515V125.715H118.938V124.515H105.798ZM111.693 114.45V116.55C111.693 118.5 108.693 119.955 106.683 120.735L107.283 121.875C109.338 121.17 111.558 119.745 112.368 118.53C113.178 119.745 115.398 121.17 117.453 121.875L118.053 120.735C116.043 119.955 113.043 118.5 113.043 116.55V114.45H111.693Z" fill="black"/>
<path d="M120.344 121.665V122.865H126.239V127.47H127.589V122.865H133.484V121.665H120.344ZM126.914 117.495C127.739 118.515 129.899 119.85 132.014 120.675L132.599 119.52C129.914 118.425 127.589 117.075 127.589 115.515V114.075H126.239V115.515C126.239 117.075 123.914 118.425 121.229 119.52L121.814 120.675C123.929 119.85 126.089 118.515 126.914 117.495Z" fill="black"/>
<path d="M145.284 121.74V123.435H138.609V121.74H137.259V127.47H146.634V121.74H145.284ZM143.139 114.345H135.639V115.545H138.714V116.295C138.714 117.825 136.869 118.92 135.159 120.045L135.924 121.035C137.274 120.21 138.819 119.1 139.404 118.05C140.064 119.055 141.549 120.15 142.899 120.93L143.619 119.94C142.089 119.01 140.064 117.81 140.064 116.295V115.545H143.139V114.345ZM138.609 126.27V124.635H145.284V126.27H138.609ZM145.284 113.865V121.065H146.634V113.865H145.284Z" fill="black"/>
<path d="M145.427 180H146.897L151.697 170.07V169.125H144.092V170.4H150.077L145.427 180Z" fill="black"/>
<path d="M154.696 174.84C154.906 173.895 155.761 173.25 156.901 173.25C158.326 173.25 159.106 173.955 159.106 175.38V180H160.531V175.095C160.531 173.085 159.301 171.975 157.291 171.975C156.061 171.975 155.086 172.455 154.621 173.295V168.465H153.271V180H154.696V174.84Z" fill="black"/>
<path d="M140.6 205.465H138.605V201.475H137.255V205.465H133.295V201.475H131.945V205.465H129.95V206.665H134.6V209.515H128.705V210.715H141.845V209.515H135.95V206.665H140.6V205.465ZM140.675 199.6H129.875V200.8H140.675V199.6Z" fill="black"/>
<path d="M154.246 202.66H146.371V200.71H154.621V199.51H145.021V207.19H149.146V209.515H143.251V210.715H156.391V209.515H150.496V207.19H154.846V205.99H146.371V203.86H154.246V202.66Z" fill="black"/>
<path d="M167.712 206.74V208.435H161.217V206.74H159.867V212.47H169.062V206.74H167.712ZM161.322 199.12V200.74C161.322 202.345 159.597 203.77 157.887 205.015L158.727 205.96C160.077 205.015 161.427 203.815 162.012 202.735C162.672 203.74 163.962 204.88 165.312 205.78L166.107 204.835C164.577 203.8 162.672 202.33 162.672 200.74V199.12H161.322ZM167.712 198.865V206.065H169.062V204.13H171.192V202.93H169.062V201.415H171.192V200.215H169.062V198.865H167.712ZM161.217 211.27V209.635H167.712V211.27H161.217Z" fill="black"/>
<path d="M139.1 229.84H140.45V222.865H139.1V229.84ZM131.075 236.545H140.675V235.345H132.425V234.04H140.45V230.515H131.075V231.715H139.1V232.84H131.075V236.545ZM130.805 226.165C130.805 224.995 131.765 224.215 133.07 224.215C134.375 224.215 135.335 224.995 135.335 226.165C135.335 227.335 134.375 228.115 133.07 228.115C131.765 228.115 130.805 227.335 130.805 226.165ZM129.485 226.165C129.485 228.04 130.91 229.285 133.07 229.285C135.23 229.285 136.655 228.04 136.655 226.165C136.655 224.29 135.23 223.045 133.07 223.045C130.91 223.045 129.485 224.29 129.485 226.165Z" fill="black"/>
<path d="M147.436 233.365C148.921 233.365 150.271 233.335 151.786 233.14L151.666 231.985C150.316 232.15 149.071 232.165 147.646 232.165H145.501V228.925H150.346V223.48H144.151V224.68H148.996V227.725H144.151V233.365H147.436ZM151.096 228.94H153.721V236.47H155.071V222.865H153.721V227.74H151.096V228.94Z" fill="black"/>
<path d="M157.797 233.515V234.715H170.937V233.515H157.797ZM163.692 223.45V225.55C163.692 227.5 160.692 228.955 158.682 229.735L159.282 230.875C161.337 230.17 163.557 228.745 164.367 227.53C165.177 228.745 167.397 230.17 169.452 230.875L170.052 229.735C168.042 228.955 165.042 227.5 165.042 225.55V223.45H163.692Z" fill="black"/>
<path d="M172.343 233.515V234.715H185.483V233.515H172.343ZM183.338 226.705H175.463V224.71H183.713V223.51H174.113V231.28H183.938V230.08H175.463V227.905H183.338V226.705Z" fill="black"/>
<path d="M136.715 247.345H129.305V248.545H132.335V249.49C132.335 251.02 130.535 252.19 128.825 253.345L129.59 254.335C130.94 253.48 132.44 252.355 133.025 251.275C133.685 252.31 135.125 253.42 136.475 254.23L137.195 253.24C135.665 252.28 133.685 251.005 133.685 249.49V248.545H136.715V247.345ZM139.97 260.545V255.19H130.7V256.39H138.62V260.545H139.97ZM138.62 246.865V254.515H139.97V251.125H142.1V249.925H139.97V246.865H138.62Z" fill="black"/>
<path d="M143.881 250.405C143.881 252.355 145.261 253.69 147.421 253.69C149.341 253.69 150.646 252.625 150.916 251.02H153.646V254.065H154.996V246.865H153.646V249.82H150.916C150.661 248.2 149.356 247.12 147.421 247.12C145.261 247.12 143.881 248.455 143.881 250.405ZM153.646 254.74V256.435H146.971V254.74H145.621V260.47H154.996V254.74H153.646ZM145.201 250.405C145.201 249.1 146.116 248.32 147.421 248.32C148.726 248.32 149.641 249.1 149.641 250.405C149.641 251.71 148.726 252.49 147.421 252.49C146.116 252.49 145.201 251.71 145.201 250.405ZM146.971 259.27V257.635H153.646V259.27H146.971Z" fill="black"/>
<path d="M259.562 89.5248C260.087 88.7598 260.987 88.1898 262.097 88.1898C263.417 88.1898 264.392 88.8348 264.392 89.9448C264.392 91.0398 263.492 91.6998 262.172 91.6998H260.447V92.9748H262.262C263.882 92.9748 264.902 93.5748 264.902 94.9698C264.902 96.2898 263.822 96.9498 262.142 96.9498C261.002 96.9498 259.712 96.3348 259.037 95.3448L258.047 96.2298C258.947 97.5198 260.702 98.2248 262.157 98.2248C264.857 98.2248 266.327 96.9048 266.327 94.9548C266.327 93.5748 265.142 92.4948 264.032 92.3298C264.887 92.0898 265.817 91.2198 265.817 89.9448C265.817 87.9198 264.182 86.8998 262.232 86.8998C260.522 86.8998 259.217 87.5898 258.422 88.8498L259.562 89.5248Z" fill="black"/>
<path d="M271.449 98.2248C274.059 98.2248 275.664 96.6348 275.664 94.4298C275.664 92.2248 274.059 90.6648 271.704 90.6648C270.909 90.6648 270.069 90.9498 269.664 91.2798V88.4148H274.974L274.989 87.1398H268.239V93.0498H269.169C269.604 92.3598 270.549 91.9398 271.464 91.9398C273.144 91.9398 274.239 92.8548 274.239 94.4298C274.239 96.0048 273.144 96.9498 271.464 96.9498C270.294 96.9498 269.259 96.4248 268.659 95.8248L267.759 96.7848C268.629 97.6848 269.994 98.2248 271.449 98.2248Z" fill="black"/>
<path d="M278.815 92.8398C279.025 91.8948 279.88 91.2498 281.02 91.2498C282.445 91.2498 283.225 91.9548 283.225 93.3798V97.9998H284.65V93.0948C284.65 91.0848 283.42 89.9748 281.41 89.9748C280.18 89.9748 279.205 90.4548 278.74 91.2948V86.4648H277.39V97.9998H278.815V92.8398Z" fill="black"/>
<path d="M239.825 126.005H244.73C246.215 126.005 247.88 125.93 249.335 125.705L249.215 124.55C248.54 124.655 247.835 124.73 247.115 124.76V118.49H245.765V124.805H242.99V118.49H241.64V124.805H239.825V126.005ZM250.325 115.865V129.47H251.675V115.865H250.325ZM248.795 116.54H239.975V117.74H248.795V116.54Z" fill="black"/>
<path d="M255.796 117.8H264.196V119.12C264.196 120.785 264.091 122.57 263.806 124.355L265.111 124.475C265.381 122.645 265.546 120.71 265.546 118.865V116.6H255.796V117.8ZM254.251 126.515V127.715H267.391V126.515H254.251Z" fill="black"/>
<path d="M269.337 126.005H276.282V116.54H269.337V126.005ZM270.687 117.74H274.932V124.805H270.687V117.74ZM278.547 115.865V129.47H279.897V121.64H282.192V120.44H279.897V115.865H278.547Z" fill="black"/>
<path d="M239.75 144.74H241.52V142.955H239.75V144.74ZM239.75 149.675H241.52V147.89H239.75V149.675Z" fill="black"/>
<path d="M247.03 150.08V151.28H251.095C253.045 151.28 255.025 151.085 256.375 150.77L256.165 149.63C255.01 149.885 253.495 150.05 252.055 150.08V147.47C253.885 147.17 255.115 145.745 255.115 143.915C255.115 141.86 253.555 140.315 251.335 140.315C249.115 140.315 247.555 141.86 247.555 143.915C247.555 145.775 248.815 147.215 250.705 147.47V150.08H247.03ZM257.11 139.865V153.47H258.46V145.94H260.485V144.74H258.46V139.865H257.11ZM251.335 146.285C249.82 146.285 248.905 145.295 248.905 143.915C248.905 142.535 249.82 141.545 251.335 141.545C252.85 141.545 253.765 142.535 253.765 143.915C253.765 145.295 252.85 146.285 251.335 146.285Z" fill="black"/>
<path d="M272.18 139.865V153.47H273.53V139.865H272.18ZM268.565 145.265C268.565 147.665 267.635 149.015 266.015 149.015C264.395 149.015 263.465 147.665 263.465 145.265C263.465 142.865 264.395 141.515 266.015 141.515C267.635 141.515 268.565 142.865 268.565 145.265ZM269.915 145.265C269.915 142.055 268.4 140.315 266.015 140.315C263.63 140.315 262.115 142.055 262.115 145.265C262.115 148.475 263.63 150.215 266.015 150.215C268.4 150.215 269.915 148.475 269.915 145.265Z" fill="black"/>
<path d="M286.651 139.865V144.635H284.101C283.921 141.83 282.526 140.315 280.351 140.315C278.011 140.315 276.586 142.055 276.586 145.265C276.586 148.475 278.011 150.215 280.351 150.215C282.541 150.215 283.936 148.685 284.101 145.835H286.651V153.47H288.001V139.865H286.651ZM282.766 145.265C282.766 147.665 281.926 149.015 280.351 149.015C278.776 149.015 277.936 147.665 277.936 145.265C277.936 142.865 278.776 141.515 280.351 141.515C281.926 141.515 282.766 142.865 282.766 145.265Z" fill="black"/>
<path d="M302.547 146.555H300.552V142.475H299.202V146.555H295.242V142.475H293.892V146.555H291.897V147.755H302.547V146.555ZM290.652 150.515V151.715H303.792V150.515H290.652ZM302.622 140.6H291.822V141.8H302.622V140.6Z" fill="black"/>
<path d="M308.288 150.275C309.773 150.275 310.988 150.245 312.203 150.05L312.083 148.895C310.973 149.06 309.773 149.075 308.498 149.075H307.088V145.88H311.033V140.48H305.738V141.68H309.683V144.68H305.738V150.275H308.288ZM311.483 145.88H313.508V153.17H314.828V139.94H313.508V144.68H311.483V145.88ZM316.328 139.865V153.47H317.648V139.865H316.328Z" fill="black"/>
<path d="M330.139 139.865V147.365H331.489V139.865H330.139ZM322.114 153.47H331.489V148.04H322.114V153.47ZM330.139 149.24V152.27H323.464V149.24H330.139ZM321.844 143.465C321.844 142.16 322.804 141.32 324.109 141.32C325.414 141.32 326.374 142.16 326.374 143.465C326.374 144.77 325.414 145.61 324.109 145.61C322.804 145.61 321.844 144.77 321.844 143.465ZM320.524 143.465C320.524 145.415 321.949 146.81 324.109 146.81C326.269 146.81 327.694 145.415 327.694 143.465C327.694 141.515 326.269 140.12 324.109 140.12C321.949 140.12 320.524 141.515 320.524 143.465Z" fill="black"/>
<path d="M248.555 172.475C247.205 172.64 245.705 172.73 244.28 172.73H242.075V165.74H247.49V164.54H240.725V173.93H244.07C245.555 173.93 247.22 173.81 248.675 173.63L248.555 172.475ZM250.1 163.865V177.47H251.45V163.865H250.1Z" fill="black"/>
<path d="M262.186 164.54H254.491V165.74H257.791V167.87C257.791 170.255 255.931 172.175 253.966 173.735L254.836 174.68C256.186 173.645 257.956 171.815 258.526 170.405C259.051 171.59 260.656 173.45 262.006 174.455L262.816 173.51C261.031 172.085 259.141 170.225 259.141 167.87V165.74H262.186V164.54ZM263.851 163.865V177.47H265.201V169.64H267.646V168.44H265.201V163.865H263.851Z" fill="black"/>
<path d="M279.192 163.865V173.51H280.542V163.865H279.192ZM271.242 177.395H281.022V176.195H272.592V172.64H271.242V177.395ZM270.897 167.84C270.897 166.31 271.857 165.395 273.162 165.395C274.467 165.395 275.427 166.31 275.427 167.84C275.427 169.37 274.467 170.285 273.162 170.285C271.857 170.285 270.897 169.37 270.897 167.84ZM269.577 167.84C269.577 170 271.002 171.485 273.162 171.485C275.322 171.485 276.747 170 276.747 167.84C276.747 165.68 275.322 164.195 273.162 164.195C271.002 164.195 269.577 165.68 269.577 167.84Z" fill="black"/>
<path d="M291.353 164.345H283.943V165.545H286.973V166.49C286.973 168.02 285.173 169.19 283.463 170.345L284.228 171.335C285.578 170.48 287.078 169.355 287.663 168.275C288.323 169.31 289.763 170.42 291.113 171.23L291.833 170.24C290.303 169.28 288.323 168.005 288.323 166.49V165.545H291.353V164.345ZM294.608 177.545V172.19H285.338V173.39H293.258V177.545H294.608ZM293.258 163.865V171.515H294.608V168.125H296.738V166.925H294.608V163.865H293.258Z" fill="black"/>
<path d="M298.519 167.405C298.519 169.355 299.899 170.69 302.059 170.69C303.979 170.69 305.284 169.625 305.554 168.02H308.284V171.065H309.634V163.865H308.284V166.82H305.554C305.299 165.2 303.994 164.12 302.059 164.12C299.899 164.12 298.519 165.455 298.519 167.405ZM308.284 171.74V173.435H301.609V171.74H300.259V177.47H309.634V171.74H308.284ZM299.839 167.405C299.839 166.1 300.754 165.32 302.059 165.32C303.364 165.32 304.279 166.1 304.279 167.405C304.279 168.71 303.364 169.49 302.059 169.49C300.754 169.49 299.839 168.71 299.839 167.405ZM301.609 176.27V174.635H308.284V176.27H301.609Z" fill="black"/>
<path d="M463.298 94.9998H464.768L469.568 85.0698V84.1248H461.963V85.3998H467.948L463.298 94.9998Z" fill="black"/>
<path d="M471.903 86.5248C472.428 85.7598 473.327 85.1898 474.438 85.1898C475.757 85.1898 476.733 85.8348 476.733 86.9448C476.733 88.0398 475.832 88.6998 474.512 88.6998H472.787V89.9748H474.602C476.223 89.9748 477.243 90.5748 477.243 91.9698C477.243 93.2898 476.162 93.9498 474.483 93.9498C473.342 93.9498 472.052 93.3348 471.377 92.3448L470.387 93.2298C471.287 94.5198 473.042 95.2248 474.497 95.2248C477.197 95.2248 478.667 93.9048 478.667 91.9548C478.667 90.5748 477.482 89.4948 476.373 89.3298C477.228 89.0898 478.157 88.2198 478.157 86.9448C478.157 84.9198 476.522 83.8998 474.572 83.8998C472.862 83.8998 471.557 84.5898 470.762 85.8498L471.903 86.5248Z" fill="black"/>
<path d="M481.824 89.8398C482.034 88.8948 482.889 88.2498 484.029 88.2498C485.454 88.2498 486.234 88.9548 486.234 90.3798V94.9998H487.659V90.0948C487.659 88.0848 486.429 86.9748 484.419 86.9748C483.189 86.9748 482.214 87.4548 481.749 88.2948V83.4648H480.399V94.9998H481.824V89.8398Z" fill="black"/>
<path d="M443.721 124.305V125.505H447.786C449.736 125.505 451.716 125.31 453.066 124.995L452.856 123.855C451.701 124.11 450.186 124.275 448.746 124.305V122.61C450.531 122.4 451.626 121.365 451.626 119.895C451.626 118.245 450.246 117.15 448.071 117.15C445.896 117.15 444.516 118.245 444.516 119.895C444.516 121.365 445.611 122.4 447.396 122.61V124.305H443.721ZM453.801 113.865V127.47H455.151V120.09H457.176V118.89H455.151V113.865H453.801ZM447.411 113.595V115.35H443.871V116.52H452.271V115.35H448.731V113.595H447.411ZM448.071 121.47C446.571 121.47 445.866 120.855 445.866 119.895C445.866 118.935 446.571 118.32 448.071 118.32C449.571 118.32 450.276 118.935 450.276 119.895C450.276 120.855 449.571 121.47 448.071 121.47Z" fill="black"/>
<path d="M459.242 121.365H465.902V119.955H468.647V123.51H469.997V113.865H468.647V115.56H465.902V114.42H459.242V121.365ZM464.552 120.165H460.592V115.62H464.552V120.165ZM460.622 127.395H470.402V126.195H461.972V122.64H460.622V127.395ZM465.902 116.73H468.647V118.785H465.902V116.73Z" fill="black"/>
<path d="M478.385 115.575H486.695V116.295C486.695 117.435 486.62 119.19 486.41 120.69H476.84V121.89H482.585V127.47H483.935V121.89H489.98V120.69H487.715C487.955 119.13 488.045 117.495 488.045 116.04V114.375H478.385V115.575Z" fill="black"/>
<path d="M492.511 119.985C492.511 121.455 493.651 122.67 495.781 122.67C497.911 122.67 499.051 121.455 499.051 119.985C499.051 118.515 497.911 117.3 495.781 117.3C493.651 117.3 492.511 118.515 492.511 119.985ZM499.501 118.83H501.781V120.585H499.501V121.755H501.781V123.96H503.131V113.865H501.781V117.66H499.501V118.83ZM493.756 127.395H503.536V126.195H495.106V123.54H493.756V127.395ZM499.561 115.305H496.306V113.52H494.956V115.305H491.686V116.49H499.561V115.305ZM493.861 119.985C493.861 119.115 494.491 118.485 495.781 118.485C497.071 118.485 497.701 119.115 497.701 119.985C497.701 120.855 497.071 121.485 495.781 121.485C494.491 121.485 493.861 120.855 493.861 119.985Z" fill="black"/>
<path d="M451.281 150H452.706V139.125H451.281V143.715H445.551V139.125H444.126V150H445.551V144.99H451.281V150Z" fill="black"/>
<path d="M457.846 150H459.286V140.4H462.931V139.125H454.201V140.4H457.846V150Z" fill="black"/>
<path d="M470.383 148.41L474.013 141.66V150H475.438L475.423 139.125H473.938L469.933 146.475L465.928 139.125H464.443L464.428 150H465.853V141.66L469.483 148.41H470.383Z" fill="black"/>
<path d="M477.685 150H485.065V148.74H479.11V139.125H477.685V150Z" fill="black"/>
<path d="M497.524 141.705C497.524 140.055 496.174 138.9 494.284 138.9C492.394 138.9 491.044 140.115 491.044 141.705C491.044 142.725 491.674 143.64 492.394 144.405C491.194 145.065 490.084 145.935 490.084 147.3C490.084 149.46 492.094 150.39 494.254 150.39C495.739 150.39 496.819 149.985 497.599 149.295L498.364 150H500.239L498.424 148.29C498.934 147.42 499.174 146.325 499.264 145.14L497.914 145.035C497.869 145.935 497.704 146.7 497.404 147.33L494.764 144.84L494.599 144.69C496.144 143.91 497.524 143.31 497.524 141.705ZM493.744 145.695L496.609 148.365C496.024 148.86 495.244 149.115 494.254 149.115C492.799 149.115 491.509 148.605 491.509 147.3C491.509 146.46 492.244 145.92 493.339 145.335C493.489 145.455 493.624 145.59 493.744 145.695ZM492.469 141.765C492.469 140.82 493.219 140.175 494.284 140.175C495.349 140.175 496.099 140.76 496.099 141.78C496.099 142.8 495.274 142.935 493.834 143.67C493.774 143.7 493.714 143.745 493.639 143.775C493.039 143.13 492.469 142.38 492.469 141.765Z" fill="black"/>
<path d="M505.029 144.555C505.029 148.05 507.294 150.225 510.369 150.225C512.304 150.225 513.864 149.49 514.839 148.155L513.804 147.33C513.069 148.32 511.839 148.95 510.369 148.95C508.119 148.95 506.454 147.255 506.454 144.555C506.454 141.855 508.119 140.175 510.369 140.175C511.689 140.175 512.799 140.76 513.504 141.795L514.629 140.97C513.669 139.65 512.154 138.9 510.369 138.9C507.294 138.9 505.029 141.06 505.029 144.555Z" fill="black"/>
<path d="M515.881 147.9C516.841 149.37 518.581 150.225 520.726 150.225C522.931 150.225 524.926 149.295 524.926 147.15C524.926 145.275 523.441 144.495 521.446 143.925L519.991 143.505C518.596 143.1 517.666 142.74 517.666 141.75C517.666 140.715 518.776 140.175 520.336 140.175C521.686 140.175 522.766 140.805 523.516 141.705L524.536 140.79C523.381 139.425 522.016 138.9 520.336 138.9C517.846 138.9 516.241 140.055 516.241 141.81C516.241 143.58 517.426 144.18 519.541 144.795L521.026 145.23C522.091 145.545 523.501 145.965 523.501 147.15C523.501 148.47 522.151 148.95 520.621 148.95C518.926 148.95 517.726 148.185 517.006 147.075L515.881 147.9Z" fill="black"/>
<path d="M526.121 147.9C527.081 149.37 528.821 150.225 530.966 150.225C533.171 150.225 535.166 149.295 535.166 147.15C535.166 145.275 533.681 144.495 531.686 143.925L530.231 143.505C528.836 143.1 527.906 142.74 527.906 141.75C527.906 140.715 529.016 140.175 530.576 140.175C531.926 140.175 533.006 140.805 533.756 141.705L534.776 140.79C533.621 139.425 532.256 138.9 530.576 138.9C528.086 138.9 526.481 140.055 526.481 141.81C526.481 143.58 527.666 144.18 529.781 144.795L531.266 145.23C532.331 145.545 533.741 145.965 533.741 147.15C533.741 148.47 532.391 148.95 530.861 148.95C529.166 148.95 527.966 148.185 527.246 147.075L526.121 147.9Z" fill="black"/>
<path d="M714.938 92.0448C714.938 90.6348 714.023 89.5848 712.703 89.1348C713.798 88.6998 714.398 87.7848 714.398 86.6448C714.398 84.9648 712.823 83.7498 710.603 83.7498C708.383 83.7498 706.808 84.9648 706.808 86.6448C706.808 87.7848 707.408 88.6998 708.503 89.1348C707.183 89.5848 706.268 90.6348 706.268 92.0448C706.268 94.0698 708.053 95.3748 710.603 95.3748C713.153 95.3748 714.938 94.0698 714.938 92.0448ZM708.143 86.7648C708.143 85.7748 709.088 84.9948 710.603 84.9948C712.118 84.9948 713.063 85.7748 713.063 86.7648C713.063 87.7548 712.118 88.5348 710.603 88.5348C709.088 88.5348 708.143 87.7548 708.143 86.7648ZM707.618 91.9398C707.618 90.6948 708.728 89.7798 710.603 89.7798C712.478 89.7798 713.588 90.6948 713.588 91.9398C713.588 93.1848 712.478 94.0998 710.603 94.0998C708.728 94.0998 707.618 93.1848 707.618 91.9398Z" fill="black"/>
<path d="M716.741 89.5548C716.741 93.6948 718.601 95.2248 721.136 95.2248C723.671 95.2248 725.516 93.6948 725.516 89.5548C725.516 85.4148 723.671 83.8998 721.136 83.8998C718.601 83.8998 716.741 85.4148 716.741 89.5548ZM718.166 89.5548C718.166 86.3898 719.456 85.1748 721.136 85.1748C722.816 85.1748 724.091 86.3898 724.091 89.5548C724.091 92.7198 722.816 93.9498 721.136 93.9498C719.456 93.9498 718.166 92.7198 718.166 89.5548Z" fill="black"/>
<path d="M728.817 89.8398C729.027 88.8948 729.882 88.2498 731.022 88.2498C732.447 88.2498 733.227 88.9548 733.227 90.3798V94.9998H734.652V90.0948C734.652 88.0848 733.422 86.9748 731.412 86.9748C730.182 86.9748 729.207 87.4548 728.742 88.2948V83.4648H727.392V94.9998H728.817V89.8398Z" fill="black"/>
<path d="M685.325 115.865V129.47H686.675V115.865H685.325ZM681.71 121.265C681.71 123.665 680.78 125.015 679.16 125.015C677.54 125.015 676.61 123.665 676.61 121.265C676.61 118.865 677.54 117.515 679.16 117.515C680.78 117.515 681.71 118.865 681.71 121.265ZM683.06 121.265C683.06 118.055 681.545 116.315 679.16 116.315C676.775 116.315 675.26 118.055 675.26 121.265C675.26 124.475 676.775 126.215 679.16 126.215C681.545 126.215 683.06 124.475 683.06 121.265Z" fill="black"/>
<path d="M694.171 116.27V118.595H691.261V116.27H689.941V123.29H695.491V120.26H697.411V124.655H698.686V115.94H697.411V119.06H695.491V116.27H694.171ZM691.846 129.395H701.806V128.195H693.196V124.73H691.846V129.395ZM700.096 115.865V125.405H701.401V115.865H700.096ZM691.261 122.12V119.765H694.171V122.12H691.261Z" fill="black"/>
<path d="M703.797 126.515V127.715H716.937V126.515H703.797ZM714.792 119.705H706.917V117.71H715.167V116.51H705.567V124.28H715.392V123.08H706.917V120.905H714.792V119.705Z" fill="black"/>
<path d="M729.87 119.705C729.87 118.055 728.52 116.9 726.63 116.9C724.74 116.9 723.39 118.115 723.39 119.705C723.39 120.725 724.02 121.64 724.74 122.405C723.54 123.065 722.43 123.935 722.43 125.3C722.43 127.46 724.44 128.39 726.6 128.39C728.085 128.39 729.165 127.985 729.945 127.295L730.71 128H732.585L730.77 126.29C731.28 125.42 731.52 124.325 731.61 123.14L730.26 123.035C730.215 123.935 730.05 124.7 729.75 125.33L727.11 122.84L726.945 122.69C728.49 121.91 729.87 121.31 729.87 119.705ZM726.09 123.695L728.955 126.365C728.37 126.86 727.59 127.115 726.6 127.115C725.145 127.115 723.855 126.605 723.855 125.3C723.855 124.46 724.59 123.92 725.685 123.335C725.835 123.455 725.97 123.59 726.09 123.695ZM724.815 119.765C724.815 118.82 725.565 118.175 726.63 118.175C727.695 118.175 728.445 118.76 728.445 119.78C728.445 120.8 727.62 120.935 726.18 121.67C726.12 121.7 726.06 121.745 725.985 121.775C725.385 121.13 724.815 120.38 724.815 119.765Z" fill="black"/>
<path d="M744.68 116.54H738.11V117.74H743.3V119.39C743.3 121.415 741.29 123.455 737.9 125.585L738.71 126.68C742.205 124.4 744.68 122.075 744.68 119.48V116.54ZM747.5 115.865V129.47H748.85V115.865H747.5Z" fill="black"/>
<path d="M751.726 121.805V123.005H764.866V121.805H751.726ZM758.296 124.085C755.071 124.085 753.346 125.18 753.346 126.965C753.346 128.75 755.071 129.845 758.296 129.845C761.521 129.845 763.246 128.75 763.246 126.965C763.246 125.18 761.521 124.085 758.296 124.085ZM758.296 128.645C755.926 128.645 754.696 128.06 754.696 126.965C754.696 125.87 755.926 125.285 758.296 125.285C760.666 125.285 761.896 125.87 761.896 126.965C761.896 128.06 760.666 128.645 758.296 128.645ZM753.571 115.97V120.425H763.171V119.225H754.921V115.97H753.571Z" fill="black"/>
<path d="M832.783 7.87899C833.68 6.08499 834.899 4.93499 837.038 4.93499C839.131 4.93499 840.856 6.10799 840.856 8.08599C840.856 10.34 838.487 12.249 836.532 13.928L831.196 18.551V20H843.662V18.045H834.945L838.441 14.963C840.097 13.491 843.041 11.053 843.041 8.08599C843.041 5.16499 840.856 2.97999 837.268 2.97999C834.209 2.97999 832.254 4.26799 830.92 6.98199L832.783 7.87899Z" fill="black"/>
<path d="M846.182 11.651C846.182 17.999 849.034 20.345 852.921 20.345C856.808 20.345 859.637 17.999 859.637 11.651C859.637 5.30299 856.808 2.97999 852.921 2.97999C849.034 2.97999 846.182 5.30299 846.182 11.651ZM848.367 11.651C848.367 6.79799 850.345 4.93499 852.921 4.93499C855.497 4.93499 857.452 6.79799 857.452 11.651C857.452 16.504 855.497 18.39 852.921 18.39C850.345 18.39 848.367 16.504 848.367 11.651Z" fill="black"/>
<path d="M875.692 15.469C875.692 13.307 874.289 11.697 872.265 11.007C873.944 10.34 874.864 8.93699 874.864 7.18899C874.864 4.61299 872.449 2.74999 869.045 2.74999C865.641 2.74999 863.226 4.61299 863.226 7.18899C863.226 8.93699 864.146 10.34 865.825 11.007C863.801 11.697 862.398 13.307 862.398 15.469C862.398 18.574 865.135 20.575 869.045 20.575C872.955 20.575 875.692 18.574 875.692 15.469ZM865.273 7.37299C865.273 5.85499 866.722 4.65899 869.045 4.65899C871.368 4.65899 872.817 5.85499 872.817 7.37299C872.817 8.89099 871.368 10.087 869.045 10.087C866.722 10.087 865.273 8.89099 865.273 7.37299ZM864.468 15.308C864.468 13.399 866.17 11.996 869.045 11.996C871.92 11.996 873.622 13.399 873.622 15.308C873.622 17.217 871.92 18.62 869.045 18.62C866.17 18.62 864.468 17.217 864.468 15.308Z" fill="black"/>
<path d="M880.758 12.088C881.08 10.639 882.391 9.64999 884.139 9.64999C886.324 9.64999 887.52 10.731 887.52 12.916V20H889.705V12.479C889.705 9.39699 887.819 7.69499 884.737 7.69499C882.851 7.69499 881.356 8.43099 880.643 9.71899V2.31299H878.573V20H880.758V12.088Z" fill="black"/>
<path d="M48 10.5C48 4.70101 52.701 0 58.5 0H790.5C796.299 0 801 4.70101 801 10.5V10.5C801 16.299 796.299 21 790.5 21H58.5C52.701 21 48 16.299 48 10.5V10.5Z" fill="white"/>
<path fill-rule="evenodd" clip-rule="evenodd" d="M790.5 1H58.5C53.2533 1 49 5.25329 49 10.5C49 15.7467 53.2533 20 58.5 20H790.5C795.747 20 800 15.7467 800 10.5C800 5.25329 795.747 1 790.5 1ZM58.5 0C52.701 0 48 4.70101 48 10.5C48 16.299 52.701 21 58.5 21H790.5C796.299 21 801 16.299 801 10.5C801 4.70101 796.299 0 790.5 0H58.5Z" fill="black"/>
<path d="M484 10.5C484 5.25329 488.253 1 493.5 1H791.5C796.747 1 801 5.25329 801 10.5V10.5C801 15.7467 796.747 20 791.5 20H493.5C488.253 20 484 15.7467 484 10.5V10.5Z" fill="#B03939"/>
<path d="M252 10.5C252 5.25329 256.253 1 261.5 1H503.5C508.747 1 513 5.25329 513 10.5V10.5C513 15.7467 508.747 20 503.5 20H261.5C256.253 20 252 15.7467 252 10.5V10.5Z" fill="#D14E4E"/>
<path d="M143 10.5C143 5.25329 147.253 1 152.5 1H286.5C291.747 1 296 5.25329 296 10.5V10.5C296 15.7467 291.747 20 286.5 20H152.5C147.253 20 143 15.7467 143 10.5V10.5Z" fill="#EE6363"/>
<path d="M104 10.5C104 5.25329 108.253 1 113.5 1H155.5C160.747 1 165 5.25329 165 10.5V10.5C165 15.7467 160.747 20 155.5 20H113.5C108.253 20 104 15.7467 104 10.5V10.5Z" fill="#FF7B7B"/>
<path d="M68 10.5C68 5.25329 72.2533 1 77.5 1H126.5C131.747 1 136 5.25329 136 10.5V10.5C136 15.7467 131.747 20 126.5 20H77.5C72.2533 20 68 15.7467 68 10.5V10.5Z" fill="#FFABAB"/>
<path d="M49 10.5C49 5.25329 53.2533 1 58.5 1H75.5C80.7467 1 85 5.25329 85 10.5V10.5C85 15.7467 80.7467 20 75.5 20H58.5C53.2533 20 49 15.7467 49 10.5V10.5Z" fill="#FFDEDE"/>
<path fill-rule="evenodd" clip-rule="evenodd" d="M57 74L57 21L58 21L58 74L57 74Z" fill="black"/>
<path fill-rule="evenodd" clip-rule="evenodd" d="M113 74L113 21L114 21L114 74L113 74Z" fill="black"/>
<path fill-rule="evenodd" clip-rule="evenodd" d="M152.5 152L152.5 20L153.5 20L153.5 152L152.5 152Z" fill="black"/>
<path fill-rule="evenodd" clip-rule="evenodd" d="M271 74L271 21L272 21L272 74L271 74Z" fill="black"/>
<path fill-rule="evenodd" clip-rule="evenodd" d="M471 74L471 21L472 21L472 74L471 74Z" fill="black"/>
<path fill-rule="evenodd" clip-rule="evenodd" d="M716 74L716 21L717 21L717 74L716 74Z" fill="black"/>
</svg>
