<svg width="1454" height="641" viewBox="0 0 1454 641" fill="none" xmlns="http://www.w3.org/2000/svg">
<path fill-rule="evenodd" clip-rule="evenodd" d="M729 570L729 75L730 75L730 570L729 570Z" fill="#D0D0D0"/>
<path fill-rule="evenodd" clip-rule="evenodd" d="M544 464L544 185L545 185L545 464L544 464Z" fill="#D0D0D0"/>
<path fill-rule="evenodd" clip-rule="evenodd" d="M542 185L924 185V186L542 186V185Z" fill="#D0D0D0"/>
<path d="M652 50H802V100H652V50Z" fill="#FF5353"/>
<path d="M709.845 82.3499L715.895 71.0999V84.9999H718.27L718.245 66.8749H715.77L709.095 79.1249L702.42 66.8749H699.945L699.92 84.9999H702.295V71.0999L708.345 82.3499H709.845Z" fill="white"/>
<path d="M730.64 85.1249H733.015V75.9249C733.015 72.6999 730.59 71.6249 727.415 71.6249C725.615 71.6249 723.365 72.2749 722.215 72.9749L722.94 74.9749C724.09 74.2749 725.865 73.7499 727.365 73.7499C729.49 73.7499 730.64 74.3499 730.64 76.4749V76.6249L727.04 76.7749C723.99 76.9249 721.39 78.2499 721.39 81.0999C721.39 83.7999 723.14 85.3749 726.265 85.3749C728.24 85.3749 729.815 84.6749 730.64 83.6999V85.1249ZM726.515 83.2749C724.84 83.2749 723.765 82.5249 723.765 81.0999C723.765 79.5749 725.44 78.7999 727.34 78.7249L730.64 78.5999V81.5749C729.69 82.6999 727.865 83.2749 726.515 83.2749Z" fill="white"/>
<path d="M736.917 84.9999H739.317V71.9999H736.917V84.9999ZM736.642 68.7499H739.592V65.7749H736.642V68.7499Z" fill="white"/>
<path d="M745.6 84.9999V76.3999C745.95 74.8249 747.375 73.7499 749.275 73.7499C751.65 73.7499 752.95 74.9249 752.95 77.2999V84.9999H755.325V76.8249C755.325 73.4749 753.275 71.6249 749.925 71.6249C747.875 71.6249 746.25 72.4249 745.475 73.8249V71.9999H743.225V84.9999H745.6Z" fill="white"/>
<path d="M467 160H617V210H467V160Z" fill="#FF7C7C"/>
<path d="M652 160H802V210H652V160Z" fill="#FF7C7C"/>
<path d="M837 160H987V210H837V160Z" fill="#FF7C7C"/>
<path d="M521.53 178.5L515.73 193H517.67L519.09 189.38H526.01L527.43 193H529.37L523.57 178.5H521.53ZM522.51 180.64H522.59L525.35 187.68H519.75L522.51 180.64Z" fill="white"/>
<path d="M532.869 185.88C533.249 184.64 534.569 183.9 535.949 183.9C538.089 183.9 539.449 185.38 539.449 187.8C539.449 190.22 538.089 191.7 535.949 191.7C534.569 191.7 533.249 190.96 532.869 189.72V185.88ZM532.869 191.74C533.369 192.7 534.689 193.3 536.189 193.3C539.149 193.3 541.249 191.24 541.249 187.8C541.249 184.36 539.169 182.3 536.209 182.3C534.649 182.3 533.309 182.96 532.869 183.86V177.62H530.969V193H532.869V191.74Z" fill="white"/>
<path d="M551.947 187.8C551.947 189.98 550.667 191.6 548.547 191.6C546.427 191.6 545.147 189.98 545.147 187.8C545.147 185.62 546.427 184 548.547 184C550.667 184 551.947 185.62 551.947 187.8ZM543.247 187.8C543.247 191.04 545.407 193.3 548.547 193.3C551.687 193.3 553.847 191.04 553.847 187.8C553.847 184.56 551.687 182.3 548.547 182.3C545.407 182.3 543.247 184.56 543.247 187.8Z" fill="white"/>
<path d="M563.925 182.6V189.48C563.645 190.74 562.505 191.6 560.985 191.6C559.025 191.6 558.045 190.66 558.045 188.76V182.6H556.145V189.14C556.145 191.82 557.745 193.3 560.465 193.3C562.105 193.3 563.345 192.74 563.925 191.74V193H565.825V182.6H563.925Z" fill="white"/>
<path d="M571.49 179.2H569.59V182.6H567.53V184.3H569.59V190.34C569.59 192.5 570.31 193.3 572.29 193.3C573.07 193.3 574.01 193.1 574.67 192.62L574.05 191.18C573.65 191.42 573.13 191.6 572.47 191.6C571.79 191.6 571.49 191.2 571.49 190.06V184.3H574.43V182.6H571.49V179.2Z" fill="white"/>
<path d="M705.848 178.5L702.808 190.56L699.548 178.5H697.648L701.728 193H703.968L706.848 181.6L709.728 193H711.968L716.048 178.5H714.148L710.888 190.56L707.848 178.5H705.848Z" fill="white"/>
<path d="M725.442 187.8C725.442 189.98 724.162 191.6 722.042 191.6C719.922 191.6 718.642 189.98 718.642 187.8C718.642 185.62 719.922 184 722.042 184C724.162 184 725.442 185.62 725.442 187.8ZM716.742 187.8C716.742 191.04 718.902 193.3 722.042 193.3C725.182 193.3 727.342 191.04 727.342 187.8C727.342 184.56 725.182 182.3 722.042 182.3C718.902 182.3 716.742 184.56 716.742 187.8Z" fill="white"/>
<path d="M736.8 182.96C736.16 182.54 735.06 182.28 734.04 182.3C732.94 182.32 731.78 182.94 731.44 183.72V182.6H729.64V193H731.54V185.3C732.02 184.52 732.96 184 733.86 184C734.78 184 735.46 184.18 736.1 184.56L736.8 182.96Z" fill="white"/>
<path d="M738.195 193H740.095V188.58L745.055 193H747.755L741.155 187.3L747.255 182.6H744.555L740.095 186.02V177.62H738.195V193Z" fill="white"/>
<path d="M752.818 193.3C755.218 193.3 756.958 192.36 756.958 190.22C756.958 188.24 755.638 187.66 753.618 187.08L751.858 186.56C750.718 186.22 750.058 185.96 750.058 185.2C750.058 184.38 751.118 184 752.418 184C753.538 184 754.638 184.26 755.538 184.94L756.358 183.54C755.438 182.8 753.998 182.3 752.498 182.3C749.718 182.3 748.158 183.38 748.158 185.18C748.158 186.92 749.398 187.66 751.258 188.2L753.038 188.72C754.198 189.06 755.158 189.24 755.158 190.18C755.158 191.16 754.138 191.6 752.738 191.6C751.178 191.6 749.818 190.98 748.738 190.08L747.658 191.46C748.878 192.62 750.718 193.3 752.818 193.3Z" fill="white"/>
<path d="M874.646 185.74C874.646 190.4 877.666 193.3 881.766 193.3C884.346 193.3 886.426 192.32 887.726 190.54L886.346 189.44C885.366 190.76 883.726 191.6 881.766 191.6C878.766 191.6 876.546 189.34 876.546 185.74C876.546 182.14 878.766 179.9 881.766 179.9C883.526 179.9 885.006 180.68 885.946 182.06L887.446 180.96C886.166 179.2 884.146 178.2 881.766 178.2C877.666 178.2 874.646 181.08 874.646 185.74Z" fill="white"/>
<path d="M897.717 187.8C897.717 189.98 896.437 191.6 894.317 191.6C892.197 191.6 890.917 189.98 890.917 187.8C890.917 185.62 892.197 184 894.317 184C896.437 184 897.717 185.62 897.717 187.8ZM889.017 187.8C889.017 191.04 891.177 193.3 894.317 193.3C897.457 193.3 899.617 191.04 899.617 187.8C899.617 184.56 897.457 182.3 894.317 182.3C891.177 182.3 889.017 184.56 889.017 187.8Z" fill="white"/>
<path d="M903.814 193V186.12C904.094 184.86 905.234 184 906.754 184C908.654 184 909.694 184.94 909.694 186.84V193H911.594V186.46C911.594 183.78 909.954 182.3 907.274 182.3C905.634 182.3 904.334 182.94 903.714 184.06V182.6H901.914V193H903.814Z" fill="white"/>
<path d="M917.26 179.2H915.36V182.6H913.3V184.3H915.36V190.34C915.36 192.5 916.08 193.3 918.06 193.3C918.84 193.3 919.78 193.1 920.44 192.62L919.82 191.18C919.42 191.42 918.9 191.6 918.24 191.6C917.56 191.6 917.26 191.2 917.26 190.06V184.3H920.2V182.6H917.26V179.2Z" fill="white"/>
<path d="M928.936 193.1H930.836V185.74C930.836 183.16 928.896 182.3 926.356 182.3C924.916 182.3 923.116 182.82 922.196 183.38L922.776 184.98C923.696 184.42 925.116 184 926.316 184C928.016 184 928.936 184.48 928.936 186.18V186.3L926.056 186.42C923.616 186.54 921.536 187.6 921.536 189.88C921.536 192.04 922.936 193.3 925.436 193.3C927.016 193.3 928.276 192.74 928.936 191.96V193.1ZM925.636 191.62C924.296 191.62 923.436 191.02 923.436 189.88C923.436 188.66 924.776 188.04 926.296 187.98L928.936 187.88V190.26C928.176 191.16 926.716 191.62 925.636 191.62Z" fill="white"/>
<path d="M938.598 184C940.038 184 940.998 184.58 941.758 185.46L942.918 184.2C941.878 183.08 940.598 182.3 938.598 182.3C935.338 182.3 933.138 184.54 933.138 187.8C933.138 191.06 935.398 193.3 938.658 193.3C940.738 193.3 942.178 192.52 943.218 191.4L942.058 190.14C941.298 191.02 940.158 191.6 938.658 191.6C936.518 191.6 935.038 190.02 935.038 187.8C935.038 185.58 936.458 184 938.598 184Z" fill="white"/>
<path d="M948.08 179.2H946.18V182.6H944.12V184.3H946.18V190.34C946.18 192.5 946.9 193.3 948.88 193.3C949.66 193.3 950.6 193.1 951.26 192.62L950.64 191.18C950.24 191.42 949.72 191.6 949.06 191.6C948.38 191.6 948.08 191.2 948.08 190.06V184.3H951.02V182.6H948.08V179.2Z" fill="white"/>
<path d="M468 253H618V303H468V253Z" fill="#FFABAB"/>
<path d="M468 346H618V396H468V346Z" fill="#FFABAB"/>
<path d="M468 439H618V489H468V439Z" fill="#FFABAB"/>
<path d="M501.376 271.5L495.576 286H497.516L498.936 282.38H505.856L507.276 286H509.216L503.416 271.5H501.376ZM502.356 273.64H502.436L505.196 280.68H499.596L502.356 273.64Z" fill="white"/>
<path d="M512.714 278.88C513.094 277.64 514.414 276.9 515.794 276.9C517.934 276.9 519.294 278.38 519.294 280.8C519.294 283.22 517.934 284.7 515.794 284.7C514.414 284.7 513.094 283.96 512.714 282.72V278.88ZM512.714 284.74C513.214 285.7 514.534 286.3 516.034 286.3C518.994 286.3 521.094 284.24 521.094 280.8C521.094 277.36 519.014 275.3 516.054 275.3C514.494 275.3 513.154 275.96 512.714 276.86V270.62H510.814V286H512.714V284.74Z" fill="white"/>
<path d="M531.793 280.8C531.793 282.98 530.513 284.6 528.393 284.6C526.273 284.6 524.993 282.98 524.993 280.8C524.993 278.62 526.273 277 528.393 277C530.513 277 531.793 278.62 531.793 280.8ZM523.093 280.8C523.093 284.04 525.253 286.3 528.393 286.3C531.533 286.3 533.693 284.04 533.693 280.8C533.693 277.56 531.533 275.3 528.393 275.3C525.253 275.3 523.093 277.56 523.093 280.8Z" fill="white"/>
<path d="M543.77 275.6V282.48C543.49 283.74 542.35 284.6 540.83 284.6C538.87 284.6 537.89 283.66 537.89 281.76V275.6H535.99V282.14C535.99 284.82 537.59 286.3 540.31 286.3C541.95 286.3 543.19 285.74 543.77 284.74V286H545.67V275.6H543.77Z" fill="white"/>
<path d="M551.335 272.2H549.435V275.6H547.375V277.3H549.435V283.34C549.435 285.5 550.155 286.3 552.135 286.3C552.915 286.3 553.855 286.1 554.515 285.62L553.895 284.18C553.495 284.42 552.975 284.6 552.315 284.6C551.635 284.6 551.335 284.2 551.335 283.06V277.3H554.275V275.6H551.335V272.2Z" fill="white"/>
<path d="M563.398 286V278.98C563.638 277.8 564.578 277 565.778 277C567.418 277 568.418 277.96 568.418 279.6V286H570.318V278.88C570.318 278.56 570.278 278.26 570.218 277.98C570.718 277.38 571.578 277 572.358 277C573.998 277 575.078 277.96 575.078 279.6V286H576.978V278.78C576.978 276.54 574.898 275.3 572.738 275.3C571.338 275.3 570.218 275.96 569.658 276.7C568.998 275.82 567.918 275.3 566.518 275.3C564.938 275.3 563.678 276.08 563.298 277.06V275.6H561.498V286H563.398Z" fill="white"/>
<path d="M588.184 283.3C587.424 284.1 586.264 284.6 584.864 284.6C582.664 284.6 581.324 283.36 581.184 281.64H589.564C589.664 281.38 589.724 280.96 589.724 280.66C589.724 277.36 587.504 275.3 584.504 275.3C581.544 275.3 579.284 277.26 579.284 280.68C579.284 284.1 581.544 286.3 584.764 286.3C586.644 286.3 588.244 285.7 589.324 284.58L588.184 283.3ZM581.184 280.04C581.344 278.1 582.784 277 584.504 277C586.244 277 587.724 278.04 587.824 280.04H581.184Z" fill="white"/>
<path d="M511.668 364.5V379H513.568V373.76H517.528C521.128 373.76 523.308 372.32 523.308 369.12C523.308 365.92 521.128 364.5 517.528 364.5H511.668ZM517.568 366.2C520.068 366.2 521.408 366.88 521.408 369.12C521.408 371.36 520.068 372.06 517.568 372.06H513.568V366.2H517.568Z" fill="white"/>
<path d="M532.476 368.96C531.836 368.54 530.736 368.28 529.716 368.3C528.616 368.32 527.456 368.94 527.116 369.72V368.6H525.316V379H527.216V371.3C527.696 370.52 528.636 370 529.536 370C530.456 370 531.136 370.18 531.776 370.56L532.476 368.96Z" fill="white"/>
<path d="M541.88 373.8C541.88 375.98 540.6 377.6 538.48 377.6C536.36 377.6 535.08 375.98 535.08 373.8C535.08 371.62 536.36 370 538.48 370C540.6 370 541.88 371.62 541.88 373.8ZM533.18 373.8C533.18 377.04 535.34 379.3 538.48 379.3C541.62 379.3 543.78 377.04 543.78 373.8C543.78 370.56 541.62 368.3 538.48 368.3C535.34 368.3 533.18 370.56 533.18 373.8Z" fill="white"/>
<path d="M552.117 370.3V368.6H549.177V366.56C549.177 365.42 549.477 365.02 550.257 365.02C550.917 365.02 551.437 365.22 551.877 365.44L552.597 364.02C551.837 363.5 550.977 363.32 550.077 363.32C548.017 363.32 547.277 364.42 547.277 366.48V368.6H545.277V370.3H547.277V379H549.177V370.3H552.117Z" fill="white"/>
<path d="M554.527 379H556.447V368.6H554.527V379ZM554.307 366H556.667V363.62H554.307V366Z" fill="white"/>
<path d="M559.873 379H561.793V363.62H559.873V379Z" fill="white"/>
<path d="M573.291 376.3C572.531 377.1 571.371 377.6 569.971 377.6C567.771 377.6 566.431 376.36 566.291 374.64H574.671C574.771 374.38 574.831 373.96 574.831 373.66C574.831 370.36 572.611 368.3 569.611 368.3C566.651 368.3 564.391 370.26 564.391 373.68C564.391 377.1 566.651 379.3 569.871 379.3C571.751 379.3 573.351 378.7 574.431 377.58L573.291 376.3ZM566.291 373.04C566.451 371.1 567.891 370 569.611 370C571.351 370 572.831 371.04 572.931 373.04H566.291Z" fill="white"/>
<path d="M518.574 469.2C519.854 471.16 522.174 472.3 525.034 472.3C527.974 472.3 530.634 471.06 530.634 468.2C530.634 465.7 528.654 464.66 525.994 463.9L524.054 463.34C522.194 462.8 520.954 462.32 520.954 461C520.954 459.62 522.434 458.9 524.514 458.9C526.314 458.9 527.754 459.74 528.754 460.94L530.114 459.72C528.574 457.9 526.754 457.2 524.514 457.2C521.194 457.2 519.054 458.74 519.054 461.08C519.054 463.44 520.634 464.24 523.454 465.06L525.434 465.64C526.854 466.06 528.734 466.62 528.734 468.2C528.734 469.96 526.934 470.6 524.894 470.6C522.634 470.6 521.034 469.58 520.074 468.1L518.574 469.2Z" fill="white"/>
<path d="M533.032 472H534.932V467.58L539.892 472H542.592L535.992 466.3L542.092 461.6H539.392L534.932 465.02V456.62H533.032V472Z" fill="white"/>
<path d="M544.001 472H545.921V461.6H544.001V472ZM543.781 459H546.141V456.62H543.781V459Z" fill="white"/>
<path d="M549.568 472H551.488V461.6H549.568V472ZM549.348 459H551.708V456.62H549.348V459Z" fill="white"/>
<path d="M554.914 472H556.834V456.62H554.914V472Z" fill="white"/>
<path d="M564.491 472.3C566.891 472.3 568.631 471.36 568.631 469.22C568.631 467.24 567.311 466.66 565.291 466.08L563.531 465.56C562.391 465.22 561.731 464.96 561.731 464.2C561.731 463.38 562.791 463 564.091 463C565.211 463 566.311 463.26 567.211 463.94L568.031 462.54C567.111 461.8 565.671 461.3 564.171 461.3C561.391 461.3 559.831 462.38 559.831 464.18C559.831 465.92 561.071 466.66 562.931 467.2L564.711 467.72C565.871 468.06 566.831 468.24 566.831 469.18C566.831 470.16 565.811 470.6 564.411 470.6C562.851 470.6 561.491 469.98 560.411 469.08L559.331 470.46C560.551 471.62 562.391 472.3 564.491 472.3Z" fill="white"/>
<path d="M653 253H803V303H653V253Z" fill="#FFABAB"/>
<path d="M653 346H803V396H653V346Z" fill="#FFABAB"/>
<path d="M653 439H803V489H653V439Z" fill="#FFABAB"/>
<path d="M653 541H803V591H653V541Z" fill="#FFABAB"/>
<path d="M692.51 280.92H698.01V284.02H690.15V285.62H707.67V284.02H699.81V280.92H705.61V279.32H694.31V276.48H705.31V270.68H692.51V272.28H703.51V274.88H692.51V280.92Z" fill="white"/>
<path d="M712.305 288.06H724.865V286.46H714.105V284.72H724.565V280.02H712.305V281.62H722.765V283.12H712.305V288.06ZM710.185 274.22C710.185 276.72 712.085 278.38 714.965 278.38C717.845 278.38 719.745 276.72 719.745 274.22C719.745 271.72 717.845 270.06 714.965 270.06C712.085 270.06 710.185 271.72 710.185 274.22ZM722.765 269.82V279.12H724.565V276.66H727.405V275.06H724.565V273.14H727.405V271.54H724.565V269.82H722.765ZM711.945 274.22C711.945 272.66 713.225 271.62 714.965 271.62C716.705 271.62 717.985 272.66 717.985 274.22C717.985 275.78 716.705 276.82 714.965 276.82C713.225 276.82 711.945 275.78 711.945 274.22Z" fill="white"/>
<path d="M739.519 269.92V287.56H741.279V277.86H743.779V287.96H745.539V269.82H743.779V276.26H741.279V269.92H739.519ZM737.199 270.72H729.819V272.32H735.399V275.12C735.399 275.44 735.359 275.74 735.319 276.04H729.519V277.64H734.819C733.979 279.58 732.219 281.56 729.759 283.64L731.059 284.94C734.659 281.94 737.199 278.56 737.199 275.22V270.72Z" fill="white"/>
<path d="M762.094 269.82V282.48H763.894V269.82H762.094ZM751.394 287.86H764.434V286.26H753.194V281.32H751.394V287.86ZM749.754 270.36V279.14H754.094C756.074 279.14 758.294 278.98 760.234 278.74L760.074 277.2C758.274 277.42 756.274 277.54 754.374 277.54H751.554V270.36H749.754Z" fill="white"/>
<path d="M692.51 364.6H703.41V366.36H692.21V367.88H703.33C703.29 368.44 703.23 369.02 703.15 369.66H690.15V371.22H707.67V369.66H704.93C705.11 368.4 705.21 367.18 705.21 365.86V363.06H692.51V364.6ZM692.51 376.08V381.06H705.61V379.46H694.31V377.68H705.31V372.86H692.51V374.46H703.51V376.08H692.51Z" fill="white"/>
<path d="M712.005 366.4V371.36H717.405V373.18H709.545V374.78H727.065V373.18H719.205V371.36H724.905V369.8H713.805V367.92H724.605V363.12H712.005V364.68H722.805V366.4H712.005ZM711.905 380.86H725.105V379.26H713.705V375.6H711.905V380.86Z" fill="white"/>
<path d="M730.699 370.34H742.339C742.279 371.7 742.179 373.06 742.039 374.38L743.779 374.5C744.039 372.1 744.199 369.58 744.199 367.12V363.8H730.999V365.4H742.399V367.46C742.399 367.88 742.399 368.32 742.379 368.74H730.699V370.34ZM728.939 377.02V378.62H746.459V377.02H737.699V372.68H735.899V377.02H728.939Z" fill="white"/>
<path d="M757.734 381.46C761.714 381.46 764.174 379.82 764.174 377.4C764.174 374.98 761.714 373.34 757.734 373.34C753.754 373.34 751.294 374.98 751.294 377.4C751.294 379.72 753.754 381.46 757.734 381.46ZM757.734 374.94C760.474 374.94 762.374 375.88 762.374 377.4C762.374 378.92 760.474 379.86 757.734 379.86C754.994 379.86 753.094 378.92 753.094 377.4C753.094 375.88 754.994 374.94 757.734 374.94ZM762.094 362.82V373.08H763.894V362.82H762.094ZM760.274 369.68C758.474 369.9 756.474 370.02 754.574 370.02H751.554V365.06H758.854V363.46H749.754V371.62H754.294C756.274 371.62 758.494 371.46 760.434 371.22L760.274 369.68Z" fill="white"/>
<path d="M709.009 456.54V461.06H703.269V456.54H701.469V469.44H710.809V456.54H709.009ZM714.509 455.82V473.96H716.309V455.82H714.509ZM703.269 467.84V462.66H709.009V467.84H703.269Z" fill="white"/>
<path d="M721.303 459.02C721.303 460.92 722.923 462.38 726.403 462.38C729.883 462.38 731.503 460.92 731.503 459.02C731.503 457.12 729.883 455.66 726.403 455.66C722.923 455.66 721.303 457.12 721.303 459.02ZM728.363 467.04V468.5C728.363 470.2 724.843 471.48 721.943 472.28L722.563 473.9C725.403 473.12 727.963 471.92 729.263 470.74C730.563 471.92 733.123 473.12 735.963 473.9L736.583 472.28C733.683 471.48 730.163 470.2 730.163 468.5V467.04H728.363ZM726.843 467.92V464.94C729.083 464.9 731.243 464.7 732.883 464.34L732.643 462.84C730.883 463.18 728.643 463.34 726.543 463.34H720.163V464.94H725.043V467.92H726.843ZM733.903 455.82V467.82H735.703V455.82H733.903ZM723.103 459.02C723.103 457.94 724.283 457.24 726.403 457.24C728.523 457.24 729.703 457.94 729.703 459.02C729.703 460.1 728.523 460.8 726.403 460.8C724.283 460.8 723.103 460.1 723.103 459.02Z" fill="white"/>
<path d="M753.298 455.82V473.96H755.098V455.82H753.298ZM740.258 469.34H749.598V456.72H740.258V469.34ZM742.058 458.32H747.798V467.74H742.058V458.32Z" fill="white"/>
<path d="M696.813 566.62H694.153V561.3H692.353V566.62H687.073V561.3H685.273V566.62H682.613V568.22H688.813V572.02H680.953V573.62H698.473V572.02H690.613V568.22H696.813V566.62ZM696.913 558.8H682.513V560.4H696.913V558.8Z" fill="white"/>
<path d="M700.348 572.02V573.62H717.868V572.02H700.348ZM715.008 562.94H704.508V560.28H715.508V558.68H702.708V569.04H715.808V567.44H704.508V564.54H715.008V562.94Z" fill="white"/>
<path d="M722.102 571.34V576.06H735.202V574.46H723.902V572.94H734.902V568.38H722.102V569.98H733.102V571.34H722.102ZM721.582 564.08H727.602V565.58H719.742V567.14H737.262V565.58H729.402V564.08H735.422V562.56H732.762V560.26H730.962V562.56H726.042V560.26H724.242V562.56H721.582V564.08ZM721.782 559.62H735.222V558.06H721.782V559.62Z" fill="white"/>
<path d="M745.717 571.82C747.697 571.82 749.497 571.78 751.517 571.52L751.357 569.98C749.557 570.2 747.897 570.22 745.997 570.22H742.337V565.9H749.397V558.64H740.537V560.24H747.597V564.3H740.537V571.82H745.717ZM753.097 557.82V575.96H754.897V557.82H753.097Z" fill="white"/>
<path d="M767.291 558.5C762.991 558.5 760.771 560.7 760.771 563.44C760.771 565.98 762.671 568.06 766.391 568.34V572.02H758.531V573.62H776.051V572.02H768.191V568.34C771.891 568.06 773.811 565.98 773.811 563.44C773.811 560.7 771.591 558.5 767.291 558.5ZM767.291 566.74C764.131 566.74 762.571 565.28 762.571 563.44C762.571 561.6 764.131 560.14 767.291 560.14C770.451 560.14 772.011 561.6 772.011 563.44C772.011 565.28 770.451 566.74 767.291 566.74Z" fill="white"/>
</svg>
