<svg width="150" height="150" viewBox="0 0 150 150" fill="none" xmlns="http://www.w3.org/2000/svg">
<path d="M126.511 31.6522L126.511 31.652C127.093 31.0707 127.554 30.3805 127.868 29.621C128.183 28.8614 128.345 28.0473 128.345 27.2252C128.345 26.403 128.183 25.5889 127.868 24.8294C127.554 24.0698 127.093 23.3796 126.511 22.7983C125.93 22.2169 125.24 21.7558 124.48 21.4412C123.721 21.1265 122.906 20.9646 122.084 20.9646C121.262 20.9646 120.448 21.1265 119.688 21.4412C118.929 21.7558 118.239 22.2169 117.657 22.7983L117.657 22.7984L81.255 59.2085L81.2606 7.76072V7.76055C81.2606 6.9384 81.0986 6.1243 80.784 5.36474C80.4694 4.60518 80.0082 3.91502 79.4269 3.33368C78.8455 2.75233 78.1554 2.29118 77.3958 1.97656C76.6362 1.66194 75.8222 1.5 75 1.5C74.1779 1.5 73.3638 1.66194 72.6042 1.97656C71.8446 2.29118 71.1545 2.75233 70.5731 3.33368C69.9918 3.91502 69.5306 4.60518 69.216 5.36474C68.9014 6.12431 68.7395 6.93841 68.7395 7.76055V7.76072L68.7451 60.1312L31.4204 22.7984L31.4203 22.7983C30.8389 22.2169 30.1487 21.7558 29.3892 21.4412C28.6296 21.1265 27.8155 20.9646 26.9934 20.9646C26.1712 20.9646 25.3571 21.1265 24.5976 21.4412C23.838 21.7558 23.1478 22.2169 22.5665 22.7983C21.9851 23.3796 21.524 24.0698 21.2094 24.8294C20.8948 25.5889 20.7328 26.403 20.7328 27.2252C20.7328 28.0473 20.8948 28.8614 21.2094 29.621C21.524 30.3805 21.9851 31.0707 22.5665 31.652L22.5666 31.6522L59.6675 68.745L7.76072 68.7395H7.76055C6.10016 68.7395 4.50776 69.399 3.33368 70.5731C2.15959 71.7472 1.5 73.3396 1.5 75C1.5 76.6604 2.1596 78.2528 3.33368 79.4269C4.50775 80.601 6.10014 81.2606 7.76055 81.2606H7.76072L59.2086 81.255L22.5666 117.889L22.5665 117.889C21.3924 119.063 20.7328 120.656 20.7328 122.316C20.7328 123.977 21.3924 125.569 22.5665 126.743C23.7406 127.917 25.333 128.577 26.9934 128.577C28.6538 128.577 30.2462 127.917 31.4203 126.743L31.4204 126.743L68.7451 89.4101L68.7395 142.239C68.7395 143.9 69.399 145.492 70.5731 146.666C71.7472 147.84 73.3396 148.5 75 148.5C76.6604 148.5 78.2528 147.84 79.4269 146.666C80.601 145.492 81.2606 143.9 81.2606 142.239L81.255 90.3327L117.657 126.743L117.657 126.743C118.832 127.917 120.424 128.577 122.084 128.577C123.745 128.577 125.337 127.917 126.511 126.743C127.685 125.569 128.345 123.977 128.345 122.316C128.345 120.656 127.685 119.063 126.511 117.889L126.511 117.889L89.869 81.2549L142.239 81.2606C143.062 81.2606 143.876 81.0986 144.635 80.784C145.395 80.4694 146.085 80.0082 146.666 79.4269C147.248 78.8455 147.709 78.1554 148.023 77.3958C148.338 76.6362 148.5 75.8221 148.5 75C148.5 74.1779 148.338 73.3638 148.023 72.6042C147.709 71.8446 147.248 71.1545 146.666 70.5731C146.085 69.9918 145.395 69.5306 144.635 69.216C143.876 68.9014 143.062 68.7395 142.239 68.7395L89.4101 68.7451L126.511 31.6522Z" fill="#A9EAFF" stroke="#A9EAFF" stroke-width="3"/>
</svg>
