<svg width="150" height="150" viewBox="0 0 150 150" fill="none" xmlns="http://www.w3.org/2000/svg">
<path fill-rule="evenodd" clip-rule="evenodd" d="M127.572 32.7129L93.0324 67.2447L142.239 67.2395C143.258 67.2395 144.268 67.4402 145.209 67.8302C146.151 68.2202 147.006 68.7918 147.727 69.5125C148.448 70.2331 149.019 71.0886 149.409 72.0302C149.799 72.9717 150 73.9809 150 75C150 76.0191 149.799 77.0283 149.409 77.9698C149.019 78.9114 148.448 79.7669 147.727 80.4875C147.006 81.2082 146.151 81.7798 145.209 82.1698C144.268 82.5598 143.259 82.7606 142.239 82.7606L93.4913 82.7553L127.572 116.828C129.027 118.284 129.845 120.258 129.845 122.316C129.845 124.374 129.027 126.348 127.572 127.804C126.116 129.259 124.143 130.077 122.084 130.077C120.026 130.077 118.052 129.259 116.597 127.804L82.7554 93.9549L82.7606 142.239C82.7606 144.297 81.9429 146.272 80.4875 147.727C79.0322 149.182 77.0582 150 75 150C72.9418 150 70.9679 149.182 69.5125 147.727C68.0571 146.272 67.2395 144.298 67.2395 142.239L67.2447 93.0323L32.4811 127.803C31.0257 129.259 29.0516 130.077 26.9934 130.077C24.9352 130.077 22.9612 129.259 21.5058 127.804C20.0504 126.348 19.2328 124.374 19.2328 122.316C19.2328 120.258 20.0504 118.284 21.5058 116.829L55.5863 82.7554L7.76088 82.7606C5.70264 82.7606 3.72839 81.9429 2.27302 80.4875C0.817636 79.0322 0 77.0582 0 75C0 72.9418 0.81763 70.9678 2.27301 69.5125C3.7284 68.0571 5.70233 67.2395 7.76055 67.2395L56.0452 67.2446L21.5061 32.7129C20.7854 31.9923 20.2136 31.1365 19.8236 30.195C19.4336 29.2534 19.2328 28.2443 19.2328 27.2252C19.2328 26.206 19.4336 25.1969 19.8236 24.2553C20.2136 23.3138 20.7852 22.4583 21.5058 21.7376C22.2265 21.017 23.082 20.4453 24.0235 20.0553C24.9651 19.6653 25.9742 19.4646 26.9934 19.4646C28.0125 19.4646 29.0217 19.6653 29.9632 20.0553C30.9048 20.4453 31.7603 21.017 32.4809 21.7376L67.2447 56.5089L67.2395 7.76088C67.2395 6.74175 67.4402 5.73228 67.8302 4.79072C68.2202 3.84917 68.7918 2.99365 69.5125 2.27301C70.2331 1.55238 71.0886 0.980741 72.0302 0.590739C72.9717 0.200737 73.9809 0 75 0C76.0191 0 77.0283 0.200737 77.9698 0.590739C78.9114 0.980741 79.7669 1.55238 80.4875 2.27301C81.2082 2.99365 81.7798 3.84917 82.1698 4.79072C82.5598 5.73226 82.7606 6.74141 82.7606 7.76055L82.7554 55.5863L116.597 21.7378C117.317 21.0172 118.173 20.4454 119.114 20.0553C120.056 19.6653 121.065 19.4646 122.084 19.4646C123.103 19.4646 124.113 19.6653 125.054 20.0553C125.996 20.4454 126.851 21.017 127.572 21.7376C128.292 22.4583 128.864 23.3138 129.254 24.2553C129.644 25.1969 129.845 26.206 129.845 27.2252C129.845 28.2443 129.644 29.2534 129.254 30.195C128.864 31.1365 128.292 31.9923 127.572 32.7129ZM79.7546 62.8308L79.7606 7.76055C79.7606 7.13539 79.6374 6.51635 79.3982 5.93877C79.1589 5.36119 78.8083 4.83639 78.3662 4.39434C77.9242 3.95228 77.3994 3.60162 76.8218 3.36238C76.2442 3.12314 75.6252 3 75 3C74.3748 3 73.7558 3.12314 73.1782 3.36238C72.6006 3.60162 72.0758 3.95228 71.6338 4.39434C71.1917 4.83639 70.8411 5.36119 70.6018 5.93877C70.3626 6.51635 70.2395 7.13539 70.2395 7.76055L70.2455 63.7534L30.3596 23.8589C29.9175 23.4169 29.3927 23.0662 28.8152 22.827C28.2376 22.5877 27.6185 22.4646 26.9934 22.4646C26.3682 22.4646 25.7492 22.5877 25.1716 22.827C24.594 23.0662 24.0692 23.4169 23.6272 23.8589C23.1851 24.301 22.8344 24.8258 22.5952 25.4034C22.356 25.981 22.2328 26.6 22.2328 27.2252C22.2328 27.8503 22.356 28.4694 22.5952 29.0469C22.8344 29.6245 23.1851 30.1493 23.6272 30.5914L63.2897 70.2454L7.76055 70.2395C6.49798 70.2395 5.28711 70.741 4.39434 71.6338C3.50156 72.5266 3 73.7374 3 75C3 76.2626 3.50156 77.4734 4.39434 78.3662C5.28711 79.259 6.49798 79.7606 7.76055 79.7606L62.8308 79.7546L23.6272 118.95C22.7344 119.843 22.2328 121.054 22.2328 122.316C22.2328 123.579 22.7344 124.79 23.6272 125.682C24.5199 126.575 25.7308 127.077 26.9934 127.077C28.2559 127.077 29.4668 126.575 30.3596 125.682L70.2455 85.7878L70.2395 142.239C70.2395 143.502 70.741 144.713 71.6338 145.606C72.5266 146.498 73.7374 147 75 147C76.2626 147 77.4734 146.498 78.3662 145.606C79.259 144.713 79.7606 143.502 79.7606 142.239L79.7546 86.7104L118.718 125.682C119.611 126.575 120.822 127.077 122.084 127.077C123.347 127.077 124.558 126.575 125.451 125.682C126.343 124.79 126.845 123.579 126.845 122.316C126.845 121.054 126.343 119.843 125.451 118.95L86.2467 79.7545L142.239 79.7606C142.865 79.7606 143.484 79.6374 144.061 79.3982C144.639 79.1589 145.164 78.8083 145.606 78.3662C146.048 77.9242 146.398 77.3994 146.638 76.8218C146.877 76.2442 147 75.6252 147 75C147 74.3748 146.877 73.7558 146.638 73.1782C146.398 72.6006 146.048 72.0758 145.606 71.6338C145.164 71.1917 144.639 70.8411 144.061 70.6018C143.484 70.3626 142.865 70.2395 142.239 70.2395L85.7879 70.2455L125.451 30.5914C125.893 30.1493 126.243 29.6245 126.482 29.0469C126.722 28.4694 126.845 27.8503 126.845 27.2252C126.845 26.6 126.722 25.981 126.482 25.4034C126.243 24.8258 125.893 24.301 125.451 23.8589C125.008 23.4169 124.484 23.0662 123.906 22.827C123.329 22.5877 122.709 22.4646 122.084 22.4646C121.459 22.4646 120.84 22.5877 120.263 22.827C119.685 23.0662 119.16 23.4169 118.718 23.8589L79.7546 62.8308Z" fill="#A9EAFF"/>
</svg>
