<svg xmlns="http://www.w3.org/2000/svg" viewBox="0 0 69.86 44"><defs><style>.cls-1{fill:#aadcf1;}.cls-2{fill:none;stroke:#aadcf1;stroke-miterlimit:10;stroke-width:0.26px;}</style></defs><g id="레이어_2" data-name="레이어 2"><g id="Layer_1" data-name="Layer 1"><path class="cls-1" d="M29.61,35.45l-.12,0-.11-.54a.25.25,0,0,1,.21-.34.28.28,0,0,1,.13,0v.08h-.1c-.11,0-.16.08-.12.24Z"/><path class="cls-1" d="M28.61,35c0-.06,0-.12,0-.16l.11,0,0,.09h0a.26.26,0,0,1,.19-.16.23.23,0,0,1,.28.21l.07.34-.12,0L29.06,35c0-.11-.07-.17-.18-.15a.19.19,0,0,0-.14.13V35l.07.35-.12,0Z"/><path class="cls-1" d="M28.36,35.15a.2.2,0,0,0-.27-.15.52.52,0,0,0-.18.07l0-.08.21-.08a.3.3,0,0,1,.39.23.31.31,0,0,1-.25.38.26.26,0,0,1-.33-.22.07.07,0,0,0,0,0ZM28,35.3a.16.16,0,0,0,.2.14.19.19,0,0,0,.15-.21Z"/><path class="cls-1" d="M27.19,35.27c0-.06,0-.12,0-.16l.1,0,0,.09h0a.26.26,0,0,1,.2-.15c.1,0,.23,0,.27.21l.07.34-.12,0-.06-.33c0-.11-.08-.17-.18-.15a.15.15,0,0,0-.14.12.06.06,0,0,0,0,.06l.06.36-.11,0Z"/><path class="cls-1" d="M27,35.58c0,.06,0,.11,0,.15l-.11,0,0-.09h0a.27.27,0,0,1-.2.15.22.22,0,0,1-.28-.2l-.07-.35.12,0,.07.33c0,.1.07.17.18.15a.18.18,0,0,0,.14-.14v0l-.07-.35.12,0Z"/><path class="cls-1" d="M26.23,36.14a1.27,1.27,0,0,1,.08-.31l.07,0a2.77,2.77,0,0,0,0,.3Z"/><path class="cls-1" d="M26.1,35.43a.31.31,0,0,0-.17,0c-.09,0-.12.06-.11.11s.05.07.14.09.19.06.2.13-.05.19-.19.21a.32.32,0,0,1-.17,0l0-.08a.63.63,0,0,0,.14,0c.07,0,.1,0,.09-.1s-.05-.06-.14-.07-.19-.06-.2-.15.05-.19.21-.22a.39.39,0,0,1,.19,0Z"/><path class="cls-1" d="M25.36,36.28a1,1,0,0,1-.23,0,.47.47,0,0,1-.27,0,.23.23,0,0,1-.1-.16.21.21,0,0,1,0-.19.36.36,0,0,1,.26-.13h.1l-.05-.33.11,0Zm-.19-.38h-.1c-.14,0-.22.1-.2.21s.12.15.25.13l.11,0Z"/><path class="cls-1" d="M24,36a.29.29,0,0,1,.27-.36A.31.31,0,1,1,24,36Zm.52-.09a.21.21,0,0,0-.24-.19c-.11,0-.18.12-.16.26a.22.22,0,0,0,.24.19A.2.2,0,0,0,24.52,35.89Z"/><path class="cls-1" d="M23.84,36.12a1.16,1.16,0,0,0,0,.18h-.11l0-.11h0a.19.19,0,0,1-.16.16h0l0-.1h0a.16.16,0,0,0,.14-.17V36l-.05-.31.12,0Z"/><path class="cls-1" d="M23.29,36.56l0-.17-.18,0v-.08l.17,0L23.2,36c0-.07,0-.11-.1-.1l-.07,0,0-.08.1,0a.16.16,0,0,1,.14,0s.06.07.07.14l.05.32h.1l0,.08h-.11l0,.15Z"/><path class="cls-1" d="M22.84,35.85l.08.51H23v.08h-.09v0a.27.27,0,0,1-.05.22.2.2,0,0,1-.15.08h-.1v-.09h.08c.1,0,.12-.1.1-.19v0l-.16,0V36.4l.16,0-.07-.51Z"/><path class="cls-1" d="M21.92,36.29a.31.31,0,0,1,.29-.36.3.3,0,0,1,.36.26.31.31,0,0,1-.29.36A.3.3,0,0,1,21.92,36.29Zm.53-.08a.22.22,0,0,0-.24-.2.22.22,0,0,0-.17.26c0,.1.09.22.23.2A.22.22,0,0,0,22.45,36.21Z"/><path class="cls-1" d="M21.83,36.87l-.12,0L21.6,36l.12,0Z"/><path class="cls-1" d="M21.38,36.06l.08.58-.12,0-.08-.59Zm0,.76a.07.07,0,0,1,.07-.07.07.07,0,1,1,0,.13A.07.07,0,0,1,21.34,36.82Z"/><path class="cls-1" d="M20.51,36.47a.31.31,0,0,1,.3-.35.3.3,0,0,1,.36.26.31.31,0,0,1-.3.35A.3.3,0,0,1,20.51,36.47ZM21,36.4a.2.2,0,0,0-.23-.2.21.21,0,0,0-.17.25.2.2,0,0,0,.23.2A.2.2,0,0,0,21,36.4Z"/><path class="cls-1" d="M18.45,37.22h-.12l0-.56a.26.26,0,0,1,.26-.31h.13v.09h-.11c-.1,0-.16.06-.15.22Z"/><path class="cls-1" d="M17.52,36.62a.78.78,0,0,0,0-.16h.11l0,.1h0a.26.26,0,0,1,.21-.13c.11,0,.24,0,.25.24l0,.35H18l0-.33c0-.11,0-.18-.16-.17a.17.17,0,0,0-.15.11.07.07,0,0,0,0,0l0,.37h-.12Z"/><path class="cls-1" d="M17.26,36.76a.2.2,0,0,0-.24-.19.64.64,0,0,0-.19,0l0-.08a.47.47,0,0,1,.22,0,.29.29,0,0,1,.35.27.3.3,0,0,1-.29.35.27.27,0,0,1-.3-.26v-.06Zm-.35.1a.17.17,0,0,0,.19.17.19.19,0,0,0,.17-.19Z"/><path class="cls-1" d="M16.06,36.72c0-.06,0-.11,0-.16h.1l0,.1h0a.25.25,0,0,1,.21-.12c.11,0,.24,0,.25.24l0,.35h-.12l0-.33c0-.11-.05-.19-.16-.18a.16.16,0,0,0-.15.11.07.07,0,0,0,0,.05l0,.36h-.12Z"/><path class="cls-1" d="M15.89,37c0,.07,0,.12,0,.16h-.1l0-.1h0a.23.23,0,0,1-.21.12c-.1,0-.24,0-.25-.24l0-.35h.12l0,.35a.14.14,0,0,0,.16.16.17.17,0,0,0,.16-.11s0,0,0-.06v-.35h.12Z"/><path class="cls-1" d="M15,37.46a1.86,1.86,0,0,1,.12-.3h.08a1.23,1.23,0,0,0-.07.29Z"/><path class="cls-1" d="M15,36.73a.25.25,0,0,0-.16,0c-.09,0-.13,0-.13.09s0,.08.13.1.19.1.19.17-.08.17-.23.18a.35.35,0,0,1-.16,0l0-.08a.42.42,0,0,0,.14,0c.07,0,.11,0,.11-.09s0-.07-.13-.09-.18-.09-.18-.18.08-.18.24-.18a.5.5,0,0,1,.19,0Z"/><path class="cls-1" d="M14.12,37.45l-.23,0a.37.37,0,0,1-.26-.07.19.19,0,0,1-.08-.17.18.18,0,0,1,.07-.17.36.36,0,0,1,.28-.1H14v-.33h.13ZM14,37.06h-.1c-.15,0-.24.07-.23.19s.09.15.22.15H14Z"/><path class="cls-1" d="M12.81,37a.3.3,0,0,1,.33-.31.3.3,0,0,1,.32.3.31.31,0,0,1-.33.32A.3.3,0,0,1,12.81,37Zm.53,0a.21.21,0,0,0-.2-.23.22.22,0,0,0-.21.23.21.21,0,0,0,.2.23A.21.21,0,0,0,13.34,37Z"/><path class="cls-1" d="M12.63,37.06v.19h-.1v-.12h0a.21.21,0,0,1-.19.13h0v-.1h0a.17.17,0,0,0,.17-.14v-.37h.12Z"/><path class="cls-1" d="M12,37.41v-.17h-.18v-.09H12v-.32c0-.08,0-.12-.09-.12h-.07v-.08H12a.19.19,0,0,1,.13,0,.22.22,0,0,1,0,.15v.33h.11v.09h-.1v.15Z"/><path class="cls-1" d="M11.69,36.63v.51h.09v.08h-.1v0a.25.25,0,0,1-.08.21.34.34,0,0,1-.17,0l-.1,0,0-.09.08,0c.1,0,.13-.08.13-.17v0h-.16v-.08h.16l0-.51Z"/><path class="cls-1" d="M10.71,36.9a.3.3,0,0,1,.34-.3.3.3,0,0,1,.31.32.31.31,0,0,1-.34.3A.3.3,0,0,1,10.71,36.9Zm.53,0a.22.22,0,0,0-.2-.24.21.21,0,0,0-.21.22.22.22,0,0,0,.19.24A.22.22,0,0,0,11.24,36.92Z"/><path class="cls-1" d="M10.52,37.46H10.4l0-.87h.13Z"/><path class="cls-1" d="M10.06,37.31s0-.06.08-.06a.08.08,0,0,1,.07.07.08.08,0,0,1-.08.07C10.08,37.38,10.05,37.35,10.06,37.31Zm.18-.74,0,.59h-.12l0-.59Z"/><path class="cls-1" d="M9.29,36.8a.32.32,0,0,1,.36-.29.31.31,0,0,1,.3.33.32.32,0,0,1-.36.29A.3.3,0,0,1,9.29,36.8Zm.53,0a.21.21,0,0,0-.18-.25.22.22,0,0,0-.23.21c0,.11,0,.24.19.25A.21.21,0,0,0,9.82,36.84Z"/><path class="cls-1" d="M6.8,37l-.12,0,.11-.55a.25.25,0,0,1,.33-.23.25.25,0,0,1,.12,0l0,.08-.1,0c-.11,0-.18,0-.21.17Z"/><path class="cls-1" d="M6.05,36.14a.5.5,0,0,0,0-.16l.11,0,0,.09h0A.27.27,0,0,1,6.42,36a.23.23,0,0,1,.16.31l-.07.33-.12,0,.07-.32c0-.11,0-.19-.1-.22a.2.2,0,0,0-.18.06l0,0-.08.36-.12,0Z"/><path class="cls-1" d="M5.77,36.2a.2.2,0,0,0-.17-.26.45.45,0,0,0-.19,0v-.08a.49.49,0,0,1,.23,0,.29.29,0,0,1,.24.37.3.3,0,0,1-.38.24.27.27,0,0,1-.2-.35s0,0,0,0Zm-.36,0a.15.15,0,0,0,.11.21.2.2,0,0,0,.23-.12Z"/><path class="cls-1" d="M4.66,35.75a1.24,1.24,0,0,0,0-.16l.11,0,0,.09h0a.28.28,0,0,1,.24,0,.23.23,0,0,1,.14.32l-.1.33L5,36.3l.1-.32c0-.1,0-.19-.08-.22a.18.18,0,0,0-.19,0s0,0,0,.05l-.11.35-.12,0Z"/><path class="cls-1" d="M4.37,35.94l-.06.15-.1,0,0-.1h0A.23.23,0,0,1,4,36a.24.24,0,0,1-.13-.32L4,35.32l.11,0L4,35.69c0,.09,0,.18.08.22a.16.16,0,0,0,.19,0l0,0,.13-.33.11,0Z"/><path class="cls-1" d="M3.4,36a1.41,1.41,0,0,1,.23-.21l.08,0a1.14,1.14,0,0,0-.2.23Z"/><path class="cls-1" d="M3.69,35.31a.75.75,0,0,0-.13-.11c-.08,0-.13,0-.16,0s0,.08.07.15.12.16.09.23-.16.12-.29.06a.36.36,0,0,1-.13-.11l.06-.06a.25.25,0,0,0,.11.09c.07,0,.12,0,.14,0s0-.08-.07-.15-.12-.15-.09-.23.16-.13.31-.06a.47.47,0,0,1,.15.12Z"/><path class="cls-1" d="M2.54,35.52a1.08,1.08,0,0,1-.21-.11.41.41,0,0,1-.18-.2.19.19,0,0,1,0-.19.2.2,0,0,1,.16-.11.42.42,0,0,1,.29.07L2.7,35l.18-.28.1.07Zm.11-.4-.08-.06c-.12-.08-.23-.08-.29,0s0,.18.1.25l.1.06Z"/><path class="cls-1" d="M1.76,34.31a.31.31,0,0,1,.46,0,.3.3,0,0,1,0,.44.31.31,0,0,1-.46,0A.29.29,0,0,1,1.76,34.31Zm.41.34a.22.22,0,0,0,0-.31.23.23,0,0,0-.31,0,.21.21,0,1,0,.32.26Z"/><path class="cls-1" d="M1.55,34.25l-.13.13-.08-.08.09-.08h0a.18.18,0,0,1-.22,0l0,0,.07-.07,0,0a.16.16,0,0,0,.21,0l0,0,.23-.22.09.09Z"/><path class="cls-1" d="M.83,34l.14-.1-.11-.14.07,0,.11.14.25-.19c.06,0,.08-.09,0-.14l0-.06.06-.05a.29.29,0,0,1,.07.08.2.2,0,0,1,.05.13.2.2,0,0,1-.1.13l-.26.19.06.09L1.1,34,1,34,.92,34Z"/><path class="cls-1" d="M1.28,33.25l-.45.25.05.08-.07,0-.05-.08h0a.23.23,0,0,1-.22,0,.28.28,0,0,1-.13-.11l0-.1.08,0a.36.36,0,0,0,0,.07c0,.09.13.08.21,0h0L.62,33.3l.07,0,.08.14.45-.26Z"/><path class="cls-1" d="M.61,32.51a.32.32,0,0,1,.42.2.31.31,0,0,1-.17.41.32.32,0,0,1-.42-.2A.3.3,0,0,1,.61,32.51Zm.2.49A.21.21,0,0,0,1,32.73a.22.22,0,0,0-.29-.11.22.22,0,0,0-.14.27A.2.2,0,0,0,.81,33Z"/><path class="cls-1" d="M0,32.45l0-.12.85-.17,0,.12Z"/><path class="cls-1" d="M.06,31.93s.07,0,.07.07a.07.07,0,0,1,0,.08A.08.08,0,0,1,0,32S0,31.93.06,31.93ZM.83,32,.24,32v-.12l.58-.06Z"/><path class="cls-1" d="M.51,31.06a.32.32,0,0,1,.31.35.29.29,0,0,1-.32.3.3.3,0,0,1-.3-.34A.29.29,0,0,1,.51,31.06Zm0,.53a.21.21,0,0,0,.24-.19.22.22,0,0,0-.23-.22.21.21,0,0,0-.23.2A.2.2,0,0,0,.5,31.59Z"/><path class="cls-1" d="M.92,28.49l.06-.1.48.28a.25.25,0,0,1,.1.39.27.27,0,0,1-.08.1l-.06-.06A.28.28,0,0,0,1.48,29c.06-.09.05-.17-.09-.25Z"/><path class="cls-1" d="M2,28.11a.55.55,0,0,0,.14.09L2,28.29,2,28.24H2a.29.29,0,0,1,0,.25c-.06.09-.17.16-.35.05l-.28-.2.06-.1.28.18c.09.07.17.08.24,0a.18.18,0,0,0,0-.19s0,0,0,0L1.53,28l.07-.1Z"/><path class="cls-1" d="M2.05,27.81c.11.09.22,0,.3-.06a.54.54,0,0,0,.09-.16l.07,0a.71.71,0,0,1-.1.2A.31.31,0,0,1,2,27.9a.3.3,0,0,1-.06-.45.27.27,0,0,1,.39-.05s0,0,0,0Zm.15-.33a.16.16,0,0,0-.24,0,.17.17,0,0,0,0,.25Z"/><path class="cls-1" d="M2.89,27l.12.1-.07.09-.08-.06h0a.24.24,0,0,1-.06.24.22.22,0,0,1-.35,0l-.26-.22.08-.1.25.22c.08.07.17.09.24,0a.19.19,0,0,0,0-.19l0,0-.28-.24.08-.09Z"/><path class="cls-1" d="M2.82,26.64l-.12-.1.07-.08.08.06h0a.24.24,0,0,1,.07-.24.23.23,0,0,1,.35,0l.25.24-.08.09-.25-.24c-.07-.06-.15-.09-.23,0a.17.17,0,0,0,0,.2s0,0,0,0l.25.25-.08.08Z"/><path class="cls-1" d="M3.15,25.71a2.07,2.07,0,0,1,.12.3l0,.06a1.74,1.74,0,0,0-.15-.26Z"/><path class="cls-1" d="M3.69,26.21a.34.34,0,0,0,.14-.08c.07-.06.07-.12,0-.15s-.08,0-.17,0-.19.05-.24,0-.06-.19,0-.29l.15-.09,0,.08a.31.31,0,0,0-.12.07c-.06,0-.06.11,0,.14s.08,0,.16,0,.19-.06.25,0,.06.19,0,.3a.44.44,0,0,1-.17.1Z"/><path class="cls-1" d="M3.84,25.09A1.19,1.19,0,0,1,4,24.93a.48.48,0,0,1,.24-.13.21.21,0,0,1,.17.08.24.24,0,0,1,.07.18.43.43,0,0,1-.16.26l-.07.06.22.24-.09.09Zm.35.22.08-.06c.11-.1.13-.2.06-.29s-.18-.06-.28,0L4,25.07Z"/><path class="cls-1" d="M5.17,24.63a.3.3,0,0,1-.06.45.29.29,0,0,1-.44,0,.3.3,0,0,1,0-.45A.31.31,0,0,1,5.17,24.63ZM4.76,25a.23.23,0,0,0,.31.05.21.21,0,0,0,0-.31.21.21,0,0,0-.3-.05A.21.21,0,0,0,4.76,25Z"/><path class="cls-1" d="M5.22,24.45l-.13-.14.09-.06.07.08h0a.2.2,0,0,1,.06-.22l0,0,.06.08,0,0a.16.16,0,0,0,0,.21l0,.05.2.24-.1.08Z"/><path class="cls-1" d="M5.48,23.78l.11.13.14-.1,0,.06L5.64,24l.2.25c0,.06.09.08.15,0l0-.05,0,.06s0,.05-.07.08a.22.22,0,0,1-.14,0,.26.26,0,0,1-.13-.09l-.2-.26-.08.06-.06-.06L5.5,24l-.09-.12Z"/><path class="cls-1" d="M6.22,24.18l-.32-.41-.07.06,0-.07.07-.05v0a.31.31,0,0,1-.07-.22.26.26,0,0,1,.1-.14l.09,0,0,.08-.07,0c-.08.07,0,.15,0,.22l0,0,.13-.09,0,.06L6,23.7l.31.4Z"/><path class="cls-1" d="M6.81,23.35a.32.32,0,0,1-.08.46.3.3,0,0,1-.44-.06.31.31,0,0,1,.08-.45A.3.3,0,0,1,6.81,23.35Zm-.42.32a.21.21,0,0,0,.3.07.22.22,0,0,0,0-.31.2.2,0,0,0-.29-.06A.2.2,0,0,0,6.39,23.67Z"/><path class="cls-1" d="M6.61,22.8l.1-.07.51.71-.1.07Z"/><path class="cls-1" d="M7.06,22.62a.07.07,0,0,1,0,.1.06.06,0,0,1-.09,0,.06.06,0,0,1,0-.1A.07.07,0,0,1,7.06,22.62Zm.33.7-.34-.49.09-.07.35.48Z"/><path class="cls-1" d="M8,22.53a.31.31,0,0,1-.09.45.29.29,0,0,1-.44-.07.31.31,0,0,1,.09-.45A.3.3,0,0,1,8,22.53Zm-.43.31a.2.2,0,1,0,.33-.23.22.22,0,0,0-.3-.08A.21.21,0,0,0,7.55,22.84Z"/><path class="cls-1" d="M9.48,20.94l.1-.06.3.47a.27.27,0,0,1-.09.4l-.12.05,0-.08.09,0c.09-.06.12-.13,0-.27Z"/><path class="cls-1" d="M10.6,21a.85.85,0,0,0,.09.14l-.09.06-.06-.08h0a.25.25,0,0,1-.13.21.24.24,0,0,1-.34-.1L9.9,21l.1-.07.17.29c.06.09.13.14.22.08a.15.15,0,0,0,.09-.17.17.17,0,0,0,0-.05l-.19-.31.11-.07Z"/><path class="cls-1" d="M10.77,20.82a.2.2,0,0,0,.3.06.43.43,0,0,0,.14-.12l.06.06a.52.52,0,0,1-.17.14.31.31,0,1,1-.33-.52.26.26,0,0,1,.38.1.17.17,0,0,1,0,.05Zm.27-.24a.17.17,0,0,0-.24-.07.19.19,0,0,0-.07.24Z"/><path class="cls-1" d="M11.86,20.33l.08.14-.09.05-.06-.08h0a.23.23,0,0,1-.14.2c-.09.06-.23.07-.33-.11l-.17-.3.11-.06.16.29c.05.09.13.14.22.09a.19.19,0,0,0,.1-.17s0,0,0-.05L11.54,20l.11-.06Z"/><path class="cls-1" d="M11.9,20a.85.85,0,0,0-.09-.14l.1-.05.05.08h0a.25.25,0,0,1,.14-.21.23.23,0,0,1,.33.11l.17.32-.11,0-.16-.3a.17.17,0,0,0-.23-.08A.18.18,0,0,0,12,20s0,0,0,.05l.17.31-.1.06Z"/><path class="cls-1" d="M12.47,19.2a1.31,1.31,0,0,1,0,.32l-.07.05a1.14,1.14,0,0,0-.06-.3Z"/><path class="cls-1" d="M12.84,19.84a.34.34,0,0,0,.16,0c.08,0,.09-.1.07-.14s-.07-.06-.16,0-.2,0-.24-.07,0-.19.13-.26a.37.37,0,0,1,.16,0v.08a.29.29,0,0,0-.14,0c-.06,0-.08.09-.06.13s.07,0,.16,0,.2,0,.24.07,0,.2-.14.28a.45.45,0,0,1-.18.05Z"/><path class="cls-1" d="M13.26,18.81l.2-.12a.48.48,0,0,1,.26-.06.23.23,0,0,1,.17.31.39.39,0,0,1-.21.21l-.09,0,.15.29-.1.06Zm.29.3.09,0c.13-.06.18-.16.13-.26s-.15-.11-.27,0a.23.23,0,0,0-.09.06Z"/><path class="cls-1" d="M14.68,18.67a.31.31,0,0,1-.16.43A.3.3,0,0,1,14.1,19a.3.3,0,0,1,.15-.43A.31.31,0,0,1,14.68,18.67Zm-.47.24a.2.2,0,1,0,.36-.18.23.23,0,0,0-.29-.12A.21.21,0,0,0,14.21,18.91Z"/><path class="cls-1" d="M14.77,18.5a1.14,1.14,0,0,0-.09-.16l.1-.05.05.1h0a.19.19,0,0,1,.1-.2h0l0,.09h0a.18.18,0,0,0-.08.2l0,.05.14.28-.11.05Z"/><path class="cls-1" d="M15.17,17.91l.08.15L15.4,18l0,.08-.16.07.14.29c0,.07.07.09.13.06l.06,0,0,.07a.25.25,0,0,1-.09.07.17.17,0,0,1-.14,0s-.07-.05-.11-.11l-.14-.3-.09.05,0-.07.1-.05L15.08,18Z"/><path class="cls-1" d="M15.79,18.45,15.57,18l-.09,0,0-.07.08,0v0a.25.25,0,0,1,0-.22.28.28,0,0,1,.12-.12l.1,0,0,.08-.07,0c-.1,0-.08.13,0,.21v0l.15-.08,0,.08-.14.07.22.46Z"/><path class="cls-1" d="M16.56,17.75a.32.32,0,0,1-.17.43.31.31,0,1,1-.26-.56A.3.3,0,0,1,16.56,17.75Zm-.48.24a.21.21,0,0,0,.28.11.21.21,0,0,0,.08-.29.2.2,0,0,0-.27-.12A.21.21,0,0,0,16.08,18Z"/><path class="cls-1" d="M16.46,17.16l.11-.05.37.79-.11.05Z"/><path class="cls-1" d="M16.92,17.07a.07.07,0,0,1-.05.09.06.06,0,0,1-.09,0s0-.07,0-.09A.08.08,0,0,1,16.92,17.07Zm.2.75-.26-.54.12-.05.25.54Z"/><path class="cls-1" d="M17.83,17.15a.31.31,0,0,1-.17.43.3.3,0,0,1-.42-.14.31.31,0,0,1,.17-.43A.3.3,0,0,1,17.83,17.15Zm-.48.23c.06.12.17.18.28.12a.2.2,0,0,0,.09-.29.21.21,0,0,0-.28-.13A.21.21,0,0,0,17.35,17.38Z"/><path class="cls-1" d="M19.57,15.82l.11-.05.22.51a.26.26,0,0,1-.15.38.35.35,0,0,1-.13,0l0-.09.1,0c.1,0,.14-.11.08-.26Z"/><path class="cls-1" d="M20.63,16.09l.07.15-.1,0,0-.09h0a.26.26,0,0,1-.16.19.23.23,0,0,1-.32-.15L20,15.91l.11-.05.13.31c0,.1.11.16.21.11a.18.18,0,0,0,.11-.15s0,0,0-.06l-.15-.33.11-.05Z"/><path class="cls-1" d="M20.84,15.88c.05.14.17.15.29.11l.16-.1.05.06a.58.58,0,0,1-.2.12.28.28,0,0,1-.41-.15.3.3,0,0,1,.16-.42.27.27,0,0,1,.37.16.43.43,0,0,0,0,.05Zm.3-.2a.16.16,0,0,0-.22-.1.18.18,0,0,0-.11.23Z"/><path class="cls-1" d="M22,15.54l.07.15-.1,0,0-.09h0a.3.3,0,0,1-.17.19.22.22,0,0,1-.31-.15l-.13-.33.11,0,.13.3c0,.11.1.16.21.12a.18.18,0,0,0,.11-.15s0,0,0-.06l-.14-.33.11,0Z"/><path class="cls-1" d="M22.06,15.22a1.16,1.16,0,0,0-.06-.15l.1,0,0,.09h0a.25.25,0,0,1,.16-.19.24.24,0,0,1,.32.15l.13.33-.12,0-.12-.31c0-.09-.1-.15-.21-.11a.15.15,0,0,0-.11.16.07.07,0,0,0,0,.05l.13.33-.12,0Z"/><path class="cls-1" d="M22.75,14.51a1.6,1.6,0,0,1,0,.32l-.07,0c0-.07,0-.2,0-.29Z"/><path class="cls-1" d="M23,15.18a.33.33,0,0,0,.17,0c.08,0,.11-.09.09-.13s-.06-.07-.15-.06-.21,0-.23-.09a.21.21,0,0,1,.15-.25.37.37,0,0,1,.17,0v.08a.26.26,0,0,0-.14,0c-.07,0-.09.07-.08.11s.07.06.16.05.2,0,.23.1,0,.2-.17.26a.34.34,0,0,1-.19,0Z"/><path class="cls-1" d="M23.59,14.22a1,1,0,0,1,.21-.1.45.45,0,0,1,.27,0,.25.25,0,0,1,.14.13.27.27,0,0,1,0,.2.43.43,0,0,1-.23.18l-.1,0,.12.31-.11,0Zm.25.33.1,0c.13,0,.2-.14.16-.25s-.14-.12-.27-.07-.09,0-.1.05Z"/><path class="cls-1" d="M25,14.24a.31.31,0,0,1-.21.41.29.29,0,0,1-.41-.17.31.31,0,0,1,.21-.41A.3.3,0,0,1,25,14.24Zm-.5.19a.2.2,0,0,0,.27.15.22.22,0,0,0,.11-.29.21.21,0,0,0-.27-.14A.2.2,0,0,0,24.49,14.43Z"/><path class="cls-1" d="M25.11,14.09,25,13.92l.1,0,0,.11h0a.2.2,0,0,1,.13-.19h0l0,.1h0a.15.15,0,0,0-.11.18.07.07,0,0,0,0,.05l.11.3-.11,0Z"/><path class="cls-1" d="M25.59,13.54l.06.16.16-.06,0,.07-.17.06.11.3c0,.07.06.1.12.08l.07,0,0,.08-.1.05a.22.22,0,0,1-.14,0,.22.22,0,0,1-.09-.13l-.11-.31-.1,0,0-.08.09,0,0-.14Z"/><path class="cls-1" d="M26.13,14.15,26,13.67l-.09,0,0-.07.09,0v0a.24.24,0,0,1,0-.22.28.28,0,0,1,.13-.11.23.23,0,0,1,.11,0v.08l-.08,0c-.1,0-.09.12-.07.2l0,0,.15-.05,0,.08-.16.05.17.48Z"/><path class="cls-1" d="M27,13.54a.32.32,0,0,1-.21.41.31.31,0,1,1,.21-.41Zm-.5.18a.2.2,0,1,0,.38-.13.2.2,0,1,0-.38.13Z"/><path class="cls-1" d="M26.94,13l.12,0,.27.82-.11,0Z"/><path class="cls-1" d="M27.39,12.91s0,.07-.05.09-.08,0-.09,0a.08.08,0,0,1,.05-.09A.08.08,0,0,1,27.39,12.91Zm.12.76-.19-.56.11,0,.19.56Z"/><path class="cls-1" d="M28.31,13.09a.3.3,0,0,1-.22.4.3.3,0,0,1-.4-.19.31.31,0,0,1,.21-.4A.31.31,0,0,1,28.31,13.09Zm-.5.17a.21.21,0,0,0,.26.15.21.21,0,0,0,.12-.28.2.2,0,1,0-.38.13Z"/><path class="cls-1" d="M30.16,11.94l.12,0,.16.52a.25.25,0,0,1-.18.36l-.13,0v-.09a.22.22,0,0,0,.1,0c.1,0,.15-.09.1-.24Z"/><path class="cls-1" d="M31.19,12.32s0,.1,0,.15l-.1,0,0-.09h0a.28.28,0,0,1-.18.17.22.22,0,0,1-.3-.18l-.1-.33.11,0,.1.31c0,.11.1.17.2.13a.17.17,0,0,0,.13-.14.11.11,0,0,0,0-.05l-.11-.35.12,0Z"/><path class="cls-1" d="M31.43,12.13a.21.21,0,0,0,.28.13.65.65,0,0,0,.17-.09l0,.07a.61.61,0,0,1-.2.1.3.3,0,0,1-.41-.19.31.31,0,0,1,.22-.4.26.26,0,0,1,.34.19.11.11,0,0,1,0,.05Zm.32-.18a.16.16,0,0,0-.21-.12.19.19,0,0,0-.13.22Z"/><path class="cls-1" d="M32.59,11.9a.53.53,0,0,0,0,.15l-.11,0,0-.09h0a.26.26,0,0,1-.18.17A.22.22,0,0,1,32,12l-.1-.33.12,0,.09.32c0,.1.09.17.2.13a.17.17,0,0,0,.13-.14.11.11,0,0,0,0-.05l-.1-.35.11,0Z"/><path class="cls-1" d="M32.71,11.58a.66.66,0,0,0-.05-.15l.11,0,0,.09h0a.27.27,0,0,1,.19-.17.23.23,0,0,1,.29.18l.1.34-.12,0-.09-.32c0-.1-.09-.16-.2-.13a.17.17,0,0,0-.12.15s0,0,0,0L33,12l-.12,0Z"/><path class="cls-1" d="M33.45,11a2.16,2.16,0,0,1-.05.32l-.07,0a1.5,1.5,0,0,0,0-.3Z"/><path class="cls-1" d="M33.66,11.65h.16c.09,0,.12-.08.11-.12s-.06-.07-.16-.07-.19-.05-.21-.12,0-.19.17-.23h.17v.08h-.15c-.07,0-.1.07-.08.11s.06.06.15.06.19,0,.22.13,0,.19-.2.23a.32.32,0,0,1-.19,0Z"/><path class="cls-1" d="M34.3,10.74a1,1,0,0,1,.22-.08.41.41,0,0,1,.27,0,.19.19,0,0,1,.12.14.24.24,0,0,1,0,.19.41.41,0,0,1-.25.16l-.1,0,.09.32-.12,0Zm.22.35.1,0c.14,0,.21-.12.18-.23s-.13-.13-.26-.1l-.1,0Z"/><path class="cls-1" d="M35.71,10.89a.3.3,0,0,1-.24.39.3.3,0,0,1-.39-.21.31.31,0,0,1,.24-.39A.3.3,0,0,1,35.71,10.89ZM35.2,11a.2.2,0,1,0,.39-.11.21.21,0,0,0-.25-.17A.21.21,0,0,0,35.2,11Z"/><path class="cls-1" d="M35.84,10.75c0-.07,0-.13-.05-.18l.1,0,0,.12h0a.2.2,0,0,1,.15-.17h0l0,.09h0a.17.17,0,0,0-.13.18.43.43,0,0,1,0,.05l.08.3-.12,0Z"/><path class="cls-1" d="M36.35,10.25l0,.17.17,0,0,.08-.17,0,.08.31c0,.07,0,.1.12.08l.07,0,0,.08-.1,0a.21.21,0,0,1-.14,0,.2.2,0,0,1-.08-.14l-.08-.31-.1,0,0-.08.11,0,0-.14Z"/><path class="cls-1" d="M36.86,10.91l-.12-.5-.09,0,0-.08.09,0v0a.25.25,0,0,1,0-.21.31.31,0,0,1,.15-.1H37v.09h-.08c-.1,0-.11.11-.09.2v0l.16,0,0,.08-.16,0,.12.5Z"/><path class="cls-1" d="M37.73,10.38a.32.32,0,0,1-.25.39.3.3,0,0,1-.38-.22.31.31,0,0,1,.24-.39A.3.3,0,0,1,37.73,10.38Zm-.52.14a.21.21,0,1,0,.4-.11.21.21,0,0,0-.25-.17A.22.22,0,0,0,37.21,10.52Z"/><path class="cls-1" d="M37.75,9.79l.12,0,.2.84-.12,0Z"/><path class="cls-1" d="M38.24,9.79s0,.07-.06.08-.08,0-.09,0a.08.08,0,0,1,.06-.09A.07.07,0,0,1,38.24,9.79Zm0,.77L38.14,10l.12,0,.13.57Z"/><path class="cls-1" d="M39.12,10.06a.31.31,0,0,1-.26.38.29.29,0,0,1-.38-.23.3.3,0,0,1,.25-.38A.31.31,0,0,1,39.12,10.06Zm-.52.12a.21.21,0,0,0,.25.18.23.23,0,0,0-.1-.45A.2.2,0,0,0,38.6,10.18Z"/><path class="cls-1" d="M40.22,9.27l.12,0,.12.54a.25.25,0,0,1-.22.34h-.13V10a.17.17,0,0,0,.1,0c.11,0,.16-.08.13-.24Z"/><path class="cls-1" d="M41.2,9.74a.75.75,0,0,0,0,.16l-.11,0,0-.09h0a.28.28,0,0,1-.19.15.22.22,0,0,1-.28-.2l-.08-.34.12,0,.07.32c0,.11.08.18.19.16a.2.2,0,0,0,.14-.14.11.11,0,0,0,0-.05L41,9.34l.12,0Z"/><path class="cls-1" d="M41.45,9.57a.2.2,0,0,0,.27.15.63.63,0,0,0,.18-.06l0,.07a.54.54,0,0,1-.21.08.3.3,0,0,1-.39-.23.31.31,0,0,1,.25-.37.26.26,0,0,1,.33.22v.05Zm.34-.15a.16.16,0,0,0-.21-.13.17.17,0,0,0-.14.2Z"/><path class="cls-1" d="M42.64,9.45a.75.75,0,0,0,0,.16l-.11,0,0-.09h0a.28.28,0,0,1-.19.15c-.11,0-.24,0-.28-.22L42,9.13l.12,0,.06.32c0,.11.07.18.18.16a.16.16,0,0,0,.14-.13V9.41l-.07-.36.12,0Z"/><path class="cls-1" d="M42.78,9.15c0-.06,0-.11,0-.16l.11,0,0,.09h0a.24.24,0,0,1,.19-.15.23.23,0,0,1,.28.21l.07.34-.12,0-.07-.34A.14.14,0,0,0,43.05,9a.16.16,0,0,0-.14.14v0l.07.35-.12,0Z"/><path class="cls-1" d="M43.58,8.58a1.07,1.07,0,0,1-.08.31l-.07,0a2.53,2.53,0,0,0,0-.3Z"/><path class="cls-1" d="M43.71,9.3a.46.46,0,0,0,.17,0c.09,0,.12-.06.11-.11s-.05-.07-.14-.09-.19-.06-.2-.13.05-.19.19-.21a.31.31,0,0,1,.17,0l0,.08a.27.27,0,0,0-.14,0c-.07,0-.1.05-.09.1s.05.06.14.07.19.06.21.15-.06.19-.22.22a.39.39,0,0,1-.19,0Z"/><path class="cls-1" d="M44.45,8.45l.23-.06a.47.47,0,0,1,.27,0,.27.27,0,0,1,.11.16.24.24,0,0,1-.05.19.41.41,0,0,1-.26.14h-.1l.05.32-.11,0Zm.19.37h.1c.14,0,.22-.1.2-.21s-.12-.15-.25-.13l-.11,0Z"/><path class="cls-1" d="M45.81,8.74a.3.3,0,0,1-.27.36.29.29,0,0,1-.37-.24.31.31,0,0,1,.28-.37A.3.3,0,0,1,45.81,8.74Zm-.52.09a.21.21,0,0,0,.24.19.23.23,0,0,0-.08-.45A.2.2,0,0,0,45.29,8.83Z"/><path class="cls-1" d="M46,8.61a1.06,1.06,0,0,0,0-.19H46l0,.11h0a.2.2,0,0,1,.16-.16h0v.1h0a.15.15,0,0,0-.14.16v0l0,.31L46,9Z"/><path class="cls-1" d="M46.55,8.16l0,.17.17,0,0,.08-.18,0,.05.32c0,.07,0,.11.11.1l.07,0,0,.08-.11,0a.14.14,0,0,1-.13,0s-.06-.07-.07-.14l-.05-.32h-.11V8.36l.1,0,0-.14Z"/><path class="cls-1" d="M47,8.87l-.08-.51H46.8l0-.08h.1v0A.28.28,0,0,1,46.92,8,.28.28,0,0,1,47.07,8h.11V8h-.08c-.1,0-.11.1-.1.19v0l.16,0v.08l-.16,0,.08.51Z"/><path class="cls-1" d="M47.92,8.43a.31.31,0,0,1-.29.36.31.31,0,1,1,.29-.36Zm-.53.08a.22.22,0,0,0,.23.2.21.21,0,0,0,.17-.26.2.2,0,0,0-.23-.2A.21.21,0,0,0,47.39,8.51Z"/><path class="cls-1" d="M48,7.85h.12l.12.85-.12,0Z"/><path class="cls-1" d="M48.47,7.89s0,.07-.07.08a.06.06,0,0,1-.08-.06.07.07,0,0,1,.07-.07A.06.06,0,0,1,48.47,7.89Zm0,.77-.07-.58.12,0,.07.59Z"/><path class="cls-1" d="M49.3,8.25A.3.3,0,0,1,49,8.6a.29.29,0,0,1-.36-.26.33.33,0,0,1,.65-.09Zm-.53.07c0,.13.11.22.23.2a.21.21,0,0,0,.18-.25c0-.1-.09-.22-.23-.2A.21.21,0,0,0,48.77,8.32Z"/><path class="cls-1" d="M51.36,7.5h.13l0,.55a.26.26,0,0,1-.25.32h-.13V8.26h.1c.11,0,.17-.06.15-.22Z"/><path class="cls-1" d="M52.29,8.09c0,.07,0,.12,0,.16H52.2V8.17h0A.28.28,0,0,1,52,8.3a.23.23,0,0,1-.25-.24l0-.35h.12l0,.33c0,.11.06.18.17.17a.17.17,0,0,0,.15-.11s0,0,0-.05l0-.37h.12Z"/><path class="cls-1" d="M52.55,8a.21.21,0,0,0,.25.19.37.37,0,0,0,.18,0l0,.08a.64.64,0,0,1-.22.05A.3.3,0,0,1,52.44,8a.29.29,0,0,1,.29-.34.27.27,0,0,1,.3.26v0Zm.36-.1a.17.17,0,0,0-.19-.16.18.18,0,0,0-.17.19Z"/><path class="cls-1" d="M53.74,8c0,.07,0,.12,0,.17h-.11V8.07h0a.28.28,0,0,1-.21.12.23.23,0,0,1-.25-.25l0-.34h.12l0,.33c0,.11.05.18.16.18A.2.2,0,0,0,53.61,8s0,0,0-.06l0-.36h.12Z"/><path class="cls-1" d="M53.93,7.71a.78.78,0,0,0,0-.16H54v.09h0a.27.27,0,0,1,.21-.12.23.23,0,0,1,.25.24l0,.36H54.4l0-.34a.15.15,0,0,0-.16-.17.19.19,0,0,0-.16.12.43.43,0,0,0,0,0l0,.36H54Z"/><path class="cls-1" d="M54.82,7.26a2.33,2.33,0,0,1-.12.3h-.08a1.23,1.23,0,0,0,.07-.29Z"/><path class="cls-1" d="M54.83,8A.43.43,0,0,0,55,8c.09,0,.13,0,.12-.1s0-.07-.13-.1-.18-.09-.18-.16.08-.18.23-.18a.27.27,0,0,1,.16,0l0,.08a.16.16,0,0,0-.13,0c-.08,0-.11,0-.11.08s0,.07.13.1.18.08.18.17-.08.18-.24.19a.36.36,0,0,1-.19,0Z"/><path class="cls-1" d="M55.7,7.26l.23,0a.37.37,0,0,1,.26.06.22.22,0,0,1,.09.17.22.22,0,0,1-.08.18.45.45,0,0,1-.28.1h-.1v.33H55.7Zm.12.39h.1c.15,0,.24-.07.23-.18s-.08-.16-.22-.16h-.11Z"/><path class="cls-1" d="M57,7.76a.31.31,0,0,1-.33.32.31.31,0,1,1,0-.62A.29.29,0,0,1,57,7.76Zm-.53,0a.21.21,0,1,0,.41,0,.21.21,0,0,0-.2-.23A.21.21,0,0,0,56.48,7.77Z"/><path class="cls-1" d="M57.17,7.65V7.47h.1v.11h0a.21.21,0,0,1,.19-.12h0v.1h0a.15.15,0,0,0-.16.13.13.13,0,0,0,0,.06v.31h-.13Z"/><path class="cls-1" d="M57.8,7.3v.17H58v.08H57.8v.32c0,.07,0,.11.09.12H58v.08h-.11a.17.17,0,0,1-.18-.2V7.55h-.11V7.47h.11V7.33Z"/><path class="cls-1" d="M58.13,8.08l0-.51h-.1V7.48h.09v0a.26.26,0,0,1,.08-.2.22.22,0,0,1,.17,0l.1,0,0,.08-.07,0c-.11,0-.14.08-.14.17v0h.16v.08h-.16l0,.51Z"/><path class="cls-1" d="M59.12,7.81a.31.31,0,0,1-.35.3.3.3,0,0,1-.31-.32.32.32,0,0,1,.35-.3A.3.3,0,0,1,59.12,7.81Zm-.53,0a.2.2,0,1,0,.4,0,.19.19,0,0,0-.19-.23A.2.2,0,0,0,58.59,7.8Z"/><path class="cls-1" d="M59.3,7.25h.13l0,.87h-.12Z"/><path class="cls-1" d="M59.58,8.14l0-.59h.12l0,.59Zm.19-.74s0,.06-.08.06-.08,0-.07-.07a.06.06,0,0,1,.08-.06A.07.07,0,0,1,59.77,7.4Z"/><path class="cls-1" d="M60.52,7.91a.32.32,0,0,1-.36.29.3.3,0,0,1-.3-.33.31.31,0,0,1,.36-.29A.31.31,0,0,1,60.52,7.91Zm-.53,0a.2.2,0,1,0,.22-.22C60.07,7.65,60,7.76,60,7.88Z"/><path class="cls-1" d="M63,7.72l.12,0L63,8.29a.25.25,0,0,1-.33.23.25.25,0,0,1-.12,0l0-.08a.29.29,0,0,0,.1,0c.11,0,.18,0,.21-.17Z"/><path class="cls-1" d="M63.76,8.56a1.1,1.1,0,0,0,0,.16l-.11,0,0-.09h0a.27.27,0,0,1-.24.06.23.23,0,0,1-.17-.31L63.3,8l.12,0-.07.32c0,.11,0,.19.1.22a.18.18,0,0,0,.18-.06l0,0,.08-.36.12,0Z"/><path class="cls-1" d="M64,8.5a.21.21,0,0,0,.17.26.76.76,0,0,0,.19,0v.08a.46.46,0,0,1-.22,0,.3.3,0,0,1-.25-.37.31.31,0,0,1,.39-.24.27.27,0,0,1,.2.35l0,0Zm.37,0a.15.15,0,0,0-.12-.21.18.18,0,0,0-.22.12Z"/><path class="cls-1" d="M65.15,9a1.24,1.24,0,0,0,0,.16l-.11,0L65,9h0a.25.25,0,0,1-.24,0c-.1,0-.2-.12-.14-.32l.1-.33.12,0-.1.32c0,.11,0,.19.09.22a.17.17,0,0,0,.18,0,.08.08,0,0,0,0-.05l.11-.35.12,0Z"/><path class="cls-1" d="M65.45,8.76a1.31,1.31,0,0,0,0-.15l.1,0,0,.09h0a.26.26,0,0,1,.25,0A.23.23,0,0,1,66,9l-.13.33-.11,0L65.83,9c0-.09,0-.17-.08-.21a.16.16,0,0,0-.19,0l0,0-.12.34-.12,0Z"/><path class="cls-1" d="M66.42,8.71a1.55,1.55,0,0,1-.24.22l-.07,0a1.45,1.45,0,0,0,.19-.23Z"/><path class="cls-1" d="M66.13,9.38a.35.35,0,0,0,.13.11c.08,0,.14,0,.16,0s0-.09-.07-.16-.12-.16-.09-.22.16-.12.29-.06a.36.36,0,0,1,.13.1l-.06.06a.37.37,0,0,0-.11-.09.11.11,0,0,0-.14,0c0,.05,0,.09.08.15s.12.16.08.24-.16.12-.3.05a.34.34,0,0,1-.16-.12Z"/><path class="cls-1" d="M67.28,9.18a.83.83,0,0,1,.2.11.43.43,0,0,1,.19.19.22.22,0,0,1,0,.19.23.23,0,0,1-.15.11.41.41,0,0,1-.29-.07l-.08-.06L67,9.93l-.11-.06Zm-.11.4a.28.28,0,0,0,.08.06c.12.07.23.07.29,0s0-.18-.1-.25l-.1,0Z"/><path class="cls-1" d="M68.08,10.37a.31.31,0,0,1-.46,0,.29.29,0,0,1-.06-.44.3.3,0,0,1,.45,0A.3.3,0,0,1,68.08,10.37ZM67.66,10a.21.21,0,0,0,0,.31.23.23,0,0,0,.31,0A.22.22,0,0,0,68,10,.2.2,0,0,0,67.66,10Z"/><path class="cls-1" d="M68.29,10.44l.13-.14.07.08-.08.08h0a.2.2,0,0,1,.23,0l0,0-.08.07,0,0a.17.17,0,0,0-.22,0l0,0-.23.22L68,10.72Z"/><path class="cls-1" d="M69,10.7l-.13.1.1.14-.06.05-.11-.14-.25.2c-.06,0-.08.09,0,.14l.05.06-.06.05a.19.19,0,0,1-.07-.08.18.18,0,0,1,0-.13.2.2,0,0,1,.1-.13l.25-.2-.06-.08.06,0,.07.08.11-.09Z"/><path class="cls-1" d="M68.55,11.41l.44-.27,0-.08L69,11l0,.08h0a.23.23,0,0,1,.22,0,.21.21,0,0,1,.13.11.16.16,0,0,1,0,.1l-.08,0a.16.16,0,0,0,0-.08c0-.09-.13-.07-.21,0h0l.09.14-.07.05-.09-.14-.44.26Z"/><path class="cls-1" d="M69.24,12.17a.33.33,0,0,1-.25-.61.3.3,0,0,1,.41.2A.29.29,0,0,1,69.24,12.17Zm-.2-.49a.21.21,0,1,0,.15.38.22.22,0,0,0,.14-.27A.21.21,0,0,0,69,11.68Z"/><path class="cls-1" d="M69.82,12.22l0,.12-.85.18,0-.12Z"/><path class="cls-1" d="M69,12.7l.59-.06v.12l-.59.07Zm.77.05s-.07,0-.08-.07a.08.08,0,0,1,.06-.08.08.08,0,0,1,.08.07C69.86,12.72,69.84,12.75,69.8,12.75Z"/><path class="cls-1" d="M69.34,13.62a.32.32,0,0,1-.3-.35.31.31,0,0,1,.32-.31.3.3,0,0,1,.3.34A.31.31,0,0,1,69.34,13.62Zm0-.54a.22.22,0,0,0-.24.2.23.23,0,0,0,.46,0A.22.22,0,0,0,69.36,13.08Z"/><path class="cls-1" d="M69,16.17l-.06.1L68.42,16a.25.25,0,0,1-.1-.39.39.39,0,0,1,.08-.1l.07.06-.07.08c-.05.09-.05.17.09.25Z"/><path class="cls-1" d="M67.91,16.58l-.13-.08.06-.09.08,0h0a.25.25,0,0,1,0-.24.21.21,0,0,1,.34-.05l.29.19-.07.1-.27-.18c-.1-.06-.18-.07-.24,0a.17.17,0,0,0,0,.19s0,0,0,0l.3.2-.07.1Z"/><path class="cls-1" d="M67.85,16.86a.21.21,0,0,0-.31.06.71.71,0,0,0-.09.17l-.07,0a.45.45,0,0,1,.11-.2.29.29,0,0,1,.44-.08.3.3,0,0,1,.06.44.27.27,0,0,1-.4.05l0,0Zm-.16.33a.15.15,0,0,0,.24,0,.18.18,0,0,0,0-.25Z"/><path class="cls-1" d="M67,17.7a.91.91,0,0,0-.13-.1l.07-.08.08.05h0a.24.24,0,0,1,.06-.24.22.22,0,0,1,.35,0l.26.22-.08.1-.25-.22c-.08-.07-.17-.09-.24,0a.19.19,0,0,0,0,.19s0,0,0,0l.28.24-.08.09Z"/><path class="cls-1" d="M67.06,18.05a.65.65,0,0,1,.12.11l-.07.07L67,18.17h0a.24.24,0,0,1-.07.24.23.23,0,0,1-.35,0l-.26-.25.09-.09.25.24a.15.15,0,0,0,.23,0,.16.16,0,0,0,0-.19s0,0,0-.05l-.25-.24.08-.09Z"/><path class="cls-1" d="M66.75,19a1.7,1.7,0,0,1-.12-.3l.05-.06a1.74,1.74,0,0,0,.15.26Z"/><path class="cls-1" d="M66.22,18.46a.44.44,0,0,0-.15.08.12.12,0,0,0,0,.16s.08,0,.16,0,.2-.06.25,0a.21.21,0,0,1,0,.29.37.37,0,0,1-.14.09l0-.08a.31.31,0,0,0,.12-.07c.05-.05.06-.1,0-.14s-.07,0-.16,0-.18.06-.25,0,0-.19.06-.3a.47.47,0,0,1,.16-.1Z"/><path class="cls-1" d="M66.07,19.58s-.09.1-.16.16a.48.48,0,0,1-.24.13.23.23,0,0,1-.18-.08.2.2,0,0,1-.06-.18.42.42,0,0,1,.15-.26l.08-.06-.22-.24.09-.09Zm-.35-.22a.21.21,0,0,0-.08.06c-.11.1-.14.2-.06.29s.17.06.27,0l.08-.08Z"/><path class="cls-1" d="M64.75,20.05a.3.3,0,0,1,0-.46.29.29,0,0,1,.44,0,.31.31,0,0,1,0,.45A.29.29,0,0,1,64.75,20.05Zm.4-.35a.21.21,0,0,0-.31,0,.22.22,0,0,0,0,.31.22.22,0,0,0,.3,0A.21.21,0,0,0,65.15,19.7Z"/><path class="cls-1" d="M64.67,20.24l.12.14-.08.07-.08-.09h0a.19.19,0,0,1-.06.21l0,0-.07-.08,0,0a.18.18,0,0,0,0-.21l0,0-.2-.25.09-.07Z"/><path class="cls-1" d="M64.41,20.91l-.11-.13-.14.11,0-.07.14-.11-.2-.25c0-.05-.09-.07-.15,0s0,0,0,.05l-.05-.06.07-.08a.2.2,0,0,1,.14-.05.23.23,0,0,1,.13.1l.2.25.08-.06,0,.06-.08.07.09.11Z"/><path class="cls-1" d="M63.68,20.5l.32.41.07-.06.05.07-.07,0v0a.24.24,0,0,1,.07.21.23.23,0,0,1-.1.14l-.09,0,0-.08a.11.11,0,0,0,.07,0,.14.14,0,0,0,0-.22l0,0-.13.09,0-.06.13-.1-.31-.4Z"/><path class="cls-1" d="M63.08,21.34a.32.32,0,0,1,.08-.46.31.31,0,1,1,.36.51A.3.3,0,0,1,63.08,21.34ZM63.5,21a.21.21,0,0,0-.3-.07.22.22,0,0,0,0,.31.21.21,0,0,0,.29.07A.21.21,0,0,0,63.5,21Z"/><path class="cls-1" d="M63.28,21.89l-.1.07-.51-.71.1-.07Z"/><path class="cls-1" d="M62.5,21.38l.35.48-.1.07-.35-.48Zm.33.69a.06.06,0,0,1,0-.09A.06.06,0,0,1,63,22s0,.07,0,.1A.08.08,0,0,1,62.83,22.07Z"/><path class="cls-1" d="M61.93,22.15A.31.31,0,0,1,62,21.7a.3.3,0,0,1,.44.07.31.31,0,0,1-.09.45A.3.3,0,0,1,61.93,22.15Zm.43-.31a.2.2,0,1,0-.33.23.2.2,0,0,0,.29.08A.21.21,0,0,0,62.36,21.84Z"/><path class="cls-1" d="M60.41,23.75l-.1.06L60,23.34a.25.25,0,0,1,.09-.4l.12-.05,0,.09a.18.18,0,0,0-.09,0c-.1.05-.13.12,0,.26Z"/><path class="cls-1" d="M59.31,23.64a.85.85,0,0,0-.09-.14l.1-.05,0,.08h0a.33.33,0,0,1,.14-.21.23.23,0,0,1,.33.11l.18.29-.11.07-.17-.28c-.05-.1-.13-.15-.22-.09a.2.2,0,0,0-.09.17.08.08,0,0,0,0,.05l.19.32-.11.06Z"/><path class="cls-1" d="M59.13,23.87a.21.21,0,0,0-.3-.06.63.63,0,0,0-.14.12l-.06-.05a.67.67,0,0,1,.17-.15.3.3,0,0,1,.44.09.31.31,0,0,1-.11.44.26.26,0,0,1-.38-.1.17.17,0,0,1,0-.05Zm-.27.25a.17.17,0,0,0,.24.07.2.2,0,0,0,.07-.25Z"/><path class="cls-1" d="M58,24.37,58,24.23l.09-.05.06.08h0a.24.24,0,0,1,.14-.21.23.23,0,0,1,.33.11l.17.3-.11.06-.16-.28c-.06-.1-.13-.15-.22-.09a.18.18,0,0,0-.1.17s0,0,0,.05l.18.31-.11.07Z"/><path class="cls-1" d="M58,24.7l.08.14-.09.05-.05-.08h0a.25.25,0,0,1-.14.21.23.23,0,0,1-.33-.11l-.17-.31.11-.06.16.3a.16.16,0,0,0,.22.08.15.15,0,0,0,.09-.18.11.11,0,0,0,0,0l-.17-.31.1-.06Z"/><path class="cls-1" d="M57.43,25.49a1.31,1.31,0,0,1,0-.32l.07,0a1.15,1.15,0,0,0,.06.29Z"/><path class="cls-1" d="M57.06,24.85a.37.37,0,0,0-.16,0c-.08,0-.09.09-.07.14s.07,0,.16,0a.21.21,0,0,1,.24.06.2.2,0,0,1-.13.26.41.41,0,0,1-.16.05v-.09a.29.29,0,0,0,.14,0c.06,0,.08-.08.06-.12s-.07-.05-.16,0-.2,0-.24-.08,0-.2.14-.27a.35.35,0,0,1,.18-.06Z"/><path class="cls-1" d="M56.64,25.88l-.2.12a.48.48,0,0,1-.26.06.21.21,0,0,1-.16-.12.25.25,0,0,1,0-.19.42.42,0,0,1,.21-.21l.09,0-.15-.29.1-.06Zm-.29-.3-.1,0c-.12.07-.17.16-.12.26s.15.11.27.05l.09-.06Z"/><path class="cls-1" d="M55.22,26a.31.31,0,0,1,.16-.43.29.29,0,0,1,.42.13.33.33,0,0,1-.58.3Zm.48-.24a.22.22,0,0,0-.29-.11.21.21,0,0,0-.08.29.23.23,0,0,0,.29.12A.21.21,0,0,0,55.7,25.78Z"/><path class="cls-1" d="M55.13,26.19a1.31,1.31,0,0,0,.09.17l-.09,0-.06-.1h0a.21.21,0,0,1-.11.2l0,0,0-.09,0,0a.18.18,0,0,0,.08-.2.43.43,0,0,1,0-.05l-.15-.28.11-.05Z"/><path class="cls-1" d="M54.73,26.79l-.07-.16-.16.08,0-.07.16-.08-.14-.29c0-.06-.07-.09-.13-.06a.15.15,0,0,0-.06,0l0-.07.09-.06a.15.15,0,0,1,.14,0,.19.19,0,0,1,.11.12l.14.29.09-.05,0,.08-.1,0,.07.13Z"/><path class="cls-1" d="M54.09,26.25l.22.46.09,0,0,.07-.09,0v0a.25.25,0,0,1,0,.22.28.28,0,0,1-.12.12l-.1,0,0-.08.07,0c.1,0,.08-.13,0-.21l0,0-.14.07,0-.08.15-.07L54,26.31Z"/><path class="cls-1" d="M53.35,26.94a.31.31,0,0,1,.17-.43.31.31,0,1,1,.26.57A.31.31,0,0,1,53.35,26.94Zm.48-.23a.21.21,0,0,0-.28-.12.21.21,0,0,0-.09.29.21.21,0,0,0,.28.12A.2.2,0,0,0,53.83,26.71Z"/><path class="cls-1" d="M53.45,27.53l-.11.06-.38-.8.11-.05Z"/><path class="cls-1" d="M52.79,26.87l.25.54-.11.06-.25-.55Zm.2.75s0-.07,0-.09a.08.08,0,0,1,.1,0,.07.07,0,0,1,0,.09C53,27.67,53,27.66,53,27.62Z"/><path class="cls-1" d="M52.07,27.54a.32.32,0,0,1,.17-.43.3.3,0,0,1,.42.15.33.33,0,0,1-.59.28Zm.48-.23a.21.21,0,0,0-.28-.12.22.22,0,0,0-.09.29.21.21,0,1,0,.37-.17Z"/><path class="cls-1" d="M50.34,28.87l-.11.05L50,28.41a.25.25,0,0,1,.15-.37.33.33,0,0,1,.13,0v.09l-.1,0c-.09,0-.14.1-.07.25Z"/><path class="cls-1" d="M49.27,28.6a.61.61,0,0,0-.07-.14l.1-.05.05.09h0a.26.26,0,0,1,.16-.19c.1,0,.23,0,.32.15l.13.32-.11,0-.13-.3c0-.11-.11-.16-.21-.12a.16.16,0,0,0-.11.15.13.13,0,0,0,0,.06l.14.33-.11.05Z"/><path class="cls-1" d="M49.05,28.82a.2.2,0,0,0-.29-.1.34.34,0,0,0-.16.1l-.05-.07a.56.56,0,0,1,.19-.12.31.31,0,1,1,.25.57.26.26,0,0,1-.36-.15s0,0,0-.05Zm-.3.21a.16.16,0,0,0,.22.1.2.2,0,0,0,.11-.24Z"/><path class="cls-1" d="M47.91,29.16c0-.05,0-.1-.07-.14l.1,0,.05.08h0a.25.25,0,0,1,.16-.18.22.22,0,0,1,.31.15l.13.32-.11,0-.12-.31c0-.1-.11-.16-.21-.12a.16.16,0,0,0-.11.15.13.13,0,0,0,0,.06l.14.34-.12,0Z"/><path class="cls-1" d="M47.82,29.49a.61.61,0,0,0,.07.14l-.11,0,0-.09h0a.25.25,0,0,1-.17.18.22.22,0,0,1-.31-.15l-.13-.32.11-.05.13.32a.14.14,0,0,0,.21.1.18.18,0,0,0,.11-.16.11.11,0,0,0,0-.05l-.13-.33.11-.05Z"/><path class="cls-1" d="M47.16,30.18a1.5,1.5,0,0,1,0-.31l.07,0c0,.08,0,.21,0,.3Z"/><path class="cls-1" d="M46.88,29.51a.35.35,0,0,0-.17,0c-.08,0-.11.08-.09.13s.06.06.16.05.2,0,.22.1,0,.19-.15.24a.4.4,0,0,1-.17,0V30a.23.23,0,0,0,.14,0c.07,0,.09-.08.08-.12s-.07-.05-.16-.05-.2,0-.23-.1,0-.2.17-.26l.2,0Z"/><path class="cls-1" d="M46.32,30.48l-.21.1a.43.43,0,0,1-.27,0,.22.22,0,0,1-.14-.13.25.25,0,0,1,0-.19.39.39,0,0,1,.23-.18l.1,0-.12-.31.11,0Zm-.25-.33-.1,0c-.13.05-.2.14-.16.24s.14.12.27.08l.1-.05Z"/><path class="cls-1" d="M44.9,30.46a.31.31,0,0,1,.21-.41.31.31,0,1,1,.2.58A.3.3,0,0,1,44.9,30.46Zm.5-.19a.2.2,0,1,0-.12.29A.21.21,0,0,0,45.4,30.27Z"/><path class="cls-1" d="M44.81,30.61l.06.17-.1,0,0-.11h0a.18.18,0,0,1-.13.18h0l0-.09h0a.17.17,0,0,0,.1-.19.11.11,0,0,0,0-.05l-.11-.29.11,0Z"/><path class="cls-1" d="M44.32,31.16l0-.16-.17.06,0-.08.17-.06-.11-.3c0-.07-.06-.1-.12-.08l-.07,0,0-.08.1-.05a.17.17,0,0,1,.14,0,.19.19,0,0,1,.09.13l.11.3.1,0,0,.07-.1,0,0,.13Z"/><path class="cls-1" d="M43.76,30.55l.17.48L44,31l0,.08-.08,0v0a.24.24,0,0,1,0,.22.26.26,0,0,1-.14.11h-.1V31.4h.08c.09,0,.09-.12.06-.21v0l-.15.06,0-.08.15-.06-.17-.48Z"/><path class="cls-1" d="M43,31.15a.32.32,0,0,1,.61-.22.31.31,0,0,1-.21.41A.3.3,0,0,1,43,31.15Zm.5-.18a.21.21,0,0,0-.27-.14.21.21,0,0,0-.12.28.22.22,0,0,0,.27.15A.21.21,0,0,0,43.45,31Z"/><path class="cls-1" d="M43,31.75l-.11,0L42.58,31l.11,0Z"/><path class="cls-1" d="M42.38,31l.19.56-.12,0-.19-.56Zm.11.76a.08.08,0,0,1,0-.09.1.1,0,0,1,.1,0,.07.07,0,0,1-.06.09A.06.06,0,0,1,42.49,31.79Z"/><path class="cls-1" d="M41.6,31.61a.31.31,0,0,1,.22-.4.3.3,0,0,1,.4.18.3.3,0,0,1-.21.41A.31.31,0,0,1,41.6,31.61Zm.51-.17a.21.21,0,1,0-.39.13.22.22,0,0,0,.27.15A.22.22,0,0,0,42.11,31.44Z"/><path class="cls-1" d="M39.72,32.76l-.11,0-.16-.53a.24.24,0,0,1,.18-.35.32.32,0,0,1,.13,0V32a.18.18,0,0,0-.1,0c-.11,0-.15.09-.11.25Z"/><path class="cls-1" d="M38.7,32.39a1.31,1.31,0,0,0-.05-.15l.1,0,0,.09h0a.3.3,0,0,1,.18-.17.23.23,0,0,1,.3.18l.1.33-.12,0-.09-.31c0-.11-.1-.17-.2-.14a.2.2,0,0,0-.13.14.13.13,0,0,0,0,.06l.11.34-.12,0Z"/><path class="cls-1" d="M38.49,32.57a.21.21,0,0,0-.28-.13.38.38,0,0,0-.17.08l0-.07a.78.78,0,0,1,.2-.09.29.29,0,0,1,.4.19.29.29,0,0,1-.21.39.27.27,0,0,1-.35-.19.09.09,0,0,0,0,0Zm-.33.18a.17.17,0,0,0,.22.12.19.19,0,0,0,.13-.22Z"/><path class="cls-1" d="M37.3,32.81a1.31,1.31,0,0,0,0-.15l.1,0,0,.09h0a.3.3,0,0,1,.18-.17.24.24,0,0,1,.3.19l.1.33-.12,0-.09-.31c0-.11-.1-.17-.2-.14a.18.18,0,0,0-.13.14.13.13,0,0,0,0,.06l.1.34-.12,0Z"/><path class="cls-1" d="M37.17,33.12a1.42,1.42,0,0,1,0,.16l-.1,0,0-.1h0a.22.22,0,0,1-.18.17.23.23,0,0,1-.3-.18l-.09-.33.11,0,.1.33c0,.09.08.16.19.12a.16.16,0,0,0,.13-.15v-.05l-.1-.34.12,0Z"/><path class="cls-1" d="M36.47,33.75a1.39,1.39,0,0,1,0-.32l.08,0a1.5,1.5,0,0,0,0,.3Z"/><path class="cls-1" d="M36.23,33.06a.29.29,0,0,0-.16,0c-.09,0-.12.08-.11.12s.06.07.15.07.2,0,.22.11,0,.19-.17.23a.59.59,0,0,1-.17,0v-.09h.15c.07,0,.09-.07.08-.11s-.06-.06-.15-.06-.19,0-.22-.13,0-.19.2-.24a.42.42,0,0,1,.19,0Z"/><path class="cls-1" d="M35.59,34l-.22.07a.5.5,0,0,1-.27,0A.24.24,0,0,1,35,33.9a.21.21,0,0,1,0-.19.42.42,0,0,1,.25-.16l.1,0-.09-.32.12,0Zm-.22-.35h-.1c-.14,0-.21.13-.18.24s.13.13.25.09a.32.32,0,0,0,.11,0Z"/><path class="cls-1" d="M34.2,33.81a.31.31,0,0,1,.25-.39.3.3,0,0,1,.39.21.33.33,0,0,1-.64.18Zm.52-.15a.21.21,0,1,0-.4.11.22.22,0,0,0,.26.17A.21.21,0,0,0,34.72,33.66Z"/><path class="cls-1" d="M34.08,34a.78.78,0,0,0,.05.18l-.11,0L34,34h0a.19.19,0,0,1-.14.17h0l0-.09h0a.16.16,0,0,0,.12-.18v0l-.08-.3.11,0Z"/><path class="cls-1" d="M33.54,34.45l0-.16-.17,0,0-.08.17,0-.08-.31c0-.07,0-.1-.12-.09l-.07,0,0-.08.1,0a.22.22,0,0,1,.14,0s.06.07.08.14l.08.31.1,0,0,.07-.1,0,0,.14Z"/><path class="cls-1" d="M33.05,33.79l.13.5.09,0,0,.08-.09,0v0a.24.24,0,0,1,0,.22.22.22,0,0,1-.14.09.15.15,0,0,1-.11,0v-.08H33c.1,0,.1-.11.08-.19v0l-.16,0,0-.08.16,0-.13-.5Z"/><path class="cls-1" d="M32.16,34.33a.31.31,0,0,1,.25-.39.3.3,0,0,1,.38.22.3.3,0,0,1-.25.38A.29.29,0,0,1,32.16,34.33Zm.51-.14a.21.21,0,0,0-.25-.17.21.21,0,0,0-.14.27.2.2,0,1,0,.39-.1Z"/><path class="cls-1" d="M32.14,34.91l-.12,0-.21-.84.12,0Z"/><path class="cls-1" d="M31.61,34.15l.14.57-.12,0-.14-.58Zm.05.76a.07.07,0,0,1,.06-.08.07.07,0,0,1,.09.05s0,.07-.06.08A.07.07,0,0,1,31.66,34.91Z"/><path class="cls-1" d="M30.77,34.65a.31.31,0,0,1,.26-.38.3.3,0,0,1,.38.22.3.3,0,0,1-.26.38A.29.29,0,0,1,30.77,34.65Zm.52-.13a.21.21,0,1,0-.4.1.2.2,0,0,0,.25.17A.21.21,0,0,0,31.29,34.52Z"/><ellipse class="cls-2" cx="34.15" cy="22.6" rx="11.91" ry="35.85" transform="translate(-1.98 41.88) rotate(-61.59)"/><circle class="cls-1" cx="20.64" cy="4.45" r="2.67"/><circle class="cls-1" cx="50.7" cy="18.63" r="4.36"/><circle class="cls-1" cx="10.87" cy="2.67" r="2.67"/><circle class="cls-1" cx="50.84" cy="41.71" r="2.29"/></g></g></svg>