<svg width="200" height="76" viewBox="0 0 200 76" fill="none" xmlns="http://www.w3.org/2000/svg">
<path d="M133 42C133 35.2754 131.065 28.7019 127.438 23.1106C123.812 17.5193 118.659 13.1615 112.629 10.5881C106.599 8.01472 99.9634 7.3414 93.562 8.6533C87.1606 9.96519 81.2806 13.2034 76.6655 17.9584C72.0503 22.7134 68.9074 28.7716 67.6341 35.3669C66.3608 41.9623 67.0143 48.7985 69.512 55.0112C72.0097 61.2239 76.2394 66.534 81.6662 70.27C87.093 74.0059 93.4732 76 100 76V42H133Z" fill="#A9EAFF"/>
<path d="M133 42C133 48.7246 134.965 55.2981 138.646 60.8894C142.327 66.4807 147.559 70.8385 153.68 73.4119C159.801 75.9853 166.537 76.6586 173.036 75.3467C179.534 74.0348 185.503 70.7966 190.188 66.0416C194.873 61.2867 198.064 55.2284 199.356 48.6331C200.649 42.0377 199.985 35.2015 197.45 28.9888C194.914 22.7761 190.621 17.466 185.112 13.73C179.603 9.99406 173.126 8 166.5 8L166.5 42L133 42Z" fill="#A9EAFF"/>
<path d="M33.5 3.99483e-07C40.1257 4.78494e-07 46.6026 2.02339 52.1116 5.8143C57.6207 9.60521 61.9144 14.9934 64.45 21.2974C66.9855 27.6015 67.6489 34.5383 66.3563 41.2306C65.0637 47.923 61.8731 54.0703 57.1881 58.8952C52.503 63.7201 46.5339 67.0059 40.0355 68.3371C33.5372 69.6683 26.8014 68.9851 20.6801 66.3738C14.5588 63.7626 9.32679 59.3407 5.64577 53.6672C1.96474 47.9937 2.51029e-07 41.3235 4.11408e-07 34.5L33.5 34.5L33.5 3.99483e-07Z" fill="#A9EAFF"/>
</svg>
