<svg width="204" height="82" viewBox="0 0 204 82" fill="none" xmlns="http://www.w3.org/2000/svg">
<path d="M41 82C51.8739 82 62.3024 77.6804 69.9914 69.9914C77.6804 62.3024 82 51.8739 82 41C82 30.1261 77.6804 19.6976 69.9914 12.0086C62.3024 4.31963 51.8739 2.11722e-06 41 0L41 41V82Z" fill="#A608DD"/>
<path d="M0 82C10.8739 82 21.3024 77.6804 28.9914 69.9914C36.6804 62.3024 41 51.8739 41 41C41 30.1261 36.6804 19.6976 28.9914 12.0086C21.3024 4.31963 10.8739 2.11722e-06 1.12137e-05 0L0 82Z" fill="#A608DD"/>
<path d="M82 82C92.8739 82 103.302 77.6804 110.991 69.9914C118.68 62.3024 123 51.8739 123 41C123 30.1261 118.68 19.6976 110.991 12.0086C103.302 4.31963 92.8739 2.11722e-06 82 0L82 41V82Z" fill="#A608DD"/>
<path d="M122 82C132.874 82 143.302 77.6804 150.991 69.9914C158.68 62.3024 163 51.8739 163 41C163 30.1261 158.68 19.6976 150.991 12.0086C143.302 4.31963 132.874 2.11722e-06 122 0L122 82Z" fill="#A608DD"/>
<path d="M163 82C173.874 82 184.302 77.6804 191.991 69.9914C199.68 62.3024 204 51.8739 204 41C204 30.1261 199.68 19.6976 191.991 12.0086C184.302 4.31963 173.874 2.11722e-06 163 0L163 41V82Z" fill="#A608DD"/>
</svg>
