<svg width="205" height="67" viewBox="0 0 205 67" fill="none" xmlns="http://www.w3.org/2000/svg">
<path d="M136 33.5C136 52.0015 121.002 67 102.5 67C83.9985 67 69 52.0015 69 33.5C69 14.9985 83.9985 1.46433e-06 102.5 1.46433e-06C121.002 1.46433e-06 136 14.9985 136 33.5Z" fill="#71FF6E"/>
<path d="M67.5 0C58.6152 3.88365e-07 50.0944 3.52945 43.8119 9.81192C37.5295 16.0944 34 24.6152 34 33.5C34 42.3848 37.5295 50.9056 43.8119 57.1881C50.0944 63.4705 58.6152 67 67.5 67V0Z" fill="#71FF6E"/>
<path d="M33.5 0C24.6152 3.88365e-07 16.0944 3.52945 9.81192 9.81192C3.52945 16.0944 2.82415e-07 24.6152 0 33.5C-2.82415e-07 42.3848 3.52945 50.9056 9.81192 57.1881C16.0944 63.4705 24.6152 67 33.5 67L33.5 0Z" fill="#71FF6E"/>
<path d="M136.5 67C145.385 67 153.906 63.4705 160.188 57.1881C166.471 50.9056 170 42.3848 170 33.5C170 24.6153 166.471 16.0944 160.188 9.81193C153.906 3.52946 145.385 1.72993e-06 136.5 0V67Z" fill="#71FF6E"/>
<path d="M171.5 67C180.385 67 188.906 63.4705 195.188 57.1881C201.471 50.9056 205 42.3848 205 33.5C205 24.6153 201.471 16.0944 195.188 9.81193C188.906 3.52946 180.385 1.72993e-06 171.5 0V67Z" fill="#71FF6E"/>
</svg>
