<?xml version="1.0" encoding="utf-8"?>
<!-- Generator: Adobe Illustrator 26.0.0, SVG Export Plug-In . SVG Version: 6.00 Build 0)  -->
<svg version="1.1" id="레이어_1" xmlns="http://www.w3.org/2000/svg" xmlns:xlink="http://www.w3.org/1999/xlink" x="0px"
	 y="0px" viewBox="0 0 129 55" style="enable-background:new 0 0 129 55;" xml:space="preserve">
<style type="text/css">
	.st0{fill:#FF5353;}
</style>
<path class="st0" d="M0.6,26.5c0-3.5,0.7-6.9,2-10.2c1.3-3.2,3.3-6.1,5.8-8.6C10.9,5.3,13.8,3.4,17,2c3.2-1.3,6.7-2,10.2-2
	c3.5,0,6.9,0.7,10.2,2c3.2,1.3,6.1,3.3,8.6,5.8c2.5,2.5,4.4,5.4,5.8,8.6s2,6.7,2,10.2H27.2H0.6z"/>
<ellipse class="st0" cx="10.9" cy="43.1" rx="10.9" ry="11.2"/>
<circle class="st0" cx="42.5" cy="43.1" r="11.2"/>
<circle class="st0" cx="102.5" cy="26.5" r="26.5"/>
</svg>
