<svg width="1445" height="439" viewBox="0 0 1445 439" fill="none" xmlns="http://www.w3.org/2000/svg">
<line x1="722.5" y1="21.0044" x2="721.5" y2="135.004" stroke="#D0D0D0"/>
<line x1="448.5" y1="143" x2="448.5" y2="414" stroke="#D0D0D0"/>
<line x1="631.5" y1="143" x2="631.5" y2="329" stroke="#D0D0D0"/>
<line x1="1371" y1="304.5" x2="1185" y2="304.5" stroke="#D0D0D0"/>
<line x1="1371" y1="414.5" x2="1001" y2="414.5" stroke="#D0D0D0"/>
<line x1="1383" y1="135.5" x2="76" y2="135.5" stroke="#D0D0D0"/>
<rect x="646" width="150" height="50" fill="#FF5353"/>
<rect y="110" width="150" height="50" fill="#FF7C7C"/>
<rect x="185" y="110" width="150" height="50" fill="#FF7C7C"/>
<rect x="370" y="110" width="150" height="50" fill="#FF7C7C"/>
<rect x="371" y="203" width="150" height="50" fill="#FFABAB"/>
<rect x="371" y="296" width="150" height="50" fill="#FFABAB"/>
<rect x="371" y="389" width="150" height="50" fill="#FFABAB"/>
<rect x="556" y="203" width="150" height="50" fill="#FFABAB"/>
<rect x="556" y="296" width="150" height="50" fill="#FFABAB"/>
<rect x="555" y="110" width="150" height="50" fill="#FF7C7C"/>
<rect x="740" y="110" width="150" height="50" fill="#FF7C7C"/>
<rect x="925" y="110" width="150" height="50" fill="#FF7C7C"/>
<rect x="1110" y="110" width="150" height="50" fill="#FF7C7C"/>
<rect x="1295" y="110" width="150" height="50" fill="#FF7C7C"/>
<rect x="1295" y="279" width="150" height="50" fill="#FFDEDE"/>
<rect x="1110" y="279" width="150" height="50" fill="#FFDEDE"/>
<rect x="1295" y="389" width="150" height="50" fill="#FFABAB"/>
<rect x="1110" y="389" width="150" height="50" fill="#FFABAB"/>
<rect x="925" y="389" width="150" height="50" fill="#FFABAB"/>
<path d="M703.844 32.35L709.894 21.1V35H712.269L712.244 16.875H709.769L703.094 29.125L696.419 16.875H693.944L693.919 35H696.294V21.1L702.344 32.35H703.844ZM724.639 35.125H727.014V25.925C727.014 22.7 724.589 21.625 721.414 21.625C719.614 21.625 717.364 22.275 716.214 22.975L716.939 24.975C718.089 24.275 719.864 23.75 721.364 23.75C723.489 23.75 724.639 24.35 724.639 26.475V26.625L721.039 26.775C717.989 26.925 715.389 28.25 715.389 31.1C715.389 33.8 717.139 35.375 720.264 35.375C722.239 35.375 723.814 34.675 724.639 33.7V35.125ZM720.514 33.275C718.839 33.275 717.764 32.525 717.764 31.1C717.764 29.575 719.439 28.8 721.339 28.725L724.639 28.6V31.575C723.689 32.7 721.864 33.275 720.514 33.275ZM730.916 35H733.316V22H730.916V35ZM730.641 18.75H733.591V15.775H730.641V18.75ZM739.599 35V26.4C739.949 24.825 741.374 23.75 743.274 23.75C745.649 23.75 746.949 24.925 746.949 27.3V35H749.324V26.825C749.324 23.475 747.274 21.625 743.924 21.625C741.874 21.625 740.249 22.425 739.474 23.825V22H737.224V35H739.599Z" fill="white"/>
<path d="M61.1082 126.82V139.68H62.9082V126.82H61.1082ZM50.5082 144.86H63.5482V143.26H52.3082V138.32H50.5082V144.86ZM52.3882 127.26V130C52.3882 132.24 50.0482 134.48 47.7682 136.14L48.9282 137.4C50.7282 136.14 52.5682 134.26 53.3082 132.76C54.1482 134.16 55.9082 135.96 57.7082 137.16L58.8082 135.9C56.7682 134.52 54.1882 132.22 54.1882 130V127.26H52.3882ZM75.7227 145.46C79.7027 145.46 82.0427 143.72 82.0427 141.3C82.0427 138.88 79.7027 137.14 75.7227 137.14C71.7427 137.14 69.4027 138.88 69.4027 141.3C69.4027 143.62 71.7427 145.46 75.7227 145.46ZM75.7227 138.74C78.4627 138.74 80.2427 139.78 80.2427 141.3C80.2427 142.82 78.4627 143.86 75.7227 143.86C72.9827 143.86 71.2027 142.82 71.2027 141.3C71.2027 139.78 72.9827 138.74 75.7227 138.74ZM79.9627 126.82V136.88H81.7627V132.14H84.6027V130.54H81.7627V126.82H79.9627ZM71.4427 127.16V129.46C71.4427 131.6 69.1427 133.76 66.8627 135.42L67.9827 136.68C69.7827 135.42 71.5827 133.56 72.3627 132.12C73.2427 133.42 74.9627 135 76.7627 136.2L77.8227 134.94C75.7827 133.56 73.2427 131.52 73.2427 129.46V127.16H71.4427ZM101.297 138.62H95.7973V136.62H103.657V135.02H86.1373V136.62H93.9973V138.62H88.4973V144.96H101.297V138.62ZM87.9773 133.62H101.817V132.06H99.1573V129.46H97.3573V132.06H92.4373V129.46H90.6373V132.06H87.9773V133.62ZM90.2973 140.22H99.4973V143.36H90.2973V140.22ZM88.1773 128.76H101.617V127.16H88.1773V128.76Z" fill="white"/>
<path d="M243.368 126.92V133.06H240.628V127.54H238.828V132.06H234.768V127.54H232.968V140.44H240.628V134.66H243.368V144.56H245.128V126.92H243.368ZM247.188 126.82V144.96H248.948V126.82H247.188ZM234.768 138.84V133.66H238.828V138.84H234.768ZM251.743 141.02V142.62H269.263V141.02H251.743ZM259.603 127.6V130.4C259.603 133 255.603 134.94 252.923 135.98L253.723 137.5C256.463 136.56 259.423 134.66 260.503 133.04C261.583 134.66 264.543 136.56 267.283 137.5L268.083 135.98C265.403 134.94 261.403 133 261.403 130.4V127.6H259.603ZM271.137 141.02V142.62H288.657V141.02H271.137ZM285.797 131.94H275.297V129.28H286.297V127.68H273.497V138.04H286.597V136.44H275.297V133.54H285.797V131.94Z" fill="white"/>
<path d="M426.328 145.46C430.308 145.46 432.648 143.82 432.648 141.4C432.648 138.98 430.308 137.34 426.328 137.34C422.348 137.34 420.008 138.98 420.008 141.4C420.008 143.72 422.348 145.46 426.328 145.46ZM426.328 138.94C429.068 138.94 430.848 139.88 430.848 141.4C430.848 142.92 429.068 143.86 426.328 143.86C423.588 143.86 421.808 142.92 421.808 141.4C421.808 139.88 423.588 138.94 426.328 138.94ZM430.568 126.82V137.08H432.368V132.5H435.208V130.9H432.368V126.82H430.568ZM427.088 127.5H418.588V129.1H425.288V130.24C425.288 132.6 421.068 134.62 417.908 135.94L418.628 137.48C422.208 136 427.088 133.9 427.088 130.24V127.5ZM447.283 134.02C447.283 129.74 445.303 127.42 442.123 127.42C438.943 127.42 436.963 129.74 436.963 134.02C436.963 138.3 438.943 140.62 442.123 140.62C445.303 140.62 447.283 138.3 447.283 134.02ZM445.483 134.02C445.483 137.22 444.283 139.02 442.123 139.02C439.963 139.02 438.763 137.22 438.763 134.02C438.763 130.82 439.963 129.02 442.123 129.02C444.283 129.02 445.483 130.82 445.483 134.02ZM449.743 126.82V144.96H451.543V134.52H454.603V132.92H451.543V126.82H449.743ZM467.197 127.72H456.857V129.32H461.297V132.16C461.297 135.34 458.777 137.9 456.157 139.98L457.317 141.24C459.117 139.86 461.517 137.42 462.277 135.54C462.977 137.12 465.157 139.6 466.957 140.94L468.037 139.68C465.657 137.78 463.097 135.3 463.097 132.16V129.32H467.197V127.72ZM470.197 126.82V144.96H471.997V126.82H470.197Z" fill="white"/>
<path d="M417.871 220.6H409.491V222.2H416.071V223.44C416.071 226.12 411.031 228.44 408.831 229.48L409.631 231C411.651 230.12 414.571 228.76 416.331 226.88H421.911V232.68H423.711V219.82H421.911V225.28H417.451C417.711 224.72 417.871 224.12 417.871 223.46V220.6ZM411.211 237.86H424.251V236.26H413.011V231.52H411.211V237.86ZM441.305 219.82V230.02H443.105V219.82H441.305ZM443.105 238.06V230.92H430.505V232.52H441.305V238.06H443.105ZM432.585 220.16V222.52C432.585 224.66 430.245 226.68 427.965 228.34L429.085 229.6C430.885 228.34 432.725 226.62 433.505 225.18C434.385 226.52 436.145 228.16 437.945 229.36L439.005 228.1C436.965 226.72 434.385 224.64 434.385 222.52V220.16H432.585ZM451.48 220.52V224.9C451.48 228.64 449.24 230.9 446.76 232.92L447.92 234.18C449.72 232.76 451.68 230.7 452.38 228.62C453.08 230.4 455.04 232.5 456.84 233.88L458 232.62C455.76 230.78 453.28 228.62 453.28 224.9V220.52H451.48ZM459.74 219.82V237.96H461.54V227.72H464.8V226.12H461.54V219.82H459.74ZM468.695 230.84H471.095V234.02H466.335V235.62H483.855V234.02H479.095V230.84H481.795V229.24H470.495V226.44H481.495V220.68H468.695V222.28H479.695V224.84H468.695V230.84ZM472.895 230.84H477.295V234.02H472.895V230.84Z" fill="white"/>
<path d="M421.511 323.92V325.88H412.311V323.92H410.511V330.96H423.311V323.92H421.511ZM416.911 316.5C417.931 317.52 420.791 318.76 423.611 319.76L424.291 318.2C421.311 317.12 417.811 315.9 417.811 314.22V312.86H416.011V314.22C416.011 315.9 412.511 317.12 409.531 318.2L410.211 319.76C413.031 318.76 415.891 317.52 416.911 316.5ZM408.151 320.88V322.48H425.671V320.88H408.151ZM412.311 329.36V327.48H421.511V329.36H412.311ZM441.305 312.82V323.02H443.105V312.82H441.305ZM443.105 331.06V323.92H430.505V325.52H441.305V331.06H443.105ZM432.585 313.16V315.52C432.585 317.66 430.245 319.68 427.965 321.34L429.085 322.6C430.885 321.34 432.725 319.62 433.505 318.18C434.385 319.52 436.145 321.16 437.945 322.36L439.005 321.1C436.965 319.72 434.385 317.64 434.385 315.52V313.16H432.585ZM451.48 313.52V317.9C451.48 321.64 449.24 323.9 446.76 325.92L447.92 327.18C449.72 325.76 451.68 323.7 452.38 321.62C453.08 323.4 455.04 325.5 456.84 326.88L458 325.62C455.76 323.78 453.28 321.62 453.28 317.9V313.52H451.48ZM459.74 312.82V330.96H461.54V320.72H464.8V319.12H461.54V312.82H459.74ZM468.695 323.84H471.095V327.02H466.335V328.62H483.855V327.02H479.095V323.84H481.795V322.24H470.495V319.44H481.495V313.68H468.695V315.28H479.695V317.84H468.695V323.84ZM472.895 323.84H477.295V327.02H472.895V323.84Z" fill="white"/>
<path d="M428.045 420.02V421.62H445.565V420.02H428.045ZM435.905 406.6V409.4C435.905 412 431.905 413.94 429.225 414.98L430.025 416.5C432.765 415.56 435.725 413.66 436.805 412.04C437.885 413.66 440.845 415.56 443.585 416.5L444.385 414.98C441.705 413.94 437.705 412 437.705 409.4V406.6H435.905ZM457.5 405.92V416.02H459.2V410.98H461.8V416.02H463.54V405.82H461.8V409.38H459.2V405.92H457.5ZM463.54 424.06V416.92H450.7V418.52H461.74V424.06H463.54ZM448.56 406.26V414.52H451.8C453.58 414.52 454.9 414.42 456.44 414.2L456.28 412.66C454.68 412.88 453.68 412.92 451.98 412.92H450.36V406.26H448.56Z" fill="white"/>
<path d="M602.871 220.6H594.491V222.2H601.071V223.44C601.071 226.12 596.031 228.44 593.831 229.48L594.631 231C596.651 230.12 599.571 228.76 601.331 226.88H606.911V232.68H608.711V219.82H606.911V225.28H602.451C602.711 224.72 602.871 224.12 602.871 223.46V220.6ZM596.211 237.86H609.251V236.26H598.011V231.52H596.211V237.86ZM626.305 219.82V230.02H628.105V219.82H626.305ZM628.105 238.06V230.92H615.505V232.52H626.305V238.06H628.105ZM617.585 220.16V222.52C617.585 224.66 615.245 226.68 612.965 228.34L614.085 229.6C615.885 228.34 617.725 226.62 618.505 225.18C619.385 226.52 621.145 228.16 622.945 229.36L624.005 228.1C621.965 226.72 619.385 224.64 619.385 222.52V220.16H617.585ZM636.48 220.52V224.9C636.48 228.64 634.24 230.9 631.76 232.92L632.92 234.18C634.72 232.76 636.68 230.7 637.38 228.62C638.08 230.4 640.04 232.5 641.84 233.88L643 232.62C640.76 230.78 638.28 228.62 638.28 224.9V220.52H636.48ZM644.74 219.82V237.96H646.54V227.72H649.8V226.12H646.54V219.82H644.74ZM653.695 230.84H656.095V234.02H651.335V235.62H668.855V234.02H664.095V230.84H666.795V229.24H655.495V226.44H666.495V220.68H653.695V222.28H664.695V224.84H653.695V230.84ZM657.895 230.84H662.295V234.02H657.895V230.84Z" fill="white"/>
<path d="M606.511 323.92V325.88H597.311V323.92H595.511V330.96H608.311V323.92H606.511ZM601.911 316.5C602.931 317.52 605.791 318.76 608.611 319.76L609.291 318.2C606.311 317.12 602.811 315.9 602.811 314.22V312.86H601.011V314.22C601.011 315.9 597.511 317.12 594.531 318.2L595.211 319.76C598.031 318.76 600.891 317.52 601.911 316.5ZM593.151 320.88V322.48H610.671V320.88H593.151ZM597.311 329.36V327.48H606.511V329.36H597.311ZM626.305 312.82V323.02H628.105V312.82H626.305ZM628.105 331.06V323.92H615.505V325.52H626.305V331.06H628.105ZM617.585 313.16V315.52C617.585 317.66 615.245 319.68 612.965 321.34L614.085 322.6C615.885 321.34 617.725 319.62 618.505 318.18C619.385 319.52 621.145 321.16 622.945 322.36L624.005 321.1C621.965 319.72 619.385 317.64 619.385 315.52V313.16H617.585ZM636.48 313.52V317.9C636.48 321.64 634.24 323.9 631.76 325.92L632.92 327.18C634.72 325.76 636.68 323.7 637.38 321.62C638.08 323.4 640.04 325.5 641.84 326.88L643 325.62C640.76 323.78 638.28 321.62 638.28 317.9V313.52H636.48ZM644.74 312.82V330.96H646.54V320.72H649.8V319.12H646.54V312.82H644.74ZM653.695 323.84H656.095V327.02H651.335V328.62H668.855V327.02H664.095V323.84H666.795V322.24H655.495V319.44H666.495V313.68H653.695V315.28H664.695V317.84H653.695V323.84ZM657.895 323.84H662.295V327.02H657.895V323.84Z" fill="white"/>
<path d="M602.348 141.02V142.62H619.868V141.02H610.688V134.08H608.888V141.02H602.348ZM604.608 129.4H615.808V131.06C615.808 133.28 615.688 135.44 615.408 137.72L617.148 137.9C617.408 135.5 617.608 133.18 617.608 130.72V127.8H604.608V129.4ZM630.723 145.46C634.703 145.46 637.043 143.82 637.043 141.4C637.043 138.98 634.703 137.34 630.723 137.34C626.743 137.34 624.403 138.98 624.403 141.4C624.403 143.72 626.743 145.46 630.723 145.46ZM622.383 131.62C622.383 134.22 624.283 136.08 627.163 136.08C630.043 136.08 631.943 134.22 631.943 131.62C631.943 129.02 630.043 127.16 627.163 127.16C624.283 127.16 622.383 129.02 622.383 131.62ZM630.723 138.94C633.463 138.94 635.243 139.88 635.243 141.4C635.243 142.92 633.463 143.86 630.723 143.86C627.983 143.86 626.203 142.92 626.203 141.4C626.203 139.88 627.983 138.94 630.723 138.94ZM624.143 131.62C624.143 129.88 625.423 128.76 627.163 128.76C628.903 128.76 630.183 129.88 630.183 131.62C630.183 133.36 628.903 134.48 627.163 134.48C625.423 134.48 624.143 133.36 624.143 131.62ZM634.963 126.82V137.08H636.763V134.4H639.603V132.8H636.763V130.4H639.603V128.8H636.763V126.82H634.963ZM655.297 126.82V144.96H657.097V126.82H655.297ZM650.477 134.02C650.477 137.22 649.237 139.02 647.077 139.02C644.917 139.02 643.677 137.22 643.677 134.02C643.677 130.82 644.917 129.02 647.077 129.02C649.237 129.02 650.477 130.82 650.477 134.02ZM652.277 134.02C652.277 129.74 650.257 127.42 647.077 127.42C643.897 127.42 641.877 129.74 641.877 134.02C641.877 138.3 643.897 140.62 647.077 140.62C650.257 140.62 652.277 138.3 652.277 134.02Z" fill="white"/>
<path d="M801.508 126.82V144.96H803.308V126.82H801.508ZM796.688 134.02C796.688 137.22 795.448 139.02 793.288 139.02C791.128 139.02 789.888 137.22 789.888 134.02C789.888 130.82 791.128 129.02 793.288 129.02C795.448 129.02 796.688 130.82 796.688 134.02ZM798.488 134.02C798.488 129.74 796.468 127.42 793.288 127.42C790.108 127.42 788.088 129.74 788.088 134.02C788.088 138.3 790.108 140.62 793.288 140.62C796.468 140.62 798.488 138.3 798.488 134.02ZM813.303 127.36V130.46H809.423V127.36H807.663V136.72H815.063V132.68H817.623V138.54H819.323V126.92H817.623V131.08H815.063V127.36H813.303ZM810.203 144.86H823.483V143.26H812.003V138.64H810.203V144.86ZM821.203 126.82V139.54H822.943V126.82H821.203ZM809.423 135.16V132.02H813.303V135.16H809.423ZM826.137 141.02V142.62H843.657V141.02H826.137ZM840.797 131.94H830.297V129.28H841.297V127.68H828.497V138.04H841.597V136.44H830.297V133.54H840.797V131.94Z" fill="white"/>
<path d="M956.616 127.6V130.62H947.416V127.6H945.616V137.14H958.416V127.6H956.616ZM947.416 135.54V132.22H956.616V135.54H947.416ZM943.256 141.02V142.62H960.776V141.02H943.256ZM973.011 126.92V138.82H974.711V133.28H977.111V139.82H978.851V126.82H977.111V131.68H974.711V126.92H973.011ZM967.111 137.54C969.291 137.54 970.631 137.44 972.191 137.22L972.031 135.68C970.431 135.9 969.171 135.98 967.271 135.98H965.331V133.18H970.871V127.56H963.571V129.12H969.111V131.66H963.571V137.54H967.111ZM966.111 144.86H979.391V143.26H967.911V139.12H966.111V144.86ZM984.405 136.94H997.405V135.34H986.205V129.4H997.205V127.8H984.405V136.94ZM982.045 141.02V142.62H999.565V141.02H982.045ZM1001.44 141.02V142.62H1018.96V141.02H1001.44ZM1009.3 127.6V130.4C1009.3 133 1005.3 134.94 1002.62 135.98L1003.42 137.5C1006.16 136.56 1009.12 134.66 1010.2 133.04C1011.28 134.66 1014.24 136.56 1016.98 137.5L1017.78 135.98C1015.1 134.94 1011.1 133 1011.1 130.4V127.6H1009.3ZM1035.49 131.88H1024.99V129.28H1035.99V127.68H1023.19V137.92H1028.69V141.02H1020.83V142.62H1038.35V141.02H1030.49V137.92H1036.29V136.32H1024.99V133.48H1035.49V131.88ZM1046.81 140.82C1048.79 140.82 1050.59 140.78 1052.61 140.52L1052.45 138.98C1050.65 139.2 1048.99 139.22 1047.09 139.22H1043.43V134.9H1050.49V127.64H1041.63V129.24H1048.69V133.3H1041.63V140.82H1046.81ZM1054.19 126.82V144.96H1055.99V126.82H1054.19Z" fill="white"/>
<path d="M1173.63 140.82C1175.61 140.82 1177.41 140.78 1179.43 140.52L1179.27 138.98C1177.47 139.2 1175.81 139.22 1173.91 139.22H1170.25V134.9H1177.31V127.64H1168.45V129.24H1175.51V133.3H1168.45V140.82H1173.63ZM1181.01 126.82V144.96H1182.81V126.82H1181.01ZM1199.8 127.2V129.62H1190.6V127.2H1188.8V135.38H1201.6V127.2H1199.8ZM1186.44 137.42V139.02H1190.78V144.96H1192.58V139.02H1197.82V144.96H1199.62V139.02H1203.96V137.42H1186.44ZM1190.6 133.78V131.22H1199.8V133.78H1190.6Z" fill="white"/>
<path d="M1332.15 141.02V142.62H1349.67V141.02H1340.49V134.08H1338.69V141.02H1332.15ZM1334.41 129.4H1345.61V131.06C1345.61 133.28 1345.49 135.44 1345.21 137.72L1346.95 137.9C1347.21 135.5 1347.41 133.18 1347.41 130.72V127.8H1334.41V129.4ZM1361.71 126.92V137.02H1363.41V132.38H1366.01V137.02H1367.75V126.82H1366.01V130.78H1363.41V126.92H1361.71ZM1367.75 145.06V137.92H1354.91V139.52H1365.95V145.06H1367.75ZM1359.57 127.5H1352.67V129.06H1357.81V130.4C1357.81 132.38 1355.39 134.24 1352.09 135.76L1352.91 137.28C1356.33 135.78 1359.57 133.48 1359.57 130.5V127.5ZM1374.3 144.86H1387.58V143.26H1376.1V138.52H1374.3V144.86ZM1374.82 127.26V130.6C1374.82 132.64 1372.84 134.56 1370.96 136.12L1372.14 137.32C1373.54 136.22 1375.1 134.46 1375.72 133.22C1376.52 134.52 1377.88 136.08 1379.28 137.08L1380.4 135.88C1378.72 134.66 1376.58 132.66 1376.58 130.6V127.26H1374.82ZM1378.66 132.02H1381.72V138.42H1383.42V126.92H1381.72V130.42H1378.66V132.02ZM1385.3 126.82V139.42H1387.04V126.82H1385.3ZM1399.79 133.3H1393.33V129.24H1400.51V127.64H1391.53V140.82H1395.91C1397.89 140.82 1399.69 140.78 1401.71 140.52L1401.55 138.98C1399.75 139.2 1398.09 139.22 1396.19 139.22H1393.33V134.9H1399.79V133.3ZM1400.79 134.92H1404.29V144.96H1406.09V126.82H1404.29V133.32H1400.79V134.92Z" fill="white"/>
<path d="M1332.67 309.74V311.34H1338.39C1340.99 311.34 1343.63 311.08 1345.43 310.66L1345.15 309.14C1343.57 309.5 1341.53 309.72 1339.57 309.74V307.48C1341.97 307.2 1343.57 305.82 1343.57 303.86C1343.57 301.66 1341.57 300.2 1338.67 300.2C1335.77 300.2 1333.77 301.66 1333.77 303.86C1333.77 305.82 1335.37 307.2 1337.77 307.48V309.74H1332.67ZM1346.71 295.82V313.96H1348.51V295.82H1346.71ZM1337.79 295.46V297.8H1332.87V299.36H1344.47V297.8H1339.55V295.46H1337.79ZM1338.67 305.96C1336.67 305.96 1335.57 305.14 1335.57 303.86C1335.57 302.58 1336.67 301.76 1338.67 301.76C1340.67 301.76 1341.77 302.58 1341.77 303.86C1341.77 305.14 1340.67 305.96 1338.67 305.96ZM1358.11 302.84C1361.59 302.84 1363.11 301.3 1363.11 299.3C1363.11 297.3 1361.59 295.76 1358.11 295.76C1354.63 295.76 1353.11 297.3 1353.11 299.3C1353.11 301.28 1354.63 302.84 1358.11 302.84ZM1361.37 308.44H1365.71V309.68H1367.51V295.82H1365.71V306.84H1361.37V308.44ZM1354.77 309.02V313.86H1367.81V312.26H1356.57V309.02H1354.77ZM1351.97 305.54H1356.95V308.58H1358.75V305.52C1360.81 305.46 1362.77 305.26 1364.29 304.94L1364.05 303.42C1362.29 303.76 1360.05 303.94 1357.95 303.94H1351.97V305.54ZM1358.11 297.34C1360.23 297.34 1361.31 298.12 1361.31 299.3C1361.31 300.48 1360.23 301.26 1358.11 301.26C1355.99 301.26 1354.91 300.48 1354.91 299.3C1354.91 298.12 1355.99 297.34 1358.11 297.34ZM1380.34 296.72H1371.78V298.32H1378.5V300.52C1378.5 303.22 1376.02 305.94 1371.5 308.78L1372.58 310.24C1377.24 307.2 1380.34 304.1 1380.34 300.64V296.72ZM1383.74 295.82V313.96H1385.54V304.06H1388.8V302.46H1385.54V295.82H1383.74ZM1404.19 306.32V308.58H1395.29V306.32H1393.49V313.96H1405.99V306.32H1404.19ZM1391.37 300.54C1391.37 303.14 1393.27 304.92 1396.15 304.92C1399.03 304.92 1400.93 303.14 1400.93 300.54C1400.93 297.94 1399.03 296.16 1396.15 296.16C1393.27 296.16 1391.37 297.94 1391.37 300.54ZM1393.13 300.54C1393.13 298.8 1394.41 297.76 1396.15 297.76C1397.89 297.76 1399.17 298.8 1399.17 300.54C1399.17 302.28 1397.89 303.32 1396.15 303.32C1394.41 303.32 1393.13 302.28 1393.13 300.54ZM1395.29 312.36V310.18H1404.19V312.36H1395.29ZM1404.19 295.82V305.42H1405.99V295.82H1404.19Z" fill="#898989"/>
<path d="M1159.71 306.92H1165.21V310.02H1157.35V311.62H1174.87V310.02H1167.01V306.92H1172.81V305.32H1161.51V302.48H1172.51V296.68H1159.71V298.28H1170.71V300.88H1159.71V306.92ZM1178.8 298.4H1190V300.16C1190 302.38 1189.86 304.76 1189.48 307.14L1191.22 307.3C1191.58 304.86 1191.8 302.28 1191.8 299.82V296.8H1178.8V298.4ZM1176.74 310.02V311.62H1194.26V310.02H1176.74ZM1210 295.82V308.68H1211.8V295.82H1210ZM1199.4 313.86H1212.44V312.26H1201.2V307.52H1199.4V313.86ZM1198.94 301.12C1198.94 299.08 1200.22 297.86 1201.96 297.86C1203.7 297.86 1204.98 299.08 1204.98 301.12C1204.98 303.16 1203.7 304.38 1201.96 304.38C1200.22 304.38 1198.94 303.16 1198.94 301.12ZM1197.18 301.12C1197.18 304 1199.08 305.98 1201.96 305.98C1204.84 305.98 1206.74 304 1206.74 301.12C1206.74 298.24 1204.84 296.26 1201.96 296.26C1199.08 296.26 1197.18 298.24 1197.18 301.12Z" fill="#898989"/>
<path d="M1144.33 406C1141.31 406 1139.15 407.72 1139.15 410.26C1139.15 412.8 1141.31 414.52 1144.33 414.52C1147.35 414.52 1149.51 412.8 1149.51 410.26C1149.51 407.72 1147.35 406 1144.33 406ZM1152.31 405.82V423.96H1154.11V405.82H1152.31ZM1145.07 423.66V417.68C1147.31 417.62 1149.47 417.36 1151.03 417L1150.75 415.48C1149.05 415.86 1146.77 416.08 1144.67 416.08H1138.27V417.68H1143.27V423.66H1145.07ZM1144.33 412.88C1142.25 412.88 1140.95 411.94 1140.95 410.26C1140.95 408.58 1142.25 407.64 1144.33 407.64C1146.41 407.64 1147.71 408.58 1147.71 410.26C1147.71 411.94 1146.41 412.88 1144.33 412.88ZM1171.21 405.82V423.96H1173.01V405.82H1171.21ZM1162.29 406.52V410.9C1162.29 414.64 1160.05 416.9 1157.57 418.92L1158.73 420.18C1160.53 418.76 1162.49 416.7 1163.19 414.62C1163.89 416.4 1165.85 418.5 1167.65 419.88L1168.81 418.62C1166.57 416.78 1164.09 414.62 1164.09 410.9V406.52H1162.29ZM1183.32 419.82C1185.3 419.82 1187.1 419.78 1189.12 419.52L1188.96 417.98C1187.16 418.2 1185.5 418.22 1183.6 418.22H1179.94V413.9H1187V406.64H1178.14V408.24H1185.2V412.3H1178.14V419.82H1183.32ZM1190.7 405.82V423.96H1192.5V405.82H1190.7ZM1196.14 420.02V421.62H1213.66V420.02H1196.14ZM1204 406.6V409.4C1204 412 1200 413.94 1197.32 414.98L1198.12 416.5C1200.86 415.56 1203.82 413.66 1204.9 412.04C1205.98 413.66 1208.94 415.56 1211.68 416.5L1212.48 414.98C1209.8 413.94 1205.8 412 1205.8 409.4V406.6H1204ZM1215.53 420.02V421.62H1233.05V420.02H1215.53ZM1230.19 410.94H1219.69V408.28H1230.69V406.68H1217.89V417.04H1230.99V415.44H1219.69V412.54H1230.19V410.94Z" fill="#898989"/>
<path d="M1341.13 424.46C1345.11 424.46 1347.45 422.82 1347.45 420.4C1347.45 417.98 1345.11 416.34 1341.13 416.34C1337.15 416.34 1334.81 417.98 1334.81 420.4C1334.81 422.72 1337.15 424.46 1341.13 424.46ZM1342.83 406.46H1332.95V408.06H1336.99V409.32C1336.99 411.36 1334.59 413.02 1332.31 414.56L1333.33 415.88C1335.13 414.74 1337.13 413.14 1337.91 411.7C1338.79 413.08 1340.71 414.46 1342.51 415.54L1343.47 414.22C1341.43 412.94 1338.79 411.34 1338.79 409.32V408.06H1342.83V406.46ZM1341.13 417.94C1343.87 417.94 1345.65 418.88 1345.65 420.4C1345.65 421.92 1343.87 422.86 1341.13 422.86C1338.39 422.86 1336.61 421.92 1336.61 420.4C1336.61 418.88 1338.39 417.94 1341.13 417.94ZM1345.37 405.82V416.08H1347.17V411.3H1350.01V409.7H1347.17V405.82H1345.37ZM1359.73 406.54V411.06H1354.07V406.54H1352.27V419.44H1361.53V406.54H1359.73ZM1364.55 405.82V423.96H1366.35V413.52H1369.41V411.92H1366.35V405.82H1364.55ZM1354.07 417.84V412.66H1359.73V417.84H1354.07ZM1373 408.1H1384.08V409.06C1384.08 410.58 1383.98 412.92 1383.7 414.92H1370.94V416.52H1378.6V423.96H1380.4V416.52H1388.46V414.92H1385.44C1385.76 412.84 1385.88 410.66 1385.88 408.72V406.5H1373V408.1ZM1404.09 405.82V423.96H1405.89V405.82H1404.09ZM1391.67 406.52V419.04H1396.03C1398.01 419.04 1400.23 418.88 1402.17 418.64L1402.01 417.1C1400.21 417.32 1398.21 417.44 1396.31 417.44H1393.47V406.52H1391.67Z" fill="#898989"/>
<path d="M953.674 419.34H962.934V406.72H953.674V419.34ZM955.474 408.32H961.134V417.74H955.474V408.32ZM965.954 405.82V423.96H967.754V413.52H970.814V411.92H967.754V405.82H965.954ZM986.508 405.82V423.96H988.308V405.82H986.508ZM981.688 413.02C981.688 416.22 980.448 418.02 978.288 418.02C976.128 418.02 974.888 416.22 974.888 413.02C974.888 409.82 976.128 408.02 978.288 408.02C980.448 408.02 981.688 409.82 981.688 413.02ZM983.488 413.02C983.488 408.74 981.468 406.42 978.288 406.42C975.108 406.42 973.088 408.74 973.088 413.02C973.088 417.3 975.108 419.62 978.288 419.62C981.468 419.62 983.488 417.3 983.488 413.02ZM991.663 419.44H996.663C998.703 419.44 1000.24 419.34 1001.84 419.1L1001.68 417.56C1001 417.64 1000.28 417.72 999.563 417.76V409.32H997.783V417.84H995.283V409.32H993.503V417.84H991.663V419.44ZM1000.68 413.66H1003.2V423.56H1004.96V405.92H1003.2V412.06H1000.68V413.66ZM1006.78 405.82V423.96H1008.54V405.82H1006.78ZM1001.34 406.72H991.863V408.32H1001.34V406.72ZM1025.3 405.82V423.96H1027.1V405.82H1025.3ZM1020.48 413.02C1020.48 416.22 1019.24 418.02 1017.08 418.02C1014.92 418.02 1013.68 416.22 1013.68 413.02C1013.68 409.82 1014.92 408.02 1017.08 408.02C1019.24 408.02 1020.48 409.82 1020.48 413.02ZM1022.28 413.02C1022.28 408.74 1020.26 406.42 1017.08 406.42C1013.9 406.42 1011.88 408.74 1011.88 413.02C1011.88 417.3 1013.9 419.62 1017.08 419.62C1020.26 419.62 1022.28 417.3 1022.28 413.02ZM1041.59 406.72H1031.25V408.32H1035.69V411.16C1035.69 414.34 1033.17 416.9 1030.55 418.98L1031.71 420.24C1033.51 418.86 1035.91 416.42 1036.67 414.54C1037.37 416.12 1039.55 418.6 1041.35 419.94L1042.43 418.68C1040.05 416.78 1037.49 414.3 1037.49 411.16V408.32H1041.59V406.72ZM1044.59 405.82V423.96H1046.39V405.82H1044.59Z" fill="#898989"/>
</svg>
